<?xml version="1.0" encoding="UTF-8" standalone="no"?>
<!DOCTYPE svg PUBLIC "-//W3C//DTD SVG 1.1//EN"
 "http://www.w3.org/Graphics/SVG/1.1/DTD/svg11.dtd">
<!-- Generated by graphviz version 2.43.0 (0)
 -->
<!-- Title: %3 Pages: 1 -->
<svg width="2233pt" height="188pt"
 viewBox="0.00 0.00 2233.00 188.00" xmlns="http://www.w3.org/2000/svg" xmlns:xlink="http://www.w3.org/1999/xlink">
<g id="graph0" class="graph" transform="scale(1 1) rotate(0) translate(4 184)">
<title>%3</title>
<polygon fill="transparent" stroke="transparent" points="-4,4 -4,-184 2229,-184 2229,4 -4,4"/>
<!-- 19 -->
<g id="node1" class="node">
<title>19</title>
<g id="a_node1"><a xlink:title="src/o3ds/request.h">
<polygon fill="#ffffff" stroke="black" points="174.5,-108 25.5,-108 25.5,-72 174.5,-72 174.5,-108"/>
<text text-anchor="middle" x="100" y="-86.3" font-family="Times,serif" font-size="14.00">src/o3ds/request.h</text>
</a>
</g>
</g>
<!-- 20 -->
<g id="node11" class="node">
<title>20</title>
<g id="a_node11"><a xlink:title="src/o3ds/request.cpp">
<polygon fill="#ffffff" stroke="black" points="166,-36 0,-36 0,0 166,0 166,-36"/>
<text text-anchor="middle" x="83" y="-14.3" font-family="Times,serif" font-size="14.00">src/o3ds/request.cpp</text>
</a>
</g>
</g>
<!-- 19&#45;&gt;20 -->
<g id="edge1" class="edge">
<title>19&#45;&gt;20</title>
<g id="a_edge1"><a xlink:title="include">
<path fill="none" stroke="#1414ce" d="M93.43,-61.95C91.32,-53.26 89.04,-43.88 87.15,-36.1"/>
<polygon fill="#1414ce" stroke="#1414ce" points="90.04,-62.81 95.8,-71.7 96.84,-61.15 90.04,-62.81"/>
</a>
</g>
</g>
<!-- 8 -->
<g id="node2" class="node">
<title>8</title>
<g id="a_node2"><a xlink:title="src/o3ds/async_request.h">
<polygon fill="#ffffff" stroke="black" points="397.5,-108 200.5,-108 200.5,-72 397.5,-72 397.5,-108"/>
<text text-anchor="middle" x="299" y="-86.3" font-family="Times,serif" font-size="14.00">src/o3ds/async_request.h</text>
</a>
</g>
</g>
<!-- 9 -->
<g id="node9" class="node">
<title>9</title>
<g id="a_node9"><a xlink:title="src/o3ds/async_request.cpp">
<polygon fill="#ffffff" stroke="black" points="397.5,-36 184.5,-36 184.5,0 397.5,0 397.5,-36"/>
<text text-anchor="middle" x="291" y="-14.3" font-family="Times,serif" font-size="14.00">src/o3ds/async_request.cpp</text>
</a>
</g>
</g>
<!-- 8&#45;&gt;9 -->
<g id="edge2" class="edge">
<title>8&#45;&gt;9</title>
<g id="a_edge2"><a xlink:title="include">
<path fill="none" stroke="#1414ce" d="M295.88,-61.67C294.89,-53.05 293.83,-43.79 292.95,-36.1"/>
<polygon fill="#1414ce" stroke="#1414ce" points="292.41,-62.16 297.02,-71.7 299.36,-61.36 292.41,-62.16"/>
</a>
</g>
</g>
<!-- 13 -->
<g id="node3" class="node">
<title>13</title>
<g id="a_node3"><a xlink:title="src/o3ds/pair.h">
<polygon fill="#ffffff" stroke="black" points="554,-108 432,-108 432,-72 554,-72 554,-108"/>
<text text-anchor="middle" x="493" y="-86.3" font-family="Times,serif" font-size="14.00">src/o3ds/pair.h</text>
</a>
</g>
</g>
<!-- 14 -->
<g id="node5" class="node">
<title>14</title>
<g id="a_node5"><a xlink:title="src/o3ds/pair.cpp">
<polygon fill="#ffffff" stroke="black" points="554,-36 416,-36 416,0 554,0 554,-36"/>
<text text-anchor="middle" x="485" y="-14.3" font-family="Times,serif" font-size="14.00">src/o3ds/pair.cpp</text>
</a>
</g>
</g>
<!-- 13&#45;&gt;14 -->
<g id="edge3" class="edge">
<title>13&#45;&gt;14</title>
<g id="a_edge3"><a xlink:title="include">
<path fill="none" stroke="#1414ce" d="M489.88,-61.67C488.89,-53.05 487.83,-43.79 486.95,-36.1"/>
<polygon fill="#1414ce" stroke="#1414ce" points="486.41,-62.16 491.02,-71.7 493.36,-61.36 486.41,-62.16"/>
</a>
</g>
</g>
<!-- 2 -->
<g id="node4" class="node">
<title>2</title>
<g id="a_node4"><a xlink:title="src/o3ds/async_pair.h">
<polygon fill="#ffffff" stroke="black" points="757.5,-108 588.5,-108 588.5,-72 757.5,-72 757.5,-108"/>
<text text-anchor="middle" x="673" y="-86.3" font-family="Times,serif" font-size="14.00">src/o3ds/async_pair.h</text>
</a>
</g>
</g>
<!-- 3 -->
<g id="node19" class="node">
<title>3</title>
<g id="a_node19"><a xlink:title="src/o3ds/async_pair.cpp">
<polygon fill="#ffffff" stroke="black" points="757.5,-36 572.5,-36 572.5,0 757.5,0 757.5,-36"/>
<text text-anchor="middle" x="665" y="-14.3" font-family="Times,serif" font-size="14.00">src/o3ds/async_pair.cpp</text>
</a>
</g>
</g>
<!-- 2&#45;&gt;3 -->
<g id="edge4" class="edge">
<title>2&#45;&gt;3</title>
<g id="a_edge4"><a xlink:title="include">
<path fill="none" stroke="#1414ce" d="M669.88,-61.67C668.89,-53.05 667.83,-43.79 666.95,-36.1"/>
<polygon fill="#1414ce" stroke="#1414ce" points="666.41,-62.16 671.02,-71.7 673.36,-61.36 666.41,-62.16"/>
</a>
</g>
</g>
<!-- 7 -->
<g id="node6" class="node">
<title>7</title>
<g id="a_node6"><a xlink:title="src/o3ds/async_publisher.cpp">
<polygon fill="#ffffff" stroke="black" points="1648,-36 1424,-36 1424,0 1648,0 1648,-36"/>
<text text-anchor="middle" x="1536" y="-14.3" font-family="Times,serif" font-size="14.00">src/o3ds/async_publisher.cpp</text>
</a>
</g>
</g>
<!-- 10 -->
<g id="node7" class="node">
<title>10</title>
<g id="a_node7"><a xlink:title="src/o3ds/async_subscriber.h">
<polygon fill="#ffffff" stroke="black" points="1004,-108 788,-108 788,-72 1004,-72 1004,-108"/>
<text text-anchor="middle" x="896" y="-86.3" font-family="Times,serif" font-size="14.00">src/o3ds/async_subscriber.h</text>
</a>
</g>
</g>
<!-- 11 -->
<g id="node16" class="node">
<title>11</title>
<g id="a_node16"><a xlink:title="src/o3ds/async_subscriber.cpp">
<polygon fill="#ffffff" stroke="black" points="1008.5,-36 775.5,-36 775.5,0 1008.5,0 1008.5,-36"/>
<text text-anchor="middle" x="892" y="-14.3" font-family="Times,serif" font-size="14.00">src/o3ds/async_subscriber.cpp</text>
</a>
</g>
</g>
<!-- 10&#45;&gt;11 -->
<g id="edge5" class="edge">
<title>10&#45;&gt;11</title>
<g id="a_edge5"><a xlink:title="include">
<path fill="none" stroke="#1414ce" d="M894.44,-61.67C893.95,-53.05 893.42,-43.79 892.98,-36.1"/>
<polygon fill="#1414ce" stroke="#1414ce" points="890.95,-61.91 895.01,-71.7 897.93,-61.51 890.95,-61.91"/>
</a>
</g>
</g>
<!-- 5 -->
<g id="node8" class="node">
<title>5</title>
<g id="a_node8"><a xlink:title="src/o3ds/async_pipeline.cpp">
<polygon fill="#ffffff" stroke="black" points="2067.5,-36 1852.5,-36 1852.5,0 2067.5,0 2067.5,-36"/>
<text text-anchor="middle" x="1960" y="-14.3" font-family="Times,serif" font-size="14.00">src/o3ds/async_pipeline.cpp</text>
</a>
</g>
</g>
<!-- 21 -->
<g id="node10" class="node">
<title>21</title>
<g id="a_node10"><a xlink:title="src/o3ds/subscriber.h">
<polygon fill="#ffffff" stroke="black" points="1199.5,-108 1030.5,-108 1030.5,-72 1199.5,-72 1199.5,-108"/>
<text text-anchor="middle" x="1115" y="-86.3" font-family="Times,serif" font-size="14.00">src/o3ds/subscriber.h</text>
</a>
</g>
</g>
<!-- 22 -->
<g id="node22" class="node">
<title>22</title>
<g id="a_node22"><a xlink:title="src/o3ds/subscriber.cpp">
<polygon fill="#ffffff" stroke="black" points="1211.5,-36 1026.5,-36 1026.5,0 1211.5,0 1211.5,-36"/>
<text text-anchor="middle" x="1119" y="-14.3" font-family="Times,serif" font-size="14.00">src/o3ds/subscriber.cpp</text>
</a>
</g>
</g>
<!-- 21&#45;&gt;22 -->
<g id="edge6" class="edge">
<title>21&#45;&gt;22</title>
<g id="a_edge6"><a xlink:title="include">
<path fill="none" stroke="#1414ce" d="M1116.56,-61.67C1117.05,-53.05 1117.58,-43.79 1118.02,-36.1"/>
<polygon fill="#1414ce" stroke="#1414ce" points="1113.07,-61.51 1115.99,-71.7 1120.05,-61.91 1113.07,-61.51"/>
</a>
</g>
</g>
<!-- 17 -->
<g id="node12" class="node">
<title>17</title>
<g id="a_node12"><a xlink:title="src/o3ds/publisher.h">
<polygon fill="#ffffff" stroke="black" points="1378.5,-108 1217.5,-108 1217.5,-72 1378.5,-72 1378.5,-108"/>
<text text-anchor="middle" x="1298" y="-86.3" font-family="Times,serif" font-size="14.00">src/o3ds/publisher.h</text>
</a>
</g>
</g>
<!-- 18 -->
<g id="node14" class="node">
<title>18</title>
<g id="a_node14"><a xlink:title="src/o3ds/publisher.cpp">
<polygon fill="#ffffff" stroke="black" points="1406.5,-36 1229.5,-36 1229.5,0 1406.5,0 1406.5,-36"/>
<text text-anchor="middle" x="1318" y="-14.3" font-family="Times,serif" font-size="14.00">src/o3ds/publisher.cpp</text>
</a>
</g>
</g>
<!-- 17&#45;&gt;18 -->
<g id="edge7" class="edge">
<title>17&#45;&gt;18</title>
<g id="a_edge7"><a xlink:title="include">
<path fill="none" stroke="#1414ce" d="M1305.73,-61.95C1308.21,-53.26 1310.89,-43.88 1313.11,-36.1"/>
<polygon fill="#1414ce" stroke="#1414ce" points="1302.33,-61.12 1302.94,-71.7 1309.06,-63.04 1302.33,-61.12"/>
</a>
</g>
</g>
<!-- 6 -->
<g id="node13" class="node">
<title>6</title>
<g id="a_node13"><a xlink:title="src/o3ds/async_publisher.h">
<polygon fill="#ffffff" stroke="black" points="1605,-108 1397,-108 1397,-72 1605,-72 1605,-108"/>
<text text-anchor="middle" x="1501" y="-86.3" font-family="Times,serif" font-size="14.00">src/o3ds/async_publisher.h</text>
</a>
</g>
</g>
<!-- 6&#45;&gt;7 -->
<g id="edge8" class="edge">
<title>6&#45;&gt;7</title>
<g id="a_edge8"><a xlink:title="include">
<path fill="none" stroke="#1414ce" d="M1514.24,-62.51C1518.67,-53.67 1523.48,-44.04 1527.45,-36.1"/>
<polygon fill="#1414ce" stroke="#1414ce" points="1510.99,-61.19 1509.65,-71.7 1517.25,-64.32 1510.99,-61.19"/>
</a>
</g>
</g>
<!-- 16 -->
<g id="node15" class="node">
<title>16</title>
<g id="a_node15"><a xlink:title="src/o3ds/pipeline.cpp">
<polygon fill="#ffffff" stroke="black" points="1834,-36 1666,-36 1666,0 1834,0 1834,-36"/>
<text text-anchor="middle" x="1750" y="-14.3" font-family="Times,serif" font-size="14.00">src/o3ds/pipeline.cpp</text>
</a>
</g>
</g>
<!-- 1 -->
<g id="node17" class="node">
<title>1</title>
<g id="a_node17"><a xlink:title="src/o3ds/nng_connector.h">
<polygon fill="#bfbfbf" stroke="black" points="1213.5,-180 1016.5,-180 1016.5,-144 1213.5,-144 1213.5,-180"/>
<text text-anchor="middle" x="1115" y="-158.3" font-family="Times,serif" font-size="14.00">src/o3ds/nng_connector.h</text>
</a>
</g>
</g>
<!-- 1&#45;&gt;19 -->
<g id="edge18" class="edge">
<title>1&#45;&gt;19</title>
<g id="a_edge18"><a xlink:title="include">
<path fill="none" stroke="#1414ce" d="M1006.03,-159.24C832.81,-155.43 484.23,-143.65 191,-108 185.74,-107.36 180.32,-106.6 174.87,-105.77"/>
<polygon fill="#1414ce" stroke="#1414ce" points="1006.1,-162.74 1016.17,-159.46 1006.25,-155.74 1006.1,-162.74"/>
</a>
</g>
</g>
<!-- 1&#45;&gt;8 -->
<g id="edge12" class="edge">
<title>1&#45;&gt;8</title>
<g id="a_edge12"><a xlink:title="include">
<path fill="none" stroke="#1414ce" d="M1006.23,-154.69C869.78,-146.3 628.72,-129.96 423,-108 414.79,-107.12 406.28,-106.13 397.75,-105.08"/>
<polygon fill="#1414ce" stroke="#1414ce" points="1006.08,-158.18 1016.28,-155.3 1006.51,-151.2 1006.08,-158.18"/>
</a>
</g>
</g>
<!-- 1&#45;&gt;13 -->
<g id="edge15" class="edge">
<title>1&#45;&gt;13</title>
<g id="a_edge15"><a xlink:title="include">
<path fill="none" stroke="#1414ce" d="M1006.37,-153.35C897.82,-144.99 726.34,-129.79 579,-108 571.02,-106.82 562.66,-105.4 554.42,-103.89"/>
<polygon fill="#1414ce" stroke="#1414ce" points="1006.11,-156.84 1016.35,-154.12 1006.65,-149.86 1006.11,-156.84"/>
</a>
</g>
</g>
<!-- 1&#45;&gt;2 -->
<g id="edge9" class="edge">
<title>1&#45;&gt;2</title>
<g id="a_edge9"><a xlink:title="include">
<path fill="none" stroke="#1414ce" d="M1006.51,-143.96C940.69,-133.6 855,-120.09 779,-108 772.1,-106.9 764.94,-105.76 757.76,-104.61"/>
<polygon fill="#1414ce" stroke="#1414ce" points="1006.06,-147.43 1016.48,-145.53 1007.15,-140.52 1006.06,-147.43"/>
</a>
</g>
</g>
<!-- 1&#45;&gt;10 -->
<g id="edge13" class="edge">
<title>1&#45;&gt;10</title>
<g id="a_edge13"><a xlink:title="include">
<path fill="none" stroke="#1414ce" d="M1051.88,-140.83C1019.48,-130.47 980.44,-117.99 949.53,-108.11"/>
<polygon fill="#1414ce" stroke="#1414ce" points="1051.12,-144.25 1061.71,-143.97 1053.25,-137.59 1051.12,-144.25"/>
</a>
</g>
</g>
<!-- 1&#45;&gt;21 -->
<g id="edge19" class="edge">
<title>1&#45;&gt;21</title>
<g id="a_edge19"><a xlink:title="include">
<path fill="none" stroke="#1414ce" d="M1115,-133.67C1115,-125.05 1115,-115.79 1115,-108.1"/>
<polygon fill="#1414ce" stroke="#1414ce" points="1111.5,-133.7 1115,-143.7 1118.5,-133.7 1111.5,-133.7"/>
</a>
</g>
</g>
<!-- 1&#45;&gt;17 -->
<g id="edge17" class="edge">
<title>1&#45;&gt;17</title>
<g id="a_edge17"><a xlink:title="include">
<path fill="none" stroke="#1414ce" d="M1169.38,-140.2C1196.16,-129.95 1228.05,-117.76 1253.38,-108.07"/>
<polygon fill="#1414ce" stroke="#1414ce" points="1167.86,-137.03 1159.77,-143.88 1170.36,-143.57 1167.86,-137.03"/>
</a>
</g>
</g>
<!-- 1&#45;&gt;6 -->
<g id="edge11" class="edge">
<title>1&#45;&gt;6</title>
<g id="a_edge11"><a xlink:title="include">
<path fill="none" stroke="#1414ce" d="M1218.95,-142.15C1277.53,-131.53 1350.11,-118.36 1406.98,-108.05"/>
<polygon fill="#1414ce" stroke="#1414ce" points="1218.15,-138.74 1208.93,-143.97 1219.4,-145.62 1218.15,-138.74"/>
</a>
</g>
</g>
<!-- 15 -->
<g id="node18" class="node">
<title>15</title>
<g id="a_node18"><a xlink:title="src/o3ds/pipeline.h">
<polygon fill="#ffffff" stroke="black" points="1775,-108 1623,-108 1623,-72 1775,-72 1775,-108"/>
<text text-anchor="middle" x="1699" y="-86.3" font-family="Times,serif" font-size="14.00">src/o3ds/pipeline.h</text>
</a>
</g>
</g>
<!-- 1&#45;&gt;15 -->
<g id="edge16" class="edge">
<title>1&#45;&gt;15</title>
<g id="a_edge16"><a xlink:title="include">
<path fill="none" stroke="#1414ce" d="M1224.06,-152.31C1325.4,-143.55 1480.37,-128.42 1614,-108 1616.83,-107.57 1619.7,-107.11 1622.6,-106.62"/>
<polygon fill="#1414ce" stroke="#1414ce" points="1223.47,-148.85 1213.81,-153.19 1224.07,-155.82 1223.47,-148.85"/>
</a>
</g>
</g>
<!-- 4 -->
<g id="node20" class="node">
<title>4</title>
<g id="a_node20"><a xlink:title="src/o3ds/async_pipeline.h">
<polygon fill="#ffffff" stroke="black" points="1992.5,-108 1793.5,-108 1793.5,-72 1992.5,-72 1992.5,-108"/>
<text text-anchor="middle" x="1893" y="-86.3" font-family="Times,serif" font-size="14.00">src/o3ds/async_pipeline.h</text>
</a>
</g>
</g>
<!-- 1&#45;&gt;4 -->
<g id="edge10" class="edge">
<title>1&#45;&gt;4</title>
<g id="a_edge10"><a xlink:title="include">
<path fill="none" stroke="#1414ce" d="M1223.72,-154.92C1356.3,-146.93 1587.06,-131.12 1784,-108 1787.04,-107.64 1790.13,-107.26 1793.25,-106.87"/>
<polygon fill="#1414ce" stroke="#1414ce" points="1223.34,-151.44 1213.57,-155.53 1223.76,-158.43 1223.34,-151.44"/>
</a>
</g>
</g>
<!-- 12 -->
<g id="node21" class="node">
<title>12</title>
<g id="a_node21"><a xlink:title="src/o3ds/nng_connector.cpp">
<polygon fill="#ffffff" stroke="black" points="2225,-108 2011,-108 2011,-72 2225,-72 2225,-108"/>
<text text-anchor="middle" x="2118" y="-86.3" font-family="Times,serif" font-size="14.00">src/o3ds/nng_connector.cpp</text>
</a>
</g>
</g>
<!-- 1&#45;&gt;12 -->
<g id="edge14" class="edge">
<title>1&#45;&gt;12</title>
<g id="a_edge14"><a xlink:title="include">
<path fill="none" stroke="#1414ce" d="M1223.72,-157.51C1391.21,-151.46 1722.29,-136.8 2002,-108 2004.94,-107.7 2007.91,-107.38 2010.91,-107.04"/>
<polygon fill="#1414ce" stroke="#1414ce" points="1223.53,-154.01 1213.67,-157.87 1223.79,-161.01 1223.53,-154.01"/>
</a>
</g>
</g>
<!-- 15&#45;&gt;16 -->
<g id="edge20" class="edge">
<title>15&#45;&gt;16</title>
<g id="a_edge20"><a xlink:title="include">
<path fill="none" stroke="#1414ce" d="M1717.68,-63.36C1724.29,-54.28 1731.57,-44.3 1737.54,-36.1"/>
<polygon fill="#1414ce" stroke="#1414ce" points="1714.67,-61.55 1711.61,-71.7 1720.32,-65.68 1714.67,-61.55"/>
</a>
</g>
</g>
<!-- 4&#45;&gt;5 -->
<g id="edge21" class="edge">
<title>4&#45;&gt;5</title>
<g id="a_edge21"><a xlink:title="include">
<path fill="none" stroke="#1414ce" d="M1916.74,-64.2C1925.64,-54.9 1935.54,-44.55 1943.63,-36.1"/>
<polygon fill="#1414ce" stroke="#1414ce" points="1913.95,-62.05 1909.56,-71.7 1919,-66.89 1913.95,-62.05"/>
</a>
</g>
</g>
</g>
</svg>
