<?xml version="1.0" encoding="UTF-8" standalone="no"?>
<!DOCTYPE svg PUBLIC "-//W3C//DTD SVG 1.1//EN"
 "http://www.w3.org/Graphics/SVG/1.1/DTD/svg11.dtd">
<!-- Generated by graphviz version 2.43.0 (0)
 -->
<!-- Title: %3 Pages: 1 -->
<svg width="1322pt" height="332pt"
 viewBox="0.00 0.00 1322.00 332.00" xmlns="http://www.w3.org/2000/svg" xmlns:xlink="http://www.w3.org/1999/xlink">
<g id="graph0" class="graph" transform="scale(1 1) rotate(0) translate(4 328)">
<title>%3</title>
<polygon fill="transparent" stroke="transparent" points="-4,4 -4,-328 1318,-328 1318,4 -4,4"/>
<!-- 3 -->
<g id="node1" class="node">
<title>3</title>
<g id="a_node1"><a xlink:title="O3DS::Connector">
<polygon fill="#ffffff" stroke="black" points="553.5,-36 413.5,-36 413.5,0 553.5,0 553.5,-36"/>
<text text-anchor="middle" x="483.5" y="-14.3" font-family="Times,serif" font-size="14.00">O3DS::Connector</text>
</a>
</g>
</g>
<!-- 10 -->
<g id="node2" class="node">
<title>10</title>
<g id="a_node2"><a xlink:title="O3DS::AsyncPublisher">
<polygon fill="#ffffff" stroke="black" points="177,-252 0,-252 0,-216 177,-216 177,-252"/>
<text text-anchor="middle" x="88.5" y="-230.3" font-family="Times,serif" font-size="14.00">O3DS::AsyncPublisher</text>
</a>
</g>
</g>
<!-- 1 -->
<g id="node3" class="node">
<title>1</title>
<g id="a_node3"><a xlink:title="O3DS::AsyncNngConnector">
<polygon fill="#bfbfbf" stroke="black" points="589.5,-180 377.5,-180 377.5,-144 589.5,-144 589.5,-180"/>
<text text-anchor="middle" x="483.5" y="-158.3" font-family="Times,serif" font-size="14.00">O3DS::AsyncNngConnector</text>
</a>
</g>
</g>
<!-- 10&#45;&gt;1 -->
<g id="edge1" class="edge">
<title>10&#45;&gt;1</title>
<g id="a_edge1"><a xlink:title="public&#45;inheritance">
<path fill="none" stroke="#1414ce" d="M177.15,-217.29C236.52,-206.77 314.98,-192.86 377.64,-181.76"/>
<polygon fill="#1414ce" stroke="#1414ce" points="378.32,-185.19 387.55,-180 377.1,-178.3 378.32,-185.19"/>
</a>
</g>
</g>
<!-- 2 -->
<g id="node14" class="node">
<title>2</title>
<g id="a_node14"><a xlink:title="O3DS::AsyncConnector">
<polygon fill="#ffffff" stroke="black" points="574.5,-108 392.5,-108 392.5,-72 574.5,-72 574.5,-108"/>
<text text-anchor="middle" x="483.5" y="-86.3" font-family="Times,serif" font-size="14.00">O3DS::AsyncConnector</text>
</a>
</g>
</g>
<!-- 1&#45;&gt;2 -->
<g id="edge2" class="edge">
<title>1&#45;&gt;2</title>
<g id="a_edge2"><a xlink:title="public&#45;inheritance">
<path fill="none" stroke="#1414ce" d="M483.5,-143.7C483.5,-135.98 483.5,-126.71 483.5,-118.11"/>
<polygon fill="#1414ce" stroke="#1414ce" points="487,-118.1 483.5,-108.1 480,-118.1 487,-118.1"/>
</a>
</g>
</g>
<!-- 9 -->
<g id="node4" class="node">
<title>9</title>
<g id="a_node4"><a xlink:title="O3DS::AsyncServer">
<polygon fill="#ffffff" stroke="black" points="389,-324 232,-324 232,-288 389,-288 389,-324"/>
<text text-anchor="middle" x="310.5" y="-302.3" font-family="Times,serif" font-size="14.00">O3DS::AsyncServer</text>
</a>
</g>
</g>
<!-- 7 -->
<g id="node7" class="node">
<title>7</title>
<g id="a_node7"><a xlink:title="O3DS::AsyncPipeline">
<polygon fill="#ffffff" stroke="black" points="567,-252 400,-252 400,-216 567,-216 567,-252"/>
<text text-anchor="middle" x="483.5" y="-230.3" font-family="Times,serif" font-size="14.00">O3DS::AsyncPipeline</text>
</a>
</g>
</g>
<!-- 9&#45;&gt;7 -->
<g id="edge3" class="edge">
<title>9&#45;&gt;7</title>
<g id="a_edge3"><a xlink:title="public&#45;inheritance">
<path fill="none" stroke="#1414ce" d="M352.82,-287.88C376.68,-278.22 406.67,-266.09 431.9,-255.88"/>
<polygon fill="#1414ce" stroke="#1414ce" points="433.36,-259.06 441.32,-252.07 430.73,-252.57 433.36,-259.06"/>
</a>
</g>
</g>
<!-- 13 -->
<g id="node5" class="node">
<title>13</title>
<g id="a_node5"><a xlink:title="O3DS::AsyncRequest">
<polygon fill="#ffffff" stroke="black" points="745,-324 578,-324 578,-288 745,-288 745,-324"/>
<text text-anchor="middle" x="661.5" y="-302.3" font-family="Times,serif" font-size="14.00">O3DS::AsyncRequest</text>
</a>
</g>
</g>
<!-- 11 -->
<g id="node10" class="node">
<title>11</title>
<g id="a_node10"><a xlink:title="O3DS::AsyncRequestReply">
<polygon fill="#ffffff" stroke="black" points="793.5,-252 585.5,-252 585.5,-216 793.5,-216 793.5,-252"/>
<text text-anchor="middle" x="689.5" y="-230.3" font-family="Times,serif" font-size="14.00">O3DS::AsyncRequestReply</text>
</a>
</g>
</g>
<!-- 13&#45;&gt;11 -->
<g id="edge4" class="edge">
<title>13&#45;&gt;11</title>
<g id="a_edge4"><a xlink:title="public&#45;inheritance">
<path fill="none" stroke="#1414ce" d="M668.42,-287.7C671.57,-279.81 675.38,-270.3 678.88,-261.55"/>
<polygon fill="#1414ce" stroke="#1414ce" points="682.19,-262.69 682.66,-252.1 675.69,-260.09 682.19,-262.69"/>
</a>
</g>
</g>
<!-- 14 -->
<g id="node6" class="node">
<title>14</title>
<g id="a_node6"><a xlink:title="O3DS::AsyncSubscriber">
<polygon fill="#ffffff" stroke="black" points="382,-252 195,-252 195,-216 382,-216 382,-252"/>
<text text-anchor="middle" x="288.5" y="-230.3" font-family="Times,serif" font-size="14.00">O3DS::AsyncSubscriber</text>
</a>
</g>
</g>
<!-- 14&#45;&gt;1 -->
<g id="edge5" class="edge">
<title>14&#45;&gt;1</title>
<g id="a_edge5"><a xlink:title="public&#45;inheritance">
<path fill="none" stroke="#1414ce" d="M336.2,-215.88C363.45,-206.09 397.8,-193.77 426.47,-183.47"/>
<polygon fill="#1414ce" stroke="#1414ce" points="427.72,-186.74 435.95,-180.07 425.36,-180.15 427.72,-186.74"/>
</a>
</g>
</g>
<!-- 7&#45;&gt;1 -->
<g id="edge6" class="edge">
<title>7&#45;&gt;1</title>
<g id="a_edge6"><a xlink:title="public&#45;inheritance">
<path fill="none" stroke="#1414ce" d="M483.5,-215.7C483.5,-207.98 483.5,-198.71 483.5,-190.11"/>
<polygon fill="#1414ce" stroke="#1414ce" points="487,-190.1 483.5,-180.1 480,-190.1 487,-190.1"/>
</a>
</g>
</g>
<!-- 8 -->
<g id="node8" class="node">
<title>8</title>
<g id="a_node8"><a xlink:title="O3DS::AsyncClient">
<polygon fill="#ffffff" stroke="black" points="559.5,-324 407.5,-324 407.5,-288 559.5,-288 559.5,-324"/>
<text text-anchor="middle" x="483.5" y="-302.3" font-family="Times,serif" font-size="14.00">O3DS::AsyncClient</text>
</a>
</g>
</g>
<!-- 8&#45;&gt;7 -->
<g id="edge7" class="edge">
<title>8&#45;&gt;7</title>
<g id="a_edge7"><a xlink:title="public&#45;inheritance">
<path fill="none" stroke="#1414ce" d="M483.5,-287.7C483.5,-279.98 483.5,-270.71 483.5,-262.11"/>
<polygon fill="#1414ce" stroke="#1414ce" points="487,-262.1 483.5,-252.1 480,-262.1 487,-262.1"/>
</a>
</g>
</g>
<!-- 12 -->
<g id="node9" class="node">
<title>12</title>
<g id="a_node9"><a xlink:title="O3DS::AsyncReply">
<polygon fill="#ffffff" stroke="black" points="912,-324 763,-324 763,-288 912,-288 912,-324"/>
<text text-anchor="middle" x="837.5" y="-302.3" font-family="Times,serif" font-size="14.00">O3DS::AsyncReply</text>
</a>
</g>
</g>
<!-- 12&#45;&gt;11 -->
<g id="edge8" class="edge">
<title>12&#45;&gt;11</title>
<g id="a_edge8"><a xlink:title="public&#45;inheritance">
<path fill="none" stroke="#1414ce" d="M801.3,-287.88C781.24,-278.39 756.13,-266.51 734.79,-256.42"/>
<polygon fill="#1414ce" stroke="#1414ce" points="736.12,-253.18 725.59,-252.07 733.13,-259.51 736.12,-253.18"/>
</a>
</g>
</g>
<!-- 11&#45;&gt;1 -->
<g id="edge9" class="edge">
<title>11&#45;&gt;1</title>
<g id="a_edge9"><a xlink:title="public&#45;inheritance">
<path fill="none" stroke="#1414ce" d="M639.37,-215.97C610.46,-206.14 573.93,-193.73 543.5,-183.39"/>
<polygon fill="#1414ce" stroke="#1414ce" points="544.45,-180.01 533.85,-180.11 542.2,-186.64 544.45,-180.01"/>
</a>
</g>
</g>
<!-- 5 -->
<g id="node11" class="node">
<title>5</title>
<g id="a_node11"><a xlink:title="O3DS::AsyncPairClient">
<polygon fill="#ffffff" stroke="black" points="1110.5,-324 930.5,-324 930.5,-288 1110.5,-288 1110.5,-324"/>
<text text-anchor="middle" x="1020.5" y="-302.3" font-family="Times,serif" font-size="14.00">O3DS::AsyncPairClient</text>
</a>
</g>
</g>
<!-- 4 -->
<g id="node12" class="node">
<title>4</title>
<g id="a_node12"><a xlink:title="O3DS::AsyncPair">
<polygon fill="#ffffff" stroke="black" points="1089,-252 952,-252 952,-216 1089,-216 1089,-252"/>
<text text-anchor="middle" x="1020.5" y="-230.3" font-family="Times,serif" font-size="14.00">O3DS::AsyncPair</text>
</a>
</g>
</g>
<!-- 5&#45;&gt;4 -->
<g id="edge10" class="edge">
<title>5&#45;&gt;4</title>
<g id="a_edge10"><a xlink:title="public&#45;inheritance">
<path fill="none" stroke="#1414ce" d="M1020.5,-287.7C1020.5,-279.98 1020.5,-270.71 1020.5,-262.11"/>
<polygon fill="#1414ce" stroke="#1414ce" points="1024,-262.1 1020.5,-252.1 1017,-262.1 1024,-262.1"/>
</a>
</g>
</g>
<!-- 4&#45;&gt;1 -->
<g id="edge11" class="edge">
<title>4&#45;&gt;1</title>
<g id="a_edge11"><a xlink:title="public&#45;inheritance">
<path fill="none" stroke="#1414ce" d="M951.94,-224.06C863.11,-212.48 706.9,-192.12 599.46,-178.12"/>
<polygon fill="#1414ce" stroke="#1414ce" points="599.91,-174.64 589.54,-176.82 599,-181.59 599.91,-174.64"/>
</a>
</g>
</g>
<!-- 6 -->
<g id="node13" class="node">
<title>6</title>
<g id="a_node13"><a xlink:title="O3DS::AsyncPairServer">
<polygon fill="#ffffff" stroke="black" points="1314,-324 1129,-324 1129,-288 1314,-288 1314,-324"/>
<text text-anchor="middle" x="1221.5" y="-302.3" font-family="Times,serif" font-size="14.00">O3DS::AsyncPairServer</text>
</a>
</g>
</g>
<!-- 6&#45;&gt;4 -->
<g id="edge12" class="edge">
<title>6&#45;&gt;4</title>
<g id="a_edge12"><a xlink:title="public&#45;inheritance">
<path fill="none" stroke="#1414ce" d="M1172.59,-287.97C1144.5,-278.19 1109.04,-265.84 1079.43,-255.52"/>
<polygon fill="#1414ce" stroke="#1414ce" points="1080.23,-252.09 1069.63,-252.11 1077.93,-258.71 1080.23,-252.09"/>
</a>
</g>
</g>
<!-- 2&#45;&gt;3 -->
<g id="edge13" class="edge">
<title>2&#45;&gt;3</title>
<g id="a_edge13"><a xlink:title="public&#45;inheritance">
<path fill="none" stroke="#1414ce" d="M483.5,-71.7C483.5,-63.98 483.5,-54.71 483.5,-46.11"/>
<polygon fill="#1414ce" stroke="#1414ce" points="487,-46.1 483.5,-36.1 480,-46.1 487,-46.1"/>
</a>
</g>
</g>
</g>
</svg>
