<?xml version="1.0" encoding="UTF-8" standalone="no"?>
<!DOCTYPE svg PUBLIC "-//W3C//DTD SVG 1.1//EN"
 "http://www.w3.org/Graphics/SVG/1.1/DTD/svg11.dtd">
<!-- Generated by graphviz version 2.43.0 (0)
 -->
<!-- Title: %3 Pages: 1 -->
<svg width="220pt" height="332pt"
 viewBox="0.00 0.00 220.00 332.00" xmlns="http://www.w3.org/2000/svg" xmlns:xlink="http://www.w3.org/1999/xlink">
<g id="graph0" class="graph" transform="scale(1 1) rotate(0) translate(4 328)">
<title>%3</title>
<polygon fill="transparent" stroke="transparent" points="-4,4 -4,-328 216,-328 216,4 -4,4"/>
<!-- 5 -->
<g id="node1" class="node">
<title>5</title>
<g id="a_node1"><a xlink:title="O3DS::Connector">
<polygon fill="#ffffff" stroke="black" points="176,-36 36,-36 36,0 176,0 176,-36"/>
<text text-anchor="middle" x="106" y="-14.3" font-family="Times,serif" font-size="14.00">O3DS::Connector</text>
</a>
</g>
</g>
<!-- 3 -->
<g id="node2" class="node">
<title>3</title>
<g id="a_node2"><a xlink:title="O3DS::AsyncNngConnector">
<polygon fill="#ffffff" stroke="black" points="212,-180 0,-180 0,-144 212,-144 212,-180"/>
<text text-anchor="middle" x="106" y="-158.3" font-family="Times,serif" font-size="14.00">O3DS::AsyncNngConnector</text>
</a>
</g>
</g>
<!-- 4 -->
<g id="node5" class="node">
<title>4</title>
<g id="a_node5"><a xlink:title="O3DS::AsyncConnector">
<polygon fill="#ffffff" stroke="black" points="197,-108 15,-108 15,-72 197,-72 197,-108"/>
<text text-anchor="middle" x="106" y="-86.3" font-family="Times,serif" font-size="14.00">O3DS::AsyncConnector</text>
</a>
</g>
</g>
<!-- 3&#45;&gt;4 -->
<g id="edge1" class="edge">
<title>3&#45;&gt;4</title>
<g id="a_edge1"><a xlink:title="public&#45;inheritance">
<path fill="none" stroke="#1414ce" d="M106,-143.7C106,-135.98 106,-126.71 106,-118.11"/>
<polygon fill="#1414ce" stroke="#1414ce" points="109.5,-118.1 106,-108.1 102.5,-118.1 109.5,-118.1"/>
</a>
</g>
</g>
<!-- 1 -->
<g id="node3" class="node">
<title>1</title>
<g id="a_node3"><a xlink:title="O3DS::AsyncServer">
<polygon fill="#bfbfbf" stroke="black" points="184.5,-324 27.5,-324 27.5,-288 184.5,-288 184.5,-324"/>
<text text-anchor="middle" x="106" y="-302.3" font-family="Times,serif" font-size="14.00">O3DS::AsyncServer</text>
</a>
</g>
</g>
<!-- 2 -->
<g id="node4" class="node">
<title>2</title>
<g id="a_node4"><a xlink:title="O3DS::AsyncPipeline">
<polygon fill="#ffffff" stroke="black" points="189.5,-252 22.5,-252 22.5,-216 189.5,-216 189.5,-252"/>
<text text-anchor="middle" x="106" y="-230.3" font-family="Times,serif" font-size="14.00">O3DS::AsyncPipeline</text>
</a>
</g>
</g>
<!-- 1&#45;&gt;2 -->
<g id="edge2" class="edge">
<title>1&#45;&gt;2</title>
<g id="a_edge2"><a xlink:title="public&#45;inheritance">
<path fill="none" stroke="#1414ce" d="M106,-287.7C106,-279.98 106,-270.71 106,-262.11"/>
<polygon fill="#1414ce" stroke="#1414ce" points="109.5,-262.1 106,-252.1 102.5,-262.1 109.5,-262.1"/>
</a>
</g>
</g>
<!-- 2&#45;&gt;3 -->
<g id="edge3" class="edge">
<title>2&#45;&gt;3</title>
<g id="a_edge3"><a xlink:title="public&#45;inheritance">
<path fill="none" stroke="#1414ce" d="M106,-215.7C106,-207.98 106,-198.71 106,-190.11"/>
<polygon fill="#1414ce" stroke="#1414ce" points="109.5,-190.1 106,-180.1 102.5,-190.1 109.5,-190.1"/>
</a>
</g>
</g>
<!-- 4&#45;&gt;5 -->
<g id="edge4" class="edge">
<title>4&#45;&gt;5</title>
<g id="a_edge4"><a xlink:title="public&#45;inheritance">
<path fill="none" stroke="#1414ce" d="M106,-71.7C106,-63.98 106,-54.71 106,-46.11"/>
<polygon fill="#1414ce" stroke="#1414ce" points="109.5,-46.1 106,-36.1 102.5,-46.1 109.5,-46.1"/>
</a>
</g>
</g>
</g>
</svg>
