<?xml version="1.0" encoding="UTF-8" standalone="no"?>
<!DOCTYPE svg PUBLIC "-//W3C//DTD SVG 1.1//EN"
 "http://www.w3.org/Graphics/SVG/1.1/DTD/svg11.dtd">
<!-- Generated by graphviz version 2.43.0 (0)
 -->
<!-- Title: %3 Pages: 1 -->
<svg width="2351pt" height="260pt"
 viewBox="0.00 0.00 2351.00 260.00" xmlns="http://www.w3.org/2000/svg" xmlns:xlink="http://www.w3.org/1999/xlink">
<g id="graph0" class="graph" transform="scale(1 1) rotate(0) translate(4 256)">
<title>%3</title>
<polygon fill="transparent" stroke="transparent" points="-4,4 -4,-256 2347,-256 2347,4 -4,4"/>
<!-- 20 -->
<g id="node1" class="node">
<title>20</title>
<g id="a_node1"><a xlink:title="src/o3ds/request.h">
<polygon fill="#ffffff" stroke="black" points="352.5,-108 203.5,-108 203.5,-72 352.5,-72 352.5,-108"/>
<text text-anchor="middle" x="278" y="-86.3" font-family="Times,serif" font-size="14.00">src/o3ds/request.h</text>
</a>
</g>
</g>
<!-- 21 -->
<g id="node13" class="node">
<title>21</title>
<g id="a_node13"><a xlink:title="src/o3ds/request.cpp">
<polygon fill="#ffffff" stroke="black" points="288,-36 122,-36 122,0 288,0 288,-36"/>
<text text-anchor="middle" x="205" y="-14.3" font-family="Times,serif" font-size="14.00">src/o3ds/request.cpp</text>
</a>
</g>
</g>
<!-- 20&#45;&gt;21 -->
<g id="edge1" class="edge">
<title>20&#45;&gt;21</title>
<g id="a_edge1"><a xlink:title="include">
<path fill="none" stroke="#1414ce" d="M252.72,-64.76C242.87,-55.32 231.82,-44.72 222.84,-36.1"/>
<polygon fill="#1414ce" stroke="#1414ce" points="250.31,-67.3 259.96,-71.7 255.16,-62.25 250.31,-67.3"/>
</a>
</g>
</g>
<!-- 9 -->
<g id="node2" class="node">
<title>9</title>
<g id="a_node2"><a xlink:title="src/o3ds/async_request.h">
<polygon fill="#ffffff" stroke="black" points="567.5,-108 370.5,-108 370.5,-72 567.5,-72 567.5,-108"/>
<text text-anchor="middle" x="469" y="-86.3" font-family="Times,serif" font-size="14.00">src/o3ds/async_request.h</text>
</a>
</g>
</g>
<!-- 10 -->
<g id="node11" class="node">
<title>10</title>
<g id="a_node11"><a xlink:title="src/o3ds/async_request.cpp">
<polygon fill="#ffffff" stroke="black" points="519.5,-36 306.5,-36 306.5,0 519.5,0 519.5,-36"/>
<text text-anchor="middle" x="413" y="-14.3" font-family="Times,serif" font-size="14.00">src/o3ds/async_request.cpp</text>
</a>
</g>
</g>
<!-- 9&#45;&gt;10 -->
<g id="edge2" class="edge">
<title>9&#45;&gt;10</title>
<g id="a_edge2"><a xlink:title="include">
<path fill="none" stroke="#1414ce" d="M448.71,-63.64C441.39,-54.49 433.31,-44.38 426.68,-36.1"/>
<polygon fill="#1414ce" stroke="#1414ce" points="446.18,-66.07 455.16,-71.7 451.64,-61.7 446.18,-66.07"/>
</a>
</g>
</g>
<!-- 14 -->
<g id="node3" class="node">
<title>14</title>
<g id="a_node3"><a xlink:title="src/o3ds/pair.h">
<polygon fill="#ffffff" stroke="black" points="708,-108 586,-108 586,-72 708,-72 708,-108"/>
<text text-anchor="middle" x="647" y="-86.3" font-family="Times,serif" font-size="14.00">src/o3ds/pair.h</text>
</a>
</g>
</g>
<!-- 15 -->
<g id="node5" class="node">
<title>15</title>
<g id="a_node5"><a xlink:title="src/o3ds/pair.cpp">
<polygon fill="#ffffff" stroke="black" points="676,-36 538,-36 538,0 676,0 676,-36"/>
<text text-anchor="middle" x="607" y="-14.3" font-family="Times,serif" font-size="14.00">src/o3ds/pair.cpp</text>
</a>
</g>
</g>
<!-- 14&#45;&gt;15 -->
<g id="edge3" class="edge">
<title>14&#45;&gt;15</title>
<g id="a_edge3"><a xlink:title="include">
<path fill="none" stroke="#1414ce" d="M632.03,-62.8C626.93,-53.87 621.36,-44.13 616.77,-36.1"/>
<polygon fill="#1414ce" stroke="#1414ce" points="629.11,-64.75 637.11,-71.7 635.19,-61.28 629.11,-64.75"/>
</a>
</g>
</g>
<!-- 3 -->
<g id="node4" class="node">
<title>3</title>
<g id="a_node4"><a xlink:title="src/o3ds/async_pair.h">
<polygon fill="#ffffff" stroke="black" points="895.5,-108 726.5,-108 726.5,-72 895.5,-72 895.5,-108"/>
<text text-anchor="middle" x="811" y="-86.3" font-family="Times,serif" font-size="14.00">src/o3ds/async_pair.h</text>
</a>
</g>
</g>
<!-- 4 -->
<g id="node22" class="node">
<title>4</title>
<g id="a_node22"><a xlink:title="src/o3ds/async_pair.cpp">
<polygon fill="#ffffff" stroke="black" points="879.5,-36 694.5,-36 694.5,0 879.5,0 879.5,-36"/>
<text text-anchor="middle" x="787" y="-14.3" font-family="Times,serif" font-size="14.00">src/o3ds/async_pair.cpp</text>
</a>
</g>
</g>
<!-- 3&#45;&gt;4 -->
<g id="edge4" class="edge">
<title>3&#45;&gt;4</title>
<g id="a_edge4"><a xlink:title="include">
<path fill="none" stroke="#1414ce" d="M801.82,-62.23C798.82,-53.46 795.56,-43.96 792.86,-36.1"/>
<polygon fill="#1414ce" stroke="#1414ce" points="798.51,-63.37 805.07,-71.7 805.13,-61.1 798.51,-63.37"/>
</a>
</g>
</g>
<!-- 8 -->
<g id="node6" class="node">
<title>8</title>
<g id="a_node6"><a xlink:title="src/o3ds/async_publisher.cpp">
<polygon fill="#ffffff" stroke="black" points="1770,-36 1546,-36 1546,0 1770,0 1770,-36"/>
<text text-anchor="middle" x="1658" y="-14.3" font-family="Times,serif" font-size="14.00">src/o3ds/async_publisher.cpp</text>
</a>
</g>
</g>
<!-- 25 -->
<g id="node7" class="node">
<title>25</title>
<g id="a_node7"><a xlink:title="src/o3ds/websocket.h">
<polygon fill="#ffffff" stroke="black" points="406,-180 236,-180 236,-144 406,-144 406,-180"/>
<text text-anchor="middle" x="321" y="-158.3" font-family="Times,serif" font-size="14.00">src/o3ds/websocket.h</text>
</a>
</g>
</g>
<!-- 26 -->
<g id="node14" class="node">
<title>26</title>
<g id="a_node14"><a xlink:title="src/o3ds/websocket.cpp">
<polygon fill="#ffffff" stroke="black" points="186,-108 0,-108 0,-72 186,-72 186,-108"/>
<text text-anchor="middle" x="93" y="-86.3" font-family="Times,serif" font-size="14.00">src/o3ds/websocket.cpp</text>
</a>
</g>
</g>
<!-- 25&#45;&gt;26 -->
<g id="edge5" class="edge">
<title>25&#45;&gt;26</title>
<g id="a_edge5"><a xlink:title="include">
<path fill="none" stroke="#1414ce" d="M255.72,-140.96C221.91,-130.58 181.05,-118.03 148.73,-108.11"/>
<polygon fill="#1414ce" stroke="#1414ce" points="254.93,-144.38 265.52,-143.97 256.98,-137.68 254.93,-144.38"/>
</a>
</g>
</g>
<!-- 11 -->
<g id="node8" class="node">
<title>11</title>
<g id="a_node8"><a xlink:title="src/o3ds/async_subscriber.h">
<polygon fill="#ffffff" stroke="black" points="1130,-108 914,-108 914,-72 1130,-72 1130,-108"/>
<text text-anchor="middle" x="1022" y="-86.3" font-family="Times,serif" font-size="14.00">src/o3ds/async_subscriber.h</text>
</a>
</g>
</g>
<!-- 12 -->
<g id="node19" class="node">
<title>12</title>
<g id="a_node19"><a xlink:title="src/o3ds/async_subscriber.cpp">
<polygon fill="#ffffff" stroke="black" points="1130.5,-36 897.5,-36 897.5,0 1130.5,0 1130.5,-36"/>
<text text-anchor="middle" x="1014" y="-14.3" font-family="Times,serif" font-size="14.00">src/o3ds/async_subscriber.cpp</text>
</a>
</g>
</g>
<!-- 11&#45;&gt;12 -->
<g id="edge6" class="edge">
<title>11&#45;&gt;12</title>
<g id="a_edge6"><a xlink:title="include">
<path fill="none" stroke="#1414ce" d="M1018.88,-61.67C1017.89,-53.05 1016.83,-43.79 1015.95,-36.1"/>
<polygon fill="#1414ce" stroke="#1414ce" points="1015.41,-62.16 1020.02,-71.7 1022.36,-61.36 1015.41,-62.16"/>
</a>
</g>
</g>
<!-- 24 -->
<g id="node9" class="node">
<title>24</title>
<g id="a_node9"><a xlink:title="src/o3ds/base_connector.cpp">
<polygon fill="#ffffff" stroke="black" points="888,-180 668,-180 668,-144 888,-144 888,-180"/>
<text text-anchor="middle" x="778" y="-158.3" font-family="Times,serif" font-size="14.00">src/o3ds/base_connector.cpp</text>
</a>
</g>
</g>
<!-- 6 -->
<g id="node10" class="node">
<title>6</title>
<g id="a_node10"><a xlink:title="src/o3ds/async_pipeline.cpp">
<polygon fill="#ffffff" stroke="black" points="2189.5,-36 1974.5,-36 1974.5,0 2189.5,0 2189.5,-36"/>
<text text-anchor="middle" x="2082" y="-14.3" font-family="Times,serif" font-size="14.00">src/o3ds/async_pipeline.cpp</text>
</a>
</g>
</g>
<!-- 22 -->
<g id="node12" class="node">
<title>22</title>
<g id="a_node12"><a xlink:title="src/o3ds/subscriber.h">
<polygon fill="#ffffff" stroke="black" points="1317.5,-108 1148.5,-108 1148.5,-72 1317.5,-72 1317.5,-108"/>
<text text-anchor="middle" x="1233" y="-86.3" font-family="Times,serif" font-size="14.00">src/o3ds/subscriber.h</text>
</a>
</g>
</g>
<!-- 23 -->
<g id="node26" class="node">
<title>23</title>
<g id="a_node26"><a xlink:title="src/o3ds/subscriber.cpp">
<polygon fill="#ffffff" stroke="black" points="1333.5,-36 1148.5,-36 1148.5,0 1333.5,0 1333.5,-36"/>
<text text-anchor="middle" x="1241" y="-14.3" font-family="Times,serif" font-size="14.00">src/o3ds/subscriber.cpp</text>
</a>
</g>
</g>
<!-- 22&#45;&gt;23 -->
<g id="edge7" class="edge">
<title>22&#45;&gt;23</title>
<g id="a_edge7"><a xlink:title="include">
<path fill="none" stroke="#1414ce" d="M1236.12,-61.67C1237.11,-53.05 1238.17,-43.79 1239.05,-36.1"/>
<polygon fill="#1414ce" stroke="#1414ce" points="1232.64,-61.36 1234.98,-71.7 1239.59,-62.16 1232.64,-61.36"/>
</a>
</g>
</g>
<!-- 18 -->
<g id="node15" class="node">
<title>18</title>
<g id="a_node15"><a xlink:title="src/o3ds/publisher.h">
<polygon fill="#ffffff" stroke="black" points="1496.5,-108 1335.5,-108 1335.5,-72 1496.5,-72 1496.5,-108"/>
<text text-anchor="middle" x="1416" y="-86.3" font-family="Times,serif" font-size="14.00">src/o3ds/publisher.h</text>
</a>
</g>
</g>
<!-- 19 -->
<g id="node17" class="node">
<title>19</title>
<g id="a_node17"><a xlink:title="src/o3ds/publisher.cpp">
<polygon fill="#ffffff" stroke="black" points="1528.5,-36 1351.5,-36 1351.5,0 1528.5,0 1528.5,-36"/>
<text text-anchor="middle" x="1440" y="-14.3" font-family="Times,serif" font-size="14.00">src/o3ds/publisher.cpp</text>
</a>
</g>
</g>
<!-- 18&#45;&gt;19 -->
<g id="edge8" class="edge">
<title>18&#45;&gt;19</title>
<g id="a_edge8"><a xlink:title="include">
<path fill="none" stroke="#1414ce" d="M1425.18,-62.23C1428.18,-53.46 1431.44,-43.96 1434.14,-36.1"/>
<polygon fill="#1414ce" stroke="#1414ce" points="1421.87,-61.1 1421.93,-71.7 1428.49,-63.37 1421.87,-61.1"/>
</a>
</g>
</g>
<!-- 7 -->
<g id="node16" class="node">
<title>7</title>
<g id="a_node16"><a xlink:title="src/o3ds/async_publisher.h">
<polygon fill="#ffffff" stroke="black" points="1723,-108 1515,-108 1515,-72 1723,-72 1723,-108"/>
<text text-anchor="middle" x="1619" y="-86.3" font-family="Times,serif" font-size="14.00">src/o3ds/async_publisher.h</text>
</a>
</g>
</g>
<!-- 7&#45;&gt;8 -->
<g id="edge9" class="edge">
<title>7&#45;&gt;8</title>
<g id="a_edge9"><a xlink:title="include">
<path fill="none" stroke="#1414ce" d="M1633.6,-62.8C1638.57,-53.87 1644,-44.13 1648.47,-36.1"/>
<polygon fill="#1414ce" stroke="#1414ce" points="1630.45,-61.26 1628.64,-71.7 1636.57,-64.66 1630.45,-61.26"/>
</a>
</g>
</g>
<!-- 17 -->
<g id="node18" class="node">
<title>17</title>
<g id="a_node18"><a xlink:title="src/o3ds/pipeline.cpp">
<polygon fill="#ffffff" stroke="black" points="1956,-36 1788,-36 1788,0 1956,0 1956,-36"/>
<text text-anchor="middle" x="1872" y="-14.3" font-family="Times,serif" font-size="14.00">src/o3ds/pipeline.cpp</text>
</a>
</g>
</g>
<!-- 2 -->
<g id="node20" class="node">
<title>2</title>
<g id="a_node20"><a xlink:title="src/o3ds/nng_connector.h">
<polygon fill="#ffffff" stroke="black" points="1225.5,-180 1028.5,-180 1028.5,-144 1225.5,-144 1225.5,-180"/>
<text text-anchor="middle" x="1127" y="-158.3" font-family="Times,serif" font-size="14.00">src/o3ds/nng_connector.h</text>
</a>
</g>
</g>
<!-- 2&#45;&gt;20 -->
<g id="edge19" class="edge">
<title>2&#45;&gt;20</title>
<g id="a_edge19"><a xlink:title="include">
<path fill="none" stroke="#1414ce" d="M1018.1,-152.8C979.82,-149.96 936.51,-146.79 897,-144 658.83,-127.2 597.6,-140.03 361,-108 358.23,-107.63 355.42,-107.21 352.58,-106.77"/>
<polygon fill="#1414ce" stroke="#1414ce" points="1018,-156.3 1028.23,-153.55 1018.52,-149.32 1018,-156.3"/>
</a>
</g>
</g>
<!-- 2&#45;&gt;9 -->
<g id="edge13" class="edge">
<title>2&#45;&gt;9</title>
<g id="a_edge13"><a xlink:title="include">
<path fill="none" stroke="#1414ce" d="M1018.23,-152.46C907.13,-143.28 729.73,-127.36 577,-108 573.89,-107.61 570.74,-107.19 567.55,-106.76"/>
<polygon fill="#1414ce" stroke="#1414ce" points="1018.19,-155.97 1028.44,-153.3 1018.76,-148.99 1018.19,-155.97"/>
</a>
</g>
</g>
<!-- 2&#45;&gt;14 -->
<g id="edge16" class="edge">
<title>2&#45;&gt;14</title>
<g id="a_edge16"><a xlink:title="include">
<path fill="none" stroke="#1414ce" d="M1018.16,-150.22C935.24,-141.21 818.45,-126.82 717,-108 714.17,-107.48 711.29,-106.91 708.38,-106.31"/>
<polygon fill="#1414ce" stroke="#1414ce" points="1018.04,-153.73 1028.36,-151.32 1018.79,-146.77 1018.04,-153.73"/>
</a>
</g>
</g>
<!-- 2&#45;&gt;3 -->
<g id="edge10" class="edge">
<title>2&#45;&gt;3</title>
<g id="a_edge10"><a xlink:title="include">
<path fill="none" stroke="#1414ce" d="M1040.11,-141.75C992.48,-131.2 933.95,-118.24 887.97,-108.05"/>
<polygon fill="#1414ce" stroke="#1414ce" points="1039.58,-145.22 1050.1,-143.97 1041.1,-138.39 1039.58,-145.22"/>
</a>
</g>
</g>
<!-- 2&#45;&gt;11 -->
<g id="edge14" class="edge">
<title>2&#45;&gt;11</title>
<g id="a_edge14"><a xlink:title="include">
<path fill="none" stroke="#1414ce" d="M1092.97,-138.31C1078.29,-128.53 1061.4,-117.27 1047.78,-108.19"/>
<polygon fill="#1414ce" stroke="#1414ce" points="1091.05,-141.24 1101.31,-143.88 1094.94,-135.42 1091.05,-141.24"/>
</a>
</g>
</g>
<!-- 2&#45;&gt;22 -->
<g id="edge20" class="edge">
<title>2&#45;&gt;22</title>
<g id="a_edge20"><a xlink:title="include">
<path fill="none" stroke="#1414ce" d="M1161.36,-138.31C1176.18,-128.53 1193.22,-117.27 1206.97,-108.19"/>
<polygon fill="#1414ce" stroke="#1414ce" points="1159.35,-135.44 1152.93,-143.88 1163.2,-141.29 1159.35,-135.44"/>
</a>
</g>
</g>
<!-- 2&#45;&gt;18 -->
<g id="edge18" class="edge">
<title>2&#45;&gt;18</title>
<g id="a_edge18"><a xlink:title="include">
<path fill="none" stroke="#1414ce" d="M1207.29,-141.55C1250.7,-131.04 1303.82,-118.17 1345.61,-108.05"/>
<polygon fill="#1414ce" stroke="#1414ce" points="1206.22,-138.21 1197.33,-143.97 1207.87,-145.01 1206.22,-138.21"/>
</a>
</g>
</g>
<!-- 2&#45;&gt;7 -->
<g id="edge12" class="edge">
<title>2&#45;&gt;7</title>
<g id="a_edge12"><a xlink:title="include">
<path fill="none" stroke="#1414ce" d="M1235.73,-146.01C1311.29,-135.53 1414.3,-121.12 1505,-108 1508.27,-107.53 1511.59,-107.04 1514.94,-106.56"/>
<polygon fill="#1414ce" stroke="#1414ce" points="1235.15,-142.56 1225.72,-147.4 1236.11,-149.49 1235.15,-142.56"/>
</a>
</g>
</g>
<!-- 16 -->
<g id="node21" class="node">
<title>16</title>
<g id="a_node21"><a xlink:title="src/o3ds/pipeline.h">
<polygon fill="#ffffff" stroke="black" points="1893,-108 1741,-108 1741,-72 1893,-72 1893,-108"/>
<text text-anchor="middle" x="1817" y="-86.3" font-family="Times,serif" font-size="14.00">src/o3ds/pipeline.h</text>
</a>
</g>
</g>
<!-- 2&#45;&gt;16 -->
<g id="edge17" class="edge">
<title>2&#45;&gt;16</title>
<g id="a_edge17"><a xlink:title="include">
<path fill="none" stroke="#1414ce" d="M1235.67,-155.09C1357.08,-147.65 1559.3,-132.76 1732,-108 1734.83,-107.59 1737.71,-107.16 1740.61,-106.69"/>
<polygon fill="#1414ce" stroke="#1414ce" points="1235.39,-151.6 1225.62,-155.7 1235.81,-158.59 1235.39,-151.6"/>
</a>
</g>
</g>
<!-- 5 -->
<g id="node24" class="node">
<title>5</title>
<g id="a_node24"><a xlink:title="src/o3ds/async_pipeline.h">
<polygon fill="#ffffff" stroke="black" points="2110.5,-108 1911.5,-108 1911.5,-72 2110.5,-72 2110.5,-108"/>
<text text-anchor="middle" x="2011" y="-86.3" font-family="Times,serif" font-size="14.00">src/o3ds/async_pipeline.h</text>
</a>
</g>
</g>
<!-- 2&#45;&gt;5 -->
<g id="edge11" class="edge">
<title>2&#45;&gt;5</title>
<g id="a_edge11"><a xlink:title="include">
<path fill="none" stroke="#1414ce" d="M1235.88,-156.53C1386.08,-149.68 1665.19,-134.51 1902,-108 1905.05,-107.66 1908.14,-107.29 1911.25,-106.91"/>
<polygon fill="#1414ce" stroke="#1414ce" points="1235.56,-153.04 1225.73,-156.98 1235.88,-160.03 1235.56,-153.04"/>
</a>
</g>
</g>
<!-- 13 -->
<g id="node25" class="node">
<title>13</title>
<g id="a_node25"><a xlink:title="src/o3ds/nng_connector.cpp">
<polygon fill="#ffffff" stroke="black" points="2343,-108 2129,-108 2129,-72 2343,-72 2343,-108"/>
<text text-anchor="middle" x="2236" y="-86.3" font-family="Times,serif" font-size="14.00">src/o3ds/nng_connector.cpp</text>
</a>
</g>
</g>
<!-- 2&#45;&gt;13 -->
<g id="edge15" class="edge">
<title>2&#45;&gt;13</title>
<g id="a_edge15"><a xlink:title="include">
<path fill="none" stroke="#1414ce" d="M1235.7,-158.48C1418.62,-153.5 1799.45,-139.97 2120,-108 2122.94,-107.71 2125.91,-107.39 2128.91,-107.06"/>
<polygon fill="#1414ce" stroke="#1414ce" points="1235.44,-154.98 1225.54,-158.75 1235.63,-161.98 1235.44,-154.98"/>
</a>
</g>
</g>
<!-- 16&#45;&gt;17 -->
<g id="edge21" class="edge">
<title>16&#45;&gt;17</title>
<g id="a_edge21"><a xlink:title="include">
<path fill="none" stroke="#1414ce" d="M1836.93,-63.64C1844.12,-54.49 1852.06,-44.38 1858.56,-36.1"/>
<polygon fill="#1414ce" stroke="#1414ce" points="1834.02,-61.67 1830.6,-71.7 1839.53,-66 1834.02,-61.67"/>
</a>
</g>
</g>
<!-- 1 -->
<g id="node23" class="node">
<title>1</title>
<g id="a_node23"><a xlink:title="src/o3ds/base_connector.h">
<polygon fill="#bfbfbf" stroke="black" points="879.5,-252 676.5,-252 676.5,-216 879.5,-216 879.5,-252"/>
<text text-anchor="middle" x="778" y="-230.3" font-family="Times,serif" font-size="14.00">src/o3ds/base_connector.h</text>
</a>
</g>
</g>
<!-- 1&#45;&gt;25 -->
<g id="edge24" class="edge">
<title>1&#45;&gt;25</title>
<g id="a_edge24"><a xlink:title="include">
<path fill="none" stroke="#1414ce" d="M666.16,-215.87C586,-203.59 479.67,-187.3 406.31,-176.07"/>
<polygon fill="#1414ce" stroke="#1414ce" points="665.88,-219.37 676.29,-217.42 666.94,-212.45 665.88,-219.37"/>
</a>
</g>
</g>
<!-- 1&#45;&gt;24 -->
<g id="edge23" class="edge">
<title>1&#45;&gt;24</title>
<g id="a_edge23"><a xlink:title="include">
<path fill="none" stroke="#1414ce" d="M778,-205.67C778,-197.05 778,-187.79 778,-180.1"/>
<polygon fill="#1414ce" stroke="#1414ce" points="774.5,-205.7 778,-215.7 781.5,-205.7 774.5,-205.7"/>
</a>
</g>
</g>
<!-- 1&#45;&gt;2 -->
<g id="edge22" class="edge">
<title>1&#45;&gt;2</title>
<g id="a_edge22"><a xlink:title="include">
<path fill="none" stroke="#1414ce" d="M872.97,-213.95C925.76,-203.36 990.9,-190.3 1041.99,-180.05"/>
<polygon fill="#1414ce" stroke="#1414ce" points="872.05,-210.57 862.93,-215.97 873.42,-217.43 872.05,-210.57"/>
</a>
</g>
</g>
<!-- 5&#45;&gt;6 -->
<g id="edge25" class="edge">
<title>5&#45;&gt;6</title>
<g id="a_edge25"><a xlink:title="include">
<path fill="none" stroke="#1414ce" d="M2035.87,-64.48C2045.38,-55.11 2056,-44.64 2064.65,-36.1"/>
<polygon fill="#1414ce" stroke="#1414ce" points="2033.21,-62.18 2028.55,-71.7 2038.13,-67.17 2033.21,-62.18"/>
</a>
</g>
</g>
</g>
</svg>
