<?xml version="1.0" encoding="UTF-8" standalone="no"?>
<!DOCTYPE svg PUBLIC "-//W3C//DTD SVG 1.1//EN"
 "http://www.w3.org/Graphics/SVG/1.1/DTD/svg11.dtd">
<!-- Generated by graphviz version 2.43.0 (0)
 -->
<!-- Title: %3 Pages: 1 -->
<svg width="463pt" height="260pt"
 viewBox="0.00 0.00 463.00 260.00" xmlns="http://www.w3.org/2000/svg" xmlns:xlink="http://www.w3.org/1999/xlink">
<g id="graph0" class="graph" transform="scale(1 1) rotate(0) translate(4 256)">
<title>%3</title>
<polygon fill="transparent" stroke="transparent" points="-4,4 -4,-256 459,-256 459,4 -4,4"/>
<!-- 2 -->
<g id="node1" class="node">
<title>2</title>
<g id="a_node1"><a xlink:title="nng/nng.h">
<polygon fill="#ffffff" stroke="black" points="93.5,-36 4.5,-36 4.5,0 93.5,0 93.5,-36"/>
<text text-anchor="middle" x="49" y="-14.3" font-family="Times,serif" font-size="14.00">nng/nng.h</text>
</a>
</g>
</g>
<!-- 5 -->
<g id="node2" class="node">
<title>5</title>
<g id="a_node2"><a xlink:title="string">
<polygon fill="#ffffff" stroke="black" points="274.5,-36 215.5,-36 215.5,0 274.5,0 274.5,-36"/>
<text text-anchor="middle" x="245" y="-14.3" font-family="Times,serif" font-size="14.00">string</text>
</a>
</g>
</g>
<!-- 6 -->
<g id="node3" class="node">
<title>6</title>
<g id="a_node3"><a xlink:title="vector">
<polygon fill="#ffffff" stroke="black" points="173,-36 111,-36 111,0 173,0 173,-36"/>
<text text-anchor="middle" x="142" y="-14.3" font-family="Times,serif" font-size="14.00">vector</text>
</a>
</g>
</g>
<!-- 3 -->
<g id="node4" class="node">
<title>3</title>
<g id="a_node4"><a xlink:title="nng/protocol/pubsub0/pub.h">
<polygon fill="#ffffff" stroke="black" points="455,-180 237,-180 237,-144 455,-144 455,-180"/>
<text text-anchor="middle" x="346" y="-158.3" font-family="Times,serif" font-size="14.00">nng/protocol/pubsub0/pub.h</text>
</a>
</g>
</g>
<!-- 1 -->
<g id="node5" class="node">
<title>1</title>
<g id="a_node5"><a xlink:title="src/o3ds/async_publisher.h">
<polygon fill="#bfbfbf" stroke="black" points="208,-252 0,-252 0,-216 208,-216 208,-252"/>
<text text-anchor="middle" x="104" y="-230.3" font-family="Times,serif" font-size="14.00">src/o3ds/async_publisher.h</text>
</a>
</g>
</g>
<!-- 1&#45;&gt;2 -->
<g id="edge1" class="edge">
<title>1&#45;&gt;2</title>
<g id="a_edge1"><a xlink:title="include">
<path fill="none" stroke="#1414ce" d="M90.26,-215.89C83.03,-205.98 74.72,-192.94 70,-180 53.59,-135.04 49.71,-78.89 48.96,-46.17"/>
<polygon fill="#1414ce" stroke="#1414ce" points="52.45,-45.98 48.81,-36.03 45.45,-46.08 52.45,-45.98"/>
</a>
</g>
</g>
<!-- 1&#45;&gt;6 -->
<g id="edge4" class="edge">
<title>1&#45;&gt;6</title>
<g id="a_edge4"><a xlink:title="include">
<path fill="none" stroke="#1414ce" d="M92.11,-215.72C85.99,-205.76 79.16,-192.73 76,-180 72.15,-164.47 72.15,-159.53 76,-144 85.2,-106.87 107.66,-68.62 123.83,-44.37"/>
<polygon fill="#1414ce" stroke="#1414ce" points="126.72,-46.34 129.46,-36.1 120.94,-42.4 126.72,-46.34"/>
</a>
</g>
</g>
<!-- 1&#45;&gt;3 -->
<g id="edge2" class="edge">
<title>1&#45;&gt;3</title>
<g id="a_edge2"><a xlink:title="include">
<path fill="none" stroke="#1414ce" d="M162.89,-215.97C197.29,-206.01 240.88,-193.41 276.9,-182.99"/>
<polygon fill="#1414ce" stroke="#1414ce" points="278.21,-186.25 286.85,-180.11 276.27,-179.53 278.21,-186.25"/>
</a>
</g>
</g>
<!-- 4 -->
<g id="node6" class="node">
<title>4</title>
<g id="a_node6"><a xlink:title="nng_connector.h">
<polygon fill="#ffffff" stroke="black" points="218.5,-180 85.5,-180 85.5,-144 218.5,-144 218.5,-180"/>
<text text-anchor="middle" x="152" y="-158.3" font-family="Times,serif" font-size="14.00">nng_connector.h</text>
</a>
</g>
</g>
<!-- 1&#45;&gt;4 -->
<g id="edge3" class="edge">
<title>1&#45;&gt;4</title>
<g id="a_edge3"><a xlink:title="include">
<path fill="none" stroke="#1414ce" d="M115.87,-215.7C121.5,-207.47 128.35,-197.48 134.57,-188.42"/>
<polygon fill="#1414ce" stroke="#1414ce" points="137.5,-190.33 140.27,-180.1 131.73,-186.37 137.5,-190.33"/>
</a>
</g>
</g>
<!-- 4&#45;&gt;2 -->
<g id="edge9" class="edge">
<title>4&#45;&gt;2</title>
<g id="a_edge9"><a xlink:title="include">
<path fill="none" stroke="#1414ce" d="M139.58,-143.87C121.63,-119.14 88.34,-73.24 67.51,-44.51"/>
<polygon fill="#1414ce" stroke="#1414ce" points="70.17,-42.23 61.47,-36.19 64.51,-46.34 70.17,-42.23"/>
</a>
</g>
</g>
<!-- 4&#45;&gt;5 -->
<g id="edge5" class="edge">
<title>4&#45;&gt;5</title>
<g id="a_edge5"><a xlink:title="include">
<path fill="none" stroke="#1414ce" d="M213.69,-143.89C255.05,-131.8 303.02,-116.33 309,-108 318.33,-95 315.81,-86.48 309,-72 303.33,-59.95 293.43,-49.7 283.08,-41.51"/>
<polygon fill="#1414ce" stroke="#1414ce" points="284.89,-38.5 274.76,-35.4 280.75,-44.14 284.89,-38.5"/>
</a>
</g>
</g>
<!-- 4&#45;&gt;6 -->
<g id="edge6" class="edge">
<title>4&#45;&gt;6</title>
<g id="a_edge6"><a xlink:title="include">
<path fill="none" stroke="#1414ce" d="M150.79,-143.87C149.09,-119.67 145.96,-75.21 143.93,-46.39"/>
<polygon fill="#1414ce" stroke="#1414ce" points="147.4,-45.92 143.21,-36.19 140.42,-46.41 147.4,-45.92"/>
</a>
</g>
</g>
<!-- 7 -->
<g id="node7" class="node">
<title>7</title>
<g id="a_node7"><a xlink:title="mutex">
<polygon fill="#ffffff" stroke="black" points="383,-36 321,-36 321,0 383,0 383,-36"/>
<text text-anchor="middle" x="352" y="-14.3" font-family="Times,serif" font-size="14.00">mutex</text>
</a>
</g>
</g>
<!-- 4&#45;&gt;7 -->
<g id="edge7" class="edge">
<title>4&#45;&gt;7</title>
<g id="a_edge7"><a xlink:title="include">
<path fill="none" stroke="#1414ce" d="M218.66,-143.96C264.33,-131.73 318.04,-116.06 326,-108 342.14,-91.68 348.36,-65.92 350.71,-46.31"/>
<polygon fill="#1414ce" stroke="#1414ce" points="354.22,-46.43 351.66,-36.15 347.25,-45.78 354.22,-46.43"/>
</a>
</g>
</g>
<!-- 8 -->
<g id="node8" class="node">
<title>8</title>
<g id="a_node8"><a xlink:title="base_connector.h">
<polygon fill="#ffffff" stroke="black" points="300.5,-108 161.5,-108 161.5,-72 300.5,-72 300.5,-108"/>
<text text-anchor="middle" x="231" y="-86.3" font-family="Times,serif" font-size="14.00">base_connector.h</text>
</a>
</g>
</g>
<!-- 4&#45;&gt;8 -->
<g id="edge8" class="edge">
<title>4&#45;&gt;8</title>
<g id="a_edge8"><a xlink:title="include">
<path fill="none" stroke="#1414ce" d="M171.53,-143.7C181.38,-134.97 193.49,-124.24 204.2,-114.75"/>
<polygon fill="#1414ce" stroke="#1414ce" points="206.53,-117.36 211.7,-108.1 201.89,-112.12 206.53,-117.36"/>
</a>
</g>
</g>
<!-- 8&#45;&gt;2 -->
<g id="edge13" class="edge">
<title>8&#45;&gt;2</title>
<g id="a_edge13"><a xlink:title="include">
<path fill="none" stroke="#1414ce" d="M186.48,-71.88C161.27,-62.18 129.55,-49.98 102.93,-39.74"/>
<polygon fill="#1414ce" stroke="#1414ce" points="103.97,-36.39 93.38,-36.07 101.45,-42.92 103.97,-36.39"/>
</a>
</g>
</g>
<!-- 8&#45;&gt;5 -->
<g id="edge10" class="edge">
<title>8&#45;&gt;5</title>
<g id="a_edge10"><a xlink:title="include">
<path fill="none" stroke="#1414ce" d="M234.46,-71.7C236,-63.98 237.86,-54.71 239.58,-46.11"/>
<polygon fill="#1414ce" stroke="#1414ce" points="243.05,-46.6 241.58,-36.1 236.19,-45.22 243.05,-46.6"/>
</a>
</g>
</g>
<!-- 8&#45;&gt;6 -->
<g id="edge11" class="edge">
<title>8&#45;&gt;6</title>
<g id="a_edge11"><a xlink:title="include">
<path fill="none" stroke="#1414ce" d="M209,-71.7C197.79,-62.88 184,-52.03 171.85,-42.47"/>
<polygon fill="#1414ce" stroke="#1414ce" points="173.77,-39.54 163.75,-36.1 169.44,-45.04 173.77,-39.54"/>
</a>
</g>
</g>
<!-- 8&#45;&gt;7 -->
<g id="edge12" class="edge">
<title>8&#45;&gt;7</title>
<g id="a_edge12"><a xlink:title="include">
<path fill="none" stroke="#1414ce" d="M260.6,-71.88C276.57,-62.64 296.46,-51.13 313.61,-41.21"/>
<polygon fill="#1414ce" stroke="#1414ce" points="315.38,-44.23 322.29,-36.19 311.88,-38.17 315.38,-44.23"/>
</a>
</g>
</g>
</g>
</svg>
