<?xml version="1.0" encoding="UTF-8" standalone="no"?>
<!DOCTYPE svg PUBLIC "-//W3C//DTD SVG 1.1//EN"
 "http://www.w3.org/Graphics/SVG/1.1/DTD/svg11.dtd">
<!-- Generated by graphviz version 2.43.0 (0)
 -->
<!-- Title: %3 Pages: 1 -->
<svg width="375pt" height="188pt"
 viewBox="0.00 0.00 375.00 188.00" xmlns="http://www.w3.org/2000/svg" xmlns:xlink="http://www.w3.org/1999/xlink">
<g id="graph0" class="graph" transform="scale(1 1) rotate(0) translate(4 184)">
<title>%3</title>
<polygon fill="transparent" stroke="transparent" points="-4,4 -4,-184 371,-184 371,4 -4,4"/>
<!-- 6 -->
<g id="node1" class="node">
<title>6</title>
<g id="a_node1"><a xlink:title="nng/nng.h">
<polygon fill="#ffffff" stroke="black" points="89,-36 0,-36 0,0 89,0 89,-36"/>
<text text-anchor="middle" x="44.5" y="-14.3" font-family="Times,serif" font-size="14.00">nng/nng.h</text>
</a>
</g>
</g>
<!-- 3 -->
<g id="node2" class="node">
<title>3</title>
<g id="a_node2"><a xlink:title="string">
<polygon fill="#ffffff" stroke="black" points="166,-36 107,-36 107,0 166,0 166,-36"/>
<text text-anchor="middle" x="136.5" y="-14.3" font-family="Times,serif" font-size="14.00">string</text>
</a>
</g>
</g>
<!-- 1 -->
<g id="node3" class="node">
<title>1</title>
<g id="a_node3"><a xlink:title="src/o3ds/base_connector.cpp">
<polygon fill="#bfbfbf" stroke="black" points="267.5,-180 47.5,-180 47.5,-144 267.5,-144 267.5,-180"/>
<text text-anchor="middle" x="157.5" y="-158.3" font-family="Times,serif" font-size="14.00">src/o3ds/base_connector.cpp</text>
</a>
</g>
</g>
<!-- 1&#45;&gt;6 -->
<g id="edge4" class="edge">
<title>1&#45;&gt;6</title>
<g id="a_edge4"><a xlink:title="include">
<path fill="none" stroke="#1414ce" d="M143.87,-143.87C124.1,-119.03 87.35,-72.85 64.51,-44.14"/>
<polygon fill="#1414ce" stroke="#1414ce" points="67.14,-41.83 58.18,-36.19 61.67,-46.19 67.14,-41.83"/>
</a>
</g>
</g>
<!-- 1&#45;&gt;3 -->
<g id="edge2" class="edge">
<title>1&#45;&gt;3</title>
<g id="a_edge2"><a xlink:title="include">
<path fill="none" stroke="#1414ce" d="M144.77,-143.85C138.21,-133.92 130.89,-120.88 127.5,-108 122.11,-87.54 125.01,-63.64 128.9,-45.77"/>
<polygon fill="#1414ce" stroke="#1414ce" points="132.31,-46.55 131.25,-36.01 125.5,-44.91 132.31,-46.55"/>
</a>
</g>
</g>
<!-- 7 -->
<g id="node4" class="node">
<title>7</title>
<g id="a_node4"><a xlink:title="string.h">
<polygon fill="#ffffff" stroke="black" points="367,-108 294,-108 294,-72 367,-72 367,-108"/>
<text text-anchor="middle" x="330.5" y="-86.3" font-family="Times,serif" font-size="14.00">string.h</text>
</a>
</g>
</g>
<!-- 1&#45;&gt;7 -->
<g id="edge3" class="edge">
<title>1&#45;&gt;7</title>
<g id="a_edge3"><a xlink:title="include">
<path fill="none" stroke="#1414ce" d="M199.82,-143.88C225.48,-133.49 258.23,-120.24 284.52,-109.6"/>
<polygon fill="#1414ce" stroke="#1414ce" points="285.93,-112.81 293.89,-105.81 283.31,-106.32 285.93,-112.81"/>
</a>
</g>
</g>
<!-- 2 -->
<g id="node7" class="node">
<title>2</title>
<g id="a_node7"><a xlink:title="base_connector.h">
<polygon fill="#ffffff" stroke="black" points="276,-108 137,-108 137,-72 276,-72 276,-108"/>
<text text-anchor="middle" x="206.5" y="-86.3" font-family="Times,serif" font-size="14.00">base_connector.h</text>
</a>
</g>
</g>
<!-- 1&#45;&gt;2 -->
<g id="edge1" class="edge">
<title>1&#45;&gt;2</title>
<g id="a_edge1"><a xlink:title="include">
<path fill="none" stroke="#1414ce" d="M169.61,-143.7C175.37,-135.47 182.36,-125.48 188.71,-116.42"/>
<polygon fill="#1414ce" stroke="#1414ce" points="191.66,-118.3 194.53,-108.1 185.92,-114.29 191.66,-118.3"/>
</a>
</g>
</g>
<!-- 4 -->
<g id="node5" class="node">
<title>4</title>
<g id="a_node5"><a xlink:title="vector">
<polygon fill="#ffffff" stroke="black" points="246.5,-36 184.5,-36 184.5,0 246.5,0 246.5,-36"/>
<text text-anchor="middle" x="215.5" y="-14.3" font-family="Times,serif" font-size="14.00">vector</text>
</a>
</g>
</g>
<!-- 5 -->
<g id="node6" class="node">
<title>5</title>
<g id="a_node6"><a xlink:title="mutex">
<polygon fill="#ffffff" stroke="black" points="326.5,-36 264.5,-36 264.5,0 326.5,0 326.5,-36"/>
<text text-anchor="middle" x="295.5" y="-14.3" font-family="Times,serif" font-size="14.00">mutex</text>
</a>
</g>
</g>
<!-- 2&#45;&gt;6 -->
<g id="edge8" class="edge">
<title>2&#45;&gt;6</title>
<g id="a_edge8"><a xlink:title="include">
<path fill="none" stroke="#1414ce" d="M166.87,-71.88C144.72,-62.31 116.94,-50.3 93.44,-40.15"/>
<polygon fill="#1414ce" stroke="#1414ce" points="94.57,-36.82 84,-36.07 91.79,-43.25 94.57,-36.82"/>
</a>
</g>
</g>
<!-- 2&#45;&gt;3 -->
<g id="edge5" class="edge">
<title>2&#45;&gt;3</title>
<g id="a_edge5"><a xlink:title="include">
<path fill="none" stroke="#1414ce" d="M189.2,-71.7C180.64,-63.14 170.16,-52.66 160.8,-43.3"/>
<polygon fill="#1414ce" stroke="#1414ce" points="163.15,-40.7 153.6,-36.1 158.2,-45.65 163.15,-40.7"/>
</a>
</g>
</g>
<!-- 2&#45;&gt;4 -->
<g id="edge6" class="edge">
<title>2&#45;&gt;4</title>
<g id="a_edge6"><a xlink:title="include">
<path fill="none" stroke="#1414ce" d="M208.72,-71.7C209.72,-63.98 210.91,-54.71 212.01,-46.11"/>
<polygon fill="#1414ce" stroke="#1414ce" points="215.5,-46.47 213.3,-36.1 208.55,-45.58 215.5,-46.47"/>
</a>
</g>
</g>
<!-- 2&#45;&gt;5 -->
<g id="edge7" class="edge">
<title>2&#45;&gt;5</title>
<g id="a_edge7"><a xlink:title="include">
<path fill="none" stroke="#1414ce" d="M228.5,-71.7C239.71,-62.88 253.5,-52.03 265.65,-42.47"/>
<polygon fill="#1414ce" stroke="#1414ce" points="268.06,-45.04 273.75,-36.1 263.73,-39.54 268.06,-45.04"/>
</a>
</g>
</g>
</g>
</svg>
