<?xml version="1.0" encoding="UTF-8" standalone="no"?>
<!DOCTYPE svg PUBLIC "-//W3C//DTD SVG 1.1//EN"
 "http://www.w3.org/Graphics/SVG/1.1/DTD/svg11.dtd">
<!-- Generated by graphviz version 2.43.0 (0)
 -->
<!-- Title: %3 Pages: 1 -->
<svg width="1126pt" height="188pt"
 viewBox="0.00 0.00 1125.50 188.00" xmlns="http://www.w3.org/2000/svg" xmlns:xlink="http://www.w3.org/1999/xlink">
<g id="graph0" class="graph" transform="scale(1 1) rotate(0) translate(4 184)">
<title>%3</title>
<polygon fill="transparent" stroke="transparent" points="-4,4 -4,-184 1121.5,-184 1121.5,4 -4,4"/>
<!-- 2 -->
<g id="node1" class="node">
<title>2</title>
<g id="a_node1"><a xlink:title="O3DS::Connector">
<polygon fill="#ffffff" stroke="black" points="664,-36 524,-36 524,0 664,0 664,-36"/>
<text text-anchor="middle" x="594" y="-14.3" font-family="Times,serif" font-size="14.00">O3DS::Connector</text>
</a>
</g>
</g>
<!-- 3 -->
<g id="node2" class="node">
<title>3</title>
<g id="a_node2"><a xlink:title="O3DS::ClientPair">
<polygon fill="#ffffff" stroke="black" points="138,-180 0,-180 0,-144 138,-144 138,-180"/>
<text text-anchor="middle" x="69" y="-158.3" font-family="Times,serif" font-size="14.00">O3DS::ClientPair</text>
</a>
</g>
</g>
<!-- 1 -->
<g id="node8" class="node">
<title>1</title>
<g id="a_node8"><a xlink:title="O3DS::BlockingNngConnector">
<polygon fill="#bfbfbf" stroke="black" points="710,-108 478,-108 478,-72 710,-72 710,-108"/>
<text text-anchor="middle" x="594" y="-86.3" font-family="Times,serif" font-size="14.00">O3DS::BlockingNngConnector</text>
</a>
</g>
</g>
<!-- 3&#45;&gt;1 -->
<g id="edge1" class="edge">
<title>3&#45;&gt;1</title>
<g id="a_edge1"><a xlink:title="public&#45;inheritance">
<path fill="none" stroke="#1414ce" d="M138.26,-145.54C141.21,-145 144.13,-144.48 147,-144 254.71,-125.92 378.05,-111.78 467.84,-102.68"/>
<polygon fill="#1414ce" stroke="#1414ce" points="468.19,-106.16 477.79,-101.67 467.49,-99.19 468.19,-106.16"/>
</a>
</g>
</g>
<!-- 8 -->
<g id="node3" class="node">
<title>8</title>
<g id="a_node3"><a xlink:title="O3DS::Request">
<polygon fill="#ffffff" stroke="black" points="281.5,-180 156.5,-180 156.5,-144 281.5,-144 281.5,-180"/>
<text text-anchor="middle" x="219" y="-158.3" font-family="Times,serif" font-size="14.00">O3DS::Request</text>
</a>
</g>
</g>
<!-- 8&#45;&gt;1 -->
<g id="edge2" class="edge">
<title>8&#45;&gt;1</title>
<g id="a_edge2"><a xlink:title="public&#45;inheritance">
<path fill="none" stroke="#1414ce" d="M281.67,-145.77C284.48,-145.16 287.27,-144.56 290,-144 351.37,-131.32 420.13,-119.16 476.71,-109.69"/>
<polygon fill="#1414ce" stroke="#1414ce" points="477.48,-113.11 486.77,-108.02 476.33,-106.21 477.48,-113.11"/>
</a>
</g>
</g>
<!-- 9 -->
<g id="node4" class="node">
<title>9</title>
<g id="a_node4"><a xlink:title="O3DS::ServerPair">
<polygon fill="#ffffff" stroke="black" points="442.5,-180 299.5,-180 299.5,-144 442.5,-144 442.5,-180"/>
<text text-anchor="middle" x="371" y="-158.3" font-family="Times,serif" font-size="14.00">O3DS::ServerPair</text>
</a>
</g>
</g>
<!-- 9&#45;&gt;1 -->
<g id="edge3" class="edge">
<title>9&#45;&gt;1</title>
<g id="a_edge3"><a xlink:title="public&#45;inheritance">
<path fill="none" stroke="#1414ce" d="M425.27,-143.97C456.83,-134.06 496.79,-121.51 529.9,-111.12"/>
<polygon fill="#1414ce" stroke="#1414ce" points="531,-114.45 539.49,-108.11 528.9,-107.77 531,-114.45"/>
</a>
</g>
</g>
<!-- 4 -->
<g id="node5" class="node">
<title>4</title>
<g id="a_node5"><a xlink:title="O3DS::Publisher">
<polygon fill="#ffffff" stroke="black" points="595.5,-180 460.5,-180 460.5,-144 595.5,-144 595.5,-180"/>
<text text-anchor="middle" x="528" y="-158.3" font-family="Times,serif" font-size="14.00">O3DS::Publisher</text>
</a>
</g>
</g>
<!-- 4&#45;&gt;1 -->
<g id="edge4" class="edge">
<title>4&#45;&gt;1</title>
<g id="a_edge4"><a xlink:title="public&#45;inheritance">
<path fill="none" stroke="#1414ce" d="M544.31,-143.7C552.31,-135.22 562.07,-124.86 570.82,-115.58"/>
<polygon fill="#1414ce" stroke="#1414ce" points="573.56,-117.78 577.87,-108.1 568.47,-112.98 573.56,-117.78"/>
</a>
</g>
</g>
<!-- 5 -->
<g id="node6" class="node">
<title>5</title>
<g id="a_node6"><a xlink:title="O3DS::Pull">
<polygon fill="#ffffff" stroke="black" points="708.5,-180 613.5,-180 613.5,-144 708.5,-144 708.5,-180"/>
<text text-anchor="middle" x="661" y="-158.3" font-family="Times,serif" font-size="14.00">O3DS::Pull</text>
</a>
</g>
</g>
<!-- 5&#45;&gt;1 -->
<g id="edge5" class="edge">
<title>5&#45;&gt;1</title>
<g id="a_edge5"><a xlink:title="public&#45;inheritance">
<path fill="none" stroke="#1414ce" d="M644.44,-143.7C636.32,-135.22 626.41,-124.86 617.53,-115.58"/>
<polygon fill="#1414ce" stroke="#1414ce" points="619.81,-112.91 610.37,-108.1 614.76,-117.75 619.81,-112.91"/>
</a>
</g>
</g>
<!-- 10 -->
<g id="node7" class="node">
<title>10</title>
<g id="a_node7"><a xlink:title="O3DS::Subscriber">
<polygon fill="#ffffff" stroke="black" points="871.5,-180 726.5,-180 726.5,-144 871.5,-144 871.5,-180"/>
<text text-anchor="middle" x="799" y="-158.3" font-family="Times,serif" font-size="14.00">O3DS::Subscriber</text>
</a>
</g>
</g>
<!-- 10&#45;&gt;1 -->
<g id="edge6" class="edge">
<title>10&#45;&gt;1</title>
<g id="a_edge6"><a xlink:title="public&#45;inheritance">
<path fill="none" stroke="#1414ce" d="M749.11,-143.97C720.35,-134.14 683.99,-121.73 653.71,-111.39"/>
<polygon fill="#1414ce" stroke="#1414ce" points="654.7,-108.03 644.11,-108.11 652.44,-114.65 654.7,-108.03"/>
</a>
</g>
</g>
<!-- 1&#45;&gt;2 -->
<g id="edge7" class="edge">
<title>1&#45;&gt;2</title>
<g id="a_edge7"><a xlink:title="public&#45;inheritance">
<path fill="none" stroke="#1414ce" d="M594,-71.7C594,-63.98 594,-54.71 594,-46.11"/>
<polygon fill="#1414ce" stroke="#1414ce" points="597.5,-46.1 594,-36.1 590.5,-46.1 597.5,-46.1"/>
</a>
</g>
</g>
<!-- 6 -->
<g id="node9" class="node">
<title>6</title>
<g id="a_node9"><a xlink:title="O3DS::Push">
<polygon fill="#ffffff" stroke="black" points="992,-180 890,-180 890,-144 992,-144 992,-180"/>
<text text-anchor="middle" x="941" y="-158.3" font-family="Times,serif" font-size="14.00">O3DS::Push</text>
</a>
</g>
</g>
<!-- 6&#45;&gt;1 -->
<g id="edge8" class="edge">
<title>6&#45;&gt;1</title>
<g id="a_edge8"><a xlink:title="public&#45;inheritance">
<path fill="none" stroke="#1414ce" d="M889.7,-146.12C886.76,-145.38 883.85,-144.66 881,-144 824.91,-130.91 762.05,-118.99 709.48,-109.79"/>
<polygon fill="#1414ce" stroke="#1414ce" points="709.9,-106.31 699.45,-108.04 708.7,-113.21 709.9,-106.31"/>
</a>
</g>
</g>
<!-- 7 -->
<g id="node10" class="node">
<title>7</title>
<g id="a_node10"><a xlink:title="O3DS::Reply">
<polygon fill="#ffffff" stroke="black" points="1117.5,-180 1010.5,-180 1010.5,-144 1117.5,-144 1117.5,-180"/>
<text text-anchor="middle" x="1064" y="-158.3" font-family="Times,serif" font-size="14.00">O3DS::Reply</text>
</a>
</g>
</g>
<!-- 7&#45;&gt;1 -->
<g id="edge9" class="edge">
<title>7&#45;&gt;1</title>
<g id="a_edge9"><a xlink:title="public&#45;inheritance">
<path fill="none" stroke="#1414ce" d="M1010.5,-146.04C1007.3,-145.31 1004.11,-144.62 1001,-144 907.68,-125.42 800.97,-111.8 720.23,-103.03"/>
<polygon fill="#1414ce" stroke="#1414ce" points="720.34,-99.52 710.02,-101.93 719.59,-106.48 720.34,-99.52"/>
</a>
</g>
</g>
</g>
</svg>
