<?xml version="1.0" encoding="UTF-8" standalone="no"?>
<!DOCTYPE svg PUBLIC "-//W3C//DTD SVG 1.1//EN"
 "http://www.w3.org/Graphics/SVG/1.1/DTD/svg11.dtd">
<!-- Generated by graphviz version 2.43.0 (0)
 -->
<!-- Title: %3 Pages: 1 -->
<svg width="778pt" height="404pt"
 viewBox="0.00 0.00 777.50 404.00" xmlns="http://www.w3.org/2000/svg" xmlns:xlink="http://www.w3.org/1999/xlink">
<g id="graph0" class="graph" transform="scale(1 1) rotate(0) translate(4 400)">
<title>%3</title>
<polygon fill="transparent" stroke="transparent" points="-4,4 -4,-400 773.5,-400 773.5,4 -4,4"/>
<!-- 5 -->
<g id="node1" class="node">
<title>5</title>
<g id="a_node1"><a xlink:title="O3DS::Connector">
<polygon fill="#ffffff" stroke="black" points="460,-108 320,-108 320,-72 460,-72 460,-108"/>
<text text-anchor="middle" x="390" y="-86.3" font-family="Times,serif" font-size="14.00">O3DS::Connector</text>
</a>
</g>
</g>
<!-- 7 -->
<g id="node5" class="node">
<title>7</title>
<g id="a_node5"><a xlink:title="string">
<polygon fill="#ffffff" stroke="black" points="369.5,-36 310.5,-36 310.5,0 369.5,0 369.5,-36"/>
<text text-anchor="middle" x="340" y="-14.3" font-family="Times,serif" font-size="14.00">string</text>
</a>
</g>
</g>
<!-- 5&#45;&gt;7 -->
<g id="edge2" class="edge">
<title>5&#45;&gt;7</title>
<g id="a_edge2"><a xlink:title="usage">
<path fill="none" stroke="#1414ce" d="M377.64,-71.7C371.77,-63.47 364.63,-53.48 358.16,-44.42"/>
<polygon fill="#1414ce" stroke="#1414ce" points="360.88,-42.21 352.22,-36.1 355.18,-46.28 360.88,-42.21"/>
</a>
</g>
</g>
<!-- 6 -->
<g id="node9" class="node">
<title>6</title>
<g id="a_node9"><a xlink:title="enum eState">
<polygon fill="#ffffff" stroke="black" points="494.5,-36 387.5,-36 387.5,0 494.5,0 494.5,-36"/>
<text text-anchor="middle" x="441" y="-14.3" font-family="Times,serif" font-size="14.00">enum eState</text>
</a>
</g>
</g>
<!-- 5&#45;&gt;6 -->
<g id="edge1" class="edge">
<title>5&#45;&gt;6</title>
<g id="a_edge1"><a xlink:title="usage">
<path fill="none" stroke="#1414ce" d="M402.61,-71.7C408.6,-63.47 415.88,-53.48 422.48,-44.42"/>
<polygon fill="#1414ce" stroke="#1414ce" points="425.48,-46.25 428.54,-36.1 419.82,-42.13 425.48,-46.25"/>
</a>
</g>
</g>
<!-- 9 -->
<g id="node2" class="node">
<title>9</title>
<g id="a_node2"><a xlink:title="void *">
<polygon fill="#ffffff" stroke="black" points="536,-108 478,-108 478,-72 536,-72 536,-108"/>
<text text-anchor="middle" x="507" y="-86.3" font-family="Times,serif" font-size="14.00">void *</text>
</a>
</g>
</g>
<!-- 14 -->
<g id="node3" class="node">
<title>14</title>
<g id="a_node3"><a xlink:title="nng_ctx">
<polygon fill="#ffffff" stroke="black" points="72,-180 0,-180 0,-144 72,-144 72,-180"/>
<text text-anchor="middle" x="36" y="-158.3" font-family="Times,serif" font-size="14.00">nng_ctx</text>
</a>
</g>
</g>
<!-- 3 -->
<g id="node4" class="node">
<title>3</title>
<g id="a_node4"><a xlink:title="O3DS::AsyncNngConnector">
<polygon fill="#ffffff" stroke="black" points="408,-252 196,-252 196,-216 408,-216 408,-252"/>
<text text-anchor="middle" x="302" y="-230.3" font-family="Times,serif" font-size="14.00">O3DS::AsyncNngConnector</text>
</a>
</g>
</g>
<!-- 3&#45;&gt;14 -->
<g id="edge8" class="edge">
<title>3&#45;&gt;14</title>
<g id="a_edge8"><a xlink:title="usage">
<path fill="none" stroke="#1414ce" d="M220.25,-215.98C180.83,-207.15 132.77,-195.51 82.05,-180.15"/>
<polygon fill="#1414ce" stroke="#1414ce" points="82.8,-176.72 72.21,-177.13 80.75,-183.41 82.8,-176.72"/>
</a>
</g>
</g>
<!-- 11 -->
<g id="node8" class="node">
<title>11</title>
<g id="a_node8"><a xlink:title="nng_dialer">
<polygon fill="#ffffff" stroke="black" points="182,-180 90,-180 90,-144 182,-144 182,-180"/>
<text text-anchor="middle" x="136" y="-158.3" font-family="Times,serif" font-size="14.00">nng_dialer</text>
</a>
</g>
</g>
<!-- 3&#45;&gt;11 -->
<g id="edge5" class="edge">
<title>3&#45;&gt;11</title>
<g id="a_edge5"><a xlink:title="usage">
<path fill="none" stroke="#1414ce" d="M261.39,-215.88C238.6,-206.26 209.97,-194.19 185.83,-184.01"/>
<polygon fill="#1414ce" stroke="#1414ce" points="187.05,-180.73 176.48,-180.07 184.33,-187.18 187.05,-180.73"/>
</a>
</g>
</g>
<!-- 12 -->
<g id="node10" class="node">
<title>12</title>
<g id="a_node10"><a xlink:title="nng_socket">
<polygon fill="#ffffff" stroke="black" points="296,-180 200,-180 200,-144 296,-144 296,-180"/>
<text text-anchor="middle" x="248" y="-158.3" font-family="Times,serif" font-size="14.00">nng_socket</text>
</a>
</g>
</g>
<!-- 3&#45;&gt;12 -->
<g id="edge6" class="edge">
<title>3&#45;&gt;12</title>
<g id="a_edge6"><a xlink:title="usage">
<path fill="none" stroke="#1414ce" d="M288.65,-215.7C282.24,-207.39 274.44,-197.28 267.39,-188.14"/>
<polygon fill="#1414ce" stroke="#1414ce" points="270.07,-185.88 261.19,-180.1 264.53,-190.16 270.07,-185.88"/>
</a>
</g>
</g>
<!-- 13 -->
<g id="node12" class="node">
<title>13</title>
<g id="a_node12"><a xlink:title="nng_aio *">
<polygon fill="#ffffff" stroke="black" points="397.5,-180 314.5,-180 314.5,-144 397.5,-144 397.5,-180"/>
<text text-anchor="middle" x="356" y="-158.3" font-family="Times,serif" font-size="14.00">nng_aio *</text>
</a>
</g>
</g>
<!-- 3&#45;&gt;13 -->
<g id="edge7" class="edge">
<title>3&#45;&gt;13</title>
<g id="a_edge7"><a xlink:title="usage">
<path fill="none" stroke="#1414ce" d="M315.35,-215.7C321.76,-207.39 329.56,-197.28 336.61,-188.14"/>
<polygon fill="#1414ce" stroke="#1414ce" points="339.47,-190.16 342.81,-180.1 333.93,-185.88 339.47,-190.16"/>
</a>
</g>
</g>
<!-- 4 -->
<g id="node13" class="node">
<title>4</title>
<g id="a_node13"><a xlink:title="O3DS::AsyncConnector">
<polygon fill="#ffffff" stroke="black" points="598,-180 416,-180 416,-144 598,-144 598,-180"/>
<text text-anchor="middle" x="507" y="-158.3" font-family="Times,serif" font-size="14.00">O3DS::AsyncConnector</text>
</a>
</g>
</g>
<!-- 3&#45;&gt;4 -->
<g id="edge3" class="edge">
<title>3&#45;&gt;4</title>
<g id="a_edge3"><a xlink:title="public&#45;inheritance">
<path fill="none" stroke="#1414ce" d="M351.89,-215.97C380.65,-206.14 417.01,-193.73 447.29,-183.39"/>
<polygon fill="#1414ce" stroke="#1414ce" points="448.56,-186.65 456.89,-180.11 446.3,-180.03 448.56,-186.65"/>
</a>
</g>
</g>
<!-- 10 -->
<g id="node14" class="node">
<title>10</title>
<g id="a_node14"><a xlink:title="mutex">
<polygon fill="#ffffff" stroke="black" points="678,-180 616,-180 616,-144 678,-144 678,-180"/>
<text text-anchor="middle" x="647" y="-158.3" font-family="Times,serif" font-size="14.00">mutex</text>
</a>
</g>
</g>
<!-- 3&#45;&gt;10 -->
<g id="edge4" class="edge">
<title>3&#45;&gt;10</title>
<g id="a_edge4"><a xlink:title="usage">
<path fill="none" stroke="#1414ce" d="M408.18,-220.66C464.78,-212.63 535.5,-200.3 605.88,-179.98"/>
<polygon fill="#1414ce" stroke="#1414ce" points="607.2,-183.24 615.81,-177.06 605.23,-176.52 607.2,-183.24"/>
</a>
</g>
</g>
<!-- 1 -->
<g id="node6" class="node">
<title>1</title>
<g id="a_node6"><a xlink:title="O3DS::AsyncRequest">
<polygon fill="#bfbfbf" stroke="black" points="385.5,-396 218.5,-396 218.5,-360 385.5,-360 385.5,-396"/>
<text text-anchor="middle" x="302" y="-374.3" font-family="Times,serif" font-size="14.00">O3DS::AsyncRequest</text>
</a>
</g>
</g>
<!-- 2 -->
<g id="node11" class="node">
<title>2</title>
<g id="a_node11"><a xlink:title="O3DS::AsyncRequestReply">
<polygon fill="#ffffff" stroke="black" points="406,-324 198,-324 198,-288 406,-288 406,-324"/>
<text text-anchor="middle" x="302" y="-302.3" font-family="Times,serif" font-size="14.00">O3DS::AsyncRequestReply</text>
</a>
</g>
</g>
<!-- 1&#45;&gt;2 -->
<g id="edge9" class="edge">
<title>1&#45;&gt;2</title>
<g id="a_edge9"><a xlink:title="public&#45;inheritance">
<path fill="none" stroke="#1414ce" d="M302,-359.7C302,-351.98 302,-342.71 302,-334.11"/>
<polygon fill="#1414ce" stroke="#1414ce" points="305.5,-334.1 302,-324.1 298.5,-334.1 305.5,-334.1"/>
</a>
</g>
</g>
<!-- 8 -->
<g id="node7" class="node">
<title>8</title>
<g id="a_node7"><a xlink:title="void(*)(void *, void *, size_t)">
<polygon fill="#ffffff" stroke="black" points="769.5,-108 554.5,-108 554.5,-72 769.5,-72 769.5,-108"/>
<text text-anchor="middle" x="662" y="-86.3" font-family="Times,serif" font-size="14.00">void(*)(void *, void *, size_t)</text>
</a>
</g>
</g>
<!-- 2&#45;&gt;3 -->
<g id="edge10" class="edge">
<title>2&#45;&gt;3</title>
<g id="a_edge10"><a xlink:title="public&#45;inheritance">
<path fill="none" stroke="#1414ce" d="M302,-287.7C302,-279.98 302,-270.71 302,-262.11"/>
<polygon fill="#1414ce" stroke="#1414ce" points="305.5,-262.1 302,-252.1 298.5,-262.1 305.5,-262.1"/>
</a>
</g>
</g>
<!-- 4&#45;&gt;5 -->
<g id="edge11" class="edge">
<title>4&#45;&gt;5</title>
<g id="a_edge11"><a xlink:title="public&#45;inheritance">
<path fill="none" stroke="#1414ce" d="M478.38,-143.88C463.08,-134.72 444.06,-123.34 427.58,-113.48"/>
<polygon fill="#1414ce" stroke="#1414ce" points="429.11,-110.32 418.73,-108.19 425.52,-116.33 429.11,-110.32"/>
</a>
</g>
</g>
<!-- 4&#45;&gt;9 -->
<g id="edge13" class="edge">
<title>4&#45;&gt;9</title>
<g id="a_edge13"><a xlink:title="usage">
<path fill="none" stroke="#1414ce" d="M507,-143.7C507,-135.98 507,-126.71 507,-118.11"/>
<polygon fill="#1414ce" stroke="#1414ce" points="510.5,-118.1 507,-108.1 503.5,-118.1 510.5,-118.1"/>
</a>
</g>
</g>
<!-- 4&#45;&gt;8 -->
<g id="edge12" class="edge">
<title>4&#45;&gt;8</title>
<g id="a_edge12"><a xlink:title="usage">
<path fill="none" stroke="#1414ce" d="M544.92,-143.88C566.01,-134.35 592.46,-122.41 614.87,-112.28"/>
<polygon fill="#1414ce" stroke="#1414ce" points="616.53,-115.37 624.21,-108.07 613.65,-108.99 616.53,-115.37"/>
</a>
</g>
</g>
</g>
</svg>
