<?xml version="1.0" encoding="UTF-8" standalone="no"?>
<!DOCTYPE svg PUBLIC "-//W3C//DTD SVG 1.1//EN"
 "http://www.w3.org/Graphics/SVG/1.1/DTD/svg11.dtd">
<!-- Generated by graphviz version 2.43.0 (0)
 -->
<!-- Title: %3 Pages: 1 -->
<svg width="259pt" height="188pt"
 viewBox="0.00 0.00 259.00 188.00" xmlns="http://www.w3.org/2000/svg" xmlns:xlink="http://www.w3.org/1999/xlink">
<g id="graph0" class="graph" transform="scale(1 1) rotate(0) translate(4 184)">
<title>%3</title>
<polygon fill="transparent" stroke="transparent" points="-4,4 -4,-184 255,-184 255,4 -4,4"/>
<!-- 3 -->
<g id="node1" class="node">
<title>3</title>
<g id="a_node1"><a xlink:title="src/o3ds/model.cpp">
<polygon fill="#ffffff" stroke="black" points="203,-36 48,-36 48,0 203,0 203,-36"/>
<text text-anchor="middle" x="125.5" y="-14.3" font-family="Times,serif" font-size="14.00">src/o3ds/model.cpp</text>
</a>
</g>
</g>
<!-- 1 -->
<g id="node2" class="node">
<title>1</title>
<g id="a_node2"><a xlink:title="src/o3ds/transform_component.h">
<polygon fill="#bfbfbf" stroke="black" points="251,-180 0,-180 0,-144 251,-144 251,-180"/>
<text text-anchor="middle" x="125.5" y="-158.3" font-family="Times,serif" font-size="14.00">src/o3ds/transform_component.h</text>
</a>
</g>
</g>
<!-- 2 -->
<g id="node3" class="node">
<title>2</title>
<g id="a_node3"><a xlink:title="src/o3ds/model.h">
<polygon fill="#ffffff" stroke="black" points="194.5,-108 56.5,-108 56.5,-72 194.5,-72 194.5,-108"/>
<text text-anchor="middle" x="125.5" y="-86.3" font-family="Times,serif" font-size="14.00">src/o3ds/model.h</text>
</a>
</g>
</g>
<!-- 1&#45;&gt;2 -->
<g id="edge1" class="edge">
<title>1&#45;&gt;2</title>
<g id="a_edge1"><a xlink:title="include">
<path fill="none" stroke="#1414ce" d="M125.5,-133.67C125.5,-125.05 125.5,-115.79 125.5,-108.1"/>
<polygon fill="#1414ce" stroke="#1414ce" points="122,-133.7 125.5,-143.7 129,-133.7 122,-133.7"/>
</a>
</g>
</g>
<!-- 2&#45;&gt;3 -->
<g id="edge2" class="edge">
<title>2&#45;&gt;3</title>
<g id="a_edge2"><a xlink:title="include">
<path fill="none" stroke="#1414ce" d="M125.5,-61.67C125.5,-53.05 125.5,-43.79 125.5,-36.1"/>
<polygon fill="#1414ce" stroke="#1414ce" points="122,-61.7 125.5,-71.7 129,-61.7 122,-61.7"/>
</a>
</g>
</g>
</g>
</svg>
