<?xml version="1.0" encoding="UTF-8" standalone="no"?>
<!DOCTYPE svg PUBLIC "-//W3C//DTD SVG 1.1//EN"
 "http://www.w3.org/Graphics/SVG/1.1/DTD/svg11.dtd">
<!-- Generated by graphviz version 2.43.0 (0)
 -->
<!-- Title: %3 Pages: 1 -->
<svg width="434pt" height="332pt"
 viewBox="0.00 0.00 433.50 332.00" xmlns="http://www.w3.org/2000/svg" xmlns:xlink="http://www.w3.org/1999/xlink">
<g id="graph0" class="graph" transform="scale(1 1) rotate(0) translate(4 328)">
<title>%3</title>
<polygon fill="transparent" stroke="transparent" points="-4,4 -4,-328 429.5,-328 429.5,4 -4,4"/>
<!-- 2 -->
<g id="node1" class="node">
<title>2</title>
<g id="a_node1"><a xlink:title="pair.h">
<polygon fill="#ffffff" stroke="black" points="127,-252 70,-252 70,-216 127,-216 127,-252"/>
<text text-anchor="middle" x="98.5" y="-230.3" font-family="Times,serif" font-size="14.00">pair.h</text>
</a>
</g>
</g>
<!-- 3 -->
<g id="node3" class="node">
<title>3</title>
<g id="a_node3"><a xlink:title="nng/nng.h">
<polygon fill="#ffffff" stroke="black" points="89,-36 0,-36 0,0 89,0 89,-36"/>
<text text-anchor="middle" x="44.5" y="-14.3" font-family="Times,serif" font-size="14.00">nng/nng.h</text>
</a>
</g>
</g>
<!-- 2&#45;&gt;3 -->
<g id="edge1" class="edge">
<title>2&#45;&gt;3</title>
<g id="a_edge1"><a xlink:title="include">
<path fill="none" stroke="#1414ce" d="M84.73,-215.9C77.49,-205.99 69.18,-192.95 64.5,-180 48.24,-135.02 44.75,-78.88 44.24,-46.17"/>
<polygon fill="#1414ce" stroke="#1414ce" points="47.74,-46 44.17,-36.02 40.74,-46.05 47.74,-46"/>
</a>
</g>
</g>
<!-- 6 -->
<g id="node4" class="node">
<title>6</title>
<g id="a_node4"><a xlink:title="string">
<polygon fill="#ffffff" stroke="black" points="166,-36 107,-36 107,0 166,0 166,-36"/>
<text text-anchor="middle" x="136.5" y="-14.3" font-family="Times,serif" font-size="14.00">string</text>
</a>
</g>
</g>
<!-- 2&#45;&gt;6 -->
<g id="edge4" class="edge">
<title>2&#45;&gt;6</title>
<g id="a_edge4"><a xlink:title="include">
<path fill="none" stroke="#1414ce" d="M86.61,-215.72C80.49,-205.76 73.66,-192.73 70.5,-180 66.65,-164.47 66.65,-159.53 70.5,-144 79.7,-106.87 102.16,-68.62 118.33,-44.37"/>
<polygon fill="#1414ce" stroke="#1414ce" points="121.22,-46.34 123.96,-36.1 115.44,-42.4 121.22,-46.34"/>
</a>
</g>
</g>
<!-- 5 -->
<g id="node6" class="node">
<title>5</title>
<g id="a_node6"><a xlink:title="nng_connector.h">
<polygon fill="#ffffff" stroke="black" points="213,-180 80,-180 80,-144 213,-144 213,-180"/>
<text text-anchor="middle" x="146.5" y="-158.3" font-family="Times,serif" font-size="14.00">nng_connector.h</text>
</a>
</g>
</g>
<!-- 2&#45;&gt;5 -->
<g id="edge3" class="edge">
<title>2&#45;&gt;5</title>
<g id="a_edge3"><a xlink:title="include">
<path fill="none" stroke="#1414ce" d="M110.37,-215.7C116,-207.47 122.85,-197.48 129.07,-188.42"/>
<polygon fill="#1414ce" stroke="#1414ce" points="132,-190.33 134.77,-180.1 126.23,-186.37 132,-190.33"/>
</a>
</g>
</g>
<!-- 4 -->
<g id="node9" class="node">
<title>4</title>
<g id="a_node9"><a xlink:title="nng/protocol/pair1/pair.h">
<polygon fill="#ffffff" stroke="black" points="425.5,-180 231.5,-180 231.5,-144 425.5,-144 425.5,-180"/>
<text text-anchor="middle" x="328.5" y="-158.3" font-family="Times,serif" font-size="14.00">nng/protocol/pair1/pair.h</text>
</a>
</g>
</g>
<!-- 2&#45;&gt;4 -->
<g id="edge2" class="edge">
<title>2&#45;&gt;4</title>
<g id="a_edge2"><a xlink:title="include">
<path fill="none" stroke="#1414ce" d="M127.16,-224.28C160.93,-214 218.11,-196.6 262.92,-182.96"/>
<polygon fill="#1414ce" stroke="#1414ce" points="264.02,-186.28 272.57,-180.02 261.98,-179.59 264.02,-186.28"/>
</a>
</g>
</g>
<!-- 1 -->
<g id="node2" class="node">
<title>1</title>
<g id="a_node2"><a xlink:title="src/o3ds/pair.cpp">
<polygon fill="#bfbfbf" stroke="black" points="167.5,-324 29.5,-324 29.5,-288 167.5,-288 167.5,-324"/>
<text text-anchor="middle" x="98.5" y="-302.3" font-family="Times,serif" font-size="14.00">src/o3ds/pair.cpp</text>
</a>
</g>
</g>
<!-- 1&#45;&gt;2 -->
<g id="edge5" class="edge">
<title>1&#45;&gt;2</title>
<g id="a_edge5"><a xlink:title="include">
<path fill="none" stroke="#1414ce" d="M98.5,-287.7C98.5,-279.98 98.5,-270.71 98.5,-262.11"/>
<polygon fill="#1414ce" stroke="#1414ce" points="102,-262.1 98.5,-252.1 95,-262.1 102,-262.1"/>
</a>
</g>
</g>
<!-- 7 -->
<g id="node5" class="node">
<title>7</title>
<g id="a_node5"><a xlink:title="vector">
<polygon fill="#ffffff" stroke="black" points="270.5,-36 208.5,-36 208.5,0 270.5,0 270.5,-36"/>
<text text-anchor="middle" x="239.5" y="-14.3" font-family="Times,serif" font-size="14.00">vector</text>
</a>
</g>
</g>
<!-- 5&#45;&gt;3 -->
<g id="edge10" class="edge">
<title>5&#45;&gt;3</title>
<g id="a_edge10"><a xlink:title="include">
<path fill="none" stroke="#1414ce" d="M134.2,-143.87C116.43,-119.14 83.46,-73.24 62.83,-44.51"/>
<polygon fill="#1414ce" stroke="#1414ce" points="65.52,-42.27 56.85,-36.19 59.84,-46.35 65.52,-42.27"/>
</a>
</g>
</g>
<!-- 5&#45;&gt;6 -->
<g id="edge6" class="edge">
<title>5&#45;&gt;6</title>
<g id="a_edge6"><a xlink:title="include">
<path fill="none" stroke="#1414ce" d="M145.29,-143.87C143.59,-119.67 140.46,-75.21 138.43,-46.39"/>
<polygon fill="#1414ce" stroke="#1414ce" points="141.9,-45.92 137.71,-36.19 134.92,-46.41 141.9,-45.92"/>
</a>
</g>
</g>
<!-- 5&#45;&gt;7 -->
<g id="edge7" class="edge">
<title>5&#45;&gt;7</title>
<g id="a_edge7"><a xlink:title="include">
<path fill="none" stroke="#1414ce" d="M208.19,-143.89C249.55,-131.8 297.52,-116.33 303.5,-108 312.83,-95 310.31,-86.48 303.5,-72 297.98,-60.26 288.43,-50.22 278.38,-42.15"/>
<polygon fill="#1414ce" stroke="#1414ce" points="280.38,-39.27 270.27,-36.09 276.19,-44.88 280.38,-39.27"/>
</a>
</g>
</g>
<!-- 8 -->
<g id="node7" class="node">
<title>8</title>
<g id="a_node7"><a xlink:title="mutex">
<polygon fill="#ffffff" stroke="black" points="378.5,-36 316.5,-36 316.5,0 378.5,0 378.5,-36"/>
<text text-anchor="middle" x="347.5" y="-14.3" font-family="Times,serif" font-size="14.00">mutex</text>
</a>
</g>
</g>
<!-- 5&#45;&gt;8 -->
<g id="edge8" class="edge">
<title>5&#45;&gt;8</title>
<g id="a_edge8"><a xlink:title="include">
<path fill="none" stroke="#1414ce" d="M213.06,-144.11C259.09,-131.88 313.46,-116.12 321.5,-108 337.65,-91.69 343.88,-65.94 346.22,-46.32"/>
<polygon fill="#1414ce" stroke="#1414ce" points="349.73,-46.43 347.16,-36.15 342.76,-45.79 349.73,-46.43"/>
</a>
</g>
</g>
<!-- 9 -->
<g id="node8" class="node">
<title>9</title>
<g id="a_node8"><a xlink:title="base_connector.h">
<polygon fill="#ffffff" stroke="black" points="295,-108 156,-108 156,-72 295,-72 295,-108"/>
<text text-anchor="middle" x="225.5" y="-86.3" font-family="Times,serif" font-size="14.00">base_connector.h</text>
</a>
</g>
</g>
<!-- 5&#45;&gt;9 -->
<g id="edge9" class="edge">
<title>5&#45;&gt;9</title>
<g id="a_edge9"><a xlink:title="include">
<path fill="none" stroke="#1414ce" d="M166.03,-143.7C175.88,-134.97 187.99,-124.24 198.7,-114.75"/>
<polygon fill="#1414ce" stroke="#1414ce" points="201.03,-117.36 206.2,-108.1 196.39,-112.12 201.03,-117.36"/>
</a>
</g>
</g>
<!-- 9&#45;&gt;3 -->
<g id="edge14" class="edge">
<title>9&#45;&gt;3</title>
<g id="a_edge14"><a xlink:title="include">
<path fill="none" stroke="#1414ce" d="M181.22,-71.88C156.15,-62.18 124.6,-49.98 98.13,-39.74"/>
<polygon fill="#1414ce" stroke="#1414ce" points="99.22,-36.41 88.63,-36.07 96.7,-42.94 99.22,-36.41"/>
</a>
</g>
</g>
<!-- 9&#45;&gt;6 -->
<g id="edge11" class="edge">
<title>9&#45;&gt;6</title>
<g id="a_edge11"><a xlink:title="include">
<path fill="none" stroke="#1414ce" d="M203.5,-71.7C192.29,-62.88 178.5,-52.03 166.35,-42.47"/>
<polygon fill="#1414ce" stroke="#1414ce" points="168.27,-39.54 158.25,-36.1 163.94,-45.04 168.27,-39.54"/>
</a>
</g>
</g>
<!-- 9&#45;&gt;7 -->
<g id="edge12" class="edge">
<title>9&#45;&gt;7</title>
<g id="a_edge12"><a xlink:title="include">
<path fill="none" stroke="#1414ce" d="M228.96,-71.7C230.5,-63.98 232.36,-54.71 234.08,-46.11"/>
<polygon fill="#1414ce" stroke="#1414ce" points="237.55,-46.6 236.08,-36.1 230.69,-45.22 237.55,-46.6"/>
</a>
</g>
</g>
<!-- 9&#45;&gt;8 -->
<g id="edge13" class="edge">
<title>9&#45;&gt;8</title>
<g id="a_edge13"><a xlink:title="include">
<path fill="none" stroke="#1414ce" d="M255.34,-71.88C271.44,-62.64 291.5,-51.13 308.79,-41.21"/>
<polygon fill="#1414ce" stroke="#1414ce" points="310.61,-44.2 317.54,-36.19 307.13,-38.13 310.61,-44.2"/>
</a>
</g>
</g>
</g>
</svg>
