<?xml version="1.0" encoding="UTF-8" standalone="no"?>
<!DOCTYPE svg PUBLIC "-//W3C//DTD SVG 1.1//EN"
 "http://www.w3.org/Graphics/SVG/1.1/DTD/svg11.dtd">
<!-- Generated by graphviz version 2.43.0 (0)
 -->
<!-- Title: %3 Pages: 1 -->
<svg width="1421pt" height="188pt"
 viewBox="0.00 0.00 1420.50 188.00" xmlns="http://www.w3.org/2000/svg" xmlns:xlink="http://www.w3.org/1999/xlink">
<g id="graph0" class="graph" transform="scale(1 1) rotate(0) translate(4 184)">
<title>%3</title>
<polygon fill="transparent" stroke="transparent" points="-4,4 -4,-184 1416.5,-184 1416.5,4 -4,4"/>
<!-- 10 -->
<g id="node1" class="node">
<title>10</title>
<g id="a_node1"><a xlink:title="websocketpp/config/asio_no_tls_client.hpp">
<polygon fill="#ffffff" stroke="black" points="317,-108 0,-108 0,-72 317,-72 317,-108"/>
<text text-anchor="middle" x="158.5" y="-86.3" font-family="Times,serif" font-size="14.00">websocketpp/config/asio_no_tls_client.hpp</text>
</a>
</g>
</g>
<!-- 8 -->
<g id="node2" class="node">
<title>8</title>
<g id="a_node2"><a xlink:title="websocketpp/server.hpp">
<polygon fill="#ffffff" stroke="black" points="525.5,-108 335.5,-108 335.5,-72 525.5,-72 525.5,-108"/>
<text text-anchor="middle" x="430.5" y="-86.3" font-family="Times,serif" font-size="14.00">websocketpp/server.hpp</text>
</a>
</g>
</g>
<!-- 7 -->
<g id="node3" class="node">
<title>7</title>
<g id="a_node3"><a xlink:title="websocketpp/client.hpp">
<polygon fill="#ffffff" stroke="black" points="729,-108 544,-108 544,-72 729,-72 729,-108"/>
<text text-anchor="middle" x="636.5" y="-86.3" font-family="Times,serif" font-size="14.00">websocketpp/client.hpp</text>
</a>
</g>
</g>
<!-- 1 -->
<g id="node4" class="node">
<title>1</title>
<g id="a_node4"><a xlink:title="src/o3ds/websocket.h">
<polygon fill="#bfbfbf" stroke="black" points="901.5,-180 731.5,-180 731.5,-144 901.5,-144 901.5,-180"/>
<text text-anchor="middle" x="816.5" y="-158.3" font-family="Times,serif" font-size="14.00">src/o3ds/websocket.h</text>
</a>
</g>
</g>
<!-- 1&#45;&gt;10 -->
<g id="edge5" class="edge">
<title>1&#45;&gt;10</title>
<g id="a_edge5"><a xlink:title="include">
<path fill="none" stroke="#1414ce" d="M731.49,-151.96C629.66,-141.12 456.63,-122.72 327.29,-108.96"/>
<polygon fill="#1414ce" stroke="#1414ce" points="327.59,-105.47 317.28,-107.89 326.85,-112.43 327.59,-105.47"/>
</a>
</g>
</g>
<!-- 1&#45;&gt;8 -->
<g id="edge3" class="edge">
<title>1&#45;&gt;8</title>
<g id="a_edge3"><a xlink:title="include">
<path fill="none" stroke="#1414ce" d="M731.31,-145.55C673.27,-135.03 596.07,-121.02 534.41,-109.84"/>
<polygon fill="#1414ce" stroke="#1414ce" points="534.72,-106.34 524.26,-108 533.47,-113.23 534.72,-106.34"/>
</a>
</g>
</g>
<!-- 1&#45;&gt;7 -->
<g id="edge2" class="edge">
<title>1&#45;&gt;7</title>
<g id="a_edge2"><a xlink:title="include">
<path fill="none" stroke="#1414ce" d="M772.47,-143.88C747.53,-134.18 716.16,-121.98 689.84,-111.74"/>
<polygon fill="#1414ce" stroke="#1414ce" points="690.98,-108.43 680.39,-108.07 688.44,-114.95 690.98,-108.43"/>
</a>
</g>
</g>
<!-- 9 -->
<g id="node7" class="node">
<title>9</title>
<g id="a_node7"><a xlink:title="boost/thread.hpp">
<polygon fill="#ffffff" stroke="black" points="886,-108 747,-108 747,-72 886,-72 886,-108"/>
<text text-anchor="middle" x="816.5" y="-86.3" font-family="Times,serif" font-size="14.00">boost/thread.hpp</text>
</a>
</g>
</g>
<!-- 1&#45;&gt;9 -->
<g id="edge4" class="edge">
<title>1&#45;&gt;9</title>
<g id="a_edge4"><a xlink:title="include">
<path fill="none" stroke="#1414ce" d="M816.5,-143.7C816.5,-135.98 816.5,-126.71 816.5,-118.11"/>
<polygon fill="#1414ce" stroke="#1414ce" points="820,-118.1 816.5,-108.1 813,-118.1 820,-118.1"/>
</a>
</g>
</g>
<!-- 11 -->
<g id="node8" class="node">
<title>11</title>
<g id="a_node8"><a xlink:title="websocketpp/config/asio_no_tls.hpp">
<polygon fill="#ffffff" stroke="black" points="1174.5,-108 904.5,-108 904.5,-72 1174.5,-72 1174.5,-108"/>
<text text-anchor="middle" x="1039.5" y="-86.3" font-family="Times,serif" font-size="14.00">websocketpp/config/asio_no_tls.hpp</text>
</a>
</g>
</g>
<!-- 1&#45;&gt;11 -->
<g id="edge6" class="edge">
<title>1&#45;&gt;11</title>
<g id="a_edge6"><a xlink:title="include">
<path fill="none" stroke="#1414ce" d="M870.77,-143.97C902.33,-134.06 942.29,-121.51 975.4,-111.12"/>
<polygon fill="#1414ce" stroke="#1414ce" points="976.5,-114.45 984.99,-108.11 974.4,-107.77 976.5,-114.45"/>
</a>
</g>
</g>
<!-- 2 -->
<g id="node11" class="node">
<title>2</title>
<g id="a_node11"><a xlink:title="base_connector.h">
<polygon fill="#ffffff" stroke="black" points="1332,-108 1193,-108 1193,-72 1332,-72 1332,-108"/>
<text text-anchor="middle" x="1262.5" y="-86.3" font-family="Times,serif" font-size="14.00">base_connector.h</text>
</a>
</g>
</g>
<!-- 1&#45;&gt;2 -->
<g id="edge1" class="edge">
<title>1&#45;&gt;2</title>
<g id="a_edge1"><a xlink:title="include">
<path fill="none" stroke="#1414ce" d="M901.68,-150.38C973.9,-140.99 1080.44,-126.23 1182.87,-108.05"/>
<polygon fill="#1414ce" stroke="#1414ce" points="1183.54,-111.48 1192.76,-106.28 1182.3,-104.59 1183.54,-111.48"/>
</a>
</g>
</g>
<!-- 12 -->
<g id="node12" class="node">
<title>12</title>
<g id="a_node12"><a xlink:title="set">
<polygon fill="#ffffff" stroke="black" points="1404.5,-108 1350.5,-108 1350.5,-72 1404.5,-72 1404.5,-108"/>
<text text-anchor="middle" x="1377.5" y="-86.3" font-family="Times,serif" font-size="14.00">set</text>
</a>
</g>
</g>
<!-- 1&#45;&gt;12 -->
<g id="edge7" class="edge">
<title>1&#45;&gt;12</title>
<g id="a_edge7"><a xlink:title="include">
<path fill="none" stroke="#1414ce" d="M901.78,-161.22C1004.86,-159.52 1183.07,-150.31 1340.49,-107.71"/>
<polygon fill="#1414ce" stroke="#1414ce" points="1341.64,-111.02 1350.35,-104.99 1339.78,-104.28 1341.64,-111.02"/>
</a>
</g>
</g>
<!-- 6 -->
<g id="node5" class="node">
<title>6</title>
<g id="a_node5"><a xlink:title="nng/nng.h">
<polygon fill="#ffffff" stroke="black" points="1175,-36 1086,-36 1086,0 1175,0 1175,-36"/>
<text text-anchor="middle" x="1130.5" y="-14.3" font-family="Times,serif" font-size="14.00">nng/nng.h</text>
</a>
</g>
</g>
<!-- 3 -->
<g id="node6" class="node">
<title>3</title>
<g id="a_node6"><a xlink:title="string">
<polygon fill="#ffffff" stroke="black" points="1252,-36 1193,-36 1193,0 1252,0 1252,-36"/>
<text text-anchor="middle" x="1222.5" y="-14.3" font-family="Times,serif" font-size="14.00">string</text>
</a>
</g>
</g>
<!-- 4 -->
<g id="node9" class="node">
<title>4</title>
<g id="a_node9"><a xlink:title="vector">
<polygon fill="#ffffff" stroke="black" points="1332.5,-36 1270.5,-36 1270.5,0 1332.5,0 1332.5,-36"/>
<text text-anchor="middle" x="1301.5" y="-14.3" font-family="Times,serif" font-size="14.00">vector</text>
</a>
</g>
</g>
<!-- 5 -->
<g id="node10" class="node">
<title>5</title>
<g id="a_node10"><a xlink:title="mutex">
<polygon fill="#ffffff" stroke="black" points="1412.5,-36 1350.5,-36 1350.5,0 1412.5,0 1412.5,-36"/>
<text text-anchor="middle" x="1381.5" y="-14.3" font-family="Times,serif" font-size="14.00">mutex</text>
</a>
</g>
</g>
<!-- 2&#45;&gt;6 -->
<g id="edge11" class="edge">
<title>2&#45;&gt;6</title>
<g id="a_edge11"><a xlink:title="include">
<path fill="none" stroke="#1414ce" d="M1230.21,-71.88C1212.63,-62.55 1190.69,-50.92 1171.87,-40.94"/>
<polygon fill="#1414ce" stroke="#1414ce" points="1173.39,-37.78 1162.91,-36.19 1170.11,-43.97 1173.39,-37.78"/>
</a>
</g>
</g>
<!-- 2&#45;&gt;3 -->
<g id="edge8" class="edge">
<title>2&#45;&gt;3</title>
<g id="a_edge8"><a xlink:title="include">
<path fill="none" stroke="#1414ce" d="M1252.61,-71.7C1248.01,-63.64 1242.44,-53.89 1237.35,-44.98"/>
<polygon fill="#1414ce" stroke="#1414ce" points="1240.27,-43.05 1232.27,-36.1 1234.2,-46.52 1240.27,-43.05"/>
</a>
</g>
</g>
<!-- 2&#45;&gt;4 -->
<g id="edge9" class="edge">
<title>2&#45;&gt;4</title>
<g id="a_edge9"><a xlink:title="include">
<path fill="none" stroke="#1414ce" d="M1272.14,-71.7C1276.63,-63.64 1282.06,-53.89 1287.02,-44.98"/>
<polygon fill="#1414ce" stroke="#1414ce" points="1290.16,-46.54 1291.97,-36.1 1284.05,-43.14 1290.16,-46.54"/>
</a>
</g>
</g>
<!-- 2&#45;&gt;5 -->
<g id="edge10" class="edge">
<title>2&#45;&gt;5</title>
<g id="a_edge10"><a xlink:title="include">
<path fill="none" stroke="#1414ce" d="M1291.61,-71.88C1307.17,-62.72 1326.52,-51.34 1343.28,-41.48"/>
<polygon fill="#1414ce" stroke="#1414ce" points="1345.43,-44.28 1352.28,-36.19 1341.88,-38.24 1345.43,-44.28"/>
</a>
</g>
</g>
</g>
</svg>
