<?xml version="1.0" encoding="UTF-8" standalone="no"?>
<!DOCTYPE svg PUBLIC "-//W3C//DTD SVG 1.1//EN"
 "http://www.w3.org/Graphics/SVG/1.1/DTD/svg11.dtd">
<!-- Generated by graphviz version 2.43.0 (0)
 -->
<!-- Title: %3 Pages: 1 -->
<svg width="335pt" height="116pt"
 viewBox="0.00 0.00 334.50 116.00" xmlns="http://www.w3.org/2000/svg" xmlns:xlink="http://www.w3.org/1999/xlink">
<g id="graph0" class="graph" transform="scale(1 1) rotate(0) translate(4 112)">
<title>%3</title>
<polygon fill="transparent" stroke="transparent" points="-4,4 -4,-112 330.5,-112 330.5,4 -4,4"/>
<!-- 5 -->
<g id="node1" class="node">
<title>5</title>
<g id="a_node1"><a xlink:title="nng/nng.h">
<polygon fill="#ffffff" stroke="black" points="89,-36 0,-36 0,0 89,0 89,-36"/>
<text text-anchor="middle" x="44.5" y="-14.3" font-family="Times,serif" font-size="14.00">nng/nng.h</text>
</a>
</g>
</g>
<!-- 2 -->
<g id="node2" class="node">
<title>2</title>
<g id="a_node2"><a xlink:title="string">
<polygon fill="#ffffff" stroke="black" points="166,-36 107,-36 107,0 166,0 166,-36"/>
<text text-anchor="middle" x="136.5" y="-14.3" font-family="Times,serif" font-size="14.00">string</text>
</a>
</g>
</g>
<!-- 3 -->
<g id="node3" class="node">
<title>3</title>
<g id="a_node3"><a xlink:title="vector">
<polygon fill="#ffffff" stroke="black" points="246.5,-36 184.5,-36 184.5,0 246.5,0 246.5,-36"/>
<text text-anchor="middle" x="215.5" y="-14.3" font-family="Times,serif" font-size="14.00">vector</text>
</a>
</g>
</g>
<!-- 4 -->
<g id="node4" class="node">
<title>4</title>
<g id="a_node4"><a xlink:title="mutex">
<polygon fill="#ffffff" stroke="black" points="326.5,-36 264.5,-36 264.5,0 326.5,0 326.5,-36"/>
<text text-anchor="middle" x="295.5" y="-14.3" font-family="Times,serif" font-size="14.00">mutex</text>
</a>
</g>
</g>
<!-- 1 -->
<g id="node5" class="node">
<title>1</title>
<g id="a_node5"><a xlink:title="src/o3ds/base_connector.h">
<polygon fill="#bfbfbf" stroke="black" points="277,-108 74,-108 74,-72 277,-72 277,-108"/>
<text text-anchor="middle" x="175.5" y="-86.3" font-family="Times,serif" font-size="14.00">src/o3ds/base_connector.h</text>
</a>
</g>
</g>
<!-- 1&#45;&gt;5 -->
<g id="edge4" class="edge">
<title>1&#45;&gt;5</title>
<g id="a_edge4"><a xlink:title="include">
<path fill="none" stroke="#1414ce" d="M143.45,-71.88C126.01,-62.55 104.23,-50.92 85.56,-40.94"/>
<polygon fill="#1414ce" stroke="#1414ce" points="87.14,-37.82 76.67,-36.19 83.84,-43.99 87.14,-37.82"/>
</a>
</g>
</g>
<!-- 1&#45;&gt;2 -->
<g id="edge1" class="edge">
<title>1&#45;&gt;2</title>
<g id="a_edge1"><a xlink:title="include">
<path fill="none" stroke="#1414ce" d="M165.86,-71.7C161.37,-63.64 155.94,-53.89 150.98,-44.98"/>
<polygon fill="#1414ce" stroke="#1414ce" points="153.95,-43.14 146.03,-36.1 147.84,-46.54 153.95,-43.14"/>
</a>
</g>
</g>
<!-- 1&#45;&gt;3 -->
<g id="edge2" class="edge">
<title>1&#45;&gt;3</title>
<g id="a_edge2"><a xlink:title="include">
<path fill="none" stroke="#1414ce" d="M185.39,-71.7C189.99,-63.64 195.56,-53.89 200.65,-44.98"/>
<polygon fill="#1414ce" stroke="#1414ce" points="203.8,-46.52 205.73,-36.1 197.73,-43.05 203.8,-46.52"/>
</a>
</g>
</g>
<!-- 1&#45;&gt;4 -->
<g id="edge3" class="edge">
<title>1&#45;&gt;4</title>
<g id="a_edge3"><a xlink:title="include">
<path fill="none" stroke="#1414ce" d="M204.86,-71.88C220.55,-62.72 240.06,-51.34 256.95,-41.48"/>
<polygon fill="#1414ce" stroke="#1414ce" points="259.16,-44.25 266.03,-36.19 255.63,-38.21 259.16,-44.25"/>
</a>
</g>
</g>
</g>
</svg>
