<?xml version="1.0" encoding="UTF-8" standalone="no"?>
<!DOCTYPE svg PUBLIC "-//W3C//DTD SVG 1.1//EN"
 "http://www.w3.org/Graphics/SVG/1.1/DTD/svg11.dtd">
<!-- Generated by graphviz version 2.43.0 (0)
 -->
<!-- Title: %3 Pages: 1 -->
<svg width="194pt" height="260pt"
 viewBox="0.00 0.00 194.00 260.00" xmlns="http://www.w3.org/2000/svg" xmlns:xlink="http://www.w3.org/1999/xlink">
<g id="graph0" class="graph" transform="scale(1 1) rotate(0) translate(4 256)">
<title>%3</title>
<polygon fill="transparent" stroke="transparent" points="-4,4 -4,-256 190,-256 190,4 -4,4"/>
<!-- 4 -->
<g id="node1" class="node">
<title>4</title>
<g id="a_node1"><a xlink:title="O3DS::Connector">
<polygon fill="#ffffff" stroke="black" points="163,-36 23,-36 23,0 163,0 163,-36"/>
<text text-anchor="middle" x="93" y="-14.3" font-family="Times,serif" font-size="14.00">O3DS::Connector</text>
</a>
</g>
</g>
<!-- 1 -->
<g id="node2" class="node">
<title>1</title>
<g id="a_node2"><a xlink:title="O3DS::WebsocketClient">
<polygon fill="#bfbfbf" stroke="black" points="186,-252 0,-252 0,-216 186,-216 186,-252"/>
<text text-anchor="middle" x="93" y="-230.3" font-family="Times,serif" font-size="14.00">O3DS::WebsocketClient</text>
</a>
</g>
</g>
<!-- 2 -->
<g id="node4" class="node">
<title>2</title>
<g id="a_node4"><a xlink:title="O3DS::Websocket">
<polygon fill="#ffffff" stroke="black" points="164.5,-180 21.5,-180 21.5,-144 164.5,-144 164.5,-180"/>
<text text-anchor="middle" x="93" y="-158.3" font-family="Times,serif" font-size="14.00">O3DS::Websocket</text>
</a>
</g>
</g>
<!-- 1&#45;&gt;2 -->
<g id="edge1" class="edge">
<title>1&#45;&gt;2</title>
<g id="a_edge1"><a xlink:title="public&#45;inheritance">
<path fill="none" stroke="#1414ce" d="M93,-215.7C93,-207.98 93,-198.71 93,-190.11"/>
<polygon fill="#1414ce" stroke="#1414ce" points="96.5,-190.1 93,-180.1 89.5,-190.1 96.5,-190.1"/>
</a>
</g>
</g>
<!-- 3 -->
<g id="node3" class="node">
<title>3</title>
<g id="a_node3"><a xlink:title="O3DS::AsyncConnector">
<polygon fill="#ffffff" stroke="black" points="184,-108 2,-108 2,-72 184,-72 184,-108"/>
<text text-anchor="middle" x="93" y="-86.3" font-family="Times,serif" font-size="14.00">O3DS::AsyncConnector</text>
</a>
</g>
</g>
<!-- 3&#45;&gt;4 -->
<g id="edge2" class="edge">
<title>3&#45;&gt;4</title>
<g id="a_edge2"><a xlink:title="public&#45;inheritance">
<path fill="none" stroke="#1414ce" d="M93,-71.7C93,-63.98 93,-54.71 93,-46.11"/>
<polygon fill="#1414ce" stroke="#1414ce" points="96.5,-46.1 93,-36.1 89.5,-46.1 96.5,-46.1"/>
</a>
</g>
</g>
<!-- 2&#45;&gt;3 -->
<g id="edge3" class="edge">
<title>2&#45;&gt;3</title>
<g id="a_edge3"><a xlink:title="public&#45;inheritance">
<path fill="none" stroke="#1414ce" d="M93,-143.7C93,-135.98 93,-126.71 93,-118.11"/>
<polygon fill="#1414ce" stroke="#1414ce" points="96.5,-118.1 93,-108.1 89.5,-118.1 96.5,-118.1"/>
</a>
</g>
</g>
</g>
</svg>
