<?xml version="1.0" encoding="UTF-8" standalone="no"?>
<!DOCTYPE svg PUBLIC "-//W3C//DTD SVG 1.1//EN"
 "http://www.w3.org/Graphics/SVG/1.1/DTD/svg11.dtd">
<!-- Generated by graphviz version 2.43.0 (0)
 -->
<!-- Title: %3 Pages: 1 -->
<svg width="392pt" height="332pt"
 viewBox="0.00 0.00 391.50 332.00" xmlns="http://www.w3.org/2000/svg" xmlns:xlink="http://www.w3.org/1999/xlink">
<g id="graph0" class="graph" transform="scale(1 1) rotate(0) translate(4 328)">
<title>%3</title>
<polygon fill="transparent" stroke="transparent" points="-4,4 -4,-328 387.5,-328 387.5,4 -4,4"/>
<!-- 4 -->
<g id="node1" class="node">
<title>4</title>
<g id="a_node1"><a xlink:title="O3DS::Connector">
<polygon fill="#ffffff" stroke="black" points="260,-36 120,-36 120,0 260,0 260,-36"/>
<text text-anchor="middle" x="190" y="-14.3" font-family="Times,serif" font-size="14.00">O3DS::Connector</text>
</a>
</g>
</g>
<!-- 2 -->
<g id="node2" class="node">
<title>2</title>
<g id="a_node2"><a xlink:title="O3DS::AsyncNngConnector">
<polygon fill="#ffffff" stroke="black" points="296,-180 84,-180 84,-144 296,-144 296,-180"/>
<text text-anchor="middle" x="190" y="-158.3" font-family="Times,serif" font-size="14.00">O3DS::AsyncNngConnector</text>
</a>
</g>
</g>
<!-- 3 -->
<g id="node6" class="node">
<title>3</title>
<g id="a_node6"><a xlink:title="O3DS::AsyncConnector">
<polygon fill="#ffffff" stroke="black" points="281,-108 99,-108 99,-72 281,-72 281,-108"/>
<text text-anchor="middle" x="190" y="-86.3" font-family="Times,serif" font-size="14.00">O3DS::AsyncConnector</text>
</a>
</g>
</g>
<!-- 2&#45;&gt;3 -->
<g id="edge1" class="edge">
<title>2&#45;&gt;3</title>
<g id="a_edge1"><a xlink:title="public&#45;inheritance">
<path fill="none" stroke="#1414ce" d="M190,-143.7C190,-135.98 190,-126.71 190,-118.11"/>
<polygon fill="#1414ce" stroke="#1414ce" points="193.5,-118.1 190,-108.1 186.5,-118.1 193.5,-118.1"/>
</a>
</g>
</g>
<!-- 5 -->
<g id="node3" class="node">
<title>5</title>
<g id="a_node3"><a xlink:title="O3DS::AsyncPairClient">
<polygon fill="#ffffff" stroke="black" points="180,-324 0,-324 0,-288 180,-288 180,-324"/>
<text text-anchor="middle" x="90" y="-302.3" font-family="Times,serif" font-size="14.00">O3DS::AsyncPairClient</text>
</a>
</g>
</g>
<!-- 1 -->
<g id="node4" class="node">
<title>1</title>
<g id="a_node4"><a xlink:title="O3DS::AsyncPair">
<polygon fill="#bfbfbf" stroke="black" points="258.5,-252 121.5,-252 121.5,-216 258.5,-216 258.5,-252"/>
<text text-anchor="middle" x="190" y="-230.3" font-family="Times,serif" font-size="14.00">O3DS::AsyncPair</text>
</a>
</g>
</g>
<!-- 5&#45;&gt;1 -->
<g id="edge2" class="edge">
<title>5&#45;&gt;1</title>
<g id="a_edge2"><a xlink:title="public&#45;inheritance">
<path fill="none" stroke="#1414ce" d="M114.46,-287.88C127.3,-278.89 143.2,-267.76 157.09,-258.03"/>
<polygon fill="#1414ce" stroke="#1414ce" points="159.26,-260.79 165.44,-252.19 155.24,-255.06 159.26,-260.79"/>
</a>
</g>
</g>
<!-- 1&#45;&gt;2 -->
<g id="edge3" class="edge">
<title>1&#45;&gt;2</title>
<g id="a_edge3"><a xlink:title="public&#45;inheritance">
<path fill="none" stroke="#1414ce" d="M190,-215.7C190,-207.98 190,-198.71 190,-190.11"/>
<polygon fill="#1414ce" stroke="#1414ce" points="193.5,-190.1 190,-180.1 186.5,-190.1 193.5,-190.1"/>
</a>
</g>
</g>
<!-- 6 -->
<g id="node5" class="node">
<title>6</title>
<g id="a_node5"><a xlink:title="O3DS::AsyncPairServer">
<polygon fill="#ffffff" stroke="black" points="383.5,-324 198.5,-324 198.5,-288 383.5,-288 383.5,-324"/>
<text text-anchor="middle" x="291" y="-302.3" font-family="Times,serif" font-size="14.00">O3DS::AsyncPairServer</text>
</a>
</g>
</g>
<!-- 6&#45;&gt;1 -->
<g id="edge4" class="edge">
<title>6&#45;&gt;1</title>
<g id="a_edge4"><a xlink:title="public&#45;inheritance">
<path fill="none" stroke="#1414ce" d="M266.29,-287.88C253.33,-278.89 237.27,-267.76 223.23,-258.03"/>
<polygon fill="#1414ce" stroke="#1414ce" points="225.02,-255.01 214.8,-252.19 221.03,-260.76 225.02,-255.01"/>
</a>
</g>
</g>
<!-- 3&#45;&gt;4 -->
<g id="edge5" class="edge">
<title>3&#45;&gt;4</title>
<g id="a_edge5"><a xlink:title="public&#45;inheritance">
<path fill="none" stroke="#1414ce" d="M190,-71.7C190,-63.98 190,-54.71 190,-46.11"/>
<polygon fill="#1414ce" stroke="#1414ce" points="193.5,-46.1 190,-36.1 186.5,-46.1 193.5,-46.1"/>
</a>
</g>
</g>
</g>
</svg>
