<?xml version="1.0" encoding="UTF-8" standalone="no"?>
<!DOCTYPE svg PUBLIC "-//W3C//DTD SVG 1.1//EN"
 "http://www.w3.org/Graphics/SVG/1.1/DTD/svg11.dtd">
<!-- Generated by graphviz version 2.43.0 (0)
 -->
<!-- Title: %3 Pages: 1 -->
<svg width="559pt" height="332pt"
 viewBox="0.00 0.00 558.50 332.00" xmlns="http://www.w3.org/2000/svg" xmlns:xlink="http://www.w3.org/1999/xlink">
<g id="graph0" class="graph" transform="scale(1 1) rotate(0) translate(4 328)">
<title>%3</title>
<polygon fill="transparent" stroke="transparent" points="-4,4 -4,-328 554.5,-328 554.5,4 -4,4"/>
<!-- 2 -->
<g id="node1" class="node">
<title>2</title>
<g id="a_node1"><a xlink:title="request.h">
<polygon fill="#ffffff" stroke="black" points="94,-252 9,-252 9,-216 94,-216 94,-252"/>
<text text-anchor="middle" x="51.5" y="-230.3" font-family="Times,serif" font-size="14.00">request.h</text>
</a>
</g>
</g>
<!-- 3 -->
<g id="node2" class="node">
<title>3</title>
<g id="a_node2"><a xlink:title="nng/nng.h">
<polygon fill="#ffffff" stroke="black" points="89,-36 0,-36 0,0 89,0 89,-36"/>
<text text-anchor="middle" x="44.5" y="-14.3" font-family="Times,serif" font-size="14.00">nng/nng.h</text>
</a>
</g>
</g>
<!-- 2&#45;&gt;3 -->
<g id="edge1" class="edge">
<title>2&#45;&gt;3</title>
<g id="a_edge1"><a xlink:title="include">
<path fill="none" stroke="#1414ce" d="M45.68,-215.56C42.57,-205.33 39.07,-192.08 37.5,-180 31.32,-132.4 34.35,-119.9 37.5,-72 38.06,-63.53 39.11,-54.36 40.23,-46.06"/>
<polygon fill="#1414ce" stroke="#1414ce" points="43.7,-46.53 41.66,-36.13 36.77,-45.53 43.7,-46.53"/>
</a>
</g>
</g>
<!-- 5 -->
<g id="node3" class="node">
<title>5</title>
<g id="a_node3"><a xlink:title="string">
<polygon fill="#ffffff" stroke="black" points="166,-36 107,-36 107,0 166,0 166,-36"/>
<text text-anchor="middle" x="136.5" y="-14.3" font-family="Times,serif" font-size="14.00">string</text>
</a>
</g>
</g>
<!-- 2&#45;&gt;5 -->
<g id="edge3" class="edge">
<title>2&#45;&gt;5</title>
<g id="a_edge3"><a xlink:title="include">
<path fill="none" stroke="#1414ce" d="M58.31,-215.85C73.11,-178.6 108.27,-90.07 125.96,-45.54"/>
<polygon fill="#1414ce" stroke="#1414ce" points="129.22,-46.82 129.66,-36.23 122.71,-44.23 129.22,-46.82"/>
</a>
</g>
</g>
<!-- 4 -->
<g id="node8" class="node">
<title>4</title>
<g id="a_node8"><a xlink:title="nng_connector.h">
<polygon fill="#ffffff" stroke="black" points="252,-180 119,-180 119,-144 252,-144 252,-180"/>
<text text-anchor="middle" x="185.5" y="-158.3" font-family="Times,serif" font-size="14.00">nng_connector.h</text>
</a>
</g>
</g>
<!-- 2&#45;&gt;4 -->
<g id="edge2" class="edge">
<title>2&#45;&gt;4</title>
<g id="a_edge2"><a xlink:title="include">
<path fill="none" stroke="#1414ce" d="M84.28,-215.88C102.13,-206.55 124.4,-194.92 143.5,-184.94"/>
<polygon fill="#1414ce" stroke="#1414ce" points="145.35,-187.92 152.59,-180.19 142.11,-181.72 145.35,-187.92"/>
</a>
</g>
</g>
<!-- 10 -->
<g id="node4" class="node">
<title>10</title>
<g id="a_node4"><a xlink:title="nng/protocol/reqrep0/req.h">
<polygon fill="#ffffff" stroke="black" points="322.5,-252 112.5,-252 112.5,-216 322.5,-216 322.5,-252"/>
<text text-anchor="middle" x="217.5" y="-230.3" font-family="Times,serif" font-size="14.00">nng/protocol/reqrep0/req.h</text>
</a>
</g>
</g>
<!-- 1 -->
<g id="node5" class="node">
<title>1</title>
<g id="a_node5"><a xlink:title="src/o3ds/request.cpp">
<polygon fill="#bfbfbf" stroke="black" points="300.5,-324 134.5,-324 134.5,-288 300.5,-288 300.5,-324"/>
<text text-anchor="middle" x="217.5" y="-302.3" font-family="Times,serif" font-size="14.00">src/o3ds/request.cpp</text>
</a>
</g>
</g>
<!-- 1&#45;&gt;2 -->
<g id="edge4" class="edge">
<title>1&#45;&gt;2</title>
<g id="a_edge4"><a xlink:title="include">
<path fill="none" stroke="#1414ce" d="M176.89,-287.88C154.1,-278.26 125.47,-266.19 101.33,-256.01"/>
<polygon fill="#1414ce" stroke="#1414ce" points="102.55,-252.73 91.98,-252.07 99.83,-259.18 102.55,-252.73"/>
</a>
</g>
</g>
<!-- 1&#45;&gt;10 -->
<g id="edge6" class="edge">
<title>1&#45;&gt;10</title>
<g id="a_edge6"><a xlink:title="include">
<path fill="none" stroke="#1414ce" d="M217.5,-287.7C217.5,-279.98 217.5,-270.71 217.5,-262.11"/>
<polygon fill="#1414ce" stroke="#1414ce" points="221,-262.1 217.5,-252.1 214,-262.1 221,-262.1"/>
</a>
</g>
</g>
<!-- 9 -->
<g id="node7" class="node">
<title>9</title>
<g id="a_node7"><a xlink:title="nng/protocol/reqrep0/rep.h">
<polygon fill="#ffffff" stroke="black" points="550.5,-252 340.5,-252 340.5,-216 550.5,-216 550.5,-252"/>
<text text-anchor="middle" x="445.5" y="-230.3" font-family="Times,serif" font-size="14.00">nng/protocol/reqrep0/rep.h</text>
</a>
</g>
</g>
<!-- 1&#45;&gt;9 -->
<g id="edge5" class="edge">
<title>1&#45;&gt;9</title>
<g id="a_edge5"><a xlink:title="include">
<path fill="none" stroke="#1414ce" d="M272.98,-287.97C305.26,-278.06 346.11,-265.51 379.96,-255.12"/>
<polygon fill="#1414ce" stroke="#1414ce" points="381.24,-258.39 389.77,-252.11 379.18,-251.7 381.24,-258.39"/>
</a>
</g>
</g>
<!-- 6 -->
<g id="node6" class="node">
<title>6</title>
<g id="a_node6"><a xlink:title="vector">
<polygon fill="#ffffff" stroke="black" points="270.5,-36 208.5,-36 208.5,0 270.5,0 270.5,-36"/>
<text text-anchor="middle" x="239.5" y="-14.3" font-family="Times,serif" font-size="14.00">vector</text>
</a>
</g>
</g>
<!-- 4&#45;&gt;3 -->
<g id="edge11" class="edge">
<title>4&#45;&gt;3</title>
<g id="a_edge11"><a xlink:title="include">
<path fill="none" stroke="#1414ce" d="M168.49,-143.87C143.61,-118.82 97.18,-72.05 68.73,-43.41"/>
<polygon fill="#1414ce" stroke="#1414ce" points="71.1,-40.82 61.57,-36.19 66.13,-45.75 71.1,-40.82"/>
</a>
</g>
</g>
<!-- 4&#45;&gt;5 -->
<g id="edge7" class="edge">
<title>4&#45;&gt;5</title>
<g id="a_edge7"><a xlink:title="include">
<path fill="none" stroke="#1414ce" d="M169.21,-143.78C160.98,-134.04 151.66,-121.19 146.5,-108 138.77,-88.24 136.44,-64.26 135.95,-46.17"/>
<polygon fill="#1414ce" stroke="#1414ce" points="139.44,-45.99 135.84,-36.02 132.44,-46.06 139.44,-45.99"/>
</a>
</g>
</g>
<!-- 4&#45;&gt;6 -->
<g id="edge8" class="edge">
<title>4&#45;&gt;6</title>
<g id="a_edge8"><a xlink:title="include">
<path fill="none" stroke="#1414ce" d="M252.13,-146.1C272.06,-138.2 291.73,-126.19 303.5,-108 312.19,-94.57 310.31,-86.48 303.5,-72 297.98,-60.26 288.43,-50.22 278.38,-42.15"/>
<polygon fill="#1414ce" stroke="#1414ce" points="280.38,-39.27 270.27,-36.09 276.19,-44.88 280.38,-39.27"/>
</a>
</g>
</g>
<!-- 7 -->
<g id="node9" class="node">
<title>7</title>
<g id="a_node9"><a xlink:title="mutex">
<polygon fill="#ffffff" stroke="black" points="378.5,-36 316.5,-36 316.5,0 378.5,0 378.5,-36"/>
<text text-anchor="middle" x="347.5" y="-14.3" font-family="Times,serif" font-size="14.00">mutex</text>
</a>
</g>
</g>
<!-- 4&#45;&gt;7 -->
<g id="edge9" class="edge">
<title>4&#45;&gt;7</title>
<g id="a_edge9"><a xlink:title="include">
<path fill="none" stroke="#1414ce" d="M252.28,-147.71C276.63,-139.83 302.56,-127.42 320.5,-108 336.03,-91.18 342.64,-65.7 345.45,-46.31"/>
<polygon fill="#1414ce" stroke="#1414ce" points="348.94,-46.6 346.65,-36.25 341.98,-45.77 348.94,-46.6"/>
</a>
</g>
</g>
<!-- 8 -->
<g id="node10" class="node">
<title>8</title>
<g id="a_node10"><a xlink:title="base_connector.h">
<polygon fill="#ffffff" stroke="black" points="295,-108 156,-108 156,-72 295,-72 295,-108"/>
<text text-anchor="middle" x="225.5" y="-86.3" font-family="Times,serif" font-size="14.00">base_connector.h</text>
</a>
</g>
</g>
<!-- 4&#45;&gt;8 -->
<g id="edge10" class="edge">
<title>4&#45;&gt;8</title>
<g id="a_edge10"><a xlink:title="include">
<path fill="none" stroke="#1414ce" d="M195.39,-143.7C199.99,-135.64 205.56,-125.89 210.65,-116.98"/>
<polygon fill="#1414ce" stroke="#1414ce" points="213.8,-118.52 215.73,-108.1 207.73,-115.05 213.8,-118.52"/>
</a>
</g>
</g>
<!-- 8&#45;&gt;3 -->
<g id="edge15" class="edge">
<title>8&#45;&gt;3</title>
<g id="a_edge15"><a xlink:title="include">
<path fill="none" stroke="#1414ce" d="M181.22,-71.88C156.15,-62.18 124.6,-49.98 98.13,-39.74"/>
<polygon fill="#1414ce" stroke="#1414ce" points="99.22,-36.41 88.63,-36.07 96.7,-42.94 99.22,-36.41"/>
</a>
</g>
</g>
<!-- 8&#45;&gt;5 -->
<g id="edge12" class="edge">
<title>8&#45;&gt;5</title>
<g id="a_edge12"><a xlink:title="include">
<path fill="none" stroke="#1414ce" d="M203.5,-71.7C192.29,-62.88 178.5,-52.03 166.35,-42.47"/>
<polygon fill="#1414ce" stroke="#1414ce" points="168.27,-39.54 158.25,-36.1 163.94,-45.04 168.27,-39.54"/>
</a>
</g>
</g>
<!-- 8&#45;&gt;6 -->
<g id="edge13" class="edge">
<title>8&#45;&gt;6</title>
<g id="a_edge13"><a xlink:title="include">
<path fill="none" stroke="#1414ce" d="M228.96,-71.7C230.5,-63.98 232.36,-54.71 234.08,-46.11"/>
<polygon fill="#1414ce" stroke="#1414ce" points="237.55,-46.6 236.08,-36.1 230.69,-45.22 237.55,-46.6"/>
</a>
</g>
</g>
<!-- 8&#45;&gt;7 -->
<g id="edge14" class="edge">
<title>8&#45;&gt;7</title>
<g id="a_edge14"><a xlink:title="include">
<path fill="none" stroke="#1414ce" d="M255.34,-71.88C271.44,-62.64 291.5,-51.13 308.79,-41.21"/>
<polygon fill="#1414ce" stroke="#1414ce" points="310.61,-44.2 317.54,-36.19 307.13,-38.13 310.61,-44.2"/>
</a>
</g>
</g>
</g>
</svg>
