<?xml version="1.0" encoding="UTF-8" standalone="no"?>
<!DOCTYPE svg PUBLIC "-//W3C//DTD SVG 1.1//EN"
 "http://www.w3.org/Graphics/SVG/1.1/DTD/svg11.dtd">
<!-- Generated by graphviz version 2.43.0 (0)
 -->
<!-- Title: %3 Pages: 1 -->
<svg width="352pt" height="260pt"
 viewBox="0.00 0.00 351.50 260.00" xmlns="http://www.w3.org/2000/svg" xmlns:xlink="http://www.w3.org/1999/xlink">
<g id="graph0" class="graph" transform="scale(1 1) rotate(0) translate(4 256)">
<title>%3</title>
<polygon fill="transparent" stroke="transparent" points="-4,4 -4,-256 347.5,-256 347.5,4 -4,4"/>
<!-- 3 -->
<g id="node1" class="node">
<title>3</title>
<g id="a_node1"><a xlink:title="O3DS::Connector">
<polygon fill="#ffffff" stroke="black" points="149.5,-108 9.5,-108 9.5,-72 149.5,-72 149.5,-108"/>
<text text-anchor="middle" x="79.5" y="-86.3" font-family="Times,serif" font-size="14.00">O3DS::Connector</text>
</a>
</g>
</g>
<!-- 5 -->
<g id="node2" class="node">
<title>5</title>
<g id="a_node2"><a xlink:title="string">
<polygon fill="#ffffff" stroke="black" points="59,-36 0,-36 0,0 59,0 59,-36"/>
<text text-anchor="middle" x="29.5" y="-14.3" font-family="Times,serif" font-size="14.00">string</text>
</a>
</g>
</g>
<!-- 3&#45;&gt;5 -->
<g id="edge2" class="edge">
<title>3&#45;&gt;5</title>
<g id="a_edge2"><a xlink:title="usage">
<path fill="none" stroke="#1414ce" d="M67.14,-71.7C61.27,-63.47 54.13,-53.48 47.66,-44.42"/>
<polygon fill="#1414ce" stroke="#1414ce" points="50.38,-42.21 41.72,-36.1 44.68,-46.28 50.38,-42.21"/>
</a>
</g>
</g>
<!-- 4 -->
<g id="node3" class="node">
<title>4</title>
<g id="a_node3"><a xlink:title="enum eState">
<polygon fill="#ffffff" stroke="black" points="184,-36 77,-36 77,0 184,0 184,-36"/>
<text text-anchor="middle" x="130.5" y="-14.3" font-family="Times,serif" font-size="14.00">enum eState</text>
</a>
</g>
</g>
<!-- 3&#45;&gt;4 -->
<g id="edge1" class="edge">
<title>3&#45;&gt;4</title>
<g id="a_edge1"><a xlink:title="usage">
<path fill="none" stroke="#1414ce" d="M92.11,-71.7C98.1,-63.47 105.38,-53.48 111.98,-44.42"/>
<polygon fill="#1414ce" stroke="#1414ce" points="114.98,-46.25 118.04,-36.1 109.32,-42.13 114.98,-46.25"/>
</a>
</g>
</g>
<!-- 7 -->
<g id="node4" class="node">
<title>7</title>
<g id="a_node4"><a xlink:title="nng_socket">
<polygon fill="#ffffff" stroke="black" points="263.5,-108 167.5,-108 167.5,-72 263.5,-72 263.5,-108"/>
<text text-anchor="middle" x="215.5" y="-86.3" font-family="Times,serif" font-size="14.00">nng_socket</text>
</a>
</g>
</g>
<!-- 1 -->
<g id="node5" class="node">
<title>1</title>
<g id="a_node5"><a xlink:title="O3DS::Pull">
<polygon fill="#bfbfbf" stroke="black" points="263,-252 168,-252 168,-216 263,-216 263,-252"/>
<text text-anchor="middle" x="215.5" y="-230.3" font-family="Times,serif" font-size="14.00">O3DS::Pull</text>
</a>
</g>
</g>
<!-- 2 -->
<g id="node6" class="node">
<title>2</title>
<g id="a_node6"><a xlink:title="O3DS::BlockingNngConnector">
<polygon fill="#ffffff" stroke="black" points="331.5,-180 99.5,-180 99.5,-144 331.5,-144 331.5,-180"/>
<text text-anchor="middle" x="215.5" y="-158.3" font-family="Times,serif" font-size="14.00">O3DS::BlockingNngConnector</text>
</a>
</g>
</g>
<!-- 1&#45;&gt;2 -->
<g id="edge3" class="edge">
<title>1&#45;&gt;2</title>
<g id="a_edge3"><a xlink:title="public&#45;inheritance">
<path fill="none" stroke="#1414ce" d="M215.5,-215.7C215.5,-207.98 215.5,-198.71 215.5,-190.11"/>
<polygon fill="#1414ce" stroke="#1414ce" points="219,-190.1 215.5,-180.1 212,-190.1 219,-190.1"/>
</a>
</g>
</g>
<!-- 2&#45;&gt;3 -->
<g id="edge4" class="edge">
<title>2&#45;&gt;3</title>
<g id="a_edge4"><a xlink:title="public&#45;inheritance">
<path fill="none" stroke="#1414ce" d="M182.23,-143.88C164.04,-134.51 141.31,-122.81 121.86,-112.8"/>
<polygon fill="#1414ce" stroke="#1414ce" points="123.39,-109.65 112.9,-108.19 120.19,-115.88 123.39,-109.65"/>
</a>
</g>
</g>
<!-- 2&#45;&gt;7 -->
<g id="edge6" class="edge">
<title>2&#45;&gt;7</title>
<g id="a_edge6"><a xlink:title="usage">
<path fill="none" stroke="#1414ce" d="M215.5,-143.7C215.5,-135.98 215.5,-126.71 215.5,-118.11"/>
<polygon fill="#1414ce" stroke="#1414ce" points="219,-118.1 215.5,-108.1 212,-118.1 219,-118.1"/>
</a>
</g>
</g>
<!-- 6 -->
<g id="node7" class="node">
<title>6</title>
<g id="a_node7"><a xlink:title="mutex">
<polygon fill="#ffffff" stroke="black" points="343.5,-108 281.5,-108 281.5,-72 343.5,-72 343.5,-108"/>
<text text-anchor="middle" x="312.5" y="-86.3" font-family="Times,serif" font-size="14.00">mutex</text>
</a>
</g>
</g>
<!-- 2&#45;&gt;6 -->
<g id="edge5" class="edge">
<title>2&#45;&gt;6</title>
<g id="a_edge5"><a xlink:title="usage">
<path fill="none" stroke="#1414ce" d="M239.48,-143.7C251.81,-134.8 267.02,-123.82 280.35,-114.2"/>
<polygon fill="#1414ce" stroke="#1414ce" points="282.74,-116.79 288.8,-108.1 278.64,-111.12 282.74,-116.79"/>
</a>
</g>
</g>
</g>
</svg>
