<?xml version="1.0" encoding="UTF-8" standalone="no"?>
<!DOCTYPE svg PUBLIC "-//W3C//DTD SVG 1.1//EN"
 "http://www.w3.org/Graphics/SVG/1.1/DTD/svg11.dtd">
<!-- Generated by graphviz version 2.43.0 (0)
 -->
<!-- Title: %3 Pages: 1 -->
<svg width="723pt" height="260pt"
 viewBox="0.00 0.00 722.50 260.00" xmlns="http://www.w3.org/2000/svg" xmlns:xlink="http://www.w3.org/1999/xlink">
<g id="graph0" class="graph" transform="scale(1 1) rotate(0) translate(4 256)">
<title>%3</title>
<polygon fill="transparent" stroke="transparent" points="-4,4 -4,-256 718.5,-256 718.5,4 -4,4"/>
<!-- 3 -->
<g id="node1" class="node">
<title>3</title>
<g id="a_node1"><a xlink:title="nng/protocol/pubsub0/sub.h">
<polygon fill="#ffffff" stroke="black" points="216,-180 0,-180 0,-144 216,-144 216,-180"/>
<text text-anchor="middle" x="108" y="-158.3" font-family="Times,serif" font-size="14.00">nng/protocol/pubsub0/sub.h</text>
</a>
</g>
</g>
<!-- 1 -->
<g id="node2" class="node">
<title>1</title>
<g id="a_node2"><a xlink:title="src/o3ds/async_subscriber.h">
<polygon fill="#bfbfbf" stroke="black" points="390,-252 174,-252 174,-216 390,-216 390,-252"/>
<text text-anchor="middle" x="282" y="-230.3" font-family="Times,serif" font-size="14.00">src/o3ds/async_subscriber.h</text>
</a>
</g>
</g>
<!-- 1&#45;&gt;3 -->
<g id="edge2" class="edge">
<title>1&#45;&gt;3</title>
<g id="a_edge2"><a xlink:title="include">
<path fill="none" stroke="#1414ce" d="M239.43,-215.88C215.44,-206.22 185.27,-194.09 159.9,-183.88"/>
<polygon fill="#1414ce" stroke="#1414ce" points="161.01,-180.55 150.43,-180.07 158.4,-187.05 161.01,-180.55"/>
</a>
</g>
</g>
<!-- 2 -->
<g id="node3" class="node">
<title>2</title>
<g id="a_node3"><a xlink:title="nng/nng.h">
<polygon fill="#ffffff" stroke="black" points="319.5,-36 230.5,-36 230.5,0 319.5,0 319.5,-36"/>
<text text-anchor="middle" x="275" y="-14.3" font-family="Times,serif" font-size="14.00">nng/nng.h</text>
</a>
</g>
</g>
<!-- 1&#45;&gt;2 -->
<g id="edge1" class="edge">
<title>1&#45;&gt;2</title>
<g id="a_edge1"><a xlink:title="include">
<path fill="none" stroke="#1414ce" d="M276.18,-215.56C273.07,-205.33 269.57,-192.08 268,-180 261.82,-132.4 264.85,-119.9 268,-72 268.56,-63.53 269.61,-54.36 270.73,-46.06"/>
<polygon fill="#1414ce" stroke="#1414ce" points="274.2,-46.53 272.16,-36.13 267.27,-45.53 274.2,-46.53"/>
</a>
</g>
</g>
<!-- 6 -->
<g id="node4" class="node">
<title>6</title>
<g id="a_node4"><a xlink:title="string">
<polygon fill="#ffffff" stroke="black" points="396.5,-36 337.5,-36 337.5,0 396.5,0 396.5,-36"/>
<text text-anchor="middle" x="367" y="-14.3" font-family="Times,serif" font-size="14.00">string</text>
</a>
</g>
</g>
<!-- 1&#45;&gt;6 -->
<g id="edge5" class="edge">
<title>1&#45;&gt;6</title>
<g id="a_edge5"><a xlink:title="include">
<path fill="none" stroke="#1414ce" d="M284.22,-215.88C286.92,-197.67 292.22,-168.21 301,-144 314.06,-108 335.73,-69.44 350.65,-44.82"/>
<polygon fill="#1414ce" stroke="#1414ce" points="353.75,-46.45 356.01,-36.1 347.79,-42.78 353.75,-46.45"/>
</a>
</g>
</g>
<!-- 4 -->
<g id="node5" class="node">
<title>4</title>
<g id="a_node5"><a xlink:title="nng/supplemental/util/platform.h">
<polygon fill="#ffffff" stroke="black" points="714.5,-180 461.5,-180 461.5,-144 714.5,-144 714.5,-180"/>
<text text-anchor="middle" x="588" y="-158.3" font-family="Times,serif" font-size="14.00">nng/supplemental/util/platform.h</text>
</a>
</g>
</g>
<!-- 1&#45;&gt;4 -->
<g id="edge3" class="edge">
<title>1&#45;&gt;4</title>
<g id="a_edge3"><a xlink:title="include">
<path fill="none" stroke="#1414ce" d="M356.46,-215.97C400.88,-205.8 457.42,-192.87 503.5,-182.33"/>
<polygon fill="#1414ce" stroke="#1414ce" points="504.5,-185.69 513.47,-180.05 502.94,-178.87 504.5,-185.69"/>
</a>
</g>
</g>
<!-- 5 -->
<g id="node7" class="node">
<title>5</title>
<g id="a_node7"><a xlink:title="nng_connector.h">
<polygon fill="#ffffff" stroke="black" points="443.5,-180 310.5,-180 310.5,-144 443.5,-144 443.5,-180"/>
<text text-anchor="middle" x="377" y="-158.3" font-family="Times,serif" font-size="14.00">nng_connector.h</text>
</a>
</g>
</g>
<!-- 1&#45;&gt;5 -->
<g id="edge4" class="edge">
<title>1&#45;&gt;5</title>
<g id="a_edge4"><a xlink:title="include">
<path fill="none" stroke="#1414ce" d="M305.48,-215.7C317.56,-206.8 332.45,-195.82 345.52,-186.2"/>
<polygon fill="#1414ce" stroke="#1414ce" points="347.81,-188.85 353.79,-180.1 343.66,-183.22 347.81,-188.85"/>
</a>
</g>
</g>
<!-- 7 -->
<g id="node6" class="node">
<title>7</title>
<g id="a_node6"><a xlink:title="vector">
<polygon fill="#ffffff" stroke="black" points="501,-36 439,-36 439,0 501,0 501,-36"/>
<text text-anchor="middle" x="470" y="-14.3" font-family="Times,serif" font-size="14.00">vector</text>
</a>
</g>
</g>
<!-- 5&#45;&gt;2 -->
<g id="edge10" class="edge">
<title>5&#45;&gt;2</title>
<g id="a_edge10"><a xlink:title="include">
<path fill="none" stroke="#1414ce" d="M364.7,-143.87C346.93,-119.14 313.96,-73.24 293.33,-44.51"/>
<polygon fill="#1414ce" stroke="#1414ce" points="296.02,-42.27 287.35,-36.19 290.34,-46.35 296.02,-42.27"/>
</a>
</g>
</g>
<!-- 5&#45;&gt;6 -->
<g id="edge6" class="edge">
<title>5&#45;&gt;6</title>
<g id="a_edge6"><a xlink:title="include">
<path fill="none" stroke="#1414ce" d="M375.79,-143.87C374.09,-119.67 370.96,-75.21 368.93,-46.39"/>
<polygon fill="#1414ce" stroke="#1414ce" points="372.4,-45.92 368.21,-36.19 365.42,-46.41 372.4,-45.92"/>
</a>
</g>
</g>
<!-- 5&#45;&gt;7 -->
<g id="edge7" class="edge">
<title>5&#45;&gt;7</title>
<g id="a_edge7"><a xlink:title="include">
<path fill="none" stroke="#1414ce" d="M439.08,-143.92C480.71,-131.84 528.98,-116.37 535,-108 544.34,-95.01 541.86,-86.45 535,-72 529.38,-60.17 519.69,-50.11 509.47,-42.03"/>
<polygon fill="#1414ce" stroke="#1414ce" points="511.37,-39.09 501.24,-35.99 507.23,-44.73 511.37,-39.09"/>
</a>
</g>
</g>
<!-- 8 -->
<g id="node8" class="node">
<title>8</title>
<g id="a_node8"><a xlink:title="mutex">
<polygon fill="#ffffff" stroke="black" points="609,-36 547,-36 547,0 609,0 609,-36"/>
<text text-anchor="middle" x="578" y="-14.3" font-family="Times,serif" font-size="14.00">mutex</text>
</a>
</g>
</g>
<!-- 5&#45;&gt;8 -->
<g id="edge8" class="edge">
<title>5&#45;&gt;8</title>
<g id="a_edge8"><a xlink:title="include">
<path fill="none" stroke="#1414ce" d="M443.56,-144.11C489.59,-131.88 543.96,-116.12 552,-108 568.15,-91.69 574.38,-65.94 576.72,-46.32"/>
<polygon fill="#1414ce" stroke="#1414ce" points="580.23,-46.43 577.66,-36.15 573.26,-45.79 580.23,-46.43"/>
</a>
</g>
</g>
<!-- 9 -->
<g id="node9" class="node">
<title>9</title>
<g id="a_node9"><a xlink:title="base_connector.h">
<polygon fill="#ffffff" stroke="black" points="525.5,-108 386.5,-108 386.5,-72 525.5,-72 525.5,-108"/>
<text text-anchor="middle" x="456" y="-86.3" font-family="Times,serif" font-size="14.00">base_connector.h</text>
</a>
</g>
</g>
<!-- 5&#45;&gt;9 -->
<g id="edge9" class="edge">
<title>5&#45;&gt;9</title>
<g id="a_edge9"><a xlink:title="include">
<path fill="none" stroke="#1414ce" d="M396.53,-143.7C406.38,-134.97 418.49,-124.24 429.2,-114.75"/>
<polygon fill="#1414ce" stroke="#1414ce" points="431.53,-117.36 436.7,-108.1 426.89,-112.12 431.53,-117.36"/>
</a>
</g>
</g>
<!-- 9&#45;&gt;2 -->
<g id="edge14" class="edge">
<title>9&#45;&gt;2</title>
<g id="a_edge14"><a xlink:title="include">
<path fill="none" stroke="#1414ce" d="M411.72,-71.88C386.65,-62.18 355.1,-49.98 328.63,-39.74"/>
<polygon fill="#1414ce" stroke="#1414ce" points="329.72,-36.41 319.13,-36.07 327.2,-42.94 329.72,-36.41"/>
</a>
</g>
</g>
<!-- 9&#45;&gt;6 -->
<g id="edge11" class="edge">
<title>9&#45;&gt;6</title>
<g id="a_edge11"><a xlink:title="include">
<path fill="none" stroke="#1414ce" d="M434,-71.7C422.79,-62.88 409,-52.03 396.85,-42.47"/>
<polygon fill="#1414ce" stroke="#1414ce" points="398.77,-39.54 388.75,-36.1 394.44,-45.04 398.77,-39.54"/>
</a>
</g>
</g>
<!-- 9&#45;&gt;7 -->
<g id="edge12" class="edge">
<title>9&#45;&gt;7</title>
<g id="a_edge12"><a xlink:title="include">
<path fill="none" stroke="#1414ce" d="M459.46,-71.7C461,-63.98 462.86,-54.71 464.58,-46.11"/>
<polygon fill="#1414ce" stroke="#1414ce" points="468.05,-46.6 466.58,-36.1 461.19,-45.22 468.05,-46.6"/>
</a>
</g>
</g>
<!-- 9&#45;&gt;8 -->
<g id="edge13" class="edge">
<title>9&#45;&gt;8</title>
<g id="a_edge13"><a xlink:title="include">
<path fill="none" stroke="#1414ce" d="M485.84,-71.88C501.94,-62.64 522,-51.13 539.29,-41.21"/>
<polygon fill="#1414ce" stroke="#1414ce" points="541.11,-44.2 548.04,-36.19 537.63,-38.13 541.11,-44.2"/>
</a>
</g>
</g>
</g>
</svg>
