<?xml version="1.0" encoding="UTF-8" standalone="no"?>
<!DOCTYPE svg PUBLIC "-//W3C//DTD SVG 1.1//EN"
 "http://www.w3.org/Graphics/SVG/1.1/DTD/svg11.dtd">
<!-- Generated by graphviz version 2.43.0 (0)
 -->
<!-- Title: %3 Pages: 1 -->
<svg width="941pt" height="116pt"
 viewBox="0.00 0.00 941.00 116.00" xmlns="http://www.w3.org/2000/svg" xmlns:xlink="http://www.w3.org/1999/xlink">
<g id="graph0" class="graph" transform="scale(1 1) rotate(0) translate(4 112)">
<title>%3</title>
<polygon fill="transparent" stroke="transparent" points="-4,4 -4,-112 937,-112 937,4 -4,4"/>
<!-- 3 -->
<g id="node1" class="node">
<title>3</title>
<g id="a_node1"><a xlink:title="stdlib.h">
<polygon fill="#ffffff" stroke="black" points="71,-36 0,-36 0,0 71,0 71,-36"/>
<text text-anchor="middle" x="35.5" y="-14.3" font-family="Times,serif" font-size="14.00">stdlib.h</text>
</a>
</g>
</g>
<!-- 6 -->
<g id="node2" class="node">
<title>6</title>
<g id="a_node2"><a xlink:title="nng/nng.h">
<polygon fill="#ffffff" stroke="black" points="178,-36 89,-36 89,0 178,0 178,-36"/>
<text text-anchor="middle" x="133.5" y="-14.3" font-family="Times,serif" font-size="14.00">nng/nng.h</text>
</a>
</g>
</g>
<!-- 7 -->
<g id="node3" class="node">
<title>7</title>
<g id="a_node3"><a xlink:title="nng/protocol/reqrep0/req.h">
<polygon fill="#ffffff" stroke="black" points="406.5,-36 196.5,-36 196.5,0 406.5,0 406.5,-36"/>
<text text-anchor="middle" x="301.5" y="-14.3" font-family="Times,serif" font-size="14.00">nng/protocol/reqrep0/req.h</text>
</a>
</g>
</g>
<!-- 8 -->
<g id="node4" class="node">
<title>8</title>
<g id="a_node4"><a xlink:title="nng/supplemental/util/platform.h">
<polygon fill="#ffffff" stroke="black" points="678,-36 425,-36 425,0 678,0 678,-36"/>
<text text-anchor="middle" x="551.5" y="-14.3" font-family="Times,serif" font-size="14.00">nng/supplemental/util/platform.h</text>
</a>
</g>
</g>
<!-- 4 -->
<g id="node5" class="node">
<title>4</title>
<g id="a_node5"><a xlink:title="string.h">
<polygon fill="#ffffff" stroke="black" points="769,-36 696,-36 696,0 769,0 769,-36"/>
<text text-anchor="middle" x="732.5" y="-14.3" font-family="Times,serif" font-size="14.00">string.h</text>
</a>
</g>
</g>
<!-- 5 -->
<g id="node6" class="node">
<title>5</title>
<g id="a_node6"><a xlink:title="time.h">
<polygon fill="#ffffff" stroke="black" points="849.5,-36 787.5,-36 787.5,0 849.5,0 849.5,-36"/>
<text text-anchor="middle" x="818.5" y="-14.3" font-family="Times,serif" font-size="14.00">time.h</text>
</a>
</g>
</g>
<!-- 1 -->
<g id="node7" class="node">
<title>1</title>
<g id="a_node7"><a xlink:title="src/cmd/o3ds_ping.c">
<polygon fill="#bfbfbf" stroke="black" points="632,-108 471,-108 471,-72 632,-72 632,-108"/>
<text text-anchor="middle" x="551.5" y="-86.3" font-family="Times,serif" font-size="14.00">src/cmd/o3ds_ping.c</text>
</a>
</g>
</g>
<!-- 1&#45;&gt;3 -->
<g id="edge2" class="edge">
<title>1&#45;&gt;3</title>
<g id="a_edge2"><a xlink:title="include">
<path fill="none" stroke="#1414ce" d="M470.65,-86.22C377.98,-81.64 221.79,-69.6 81.36,-36.13"/>
<polygon fill="#1414ce" stroke="#1414ce" points="81.82,-32.64 71.28,-33.69 80.17,-39.44 81.82,-32.64"/>
</a>
</g>
</g>
<!-- 1&#45;&gt;6 -->
<g id="edge5" class="edge">
<title>1&#45;&gt;6</title>
<g id="a_edge5"><a xlink:title="include">
<path fill="none" stroke="#1414ce" d="M470.93,-81.02C399.03,-73.05 290.86,-58.94 188.07,-35.92"/>
<polygon fill="#1414ce" stroke="#1414ce" points="188.66,-32.46 178.14,-33.66 187.11,-39.29 188.66,-32.46"/>
</a>
</g>
</g>
<!-- 1&#45;&gt;7 -->
<g id="edge6" class="edge">
<title>1&#45;&gt;7</title>
<g id="a_edge6"><a xlink:title="include">
<path fill="none" stroke="#1414ce" d="M490.66,-71.97C454.97,-61.97 409.71,-49.3 372.41,-38.85"/>
<polygon fill="#1414ce" stroke="#1414ce" points="373.18,-35.44 362.61,-36.11 371.3,-42.18 373.18,-35.44"/>
</a>
</g>
</g>
<!-- 1&#45;&gt;8 -->
<g id="edge7" class="edge">
<title>1&#45;&gt;8</title>
<g id="a_edge7"><a xlink:title="include">
<path fill="none" stroke="#1414ce" d="M551.5,-71.7C551.5,-63.98 551.5,-54.71 551.5,-46.11"/>
<polygon fill="#1414ce" stroke="#1414ce" points="555,-46.1 551.5,-36.1 548,-46.1 555,-46.1"/>
</a>
</g>
</g>
<!-- 1&#45;&gt;4 -->
<g id="edge3" class="edge">
<title>1&#45;&gt;4</title>
<g id="a_edge3"><a xlink:title="include">
<path fill="none" stroke="#1414ce" d="M595.78,-71.88C623.3,-61.23 658.62,-47.57 686.47,-36.8"/>
<polygon fill="#1414ce" stroke="#1414ce" points="687.92,-39.99 695.98,-33.12 685.39,-33.47 687.92,-39.99"/>
</a>
</g>
</g>
<!-- 1&#45;&gt;5 -->
<g id="edge4" class="edge">
<title>1&#45;&gt;5</title>
<g id="a_edge4"><a xlink:title="include">
<path fill="none" stroke="#1414ce" d="M632.01,-73.74C673.34,-65.07 724.52,-53.06 777.66,-36.01"/>
<polygon fill="#1414ce" stroke="#1414ce" points="778.83,-39.31 787.25,-32.88 776.66,-32.66 778.83,-39.31"/>
</a>
</g>
</g>
<!-- 2 -->
<g id="node8" class="node">
<title>2</title>
<g id="a_node8"><a xlink:title="stdio.h">
<polygon fill="#ffffff" stroke="black" points="933,-36 868,-36 868,0 933,0 933,-36"/>
<text text-anchor="middle" x="900.5" y="-14.3" font-family="Times,serif" font-size="14.00">stdio.h</text>
</a>
</g>
</g>
<!-- 1&#45;&gt;2 -->
<g id="edge1" class="edge">
<title>1&#45;&gt;2</title>
<g id="a_edge1"><a xlink:title="include">
<path fill="none" stroke="#1414ce" d="M632.06,-79.88C692.16,-71.97 776.21,-58.6 857.78,-35.86"/>
<polygon fill="#1414ce" stroke="#1414ce" points="859.05,-39.14 867.72,-33.04 857.14,-32.41 859.05,-39.14"/>
</a>
</g>
</g>
</g>
</svg>
