<?xml version="1.0" encoding="UTF-8" standalone="no"?>
<!DOCTYPE svg PUBLIC "-//W3C//DTD SVG 1.1//EN"
 "http://www.w3.org/Graphics/SVG/1.1/DTD/svg11.dtd">
<!-- Generated by graphviz version 2.43.0 (0)
 -->
<!-- Title: %3 Pages: 1 -->
<svg width="448pt" height="116pt"
 viewBox="0.00 0.00 448.00 116.00" xmlns="http://www.w3.org/2000/svg" xmlns:xlink="http://www.w3.org/1999/xlink">
<g id="graph0" class="graph" transform="scale(1 1) rotate(0) translate(4 112)">
<title>%3</title>
<polygon fill="transparent" stroke="transparent" points="-4,4 -4,-112 444,-112 444,4 -4,4"/>
<!-- 5 -->
<g id="node1" class="node">
<title>5</title>
<g id="a_node1"><a xlink:title="nng_ctx">
<polygon fill="#ffffff" stroke="black" points="72,-36 0,-36 0,0 72,0 72,-36"/>
<text text-anchor="middle" x="36" y="-14.3" font-family="Times,serif" font-size="14.00">nng_ctx</text>
</a>
</g>
</g>
<!-- 1 -->
<g id="node2" class="node">
<title>1</title>
<g id="a_node2"><a xlink:title="work">
<polygon fill="#bfbfbf" stroke="black" points="216,-108 162,-108 162,-72 216,-72 216,-108"/>
<text text-anchor="middle" x="189" y="-86.3" font-family="Times,serif" font-size="14.00">work</text>
</a>
</g>
</g>
<!-- 1&#45;&gt;5 -->
<g id="edge4" class="edge">
<title>1&#45;&gt;5</title>
<g id="a_edge4"><a xlink:title="usage">
<path fill="none" stroke="#1414ce" d="M162,-76.65C139.77,-66.47 107.76,-51.83 81.56,-39.85"/>
<polygon fill="#1414ce" stroke="#1414ce" points="82.76,-36.54 72.21,-35.57 79.84,-42.91 82.76,-36.54"/>
</a>
</g>
</g>
<!-- 3 -->
<g id="node3" class="node">
<title>3</title>
<g id="a_node3"><a xlink:title="nng_msg *">
<polygon fill="#ffffff" stroke="black" points="182,-36 90,-36 90,0 182,0 182,-36"/>
<text text-anchor="middle" x="136" y="-14.3" font-family="Times,serif" font-size="14.00">nng_msg *</text>
</a>
</g>
</g>
<!-- 1&#45;&gt;3 -->
<g id="edge2" class="edge">
<title>1&#45;&gt;3</title>
<g id="a_edge2"><a xlink:title="usage">
<path fill="none" stroke="#1414ce" d="M175.9,-71.7C169.61,-63.39 161.95,-53.28 155.04,-44.14"/>
<polygon fill="#1414ce" stroke="#1414ce" points="157.78,-41.96 148.95,-36.1 152.2,-46.19 157.78,-41.96"/>
</a>
</g>
</g>
<!-- 4 -->
<g id="node4" class="node">
<title>4</title>
<g id="a_node4"><a xlink:title="nng_aio *">
<polygon fill="#ffffff" stroke="black" points="283.5,-36 200.5,-36 200.5,0 283.5,0 283.5,-36"/>
<text text-anchor="middle" x="242" y="-14.3" font-family="Times,serif" font-size="14.00">nng_aio *</text>
</a>
</g>
</g>
<!-- 1&#45;&gt;4 -->
<g id="edge3" class="edge">
<title>1&#45;&gt;4</title>
<g id="a_edge3"><a xlink:title="usage">
<path fill="none" stroke="#1414ce" d="M202.1,-71.7C208.39,-63.39 216.05,-53.28 222.96,-44.14"/>
<polygon fill="#1414ce" stroke="#1414ce" points="225.8,-46.19 229.05,-36.1 220.22,-41.96 225.8,-46.19"/>
</a>
</g>
</g>
<!-- 2 -->
<g id="node5" class="node">
<title>2</title>
<g id="a_node5"><a xlink:title="anonymous:state">
<polygon fill="#ffffff" stroke="black" points="440,-36 302,-36 302,0 440,0 440,-36"/>
<text text-anchor="middle" x="371" y="-14.3" font-family="Times,serif" font-size="14.00">anonymous:state</text>
</a>
</g>
</g>
<!-- 1&#45;&gt;2 -->
<g id="edge1" class="edge">
<title>1&#45;&gt;2</title>
<g id="a_edge1"><a xlink:title="usage">
<path fill="none" stroke="#1414ce" d="M216.25,-78.52C242.78,-68.31 283.85,-52.52 317.01,-39.76"/>
<polygon fill="#1414ce" stroke="#1414ce" points="318.5,-42.94 326.58,-36.08 315.99,-36.41 318.5,-42.94"/>
</a>
</g>
</g>
</g>
</svg>
