<?xml version="1.0" encoding="UTF-8" standalone="no"?>
<!DOCTYPE svg PUBLIC "-//W3C//DTD SVG 1.1//EN"
 "http://www.w3.org/Graphics/SVG/1.1/DTD/svg11.dtd">
<!-- Generated by graphviz version 2.43.0 (0)
 -->
<!-- Title: %3 Pages: 1 -->
<svg width="184pt" height="116pt"
 viewBox="0.00 0.00 183.50 116.00" xmlns="http://www.w3.org/2000/svg" xmlns:xlink="http://www.w3.org/1999/xlink">
<g id="graph0" class="graph" transform="scale(1 1) rotate(0) translate(4 112)">
<title>%3</title>
<polygon fill="transparent" stroke="transparent" points="-4,4 -4,-112 179.5,-112 179.5,4 -4,4"/>
<!-- 1 -->
<g id="node1" class="node">
<title>1</title>
<g id="a_node1"><a xlink:title="src/o3ds/getTime.cpp">
<polygon fill="#bfbfbf" stroke="black" points="175.5,-108 5.5,-108 5.5,-72 175.5,-72 175.5,-108"/>
<text text-anchor="middle" x="90.5" y="-86.3" font-family="Times,serif" font-size="14.00">src/o3ds/getTime.cpp</text>
</a>
</g>
</g>
<!-- 2 -->
<g id="node2" class="node">
<title>2</title>
<g id="a_node2"><a xlink:title="getTime.h">
<polygon fill="#ffffff" stroke="black" points="89,-36 0,-36 0,0 89,0 89,-36"/>
<text text-anchor="middle" x="44.5" y="-14.3" font-family="Times,serif" font-size="14.00">getTime.h</text>
</a>
</g>
</g>
<!-- 1&#45;&gt;2 -->
<g id="edge1" class="edge">
<title>1&#45;&gt;2</title>
<g id="a_edge1"><a xlink:title="include">
<path fill="none" stroke="#1414ce" d="M79.13,-71.7C73.78,-63.56 67.3,-53.69 61.39,-44.7"/>
<polygon fill="#1414ce" stroke="#1414ce" points="64.16,-42.54 55.74,-36.1 58.31,-46.38 64.16,-42.54"/>
</a>
</g>
</g>
<!-- 3 -->
<g id="node3" class="node">
<title>3</title>
<g id="a_node3"><a xlink:title="time.h">
<polygon fill="#ffffff" stroke="black" points="168.5,-36 106.5,-36 106.5,0 168.5,0 168.5,-36"/>
<text text-anchor="middle" x="137.5" y="-14.3" font-family="Times,serif" font-size="14.00">time.h</text>
</a>
</g>
</g>
<!-- 1&#45;&gt;3 -->
<g id="edge2" class="edge">
<title>1&#45;&gt;3</title>
<g id="a_edge2"><a xlink:title="include">
<path fill="none" stroke="#1414ce" d="M102.12,-71.7C107.64,-63.47 114.35,-53.48 120.43,-44.42"/>
<polygon fill="#1414ce" stroke="#1414ce" points="123.35,-46.36 126.02,-36.1 117.54,-42.46 123.35,-46.36"/>
</a>
</g>
</g>
</g>
</svg>
