<?xml version="1.0" encoding="UTF-8" standalone="no"?>
<!DOCTYPE svg PUBLIC "-//W3C//DTD SVG 1.1//EN"
 "http://www.w3.org/Graphics/SVG/1.1/DTD/svg11.dtd">
<!-- Generated by graphviz version 2.43.0 (0)
 -->
<!-- Title: %3 Pages: 1 -->
<svg width="192pt" height="116pt"
 viewBox="0.00 0.00 192.00 116.00" xmlns="http://www.w3.org/2000/svg" xmlns:xlink="http://www.w3.org/1999/xlink">
<g id="graph0" class="graph" transform="scale(1 1) rotate(0) translate(4 112)">
<title>%3</title>
<polygon fill="transparent" stroke="transparent" points="-4,4 -4,-112 188,-112 188,4 -4,4"/>
<!-- 1 -->
<g id="node1" class="node">
<title>1</title>
<g id="a_node1"><a xlink:title="O3DS::Connector">
<polygon fill="#bfbfbf" stroke="black" points="149.5,-108 9.5,-108 9.5,-72 149.5,-72 149.5,-108"/>
<text text-anchor="middle" x="79.5" y="-86.3" font-family="Times,serif" font-size="14.00">O3DS::Connector</text>
</a>
</g>
</g>
<!-- 3 -->
<g id="node2" class="node">
<title>3</title>
<g id="a_node2"><a xlink:title="string">
<polygon fill="#ffffff" stroke="black" points="59,-36 0,-36 0,0 59,0 59,-36"/>
<text text-anchor="middle" x="29.5" y="-14.3" font-family="Times,serif" font-size="14.00">string</text>
</a>
</g>
</g>
<!-- 1&#45;&gt;3 -->
<g id="edge2" class="edge">
<title>1&#45;&gt;3</title>
<g id="a_edge2"><a xlink:title="usage">
<path fill="none" stroke="#1414ce" d="M67.14,-71.7C61.27,-63.47 54.13,-53.48 47.66,-44.42"/>
<polygon fill="#1414ce" stroke="#1414ce" points="50.38,-42.21 41.72,-36.1 44.68,-46.28 50.38,-42.21"/>
</a>
</g>
</g>
<!-- 2 -->
<g id="node3" class="node">
<title>2</title>
<g id="a_node3"><a xlink:title="enum eState">
<polygon fill="#ffffff" stroke="black" points="184,-36 77,-36 77,0 184,0 184,-36"/>
<text text-anchor="middle" x="130.5" y="-14.3" font-family="Times,serif" font-size="14.00">enum eState</text>
</a>
</g>
</g>
<!-- 1&#45;&gt;2 -->
<g id="edge1" class="edge">
<title>1&#45;&gt;2</title>
<g id="a_edge1"><a xlink:title="usage">
<path fill="none" stroke="#1414ce" d="M92.11,-71.7C98.1,-63.47 105.38,-53.48 111.98,-44.42"/>
<polygon fill="#1414ce" stroke="#1414ce" points="114.98,-46.25 118.04,-36.1 109.32,-42.13 114.98,-46.25"/>
</a>
</g>
</g>
</g>
</svg>
