<?xml version="1.0" encoding="UTF-8" standalone="no"?>
<!DOCTYPE svg PUBLIC "-//W3C//DTD SVG 1.1//EN"
 "http://www.w3.org/Graphics/SVG/1.1/DTD/svg11.dtd">
<!-- Generated by graphviz version 2.43.0 (0)
 -->
<!-- Title: %3 Pages: 1 -->
<svg width="271pt" height="260pt"
 viewBox="0.00 0.00 271.00 260.00" xmlns="http://www.w3.org/2000/svg" xmlns:xlink="http://www.w3.org/1999/xlink">
<g id="graph0" class="graph" transform="scale(1 1) rotate(0) translate(4 256)">
<title>%3</title>
<polygon fill="transparent" stroke="transparent" points="-4,4 -4,-256 267,-256 267,4 -4,4"/>
<!-- 4 -->
<g id="node1" class="node">
<title>4</title>
<g id="a_node1"><a xlink:title="O3DS::Connector">
<polygon fill="#ffffff" stroke="black" points="201.5,-36 61.5,-36 61.5,0 201.5,0 201.5,-36"/>
<text text-anchor="middle" x="131.5" y="-14.3" font-family="Times,serif" font-size="14.00">O3DS::Connector</text>
</a>
</g>
</g>
<!-- 1 -->
<g id="node2" class="node">
<title>1</title>
<g id="a_node2"><a xlink:title="O3DS::WebsocketBroadcastServer">
<polygon fill="#bfbfbf" stroke="black" points="263,-252 0,-252 0,-216 263,-216 263,-252"/>
<text text-anchor="middle" x="131.5" y="-230.3" font-family="Times,serif" font-size="14.00">O3DS::WebsocketBroadcastServer</text>
</a>
</g>
</g>
<!-- 2 -->
<g id="node4" class="node">
<title>2</title>
<g id="a_node4"><a xlink:title="O3DS::Websocket">
<polygon fill="#ffffff" stroke="black" points="203,-180 60,-180 60,-144 203,-144 203,-180"/>
<text text-anchor="middle" x="131.5" y="-158.3" font-family="Times,serif" font-size="14.00">O3DS::Websocket</text>
</a>
</g>
</g>
<!-- 1&#45;&gt;2 -->
<g id="edge1" class="edge">
<title>1&#45;&gt;2</title>
<g id="a_edge1"><a xlink:title="public&#45;inheritance">
<path fill="none" stroke="#1414ce" d="M131.5,-215.7C131.5,-207.98 131.5,-198.71 131.5,-190.11"/>
<polygon fill="#1414ce" stroke="#1414ce" points="135,-190.1 131.5,-180.1 128,-190.1 135,-190.1"/>
</a>
</g>
</g>
<!-- 3 -->
<g id="node3" class="node">
<title>3</title>
<g id="a_node3"><a xlink:title="O3DS::AsyncConnector">
<polygon fill="#ffffff" stroke="black" points="222.5,-108 40.5,-108 40.5,-72 222.5,-72 222.5,-108"/>
<text text-anchor="middle" x="131.5" y="-86.3" font-family="Times,serif" font-size="14.00">O3DS::AsyncConnector</text>
</a>
</g>
</g>
<!-- 3&#45;&gt;4 -->
<g id="edge2" class="edge">
<title>3&#45;&gt;4</title>
<g id="a_edge2"><a xlink:title="public&#45;inheritance">
<path fill="none" stroke="#1414ce" d="M131.5,-71.7C131.5,-63.98 131.5,-54.71 131.5,-46.11"/>
<polygon fill="#1414ce" stroke="#1414ce" points="135,-46.1 131.5,-36.1 128,-46.1 135,-46.1"/>
</a>
</g>
</g>
<!-- 2&#45;&gt;3 -->
<g id="edge3" class="edge">
<title>2&#45;&gt;3</title>
<g id="a_edge3"><a xlink:title="public&#45;inheritance">
<path fill="none" stroke="#1414ce" d="M131.5,-143.7C131.5,-135.98 131.5,-126.71 131.5,-118.11"/>
<polygon fill="#1414ce" stroke="#1414ce" points="135,-118.1 131.5,-108.1 128,-118.1 135,-118.1"/>
</a>
</g>
</g>
</g>
</svg>
