<?xml version="1.0" encoding="UTF-8" standalone="no"?>
<!DOCTYPE svg PUBLIC "-//W3C//DTD SVG 1.1//EN"
 "http://www.w3.org/Graphics/SVG/1.1/DTD/svg11.dtd">
<!-- Generated by graphviz version 2.43.0 (0)
 -->
<!-- Title: %3 Pages: 1 -->
<svg width="1177pt" height="332pt"
 viewBox="0.00 0.00 1177.00 332.00" xmlns="http://www.w3.org/2000/svg" xmlns:xlink="http://www.w3.org/1999/xlink">
<g id="graph0" class="graph" transform="scale(1 1) rotate(0) translate(4 328)">
<title>%3</title>
<polygon fill="transparent" stroke="transparent" points="-4,4 -4,-328 1173,-328 1173,4 -4,4"/>
<!-- 4 -->
<g id="node1" class="node">
<title>4</title>
<g id="a_node1"><a xlink:title="O3DS::Connector">
<polygon fill="#ffffff" stroke="black" points="859.5,-108 719.5,-108 719.5,-72 859.5,-72 859.5,-108"/>
<text text-anchor="middle" x="789.5" y="-86.3" font-family="Times,serif" font-size="14.00">O3DS::Connector</text>
</a>
</g>
</g>
<!-- 6 -->
<g id="node4" class="node">
<title>6</title>
<g id="a_node4"><a xlink:title="string">
<polygon fill="#ffffff" stroke="black" points="769,-36 710,-36 710,0 769,0 769,-36"/>
<text text-anchor="middle" x="739.5" y="-14.3" font-family="Times,serif" font-size="14.00">string</text>
</a>
</g>
</g>
<!-- 4&#45;&gt;6 -->
<g id="edge2" class="edge">
<title>4&#45;&gt;6</title>
<g id="a_edge2"><a xlink:title="usage">
<path fill="none" stroke="#1414ce" d="M777.14,-71.7C771.27,-63.47 764.13,-53.48 757.66,-44.42"/>
<polygon fill="#1414ce" stroke="#1414ce" points="760.38,-42.21 751.72,-36.1 754.68,-46.28 760.38,-42.21"/>
</a>
</g>
</g>
<!-- 5 -->
<g id="node7" class="node">
<title>5</title>
<g id="a_node7"><a xlink:title="enum eState">
<polygon fill="#ffffff" stroke="black" points="894,-36 787,-36 787,0 894,0 894,-36"/>
<text text-anchor="middle" x="840.5" y="-14.3" font-family="Times,serif" font-size="14.00">enum eState</text>
</a>
</g>
</g>
<!-- 4&#45;&gt;5 -->
<g id="edge1" class="edge">
<title>4&#45;&gt;5</title>
<g id="a_edge1"><a xlink:title="usage">
<path fill="none" stroke="#1414ce" d="M802.11,-71.7C808.1,-63.47 815.38,-53.48 821.98,-44.42"/>
<polygon fill="#1414ce" stroke="#1414ce" points="824.98,-46.25 828.04,-36.1 819.32,-42.13 824.98,-46.25"/>
</a>
</g>
</g>
<!-- 8 -->
<g id="node2" class="node">
<title>8</title>
<g id="a_node2"><a xlink:title="void *">
<polygon fill="#ffffff" stroke="black" points="935.5,-108 877.5,-108 877.5,-72 935.5,-72 935.5,-108"/>
<text text-anchor="middle" x="906.5" y="-86.3" font-family="Times,serif" font-size="14.00">void *</text>
</a>
</g>
</g>
<!-- 1 -->
<g id="node3" class="node">
<title>1</title>
<g id="a_node3"><a xlink:title="O3DS::WebsocketBroadcastServer">
<polygon fill="#bfbfbf" stroke="black" points="726,-324 463,-324 463,-288 726,-288 726,-324"/>
<text text-anchor="middle" x="594.5" y="-302.3" font-family="Times,serif" font-size="14.00">O3DS::WebsocketBroadcastServer</text>
</a>
</g>
</g>
<!-- 10 -->
<g id="node8" class="node">
<title>10</title>
<g id="a_node8"><a xlink:title="set&lt; connection_hdl, std::owner_less&lt; connection_hdl &gt; &gt;">
<polygon fill="#ffffff" stroke="black" points="437,-252 0,-252 0,-216 437,-216 437,-252"/>
<text text-anchor="middle" x="218.5" y="-230.3" font-family="Times,serif" font-size="14.00">set&lt; connection_hdl, std::owner_less&lt; connection_hdl &gt; &gt;</text>
</a>
</g>
</g>
<!-- 1&#45;&gt;10 -->
<g id="edge4" class="edge">
<title>1&#45;&gt;10</title>
<g id="a_edge4"><a xlink:title="usage">
<path fill="none" stroke="#1414ce" d="M503,-287.97C447.74,-277.68 377.21,-264.55 320.2,-253.93"/>
<polygon fill="#1414ce" stroke="#1414ce" points="320.55,-250.44 310.08,-252.05 319.27,-257.32 320.55,-250.44"/>
</a>
</g>
</g>
<!-- 11 -->
<g id="node10" class="node">
<title>11</title>
<g id="a_node10"><a xlink:title="server&lt; websocketpp::config::asio &gt;">
<polygon fill="#ffffff" stroke="black" points="733.5,-252 455.5,-252 455.5,-216 733.5,-216 733.5,-252"/>
<text text-anchor="middle" x="594.5" y="-230.3" font-family="Times,serif" font-size="14.00">server&lt; websocketpp::config::asio &gt;</text>
</a>
</g>
</g>
<!-- 1&#45;&gt;11 -->
<g id="edge5" class="edge">
<title>1&#45;&gt;11</title>
<g id="a_edge5"><a xlink:title="usage">
<path fill="none" stroke="#1414ce" d="M594.5,-287.7C594.5,-279.98 594.5,-270.71 594.5,-262.11"/>
<polygon fill="#1414ce" stroke="#1414ce" points="598,-262.1 594.5,-252.1 591,-262.1 598,-262.1"/>
</a>
</g>
</g>
<!-- 2 -->
<g id="node11" class="node">
<title>2</title>
<g id="a_node11"><a xlink:title="O3DS::Websocket">
<polygon fill="#ffffff" stroke="black" points="895,-252 752,-252 752,-216 895,-216 895,-252"/>
<text text-anchor="middle" x="823.5" y="-230.3" font-family="Times,serif" font-size="14.00">O3DS::Websocket</text>
</a>
</g>
</g>
<!-- 1&#45;&gt;2 -->
<g id="edge3" class="edge">
<title>1&#45;&gt;2</title>
<g id="a_edge3"><a xlink:title="public&#45;inheritance">
<path fill="none" stroke="#1414ce" d="M650.23,-287.97C682.64,-278.06 723.68,-265.51 757.68,-255.12"/>
<polygon fill="#1414ce" stroke="#1414ce" points="758.98,-258.38 767.52,-252.11 756.94,-251.69 758.98,-258.38"/>
</a>
</g>
</g>
<!-- 9 -->
<g id="node5" class="node">
<title>9</title>
<g id="a_node5"><a xlink:title="thread_group">
<polygon fill="#ffffff" stroke="black" points="797,-180 684,-180 684,-144 797,-144 797,-180"/>
<text text-anchor="middle" x="740.5" y="-158.3" font-family="Times,serif" font-size="14.00">thread_group</text>
</a>
</g>
</g>
<!-- 7 -->
<g id="node6" class="node">
<title>7</title>
<g id="a_node6"><a xlink:title="void(*)(void *, void *, size_t)">
<polygon fill="#ffffff" stroke="black" points="1169,-108 954,-108 954,-72 1169,-72 1169,-108"/>
<text text-anchor="middle" x="1061.5" y="-86.3" font-family="Times,serif" font-size="14.00">void(*)(void *, void *, size_t)</text>
</a>
</g>
</g>
<!-- 3 -->
<g id="node9" class="node">
<title>3</title>
<g id="a_node9"><a xlink:title="O3DS::AsyncConnector">
<polygon fill="#ffffff" stroke="black" points="997.5,-180 815.5,-180 815.5,-144 997.5,-144 997.5,-180"/>
<text text-anchor="middle" x="906.5" y="-158.3" font-family="Times,serif" font-size="14.00">O3DS::AsyncConnector</text>
</a>
</g>
</g>
<!-- 3&#45;&gt;4 -->
<g id="edge6" class="edge">
<title>3&#45;&gt;4</title>
<g id="a_edge6"><a xlink:title="public&#45;inheritance">
<path fill="none" stroke="#1414ce" d="M877.88,-143.88C862.58,-134.72 843.56,-123.34 827.08,-113.48"/>
<polygon fill="#1414ce" stroke="#1414ce" points="828.61,-110.32 818.23,-108.19 825.02,-116.33 828.61,-110.32"/>
</a>
</g>
</g>
<!-- 3&#45;&gt;8 -->
<g id="edge8" class="edge">
<title>3&#45;&gt;8</title>
<g id="a_edge8"><a xlink:title="usage">
<path fill="none" stroke="#1414ce" d="M906.5,-143.7C906.5,-135.98 906.5,-126.71 906.5,-118.11"/>
<polygon fill="#1414ce" stroke="#1414ce" points="910,-118.1 906.5,-108.1 903,-118.1 910,-118.1"/>
</a>
</g>
</g>
<!-- 3&#45;&gt;7 -->
<g id="edge7" class="edge">
<title>3&#45;&gt;7</title>
<g id="a_edge7"><a xlink:title="usage">
<path fill="none" stroke="#1414ce" d="M944.42,-143.88C965.51,-134.35 991.96,-122.41 1014.37,-112.28"/>
<polygon fill="#1414ce" stroke="#1414ce" points="1016.03,-115.37 1023.71,-108.07 1013.15,-108.99 1016.03,-115.37"/>
</a>
</g>
</g>
<!-- 2&#45;&gt;9 -->
<g id="edge10" class="edge">
<title>2&#45;&gt;9</title>
<g id="a_edge10"><a xlink:title="usage">
<path fill="none" stroke="#1414ce" d="M802.98,-215.7C792.63,-206.97 779.91,-196.24 768.66,-186.75"/>
<polygon fill="#1414ce" stroke="#1414ce" points="770.68,-183.88 760.78,-180.1 766.17,-189.23 770.68,-183.88"/>
</a>
</g>
</g>
<!-- 2&#45;&gt;3 -->
<g id="edge9" class="edge">
<title>2&#45;&gt;3</title>
<g id="a_edge9"><a xlink:title="public&#45;inheritance">
<path fill="none" stroke="#1414ce" d="M844.02,-215.7C854.37,-206.97 867.09,-196.24 878.34,-186.75"/>
<polygon fill="#1414ce" stroke="#1414ce" points="880.83,-189.23 886.22,-180.1 876.32,-183.88 880.83,-189.23"/>
</a>
</g>
</g>
</g>
</svg>
