<?xml version="1.0" encoding="UTF-8" standalone="no"?>
<!DOCTYPE svg PUBLIC "-//W3C//DTD SVG 1.1//EN"
 "http://www.w3.org/Graphics/SVG/1.1/DTD/svg11.dtd">
<!-- Generated by graphviz version 2.43.0 (0)
 -->
<!-- Title: %3 Pages: 1 -->
<svg width="1643pt" height="260pt"
 viewBox="0.00 0.00 1643.00 260.00" xmlns="http://www.w3.org/2000/svg" xmlns:xlink="http://www.w3.org/1999/xlink">
<g id="graph0" class="graph" transform="scale(1 1) rotate(0) translate(4 256)">
<title>%3</title>
<polygon fill="transparent" stroke="transparent" points="-4,4 -4,-256 1639,-256 1639,4 -4,4"/>
<!-- 15 -->
<g id="node1" class="node">
<title>15</title>
<g id="a_node1"><a xlink:title="void *">
<polygon fill="#ffffff" stroke="black" points="159,-180 101,-180 101,-144 159,-144 159,-180"/>
<text text-anchor="middle" x="130" y="-158.3" font-family="Times,serif" font-size="14.00">void *</text>
</a>
</g>
</g>
<!-- 2 -->
<g id="node2" class="node">
<title>2</title>
<g id="a_node2"><a xlink:title="O3DS::Matrix&lt; double &gt;">
<polygon fill="#ffffff" stroke="black" points="196,-108 0,-108 0,-72 196,-72 196,-108"/>
<text text-anchor="middle" x="98" y="-86.3" font-family="Times,serif" font-size="14.00">O3DS::Matrix&lt; double &gt;</text>
</a>
</g>
</g>
<!-- 3 -->
<g id="node8" class="node">
<title>3</title>
<g id="a_node8"><a xlink:title="double">
<polygon fill="#ffffff" stroke="black" points="347.5,-36 282.5,-36 282.5,0 347.5,0 347.5,-36"/>
<text text-anchor="middle" x="315" y="-14.3" font-family="Times,serif" font-size="14.00">double</text>
</a>
</g>
</g>
<!-- 2&#45;&gt;3 -->
<g id="edge1" class="edge">
<title>2&#45;&gt;3</title>
<g id="a_edge1"><a xlink:title="usage">
<path fill="none" stroke="#1414ce" d="M150.81,-71.97C188.14,-59.92 237.55,-43.98 272.39,-32.75"/>
<polygon fill="#1414ce" stroke="#1414ce" points="273.81,-35.97 282.25,-29.56 271.66,-29.3 273.81,-35.97"/>
</a>
</g>
</g>
<!-- 4 -->
<g id="node3" class="node">
<title>4</title>
<g id="a_node3"><a xlink:title="O3DS::TransformScale">
<polygon fill="#ffffff" stroke="black" points="854.5,-180 675.5,-180 675.5,-144 854.5,-144 854.5,-180"/>
<text text-anchor="middle" x="765" y="-158.3" font-family="Times,serif" font-size="14.00">O3DS::TransformScale</text>
</a>
</g>
</g>
<!-- 5 -->
<g id="node4" class="node">
<title>5</title>
<g id="a_node4"><a xlink:title="O3DS::TransformComponent">
<polygon fill="#ffffff" stroke="black" points="657.5,-108 434.5,-108 434.5,-72 657.5,-72 657.5,-108"/>
<text text-anchor="middle" x="546" y="-86.3" font-family="Times,serif" font-size="14.00">O3DS::TransformComponent</text>
</a>
</g>
</g>
<!-- 4&#45;&gt;5 -->
<g id="edge2" class="edge">
<title>4&#45;&gt;5</title>
<g id="a_edge2"><a xlink:title="public&#45;inheritance">
<path fill="none" stroke="#1414ce" d="M711.71,-143.97C680.84,-134.1 641.8,-121.62 609.37,-111.25"/>
<polygon fill="#1414ce" stroke="#1414ce" points="610.12,-107.82 599.53,-108.11 607.99,-114.49 610.12,-107.82"/>
</a>
</g>
</g>
<!-- 6 -->
<g id="node15" class="node">
<title>6</title>
<g id="a_node15"><a xlink:title="O3DS::Vector3&lt; double &gt;">
<polygon fill="#ffffff" stroke="black" points="878.5,-108 675.5,-108 675.5,-72 878.5,-72 878.5,-108"/>
<text text-anchor="middle" x="777" y="-86.3" font-family="Times,serif" font-size="14.00">O3DS::Vector3&lt; double &gt;</text>
</a>
</g>
</g>
<!-- 4&#45;&gt;6 -->
<g id="edge3" class="edge">
<title>4&#45;&gt;6</title>
<g id="a_edge3"><a xlink:title="usage">
<path fill="none" stroke="#1414ce" d="M767.97,-143.7C769.29,-135.98 770.88,-126.71 772.35,-118.11"/>
<polygon fill="#1414ce" stroke="#1414ce" points="775.83,-118.55 774.07,-108.1 768.93,-117.37 775.83,-118.55"/>
</a>
</g>
</g>
<!-- 11 -->
<g id="node5" class="node">
<title>11</title>
<g id="a_node5"><a xlink:title="string">
<polygon fill="#ffffff" stroke="black" points="931.5,-180 872.5,-180 872.5,-144 931.5,-144 931.5,-180"/>
<text text-anchor="middle" x="902" y="-158.3" font-family="Times,serif" font-size="14.00">string</text>
</a>
</g>
</g>
<!-- 1 -->
<g id="node6" class="node">
<title>1</title>
<g id="a_node6"><a xlink:title="O3DS::Transform">
<polygon fill="#bfbfbf" stroke="black" points="903.5,-252 762.5,-252 762.5,-216 903.5,-216 903.5,-252"/>
<text text-anchor="middle" x="833" y="-230.3" font-family="Times,serif" font-size="14.00">O3DS::Transform</text>
</a>
</g>
</g>
<!-- 1&#45;&gt;15 -->
<g id="edge13" class="edge">
<title>1&#45;&gt;15</title>
<g id="a_edge13"><a xlink:title="usage">
<path fill="none" stroke="#1414ce" d="M762.4,-229.97C615.94,-223.26 283.5,-205.68 173,-180 171.72,-179.7 170.44,-179.38 169.14,-179.02"/>
<polygon fill="#1414ce" stroke="#1414ce" points="169.83,-175.57 159.24,-175.89 167.72,-182.24 169.83,-175.57"/>
</a>
</g>
</g>
<!-- 1&#45;&gt;2 -->
<g id="edge4" class="edge">
<title>1&#45;&gt;2</title>
<g id="a_edge4"><a xlink:title="usage">
<path fill="none" stroke="#1414ce" d="M762.46,-232.85C620.14,-231.61 303.82,-223.84 206,-180 184.77,-170.48 185.75,-159.04 168,-144 155.91,-133.75 142.09,-123.08 129.94,-114.02"/>
<polygon fill="#1414ce" stroke="#1414ce" points="131.96,-111.16 121.84,-108.04 127.8,-116.79 131.96,-111.16"/>
</a>
</g>
</g>
<!-- 1&#45;&gt;4 -->
<g id="edge5" class="edge">
<title>1&#45;&gt;4</title>
<g id="a_edge5"><a xlink:title="usage">
<path fill="none" stroke="#1414ce" d="M816.19,-215.7C807.87,-207.14 797.69,-196.66 788.61,-187.3"/>
<polygon fill="#1414ce" stroke="#1414ce" points="791.09,-184.84 781.62,-180.1 786.07,-189.72 791.09,-184.84"/>
</a>
</g>
</g>
<!-- 1&#45;&gt;11 -->
<g id="edge9" class="edge">
<title>1&#45;&gt;11</title>
<g id="a_edge9"><a xlink:title="usage">
<path fill="none" stroke="#1414ce" d="M850.06,-215.7C858.5,-207.14 868.82,-196.66 878.04,-187.3"/>
<polygon fill="#1414ce" stroke="#1414ce" points="880.61,-189.68 885.14,-180.1 875.63,-184.77 880.61,-189.68"/>
</a>
</g>
</g>
<!-- 10 -->
<g id="node7" class="node">
<title>10</title>
<g id="a_node7"><a xlink:title="int">
<polygon fill="#ffffff" stroke="black" points="1004,-180 950,-180 950,-144 1004,-144 1004,-180"/>
<text text-anchor="middle" x="977" y="-158.3" font-family="Times,serif" font-size="14.00">int</text>
</a>
</g>
</g>
<!-- 1&#45;&gt;10 -->
<g id="edge8" class="edge">
<title>1&#45;&gt;10</title>
<g id="a_edge8"><a xlink:title="usage">
<path fill="none" stroke="#1414ce" d="M868.23,-215.88C890.23,-205.18 918.49,-191.44 940.7,-180.65"/>
<polygon fill="#1414ce" stroke="#1414ce" points="942.34,-183.74 949.8,-176.22 939.28,-177.44 942.34,-183.74"/>
</a>
</g>
</g>
<!-- 9 -->
<g id="node9" class="node">
<title>9</title>
<g id="a_node9"><a xlink:title="vector&lt; enum ComponentType &gt;">
<polygon fill="#ffffff" stroke="black" points="1277.5,-180 1022.5,-180 1022.5,-144 1277.5,-144 1277.5,-180"/>
<text text-anchor="middle" x="1150" y="-158.3" font-family="Times,serif" font-size="14.00">vector&lt; enum ComponentType &gt;</text>
</a>
</g>
</g>
<!-- 1&#45;&gt;9 -->
<g id="edge7" class="edge">
<title>1&#45;&gt;9</title>
<g id="a_edge7"><a xlink:title="usage">
<path fill="none" stroke="#1414ce" d="M903.75,-217.38C950.79,-206.99 1012.9,-193.28 1062.97,-182.22"/>
<polygon fill="#1414ce" stroke="#1414ce" points="1063.8,-185.62 1072.81,-180.04 1062.29,-178.78 1063.8,-185.62"/>
</a>
</g>
</g>
<!-- 7 -->
<g id="node10" class="node">
<title>7</title>
<g id="a_node10"><a xlink:title="O3DS::TransformRotation">
<polygon fill="#ffffff" stroke="black" points="417,-180 215,-180 215,-144 417,-144 417,-180"/>
<text text-anchor="middle" x="316" y="-158.3" font-family="Times,serif" font-size="14.00">O3DS::TransformRotation</text>
</a>
</g>
</g>
<!-- 1&#45;&gt;7 -->
<g id="edge6" class="edge">
<title>1&#45;&gt;7</title>
<g id="a_edge6"><a xlink:title="usage">
<path fill="none" stroke="#1414ce" d="M762.35,-224.32C683.26,-214.48 551.01,-197.69 427.31,-180.17"/>
<polygon fill="#1414ce" stroke="#1414ce" points="427.67,-176.69 417.28,-178.75 426.69,-183.62 427.67,-176.69"/>
</a>
</g>
</g>
<!-- 14 -->
<g id="node11" class="node">
<title>14</title>
<g id="a_node11"><a xlink:title="vector&lt; O3DS::TransformMatrix &gt;">
<polygon fill="#ffffff" stroke="black" points="1562.5,-180 1295.5,-180 1295.5,-144 1562.5,-144 1562.5,-180"/>
<text text-anchor="middle" x="1429" y="-158.3" font-family="Times,serif" font-size="14.00">vector&lt; O3DS::TransformMatrix &gt;</text>
</a>
</g>
</g>
<!-- 1&#45;&gt;14 -->
<g id="edge12" class="edge">
<title>1&#45;&gt;14</title>
<g id="a_edge12"><a xlink:title="usage">
<path fill="none" stroke="#1414ce" d="M903.78,-224.8C991.01,-214.68 1144.07,-196.88 1285.09,-180.22"/>
<polygon fill="#1414ce" stroke="#1414ce" points="1285.7,-183.68 1295.22,-179.03 1284.87,-176.73 1285.7,-183.68"/>
</a>
</g>
</g>
<!-- 12 -->
<g id="node12" class="node">
<title>12</title>
<g id="a_node12"><a xlink:title="bool">
<polygon fill="#ffffff" stroke="black" points="1635,-180 1581,-180 1581,-144 1635,-144 1635,-180"/>
<text text-anchor="middle" x="1608" y="-158.3" font-family="Times,serif" font-size="14.00">bool</text>
</a>
</g>
</g>
<!-- 1&#45;&gt;12 -->
<g id="edge10" class="edge">
<title>1&#45;&gt;12</title>
<g id="a_edge10"><a xlink:title="usage">
<path fill="none" stroke="#1414ce" d="M903.66,-231.24C1059.44,-226.85 1429.16,-213.41 1571.06,-179.55"/>
<polygon fill="#1414ce" stroke="#1414ce" points="1572.04,-182.92 1580.88,-177.08 1570.33,-176.13 1572.04,-182.92"/>
</a>
</g>
</g>
<!-- 13 -->
<g id="node14" class="node">
<title>13</title>
<g id="a_node14"><a xlink:title="O3DS::TransformTranslation">
<polygon fill="#ffffff" stroke="black" points="657,-180 435,-180 435,-144 657,-144 657,-180"/>
<text text-anchor="middle" x="546" y="-158.3" font-family="Times,serif" font-size="14.00">O3DS::TransformTranslation</text>
</a>
</g>
</g>
<!-- 1&#45;&gt;13 -->
<g id="edge11" class="edge">
<title>1&#45;&gt;13</title>
<g id="a_edge11"><a xlink:title="usage">
<path fill="none" stroke="#1414ce" d="M763.16,-215.97C721.75,-205.87 669.12,-193.03 626.04,-182.52"/>
<polygon fill="#1414ce" stroke="#1414ce" points="626.7,-179.08 616.15,-180.11 625.04,-185.88 626.7,-179.08"/>
</a>
</g>
</g>
<!-- 7&#45;&gt;5 -->
<g id="edge14" class="edge">
<title>7&#45;&gt;5</title>
<g id="a_edge14"><a xlink:title="public&#45;inheritance">
<path fill="none" stroke="#1414ce" d="M371.97,-143.97C404.53,-134.06 445.74,-121.51 479.89,-111.12"/>
<polygon fill="#1414ce" stroke="#1414ce" points="481.23,-114.37 489.78,-108.11 479.19,-107.67 481.23,-114.37"/>
</a>
</g>
</g>
<!-- 8 -->
<g id="node13" class="node">
<title>8</title>
<g id="a_node13"><a xlink:title="O3DS::Vector4&lt; double &gt;">
<polygon fill="#ffffff" stroke="black" points="416.5,-108 213.5,-108 213.5,-72 416.5,-72 416.5,-108"/>
<text text-anchor="middle" x="315" y="-86.3" font-family="Times,serif" font-size="14.00">O3DS::Vector4&lt; double &gt;</text>
</a>
</g>
</g>
<!-- 7&#45;&gt;8 -->
<g id="edge15" class="edge">
<title>7&#45;&gt;8</title>
<g id="a_edge15"><a xlink:title="usage">
<path fill="none" stroke="#1414ce" d="M315.75,-143.7C315.64,-135.98 315.51,-126.71 315.39,-118.11"/>
<polygon fill="#1414ce" stroke="#1414ce" points="318.89,-118.05 315.24,-108.1 311.89,-118.15 318.89,-118.05"/>
</a>
</g>
</g>
<!-- 8&#45;&gt;3 -->
<g id="edge16" class="edge">
<title>8&#45;&gt;3</title>
<g id="a_edge16"><a xlink:title="usage">
<path fill="none" stroke="#1414ce" d="M315,-71.7C315,-63.98 315,-54.71 315,-46.11"/>
<polygon fill="#1414ce" stroke="#1414ce" points="318.5,-46.1 315,-36.1 311.5,-46.1 318.5,-46.1"/>
</a>
</g>
</g>
<!-- 13&#45;&gt;5 -->
<g id="edge17" class="edge">
<title>13&#45;&gt;5</title>
<g id="a_edge17"><a xlink:title="public&#45;inheritance">
<path fill="none" stroke="#1414ce" d="M546,-143.7C546,-135.98 546,-126.71 546,-118.11"/>
<polygon fill="#1414ce" stroke="#1414ce" points="549.5,-118.1 546,-108.1 542.5,-118.1 549.5,-118.1"/>
</a>
</g>
</g>
<!-- 13&#45;&gt;6 -->
<g id="edge18" class="edge">
<title>13&#45;&gt;6</title>
<g id="a_edge18"><a xlink:title="usage">
<path fill="none" stroke="#1414ce" d="M602.21,-143.97C634.91,-134.06 676.3,-121.51 710.6,-111.12"/>
<polygon fill="#1414ce" stroke="#1414ce" points="711.98,-114.36 720.53,-108.11 709.95,-107.66 711.98,-114.36"/>
</a>
</g>
</g>
<!-- 6&#45;&gt;3 -->
<g id="edge19" class="edge">
<title>6&#45;&gt;3</title>
<g id="a_edge19"><a xlink:title="usage">
<path fill="none" stroke="#1414ce" d="M675.38,-73.43C672.22,-72.95 669.08,-72.47 666,-72 554.96,-55.11 424.13,-35.41 357.96,-25.46"/>
<polygon fill="#1414ce" stroke="#1414ce" points="358.32,-21.97 347.91,-23.95 357.28,-28.89 358.32,-21.97"/>
</a>
</g>
</g>
</g>
</svg>
