<?xml version="1.0" encoding="UTF-8" standalone="no"?>
<!DOCTYPE svg PUBLIC "-//W3C//DTD SVG 1.1//EN"
 "http://www.w3.org/Graphics/SVG/1.1/DTD/svg11.dtd">
<!-- Generated by graphviz version 2.43.0 (0)
 -->
<!-- Title: %3 Pages: 1 -->
<svg width="912pt" height="332pt"
 viewBox="0.00 0.00 912.09 332.00" xmlns="http://www.w3.org/2000/svg" xmlns:xlink="http://www.w3.org/1999/xlink">
<g id="graph0" class="graph" transform="scale(1 1) rotate(0) translate(4 328)">
<title>%3</title>
<polygon fill="transparent" stroke="transparent" points="-4,4 -4,-328 908.09,-328 908.09,4 -4,4"/>
<!-- 3 -->
<g id="node1" class="node">
<title>3</title>
<g id="a_node1"><a xlink:title="stdlib.h">
<polygon fill="#ffffff" stroke="black" points="462.09,-252 391.09,-252 391.09,-216 462.09,-216 462.09,-252"/>
<text text-anchor="middle" x="426.59" y="-230.3" font-family="Times,serif" font-size="14.00">stdlib.h</text>
</a>
</g>
</g>
<!-- 8 -->
<g id="node2" class="node">
<title>8</title>
<g id="a_node2"><a xlink:title="nng/protocol/pubsub0/sub.h">
<polygon fill="#ffffff" stroke="black" points="664.59,-180 448.59,-180 448.59,-144 664.59,-144 664.59,-180"/>
<text text-anchor="middle" x="556.59" y="-158.3" font-family="Times,serif" font-size="14.00">nng/protocol/pubsub0/sub.h</text>
</a>
</g>
</g>
<!-- 6 -->
<g id="node3" class="node">
<title>6</title>
<g id="a_node3"><a xlink:title="async_subscriber.h">
<polygon fill="#ffffff" stroke="black" points="632.59,-252 480.59,-252 480.59,-216 632.59,-216 632.59,-252"/>
<text text-anchor="middle" x="556.59" y="-230.3" font-family="Times,serif" font-size="14.00">async_subscriber.h</text>
</a>
</g>
</g>
<!-- 6&#45;&gt;8 -->
<g id="edge2" class="edge">
<title>6&#45;&gt;8</title>
<g id="a_edge2"><a xlink:title="include">
<path fill="none" stroke="#1414ce" d="M556.59,-215.7C556.59,-207.98 556.59,-198.71 556.59,-190.11"/>
<polygon fill="#1414ce" stroke="#1414ce" points="560.09,-190.1 556.59,-180.1 553.09,-190.1 560.09,-190.1"/>
</a>
</g>
</g>
<!-- 7 -->
<g id="node4" class="node">
<title>7</title>
<g id="a_node4"><a xlink:title="nng/nng.h">
<polygon fill="#ffffff" stroke="black" points="89.09,-36 0.09,-36 0.09,0 89.09,0 89.09,-36"/>
<text text-anchor="middle" x="44.59" y="-14.3" font-family="Times,serif" font-size="14.00">nng/nng.h</text>
</a>
</g>
</g>
<!-- 6&#45;&gt;7 -->
<g id="edge1" class="edge">
<title>6&#45;&gt;7</title>
<g id="a_edge1"><a xlink:title="include">
<path fill="none" stroke="#1414ce" d="M480.21,-217.28C477.31,-216.82 474.43,-216.39 471.59,-216 421.36,-209.01 51.01,-217.25 16.59,-180 -17.52,-143.08 9,-80.15 28.56,-44.9"/>
<polygon fill="#1414ce" stroke="#1414ce" points="31.64,-46.56 33.59,-36.15 25.57,-43.07 31.64,-46.56"/>
</a>
</g>
</g>
<!-- 4 -->
<g id="node5" class="node">
<title>4</title>
<g id="a_node5"><a xlink:title="string">
<polygon fill="#ffffff" stroke="black" points="374.09,-36 315.09,-36 315.09,0 374.09,0 374.09,-36"/>
<text text-anchor="middle" x="344.59" y="-14.3" font-family="Times,serif" font-size="14.00">string</text>
</a>
</g>
</g>
<!-- 6&#45;&gt;4 -->
<g id="edge5" class="edge">
<title>6&#45;&gt;4</title>
<g id="a_edge5"><a xlink:title="include">
<path fill="none" stroke="#1414ce" d="M627.58,-215.92C645.62,-208.04 662.9,-196.59 673.59,-180 682.27,-166.55 682.68,-157.17 673.59,-144 607.21,-47.76 456.27,-25.56 384.25,-20.48"/>
<polygon fill="#1414ce" stroke="#1414ce" points="384.42,-16.98 374.22,-19.84 383.98,-23.97 384.42,-16.98"/>
</a>
</g>
</g>
<!-- 9 -->
<g id="node6" class="node">
<title>9</title>
<g id="a_node6"><a xlink:title="nng/supplemental/util/platform.h">
<polygon fill="#ffffff" stroke="black" points="430.09,-180 177.09,-180 177.09,-144 430.09,-144 430.09,-180"/>
<text text-anchor="middle" x="303.59" y="-158.3" font-family="Times,serif" font-size="14.00">nng/supplemental/util/platform.h</text>
</a>
</g>
</g>
<!-- 6&#45;&gt;9 -->
<g id="edge3" class="edge">
<title>6&#45;&gt;9</title>
<g id="a_edge3"><a xlink:title="include">
<path fill="none" stroke="#1414ce" d="M495.03,-215.97C458.91,-205.97 413.1,-193.3 375.35,-182.85"/>
<polygon fill="#1414ce" stroke="#1414ce" points="376.01,-179.4 365.44,-180.11 374.14,-186.15 376.01,-179.4"/>
</a>
</g>
</g>
<!-- 10 -->
<g id="node10" class="node">
<title>10</title>
<g id="a_node10"><a xlink:title="nng_connector.h">
<polygon fill="#ffffff" stroke="black" points="159.09,-180 26.09,-180 26.09,-144 159.09,-144 159.09,-180"/>
<text text-anchor="middle" x="92.59" y="-158.3" font-family="Times,serif" font-size="14.00">nng_connector.h</text>
</a>
</g>
</g>
<!-- 6&#45;&gt;10 -->
<g id="edge4" class="edge">
<title>6&#45;&gt;10</title>
<g id="a_edge4"><a xlink:title="include">
<path fill="none" stroke="#1414ce" d="M480.19,-217.42C477.29,-216.93 474.42,-216.45 471.59,-216 340.81,-195.18 303.99,-202.47 169.13,-179.98"/>
<polygon fill="#1414ce" stroke="#1414ce" points="169.69,-176.53 159.25,-178.31 168.52,-183.43 169.69,-176.53"/>
</a>
</g>
</g>
<!-- 11 -->
<g id="node7" class="node">
<title>11</title>
<g id="a_node7"><a xlink:title="vector">
<polygon fill="#ffffff" stroke="black" points="193.59,-36 131.59,-36 131.59,0 193.59,0 193.59,-36"/>
<text text-anchor="middle" x="162.59" y="-14.3" font-family="Times,serif" font-size="14.00">vector</text>
</a>
</g>
</g>
<!-- 5 -->
<g id="node8" class="node">
<title>5</title>
<g id="a_node8"><a xlink:title="time.h">
<polygon fill="#ffffff" stroke="black" points="820.59,-252 758.59,-252 758.59,-216 820.59,-216 820.59,-252"/>
<text text-anchor="middle" x="789.59" y="-230.3" font-family="Times,serif" font-size="14.00">time.h</text>
</a>
</g>
</g>
<!-- 1 -->
<g id="node9" class="node">
<title>1</title>
<g id="a_node9"><a xlink:title="src/o3ds/async_subscriber.cpp">
<polygon fill="#bfbfbf" stroke="black" points="847.09,-324 614.09,-324 614.09,-288 847.09,-288 847.09,-324"/>
<text text-anchor="middle" x="730.59" y="-302.3" font-family="Times,serif" font-size="14.00">src/o3ds/async_subscriber.cpp</text>
</a>
</g>
</g>
<!-- 1&#45;&gt;3 -->
<g id="edge7" class="edge">
<title>1&#45;&gt;3</title>
<g id="a_edge7"><a xlink:title="include">
<path fill="none" stroke="#1414ce" d="M628.51,-288C583.09,-279.5 528.93,-268.09 472.16,-251.92"/>
<polygon fill="#1414ce" stroke="#1414ce" points="472.86,-248.48 462.28,-249.07 470.92,-255.21 472.86,-248.48"/>
</a>
</g>
</g>
<!-- 1&#45;&gt;6 -->
<g id="edge10" class="edge">
<title>1&#45;&gt;6</title>
<g id="a_edge10"><a xlink:title="include">
<path fill="none" stroke="#1414ce" d="M688.03,-287.88C664.03,-278.22 633.87,-266.09 608.49,-255.88"/>
<polygon fill="#1414ce" stroke="#1414ce" points="609.61,-252.55 599.02,-252.07 606.99,-259.05 609.61,-252.55"/>
</a>
</g>
</g>
<!-- 1&#45;&gt;4 -->
<g id="edge8" class="edge">
<title>1&#45;&gt;4</title>
<g id="a_edge8"><a xlink:title="include">
<path fill="none" stroke="#1414ce" d="M729.59,-287.69C725.85,-241.88 708.53,-117.81 629.59,-72 551.33,-26.57 442.41,-18.81 384.5,-18.22"/>
<polygon fill="#1414ce" stroke="#1414ce" points="384.32,-14.72 374.31,-18.18 384.29,-21.72 384.32,-14.72"/>
</a>
</g>
</g>
<!-- 1&#45;&gt;5 -->
<g id="edge9" class="edge">
<title>1&#45;&gt;5</title>
<g id="a_edge9"><a xlink:title="include">
<path fill="none" stroke="#1414ce" d="M745.18,-287.7C752.25,-279.3 760.88,-269.07 768.64,-259.86"/>
<polygon fill="#1414ce" stroke="#1414ce" points="771.41,-262.01 775.18,-252.1 766.06,-257.49 771.41,-262.01"/>
</a>
</g>
</g>
<!-- 2 -->
<g id="node13" class="node">
<title>2</title>
<g id="a_node13"><a xlink:title="stdio.h">
<polygon fill="#ffffff" stroke="black" points="904.09,-252 839.09,-252 839.09,-216 904.09,-216 904.09,-252"/>
<text text-anchor="middle" x="871.59" y="-230.3" font-family="Times,serif" font-size="14.00">stdio.h</text>
</a>
</g>
</g>
<!-- 1&#45;&gt;2 -->
<g id="edge6" class="edge">
<title>1&#45;&gt;2</title>
<g id="a_edge6"><a xlink:title="include">
<path fill="none" stroke="#1414ce" d="M765.09,-287.88C784.6,-278.19 809.14,-266 829.75,-255.77"/>
<polygon fill="#1414ce" stroke="#1414ce" points="831.51,-258.81 838.91,-251.23 828.4,-252.54 831.51,-258.81"/>
</a>
</g>
</g>
<!-- 10&#45;&gt;7 -->
<g id="edge15" class="edge">
<title>10&#45;&gt;7</title>
<g id="a_edge15"><a xlink:title="include">
<path fill="none" stroke="#1414ce" d="M83.87,-143.63C78.96,-133.42 72.96,-120.17 68.59,-108 61.28,-87.6 54.99,-63.88 50.68,-46.06"/>
<polygon fill="#1414ce" stroke="#1414ce" points="54.09,-45.25 48.39,-36.32 47.28,-46.85 54.09,-45.25"/>
</a>
</g>
</g>
<!-- 10&#45;&gt;4 -->
<g id="edge11" class="edge">
<title>10&#45;&gt;4</title>
<g id="a_edge11"><a xlink:title="include">
<path fill="none" stroke="#1414ce" d="M159.15,-144.14C207.98,-131.4 267.48,-114.96 277.59,-108 300.98,-91.92 319.58,-65.03 331.18,-45"/>
<polygon fill="#1414ce" stroke="#1414ce" points="334.35,-46.52 336.16,-36.08 328.24,-43.1 334.35,-46.52"/>
</a>
</g>
</g>
<!-- 10&#45;&gt;11 -->
<g id="edge12" class="edge">
<title>10&#45;&gt;11</title>
<g id="a_edge12"><a xlink:title="include">
<path fill="none" stroke="#1414ce" d="M90.73,-143.88C89.47,-125.15 89.8,-94.75 101.59,-72 107.55,-60.5 117.15,-50.4 126.98,-42.19"/>
<polygon fill="#1414ce" stroke="#1414ce" points="129.14,-44.94 134.85,-36.02 124.82,-39.43 129.14,-44.94"/>
</a>
</g>
</g>
<!-- 12 -->
<g id="node11" class="node">
<title>12</title>
<g id="a_node11"><a xlink:title="mutex">
<polygon fill="#ffffff" stroke="black" points="288.59,-36 226.59,-36 226.59,0 288.59,0 288.59,-36"/>
<text text-anchor="middle" x="257.59" y="-14.3" font-family="Times,serif" font-size="14.00">mutex</text>
</a>
</g>
</g>
<!-- 10&#45;&gt;12 -->
<g id="edge13" class="edge">
<title>10&#45;&gt;12</title>
<g id="a_edge13"><a xlink:title="include">
<path fill="none" stroke="#1414ce" d="M159.12,-143.89C202.89,-131.96 253.24,-116.68 259.59,-108 272.46,-90.43 270.55,-65.23 266.24,-46.14"/>
<polygon fill="#1414ce" stroke="#1414ce" points="269.57,-45.04 263.68,-36.24 262.8,-46.8 269.57,-45.04"/>
</a>
</g>
</g>
<!-- 13 -->
<g id="node12" class="node">
<title>13</title>
<g id="a_node12"><a xlink:title="base_connector.h">
<polygon fill="#ffffff" stroke="black" points="250.09,-108 111.09,-108 111.09,-72 250.09,-72 250.09,-108"/>
<text text-anchor="middle" x="180.59" y="-86.3" font-family="Times,serif" font-size="14.00">base_connector.h</text>
</a>
</g>
</g>
<!-- 10&#45;&gt;13 -->
<g id="edge14" class="edge">
<title>10&#45;&gt;13</title>
<g id="a_edge14"><a xlink:title="include">
<path fill="none" stroke="#1414ce" d="M114.35,-143.7C125.43,-134.88 139.07,-124.03 151.08,-114.47"/>
<polygon fill="#1414ce" stroke="#1414ce" points="153.44,-117.07 159.09,-108.1 149.09,-111.59 153.44,-117.07"/>
</a>
</g>
</g>
<!-- 13&#45;&gt;7 -->
<g id="edge19" class="edge">
<title>13&#45;&gt;7</title>
<g id="a_edge19"><a xlink:title="include">
<path fill="none" stroke="#1414ce" d="M147.33,-71.88C129.13,-62.51 106.4,-50.81 86.95,-40.8"/>
<polygon fill="#1414ce" stroke="#1414ce" points="88.49,-37.65 77.99,-36.19 85.28,-43.88 88.49,-37.65"/>
</a>
</g>
</g>
<!-- 13&#45;&gt;4 -->
<g id="edge16" class="edge">
<title>13&#45;&gt;4</title>
<g id="a_edge16"><a xlink:title="include">
<path fill="none" stroke="#1414ce" d="M220.71,-71.88C246.53,-60.86 279.91,-46.61 305.52,-35.68"/>
<polygon fill="#1414ce" stroke="#1414ce" points="307.1,-38.81 314.92,-31.67 304.35,-32.37 307.1,-38.81"/>
</a>
</g>
</g>
<!-- 13&#45;&gt;11 -->
<g id="edge17" class="edge">
<title>13&#45;&gt;11</title>
<g id="a_edge17"><a xlink:title="include">
<path fill="none" stroke="#1414ce" d="M176.15,-71.7C174.14,-63.9 171.73,-54.51 169.49,-45.83"/>
<polygon fill="#1414ce" stroke="#1414ce" points="172.87,-44.92 166.99,-36.1 166.09,-46.66 172.87,-44.92"/>
</a>
</g>
</g>
<!-- 13&#45;&gt;12 -->
<g id="edge18" class="edge">
<title>13&#45;&gt;12</title>
<g id="a_edge18"><a xlink:title="include">
<path fill="none" stroke="#1414ce" d="M199.63,-71.7C209.14,-63.05 220.8,-52.45 231.16,-43.03"/>
<polygon fill="#1414ce" stroke="#1414ce" points="233.73,-45.42 238.78,-36.1 229.03,-40.24 233.73,-45.42"/>
</a>
</g>
</g>
</g>
</svg>
