<?xml version="1.0" encoding="UTF-8" standalone="no"?>
<!DOCTYPE svg PUBLIC "-//W3C//DTD SVG 1.1//EN"
 "http://www.w3.org/Graphics/SVG/1.1/DTD/svg11.dtd">
<!-- Generated by graphviz version 2.43.0 (0)
 -->
<!-- Title: %3 Pages: 1 -->
<svg width="354pt" height="260pt"
 viewBox="0.00 0.00 354.00 260.00" xmlns="http://www.w3.org/2000/svg" xmlns:xlink="http://www.w3.org/1999/xlink">
<g id="graph0" class="graph" transform="scale(1 1) rotate(0) translate(4 256)">
<title>%3</title>
<polygon fill="transparent" stroke="transparent" points="-4,4 -4,-256 350,-256 350,4 -4,4"/>
<!-- 2 -->
<g id="node1" class="node">
<title>2</title>
<g id="a_node1"><a xlink:title="nng/nng.h">
<polygon fill="#ffffff" stroke="black" points="89,-36 0,-36 0,0 89,0 89,-36"/>
<text text-anchor="middle" x="44.5" y="-14.3" font-family="Times,serif" font-size="14.00">nng/nng.h</text>
</a>
</g>
</g>
<!-- 4 -->
<g id="node2" class="node">
<title>4</title>
<g id="a_node2"><a xlink:title="string">
<polygon fill="#ffffff" stroke="black" points="346,-36 287,-36 287,0 346,0 346,-36"/>
<text text-anchor="middle" x="316.5" y="-14.3" font-family="Times,serif" font-size="14.00">string</text>
</a>
</g>
</g>
<!-- 5 -->
<g id="node3" class="node">
<title>5</title>
<g id="a_node3"><a xlink:title="vector">
<polygon fill="#ffffff" stroke="black" points="173.5,-36 111.5,-36 111.5,0 173.5,0 173.5,-36"/>
<text text-anchor="middle" x="142.5" y="-14.3" font-family="Times,serif" font-size="14.00">vector</text>
</a>
</g>
</g>
<!-- 3 -->
<g id="node4" class="node">
<title>3</title>
<g id="a_node4"><a xlink:title="nng_connector.h">
<polygon fill="#ffffff" stroke="black" points="247,-180 114,-180 114,-144 247,-144 247,-180"/>
<text text-anchor="middle" x="180.5" y="-158.3" font-family="Times,serif" font-size="14.00">nng_connector.h</text>
</a>
</g>
</g>
<!-- 3&#45;&gt;2 -->
<g id="edge5" class="edge">
<title>3&#45;&gt;2</title>
<g id="a_edge5"><a xlink:title="include">
<path fill="none" stroke="#1414ce" d="M143.19,-143.85C126.55,-134.88 107.56,-122.69 93.5,-108 76.16,-89.88 62.96,-64.43 54.66,-45.38"/>
<polygon fill="#1414ce" stroke="#1414ce" points="57.85,-43.95 50.76,-36.08 51.4,-46.65 57.85,-43.95"/>
</a>
</g>
</g>
<!-- 3&#45;&gt;4 -->
<g id="edge1" class="edge">
<title>3&#45;&gt;4</title>
<g id="a_edge1"><a xlink:title="include">
<path fill="none" stroke="#1414ce" d="M224.18,-143.82C241.86,-135.18 261.39,-123.25 275.5,-108 291.86,-90.33 302.66,-64.99 309.05,-45.86"/>
<polygon fill="#1414ce" stroke="#1414ce" points="312.42,-46.82 312.08,-36.23 305.74,-44.72 312.42,-46.82"/>
</a>
</g>
</g>
<!-- 3&#45;&gt;5 -->
<g id="edge2" class="edge">
<title>3&#45;&gt;5</title>
<g id="a_edge2"><a xlink:title="include">
<path fill="none" stroke="#1414ce" d="M139.82,-143.88C124.98,-135.41 109.82,-123.59 101.5,-108 90.18,-86.78 103.86,-61.86 118.39,-43.8"/>
<polygon fill="#1414ce" stroke="#1414ce" points="121.2,-45.89 125.03,-36.02 115.88,-41.35 121.2,-45.89"/>
</a>
</g>
</g>
<!-- 6 -->
<g id="node5" class="node">
<title>6</title>
<g id="a_node5"><a xlink:title="mutex">
<polygon fill="#ffffff" stroke="black" points="263.5,-36 201.5,-36 201.5,0 263.5,0 263.5,-36"/>
<text text-anchor="middle" x="232.5" y="-14.3" font-family="Times,serif" font-size="14.00">mutex</text>
</a>
</g>
</g>
<!-- 3&#45;&gt;6 -->
<g id="edge3" class="edge">
<title>3&#45;&gt;6</title>
<g id="a_edge3"><a xlink:title="include">
<path fill="none" stroke="#1414ce" d="M221.18,-143.88C236.02,-135.41 251.18,-123.59 259.5,-108 270.16,-88.01 261.03,-63.2 250.59,-44.86"/>
<polygon fill="#1414ce" stroke="#1414ce" points="253.48,-42.88 245.28,-36.17 247.51,-46.53 253.48,-42.88"/>
</a>
</g>
</g>
<!-- 7 -->
<g id="node7" class="node">
<title>7</title>
<g id="a_node7"><a xlink:title="base_connector.h">
<polygon fill="#ffffff" stroke="black" points="250,-108 111,-108 111,-72 250,-72 250,-108"/>
<text text-anchor="middle" x="180.5" y="-86.3" font-family="Times,serif" font-size="14.00">base_connector.h</text>
</a>
</g>
</g>
<!-- 3&#45;&gt;7 -->
<g id="edge4" class="edge">
<title>3&#45;&gt;7</title>
<g id="a_edge4"><a xlink:title="include">
<path fill="none" stroke="#1414ce" d="M180.5,-143.7C180.5,-135.98 180.5,-126.71 180.5,-118.11"/>
<polygon fill="#1414ce" stroke="#1414ce" points="184,-118.1 180.5,-108.1 177,-118.1 184,-118.1"/>
</a>
</g>
</g>
<!-- 1 -->
<g id="node6" class="node">
<title>1</title>
<g id="a_node6"><a xlink:title="src/o3ds/pipeline.h">
<polygon fill="#bfbfbf" stroke="black" points="256.5,-252 104.5,-252 104.5,-216 256.5,-216 256.5,-252"/>
<text text-anchor="middle" x="180.5" y="-230.3" font-family="Times,serif" font-size="14.00">src/o3ds/pipeline.h</text>
</a>
</g>
</g>
<!-- 1&#45;&gt;2 -->
<g id="edge6" class="edge">
<title>1&#45;&gt;2</title>
<g id="a_edge6"><a xlink:title="include">
<path fill="none" stroke="#1414ce" d="M149.52,-215.92C134.65,-206.66 117.33,-194.21 104.5,-180 69.71,-141.48 54.5,-80.94 48.32,-46.12"/>
<polygon fill="#1414ce" stroke="#1414ce" points="51.76,-45.48 46.68,-36.19 44.85,-46.62 51.76,-45.48"/>
</a>
</g>
</g>
<!-- 1&#45;&gt;4 -->
<g id="edge8" class="edge">
<title>1&#45;&gt;4</title>
<g id="a_edge8"><a xlink:title="include">
<path fill="none" stroke="#1414ce" d="M210.86,-215.92C225.74,-206.58 243.27,-194.06 256.5,-180 282.21,-152.69 287.18,-143.06 300.5,-108 308.06,-88.1 312.1,-64.3 314.23,-46.33"/>
<polygon fill="#1414ce" stroke="#1414ce" points="317.73,-46.55 315.3,-36.23 310.77,-45.81 317.73,-46.55"/>
</a>
</g>
</g>
<!-- 1&#45;&gt;3 -->
<g id="edge7" class="edge">
<title>1&#45;&gt;3</title>
<g id="a_edge7"><a xlink:title="include">
<path fill="none" stroke="#1414ce" d="M180.5,-215.7C180.5,-207.98 180.5,-198.71 180.5,-190.11"/>
<polygon fill="#1414ce" stroke="#1414ce" points="184,-190.1 180.5,-180.1 177,-190.1 184,-190.1"/>
</a>
</g>
</g>
<!-- 7&#45;&gt;2 -->
<g id="edge12" class="edge">
<title>7&#45;&gt;2</title>
<g id="a_edge12"><a xlink:title="include">
<path fill="none" stroke="#1414ce" d="M147.23,-71.88C129.04,-62.51 106.31,-50.81 86.86,-40.8"/>
<polygon fill="#1414ce" stroke="#1414ce" points="88.39,-37.65 77.9,-36.19 85.19,-43.88 88.39,-37.65"/>
</a>
</g>
</g>
<!-- 7&#45;&gt;4 -->
<g id="edge9" class="edge">
<title>7&#45;&gt;4</title>
<g id="a_edge9"><a xlink:title="include">
<path fill="none" stroke="#1414ce" d="M213.77,-71.88C233.14,-61.91 257.64,-49.29 277.86,-38.89"/>
<polygon fill="#1414ce" stroke="#1414ce" points="279.52,-41.97 286.81,-34.28 276.32,-35.74 279.52,-41.97"/>
</a>
</g>
</g>
<!-- 7&#45;&gt;5 -->
<g id="edge10" class="edge">
<title>7&#45;&gt;5</title>
<g id="a_edge10"><a xlink:title="include">
<path fill="none" stroke="#1414ce" d="M171.11,-71.7C166.74,-63.64 161.44,-53.89 156.6,-44.98"/>
<polygon fill="#1414ce" stroke="#1414ce" points="159.63,-43.22 151.79,-36.1 153.48,-46.56 159.63,-43.22"/>
</a>
</g>
</g>
<!-- 7&#45;&gt;6 -->
<g id="edge11" class="edge">
<title>7&#45;&gt;6</title>
<g id="a_edge11"><a xlink:title="include">
<path fill="none" stroke="#1414ce" d="M193.35,-71.7C199.53,-63.39 207.04,-53.28 213.82,-44.14"/>
<polygon fill="#1414ce" stroke="#1414ce" points="216.64,-46.22 219.79,-36.1 211.02,-42.04 216.64,-46.22"/>
</a>
</g>
</g>
</g>
</svg>
