<?xml version="1.0" encoding="UTF-8" standalone="no"?>
<!DOCTYPE svg PUBLIC "-//W3C//DTD SVG 1.1//EN"
 "http://www.w3.org/Graphics/SVG/1.1/DTD/svg11.dtd">
<!-- Generated by graphviz version 2.43.0 (0)
 -->
<!-- Title: %3 Pages: 1 -->
<svg width="684pt" height="188pt"
 viewBox="0.00 0.00 683.50 188.00" xmlns="http://www.w3.org/2000/svg" xmlns:xlink="http://www.w3.org/1999/xlink">
<g id="graph0" class="graph" transform="scale(1 1) rotate(0) translate(4 184)">
<title>%3</title>
<polygon fill="transparent" stroke="transparent" points="-4,4 -4,-184 679.5,-184 679.5,4 -4,4"/>
<!-- 1 -->
<g id="node1" class="node">
<title>1</title>
<g id="a_node1"><a xlink:title="O3DS::Subject">
<polygon fill="#bfbfbf" stroke="black" points="298.5,-180 177.5,-180 177.5,-144 298.5,-144 298.5,-180"/>
<text text-anchor="middle" x="238" y="-158.3" font-family="Times,serif" font-size="14.00">O3DS::Subject</text>
</a>
</g>
</g>
<!-- 6 -->
<g id="node2" class="node">
<title>6</title>
<g id="a_node2"><a xlink:title="void *">
<polygon fill="#ffffff" stroke="black" points="58,-108 0,-108 0,-72 58,-72 58,-108"/>
<text text-anchor="middle" x="29" y="-86.3" font-family="Times,serif" font-size="14.00">void *</text>
</a>
</g>
</g>
<!-- 1&#45;&gt;6 -->
<g id="edge4" class="edge">
<title>1&#45;&gt;6</title>
<g id="a_edge4"><a xlink:title="usage">
<path fill="none" stroke="#1414ce" d="M177.26,-144.1C146.62,-135.14 108.82,-123.39 67.7,-108.07"/>
<polygon fill="#1414ce" stroke="#1414ce" points="68.9,-104.78 58.31,-104.53 66.44,-111.33 68.9,-104.78"/>
</a>
</g>
</g>
<!-- 5 -->
<g id="node3" class="node">
<title>5</title>
<g id="a_node3"><a xlink:title="string">
<polygon fill="#ffffff" stroke="black" points="135.5,-108 76.5,-108 76.5,-72 135.5,-72 135.5,-108"/>
<text text-anchor="middle" x="106" y="-86.3" font-family="Times,serif" font-size="14.00">string</text>
</a>
</g>
</g>
<!-- 1&#45;&gt;5 -->
<g id="edge3" class="edge">
<title>1&#45;&gt;5</title>
<g id="a_edge3"><a xlink:title="usage">
<path fill="none" stroke="#1414ce" d="M205.71,-143.88C187.26,-134.09 164.01,-121.76 144.6,-111.47"/>
<polygon fill="#1414ce" stroke="#1414ce" points="146.17,-108.34 135.7,-106.75 142.9,-114.53 146.17,-108.34"/>
</a>
</g>
</g>
<!-- 2 -->
<g id="node5" class="node">
<title>2</title>
<g id="a_node5"><a xlink:title="vector&lt; std::string &gt;">
<polygon fill="#ffffff" stroke="black" points="322.5,-108 153.5,-108 153.5,-72 322.5,-72 322.5,-108"/>
<text text-anchor="middle" x="238" y="-86.3" font-family="Times,serif" font-size="14.00">vector&lt; std::string &gt;</text>
</a>
</g>
</g>
<!-- 1&#45;&gt;2 -->
<g id="edge1" class="edge">
<title>1&#45;&gt;2</title>
<g id="a_edge1"><a xlink:title="usage">
<path fill="none" stroke="#1414ce" d="M238,-143.7C238,-135.98 238,-126.71 238,-118.11"/>
<polygon fill="#1414ce" stroke="#1414ce" points="241.5,-118.1 238,-108.1 234.5,-118.1 241.5,-118.1"/>
</a>
</g>
</g>
<!-- 7 -->
<g id="node7" class="node">
<title>7</title>
<g id="a_node7"><a xlink:title="O3DS::TransformList">
<polygon fill="#ffffff" stroke="black" points="508,-108 340,-108 340,-72 508,-72 508,-108"/>
<text text-anchor="middle" x="424" y="-86.3" font-family="Times,serif" font-size="14.00">O3DS::TransformList</text>
</a>
</g>
</g>
<!-- 1&#45;&gt;7 -->
<g id="edge5" class="edge">
<title>1&#45;&gt;7</title>
<g id="a_edge5"><a xlink:title="usage">
<path fill="none" stroke="#1414ce" d="M283.5,-143.88C309.38,-134.14 341.97,-121.87 369.24,-111.61"/>
<polygon fill="#1414ce" stroke="#1414ce" points="370.52,-114.87 378.65,-108.07 368.06,-108.31 370.52,-114.87"/>
</a>
</g>
</g>
<!-- 3 -->
<g id="node8" class="node">
<title>3</title>
<g id="a_node8"><a xlink:title="O3DS::Context">
<polygon fill="#ffffff" stroke="black" points="665.5,-108 542.5,-108 542.5,-72 665.5,-72 665.5,-108"/>
<text text-anchor="middle" x="604" y="-86.3" font-family="Times,serif" font-size="14.00">O3DS::Context</text>
</a>
</g>
</g>
<!-- 1&#45;&gt;3 -->
<g id="edge2" class="edge">
<title>1&#45;&gt;3</title>
<g id="a_edge2"><a xlink:title="usage">
<path fill="none" stroke="#1414ce" d="M298.7,-149.56C355.23,-138.89 441.84,-122.48 517,-108 521.97,-107.04 527.1,-106.05 532.27,-105.05"/>
<polygon fill="#1414ce" stroke="#1414ce" points="533.07,-108.46 542.22,-103.11 531.74,-101.58 533.07,-108.46"/>
</a>
</g>
</g>
<!-- 8 -->
<g id="node4" class="node">
<title>8</title>
<g id="a_node4"><a xlink:title="vector&lt; O3DS::Transform * &gt;">
<polygon fill="#ffffff" stroke="black" points="530,-36 300,-36 300,0 530,0 530,-36"/>
<text text-anchor="middle" x="415" y="-14.3" font-family="Times,serif" font-size="14.00">vector&lt; O3DS::Transform * &gt;</text>
</a>
</g>
</g>
<!-- 4 -->
<g id="node6" class="node">
<title>4</title>
<g id="a_node6"><a xlink:title="enum Direction">
<polygon fill="#ffffff" stroke="black" points="675.5,-36 548.5,-36 548.5,0 675.5,0 675.5,-36"/>
<text text-anchor="middle" x="612" y="-14.3" font-family="Times,serif" font-size="14.00">enum Direction</text>
</a>
</g>
</g>
<!-- 7&#45;&gt;8 -->
<g id="edge6" class="edge">
<title>7&#45;&gt;8</title>
<g id="a_edge6"><a xlink:title="usage">
<path fill="none" stroke="#1414ce" d="M421.78,-71.7C420.78,-63.98 419.59,-54.71 418.49,-46.11"/>
<polygon fill="#1414ce" stroke="#1414ce" points="421.95,-45.58 417.2,-36.1 415,-46.47 421.95,-45.58"/>
</a>
</g>
</g>
<!-- 3&#45;&gt;4 -->
<g id="edge7" class="edge">
<title>3&#45;&gt;4</title>
<g id="a_edge7"><a xlink:title="usage">
<path fill="none" stroke="#1414ce" d="M605.98,-71.7C606.86,-63.98 607.92,-54.71 608.9,-46.11"/>
<polygon fill="#1414ce" stroke="#1414ce" points="612.39,-46.44 610.05,-36.1 605.43,-45.64 612.39,-46.44"/>
</a>
</g>
</g>
</g>
</svg>
