<?xml version="1.0" encoding="UTF-8" standalone="no"?>
<!DOCTYPE svg PUBLIC "-//W3C//DTD SVG 1.1//EN"
 "http://www.w3.org/Graphics/SVG/1.1/DTD/svg11.dtd">
<!-- Generated by graphviz version 2.43.0 (0)
 -->
<!-- Title: %3 Pages: 1 -->
<svg width="856pt" height="116pt"
 viewBox="0.00 0.00 855.50 116.00" xmlns="http://www.w3.org/2000/svg" xmlns:xlink="http://www.w3.org/1999/xlink">
<g id="graph0" class="graph" transform="scale(1 1) rotate(0) translate(4 112)">
<title>%3</title>
<polygon fill="transparent" stroke="transparent" points="-4,4 -4,-112 851.5,-112 851.5,4 -4,4"/>
<!-- 4 -->
<g id="node1" class="node">
<title>4</title>
<g id="a_node1"><a xlink:title="O3DS::TransformScale">
<polygon fill="#ffffff" stroke="black" points="179,-108 0,-108 0,-72 179,-72 179,-108"/>
<text text-anchor="middle" x="89.5" y="-86.3" font-family="Times,serif" font-size="14.00">O3DS::TransformScale</text>
</a>
</g>
</g>
<!-- 1 -->
<g id="node2" class="node">
<title>1</title>
<g id="a_node2"><a xlink:title="O3DS::TransformComponent">
<polygon fill="#bfbfbf" stroke="black" points="517,-36 294,-36 294,0 517,0 517,-36"/>
<text text-anchor="middle" x="405.5" y="-14.3" font-family="Times,serif" font-size="14.00">O3DS::TransformComponent</text>
</a>
</g>
</g>
<!-- 4&#45;&gt;1 -->
<g id="edge1" class="edge">
<title>4&#45;&gt;1</title>
<g id="a_edge1"><a xlink:title="public&#45;inheritance">
<path fill="none" stroke="#1414ce" d="M166.4,-71.97C212.36,-61.78 270.89,-48.82 318.54,-38.26"/>
<polygon fill="#1414ce" stroke="#1414ce" points="319.52,-41.63 328.53,-36.05 318.01,-34.8 319.52,-41.63"/>
</a>
</g>
</g>
<!-- 3 -->
<g id="node3" class="node">
<title>3</title>
<g id="a_node3"><a xlink:title="O3DS::TransformRotation">
<polygon fill="#ffffff" stroke="black" points="399.5,-108 197.5,-108 197.5,-72 399.5,-72 399.5,-108"/>
<text text-anchor="middle" x="298.5" y="-86.3" font-family="Times,serif" font-size="14.00">O3DS::TransformRotation</text>
</a>
</g>
</g>
<!-- 3&#45;&gt;1 -->
<g id="edge2" class="edge">
<title>3&#45;&gt;1</title>
<g id="a_edge2"><a xlink:title="public&#45;inheritance">
<path fill="none" stroke="#1414ce" d="M324.68,-71.88C338.54,-62.81 355.74,-51.55 370.71,-41.76"/>
<polygon fill="#1414ce" stroke="#1414ce" points="372.77,-44.59 379.22,-36.19 368.94,-38.74 372.77,-44.59"/>
</a>
</g>
</g>
<!-- 2 -->
<g id="node4" class="node">
<title>2</title>
<g id="a_node4"><a xlink:title="O3DS::TransformMatrix">
<polygon fill="#ffffff" stroke="black" points="607,-108 418,-108 418,-72 607,-72 607,-108"/>
<text text-anchor="middle" x="512.5" y="-86.3" font-family="Times,serif" font-size="14.00">O3DS::TransformMatrix</text>
</a>
</g>
</g>
<!-- 2&#45;&gt;1 -->
<g id="edge3" class="edge">
<title>2&#45;&gt;1</title>
<g id="a_edge3"><a xlink:title="public&#45;inheritance">
<path fill="none" stroke="#1414ce" d="M486.32,-71.88C472.46,-62.81 455.26,-51.55 440.29,-41.76"/>
<polygon fill="#1414ce" stroke="#1414ce" points="442.06,-38.74 431.78,-36.19 438.23,-44.59 442.06,-38.74"/>
</a>
</g>
</g>
<!-- 5 -->
<g id="node5" class="node">
<title>5</title>
<g id="a_node5"><a xlink:title="O3DS::TransformTranslation">
<polygon fill="#ffffff" stroke="black" points="847.5,-108 625.5,-108 625.5,-72 847.5,-72 847.5,-108"/>
<text text-anchor="middle" x="736.5" y="-86.3" font-family="Times,serif" font-size="14.00">O3DS::TransformTranslation</text>
</a>
</g>
</g>
<!-- 5&#45;&gt;1 -->
<g id="edge4" class="edge">
<title>5&#45;&gt;1</title>
<g id="a_edge4"><a xlink:title="public&#45;inheritance">
<path fill="none" stroke="#1414ce" d="M655.95,-71.97C607.6,-61.74 545.98,-48.71 495.96,-38.13"/>
<polygon fill="#1414ce" stroke="#1414ce" points="496.63,-34.69 486.12,-36.05 495.18,-41.54 496.63,-34.69"/>
</a>
</g>
</g>
</g>
</svg>
