<?xml version="1.0" encoding="UTF-8" standalone="no"?>
<!DOCTYPE svg PUBLIC "-//W3C//DTD SVG 1.1//EN"
 "http://www.w3.org/Graphics/SVG/1.1/DTD/svg11.dtd">
<!-- Generated by graphviz version 2.43.0 (0)
 -->
<!-- Title: %3 Pages: 1 -->
<svg width="302pt" height="116pt"
 viewBox="0.00 0.00 301.50 116.00" xmlns="http://www.w3.org/2000/svg" xmlns:xlink="http://www.w3.org/1999/xlink">
<g id="graph0" class="graph" transform="scale(1 1) rotate(0) translate(4 112)">
<title>%3</title>
<polygon fill="transparent" stroke="transparent" points="-4,4 -4,-112 297.5,-112 297.5,4 -4,4"/>
<!-- 3 -->
<g id="node1" class="node">
<title>3</title>
<g id="a_node1"><a xlink:title="vector&lt; O3DS::Subject * &gt;">
<polygon fill="#ffffff" stroke="black" points="210,-36 0,-36 0,0 210,0 210,-36"/>
<text text-anchor="middle" x="105" y="-14.3" font-family="Times,serif" font-size="14.00">vector&lt; O3DS::Subject * &gt;</text>
</a>
</g>
</g>
<!-- 2 -->
<g id="node2" class="node">
<title>2</title>
<g id="a_node2"><a xlink:title="double">
<polygon fill="#ffffff" stroke="black" points="293.5,-36 228.5,-36 228.5,0 293.5,0 293.5,-36"/>
<text text-anchor="middle" x="261" y="-14.3" font-family="Times,serif" font-size="14.00">double</text>
</a>
</g>
</g>
<!-- 1 -->
<g id="node3" class="node">
<title>1</title>
<g id="a_node3"><a xlink:title="O3DS::SubjectList">
<polygon fill="#bfbfbf" stroke="black" points="257,-108 109,-108 109,-72 257,-72 257,-108"/>
<text text-anchor="middle" x="183" y="-86.3" font-family="Times,serif" font-size="14.00">O3DS::SubjectList</text>
</a>
</g>
</g>
<!-- 1&#45;&gt;3 -->
<g id="edge2" class="edge">
<title>1&#45;&gt;3</title>
<g id="a_edge2"><a xlink:title="usage">
<path fill="none" stroke="#1414ce" d="M163.72,-71.7C154.08,-63.05 142.27,-52.45 131.77,-43.03"/>
<polygon fill="#1414ce" stroke="#1414ce" points="133.84,-40.18 124.06,-36.1 129.16,-45.39 133.84,-40.18"/>
</a>
</g>
</g>
<!-- 1&#45;&gt;2 -->
<g id="edge1" class="edge">
<title>1&#45;&gt;2</title>
<g id="a_edge1"><a xlink:title="usage">
<path fill="none" stroke="#1414ce" d="M202.28,-71.7C211.92,-63.05 223.73,-52.45 234.23,-43.03"/>
<polygon fill="#1414ce" stroke="#1414ce" points="236.84,-45.39 241.94,-36.1 232.16,-40.18 236.84,-45.39"/>
</a>
</g>
</g>
</g>
</svg>
