<?xml version="1.0" encoding="UTF-8" standalone="no"?>
<!DOCTYPE svg PUBLIC "-//W3C//DTD SVG 1.1//EN"
 "http://www.w3.org/Graphics/SVG/1.1/DTD/svg11.dtd">
<!-- Generated by graphviz version 2.43.0 (0)
 -->
<!-- Title: %3 Pages: 1 -->
<svg width="1422pt" height="260pt"
 viewBox="0.00 0.00 1421.50 260.00" xmlns="http://www.w3.org/2000/svg" xmlns:xlink="http://www.w3.org/1999/xlink">
<g id="graph0" class="graph" transform="scale(1 1) rotate(0) translate(4 256)">
<title>%3</title>
<polygon fill="transparent" stroke="transparent" points="-4,4 -4,-256 1417.5,-256 1417.5,4 -4,4"/>
<!-- 11 -->
<g id="node1" class="node">
<title>11</title>
<g id="a_node1"><a xlink:title="websocketpp/config/asio_no_tls_client.hpp">
<polygon fill="#ffffff" stroke="black" points="317,-108 0,-108 0,-72 317,-72 317,-108"/>
<text text-anchor="middle" x="158.5" y="-86.3" font-family="Times,serif" font-size="14.00">websocketpp/config/asio_no_tls_client.hpp</text>
</a>
</g>
</g>
<!-- 9 -->
<g id="node2" class="node">
<title>9</title>
<g id="a_node2"><a xlink:title="websocketpp/server.hpp">
<polygon fill="#ffffff" stroke="black" points="525.5,-108 335.5,-108 335.5,-72 525.5,-72 525.5,-108"/>
<text text-anchor="middle" x="430.5" y="-86.3" font-family="Times,serif" font-size="14.00">websocketpp/server.hpp</text>
</a>
</g>
</g>
<!-- 8 -->
<g id="node3" class="node">
<title>8</title>
<g id="a_node3"><a xlink:title="websocketpp/client.hpp">
<polygon fill="#ffffff" stroke="black" points="729,-108 544,-108 544,-72 729,-72 729,-108"/>
<text text-anchor="middle" x="636.5" y="-86.3" font-family="Times,serif" font-size="14.00">websocketpp/client.hpp</text>
</a>
</g>
</g>
<!-- 2 -->
<g id="node4" class="node">
<title>2</title>
<g id="a_node4"><a xlink:title="websocket.h">
<polygon fill="#ffffff" stroke="black" points="869,-180 764,-180 764,-144 869,-144 869,-180"/>
<text text-anchor="middle" x="816.5" y="-158.3" font-family="Times,serif" font-size="14.00">websocket.h</text>
</a>
</g>
</g>
<!-- 2&#45;&gt;11 -->
<g id="edge5" class="edge">
<title>2&#45;&gt;11</title>
<g id="a_edge5"><a xlink:title="include">
<path fill="none" stroke="#1414ce" d="M763.77,-155.39C670.25,-145.44 471.65,-124.31 327.37,-108.97"/>
<polygon fill="#1414ce" stroke="#1414ce" points="327.4,-105.45 317.08,-107.87 326.66,-112.41 327.4,-105.45"/>
</a>
</g>
</g>
<!-- 2&#45;&gt;9 -->
<g id="edge3" class="edge">
<title>2&#45;&gt;9</title>
<g id="a_edge3"><a xlink:title="include">
<path fill="none" stroke="#1414ce" d="M763.64,-151.41C704.97,-140.77 608.82,-123.34 534.86,-109.93"/>
<polygon fill="#1414ce" stroke="#1414ce" points="535.04,-106.4 524.58,-108.06 533.79,-113.29 535.04,-106.4"/>
</a>
</g>
</g>
<!-- 2&#45;&gt;8 -->
<g id="edge2" class="edge">
<title>2&#45;&gt;8</title>
<g id="a_edge2"><a xlink:title="include">
<path fill="none" stroke="#1414ce" d="M772.47,-143.88C747.53,-134.18 716.16,-121.98 689.84,-111.74"/>
<polygon fill="#1414ce" stroke="#1414ce" points="690.98,-108.43 680.39,-108.07 688.44,-114.95 690.98,-108.43"/>
</a>
</g>
</g>
<!-- 10 -->
<g id="node7" class="node">
<title>10</title>
<g id="a_node7"><a xlink:title="boost/thread.hpp">
<polygon fill="#ffffff" stroke="black" points="886,-108 747,-108 747,-72 886,-72 886,-108"/>
<text text-anchor="middle" x="816.5" y="-86.3" font-family="Times,serif" font-size="14.00">boost/thread.hpp</text>
</a>
</g>
</g>
<!-- 2&#45;&gt;10 -->
<g id="edge4" class="edge">
<title>2&#45;&gt;10</title>
<g id="a_edge4"><a xlink:title="include">
<path fill="none" stroke="#1414ce" d="M816.5,-143.7C816.5,-135.98 816.5,-126.71 816.5,-118.11"/>
<polygon fill="#1414ce" stroke="#1414ce" points="820,-118.1 816.5,-108.1 813,-118.1 820,-118.1"/>
</a>
</g>
</g>
<!-- 12 -->
<g id="node8" class="node">
<title>12</title>
<g id="a_node8"><a xlink:title="websocketpp/config/asio_no_tls.hpp">
<polygon fill="#ffffff" stroke="black" points="1174.5,-108 904.5,-108 904.5,-72 1174.5,-72 1174.5,-108"/>
<text text-anchor="middle" x="1039.5" y="-86.3" font-family="Times,serif" font-size="14.00">websocketpp/config/asio_no_tls.hpp</text>
</a>
</g>
</g>
<!-- 2&#45;&gt;12 -->
<g id="edge6" class="edge">
<title>2&#45;&gt;12</title>
<g id="a_edge6"><a xlink:title="include">
<path fill="none" stroke="#1414ce" d="M869.07,-144.5C900.83,-134.53 941.54,-121.75 975.21,-111.18"/>
<polygon fill="#1414ce" stroke="#1414ce" points="976.47,-114.45 984.96,-108.12 974.37,-107.78 976.47,-114.45"/>
</a>
</g>
</g>
<!-- 3 -->
<g id="node14" class="node">
<title>3</title>
<g id="a_node14"><a xlink:title="base_connector.h">
<polygon fill="#ffffff" stroke="black" points="1332,-108 1193,-108 1193,-72 1332,-72 1332,-108"/>
<text text-anchor="middle" x="1262.5" y="-86.3" font-family="Times,serif" font-size="14.00">base_connector.h</text>
</a>
</g>
</g>
<!-- 2&#45;&gt;3 -->
<g id="edge1" class="edge">
<title>2&#45;&gt;3</title>
<g id="a_edge1"><a xlink:title="include">
<path fill="none" stroke="#1414ce" d="M869.14,-145.99C872.29,-145.27 875.43,-144.6 878.5,-144 1009.33,-118.49 1047.09,-129.82 1182.84,-108.01"/>
<polygon fill="#1414ce" stroke="#1414ce" points="1183.48,-111.45 1192.78,-106.38 1182.35,-104.54 1183.48,-111.45"/>
</a>
</g>
</g>
<!-- 13 -->
<g id="node15" class="node">
<title>13</title>
<g id="a_node15"><a xlink:title="set">
<polygon fill="#ffffff" stroke="black" points="1404.5,-108 1350.5,-108 1350.5,-72 1404.5,-72 1404.5,-108"/>
<text text-anchor="middle" x="1377.5" y="-86.3" font-family="Times,serif" font-size="14.00">set</text>
</a>
</g>
</g>
<!-- 2&#45;&gt;13 -->
<g id="edge7" class="edge">
<title>2&#45;&gt;13</title>
<g id="a_edge7"><a xlink:title="include">
<path fill="none" stroke="#1414ce" d="M869.11,-145.84C872.27,-145.16 875.42,-144.54 878.5,-144 1081.39,-108.61 1141.16,-159.8 1340.5,-108 1340.6,-107.97 1340.71,-107.95 1340.81,-107.92"/>
<polygon fill="#1414ce" stroke="#1414ce" points="1342.02,-111.2 1350.42,-104.74 1339.83,-104.56 1342.02,-111.2"/>
</a>
</g>
</g>
<!-- 7 -->
<g id="node5" class="node">
<title>7</title>
<g id="a_node5"><a xlink:title="nng/nng.h">
<polygon fill="#ffffff" stroke="black" points="1176,-36 1087,-36 1087,0 1176,0 1176,-36"/>
<text text-anchor="middle" x="1131.5" y="-14.3" font-family="Times,serif" font-size="14.00">nng/nng.h</text>
</a>
</g>
</g>
<!-- 4 -->
<g id="node6" class="node">
<title>4</title>
<g id="a_node6"><a xlink:title="string">
<polygon fill="#ffffff" stroke="black" points="1253,-36 1194,-36 1194,0 1253,0 1253,-36"/>
<text text-anchor="middle" x="1223.5" y="-14.3" font-family="Times,serif" font-size="14.00">string</text>
</a>
</g>
</g>
<!-- 14 -->
<g id="node9" class="node">
<title>14</title>
<g id="a_node9"><a xlink:title="websocketpp/uri.hpp">
<polygon fill="#ffffff" stroke="black" points="1053.5,-180 887.5,-180 887.5,-144 1053.5,-144 1053.5,-180"/>
<text text-anchor="middle" x="970.5" y="-158.3" font-family="Times,serif" font-size="14.00">websocketpp/uri.hpp</text>
</a>
</g>
</g>
<!-- 1 -->
<g id="node10" class="node">
<title>1</title>
<g id="a_node10"><a xlink:title="src/o3ds/websocket.cpp">
<polygon fill="#bfbfbf" stroke="black" points="1063.5,-252 877.5,-252 877.5,-216 1063.5,-216 1063.5,-252"/>
<text text-anchor="middle" x="970.5" y="-230.3" font-family="Times,serif" font-size="14.00">src/o3ds/websocket.cpp</text>
</a>
</g>
</g>
<!-- 1&#45;&gt;2 -->
<g id="edge8" class="edge">
<title>1&#45;&gt;2</title>
<g id="a_edge8"><a xlink:title="include">
<path fill="none" stroke="#1414ce" d="M932.83,-215.88C911.87,-206.35 885.6,-194.41 863.32,-184.28"/>
<polygon fill="#1414ce" stroke="#1414ce" points="864.6,-181.02 854.05,-180.07 861.71,-187.39 864.6,-181.02"/>
</a>
</g>
</g>
<!-- 1&#45;&gt;14 -->
<g id="edge9" class="edge">
<title>1&#45;&gt;14</title>
<g id="a_edge9"><a xlink:title="include">
<path fill="none" stroke="#1414ce" d="M970.5,-215.7C970.5,-207.98 970.5,-198.71 970.5,-190.11"/>
<polygon fill="#1414ce" stroke="#1414ce" points="974,-190.1 970.5,-180.1 967,-190.1 974,-190.1"/>
</a>
</g>
</g>
<!-- 15 -->
<g id="node11" class="node">
<title>15</title>
<g id="a_node11"><a xlink:title="boost/asio.hpp">
<polygon fill="#ffffff" stroke="black" points="1191.5,-180 1071.5,-180 1071.5,-144 1191.5,-144 1191.5,-180"/>
<text text-anchor="middle" x="1131.5" y="-158.3" font-family="Times,serif" font-size="14.00">boost/asio.hpp</text>
</a>
</g>
</g>
<!-- 1&#45;&gt;15 -->
<g id="edge10" class="edge">
<title>1&#45;&gt;15</title>
<g id="a_edge10"><a xlink:title="include">
<path fill="none" stroke="#1414ce" d="M1009.89,-215.88C1031.89,-206.31 1059.51,-194.3 1082.86,-184.15"/>
<polygon fill="#1414ce" stroke="#1414ce" points="1084.47,-187.27 1092.24,-180.07 1081.68,-180.85 1084.47,-187.27"/>
</a>
</g>
</g>
<!-- 5 -->
<g id="node12" class="node">
<title>5</title>
<g id="a_node12"><a xlink:title="vector">
<polygon fill="#ffffff" stroke="black" points="1333.5,-36 1271.5,-36 1271.5,0 1333.5,0 1333.5,-36"/>
<text text-anchor="middle" x="1302.5" y="-14.3" font-family="Times,serif" font-size="14.00">vector</text>
</a>
</g>
</g>
<!-- 6 -->
<g id="node13" class="node">
<title>6</title>
<g id="a_node13"><a xlink:title="mutex">
<polygon fill="#ffffff" stroke="black" points="1413.5,-36 1351.5,-36 1351.5,0 1413.5,0 1413.5,-36"/>
<text text-anchor="middle" x="1382.5" y="-14.3" font-family="Times,serif" font-size="14.00">mutex</text>
</a>
</g>
</g>
<!-- 3&#45;&gt;7 -->
<g id="edge14" class="edge">
<title>3&#45;&gt;7</title>
<g id="a_edge14"><a xlink:title="include">
<path fill="none" stroke="#1414ce" d="M1230.45,-71.88C1213.01,-62.55 1191.23,-50.92 1172.56,-40.94"/>
<polygon fill="#1414ce" stroke="#1414ce" points="1174.14,-37.82 1163.67,-36.19 1170.84,-43.99 1174.14,-37.82"/>
</a>
</g>
</g>
<!-- 3&#45;&gt;4 -->
<g id="edge11" class="edge">
<title>3&#45;&gt;4</title>
<g id="a_edge11"><a xlink:title="include">
<path fill="none" stroke="#1414ce" d="M1252.86,-71.7C1248.37,-63.64 1242.94,-53.89 1237.98,-44.98"/>
<polygon fill="#1414ce" stroke="#1414ce" points="1240.95,-43.14 1233.03,-36.1 1234.84,-46.54 1240.95,-43.14"/>
</a>
</g>
</g>
<!-- 3&#45;&gt;5 -->
<g id="edge12" class="edge">
<title>3&#45;&gt;5</title>
<g id="a_edge12"><a xlink:title="include">
<path fill="none" stroke="#1414ce" d="M1272.39,-71.7C1276.99,-63.64 1282.56,-53.89 1287.65,-44.98"/>
<polygon fill="#1414ce" stroke="#1414ce" points="1290.8,-46.52 1292.73,-36.1 1284.73,-43.05 1290.8,-46.52"/>
</a>
</g>
</g>
<!-- 3&#45;&gt;6 -->
<g id="edge13" class="edge">
<title>3&#45;&gt;6</title>
<g id="a_edge13"><a xlink:title="include">
<path fill="none" stroke="#1414ce" d="M1291.86,-71.88C1307.55,-62.72 1327.06,-51.34 1343.95,-41.48"/>
<polygon fill="#1414ce" stroke="#1414ce" points="1346.16,-44.25 1353.03,-36.19 1342.63,-38.21 1346.16,-44.25"/>
</a>
</g>
</g>
</g>
</svg>
