<?xml version="1.0" encoding="UTF-8" standalone="no"?>
<!DOCTYPE svg PUBLIC "-//W3C//DTD SVG 1.1//EN"
 "http://www.w3.org/Graphics/SVG/1.1/DTD/svg11.dtd">
<!-- Generated by graphviz version 2.43.0 (0)
 -->
<!-- Title: %3 Pages: 1 -->
<svg width="585pt" height="260pt"
 viewBox="0.00 0.00 584.50 260.00" xmlns="http://www.w3.org/2000/svg" xmlns:xlink="http://www.w3.org/1999/xlink">
<g id="graph0" class="graph" transform="scale(1 1) rotate(0) translate(4 256)">
<title>%3</title>
<polygon fill="transparent" stroke="transparent" points="-4,4 -4,-256 580.5,-256 580.5,4 -4,4"/>
<!-- 2 -->
<g id="node1" class="node">
<title>2</title>
<g id="a_node1"><a xlink:title="nng/nng.h">
<polygon fill="#ffffff" stroke="black" points="89,-36 0,-36 0,0 89,0 89,-36"/>
<text text-anchor="middle" x="44.5" y="-14.3" font-family="Times,serif" font-size="14.00">nng/nng.h</text>
</a>
</g>
</g>
<!-- 5 -->
<g id="node2" class="node">
<title>5</title>
<g id="a_node2"><a xlink:title="string">
<polygon fill="#ffffff" stroke="black" points="346,-36 287,-36 287,0 346,0 346,-36"/>
<text text-anchor="middle" x="316.5" y="-14.3" font-family="Times,serif" font-size="14.00">string</text>
</a>
</g>
</g>
<!-- 6 -->
<g id="node3" class="node">
<title>6</title>
<g id="a_node3"><a xlink:title="vector">
<polygon fill="#ffffff" stroke="black" points="173.5,-36 111.5,-36 111.5,0 173.5,0 173.5,-36"/>
<text text-anchor="middle" x="142.5" y="-14.3" font-family="Times,serif" font-size="14.00">vector</text>
</a>
</g>
</g>
<!-- 4 -->
<g id="node4" class="node">
<title>4</title>
<g id="a_node4"><a xlink:title="nng_connector.h">
<polygon fill="#ffffff" stroke="black" points="286,-180 153,-180 153,-144 286,-144 286,-180"/>
<text text-anchor="middle" x="219.5" y="-158.3" font-family="Times,serif" font-size="14.00">nng_connector.h</text>
</a>
</g>
</g>
<!-- 4&#45;&gt;2 -->
<g id="edge5" class="edge">
<title>4&#45;&gt;2</title>
<g id="a_edge5"><a xlink:title="include">
<path fill="none" stroke="#1414ce" d="M155.55,-143.93C133.7,-135.75 110.3,-124.12 92.5,-108 73.88,-91.14 61.08,-65.33 53.41,-45.84"/>
<polygon fill="#1414ce" stroke="#1414ce" points="56.63,-44.46 49.87,-36.3 50.07,-46.9 56.63,-44.46"/>
</a>
</g>
</g>
<!-- 4&#45;&gt;5 -->
<g id="edge1" class="edge">
<title>4&#45;&gt;5</title>
<g id="a_edge1"><a xlink:title="include">
<path fill="none" stroke="#1414ce" d="M240.64,-143.91C251.71,-134.21 264.91,-121.36 274.5,-108 288.37,-88.67 299.57,-64.05 306.91,-45.6"/>
<polygon fill="#1414ce" stroke="#1414ce" points="310.26,-46.65 310.58,-36.06 303.72,-44.14 310.26,-46.65"/>
</a>
</g>
</g>
<!-- 4&#45;&gt;6 -->
<g id="edge2" class="edge">
<title>4&#45;&gt;6</title>
<g id="a_edge2"><a xlink:title="include">
<path fill="none" stroke="#1414ce" d="M152.87,-146.1C132.94,-138.2 113.27,-126.19 101.5,-108 88.36,-87.69 102.47,-62.48 117.61,-44.08"/>
<polygon fill="#1414ce" stroke="#1414ce" points="120.6,-45.98 124.55,-36.15 115.33,-41.37 120.6,-45.98"/>
</a>
</g>
</g>
<!-- 7 -->
<g id="node5" class="node">
<title>7</title>
<g id="a_node5"><a xlink:title="mutex">
<polygon fill="#ffffff" stroke="black" points="263.5,-36 201.5,-36 201.5,0 263.5,0 263.5,-36"/>
<text text-anchor="middle" x="232.5" y="-14.3" font-family="Times,serif" font-size="14.00">mutex</text>
</a>
</g>
</g>
<!-- 4&#45;&gt;7 -->
<g id="edge3" class="edge">
<title>4&#45;&gt;7</title>
<g id="a_edge3"><a xlink:title="include">
<path fill="none" stroke="#1414ce" d="M237.23,-143.6C245.74,-134 255.03,-121.34 259.5,-108 266.51,-87.07 258.34,-63.12 249.2,-45.34"/>
<polygon fill="#1414ce" stroke="#1414ce" points="252.02,-43.21 244.11,-36.15 245.89,-46.6 252.02,-43.21"/>
</a>
</g>
</g>
<!-- 8 -->
<g id="node6" class="node">
<title>8</title>
<g id="a_node6"><a xlink:title="base_connector.h">
<polygon fill="#ffffff" stroke="black" points="250,-108 111,-108 111,-72 250,-72 250,-108"/>
<text text-anchor="middle" x="180.5" y="-86.3" font-family="Times,serif" font-size="14.00">base_connector.h</text>
</a>
</g>
</g>
<!-- 4&#45;&gt;8 -->
<g id="edge4" class="edge">
<title>4&#45;&gt;8</title>
<g id="a_edge4"><a xlink:title="include">
<path fill="none" stroke="#1414ce" d="M209.86,-143.7C205.37,-135.64 199.94,-125.89 194.98,-116.98"/>
<polygon fill="#1414ce" stroke="#1414ce" points="197.95,-115.14 190.03,-108.1 191.84,-118.54 197.95,-115.14"/>
</a>
</g>
</g>
<!-- 8&#45;&gt;2 -->
<g id="edge9" class="edge">
<title>8&#45;&gt;2</title>
<g id="a_edge9"><a xlink:title="include">
<path fill="none" stroke="#1414ce" d="M147.23,-71.88C129.04,-62.51 106.31,-50.81 86.86,-40.8"/>
<polygon fill="#1414ce" stroke="#1414ce" points="88.39,-37.65 77.9,-36.19 85.19,-43.88 88.39,-37.65"/>
</a>
</g>
</g>
<!-- 8&#45;&gt;5 -->
<g id="edge6" class="edge">
<title>8&#45;&gt;5</title>
<g id="a_edge6"><a xlink:title="include">
<path fill="none" stroke="#1414ce" d="M213.77,-71.88C233.14,-61.91 257.64,-49.29 277.86,-38.89"/>
<polygon fill="#1414ce" stroke="#1414ce" points="279.52,-41.97 286.81,-34.28 276.32,-35.74 279.52,-41.97"/>
</a>
</g>
</g>
<!-- 8&#45;&gt;6 -->
<g id="edge7" class="edge">
<title>8&#45;&gt;6</title>
<g id="a_edge7"><a xlink:title="include">
<path fill="none" stroke="#1414ce" d="M171.11,-71.7C166.74,-63.64 161.44,-53.89 156.6,-44.98"/>
<polygon fill="#1414ce" stroke="#1414ce" points="159.63,-43.22 151.79,-36.1 153.48,-46.56 159.63,-43.22"/>
</a>
</g>
</g>
<!-- 8&#45;&gt;7 -->
<g id="edge8" class="edge">
<title>8&#45;&gt;7</title>
<g id="a_edge8"><a xlink:title="include">
<path fill="none" stroke="#1414ce" d="M193.35,-71.7C199.53,-63.39 207.04,-53.28 213.82,-44.14"/>
<polygon fill="#1414ce" stroke="#1414ce" points="216.64,-46.22 219.79,-36.1 211.02,-42.04 216.64,-46.22"/>
</a>
</g>
</g>
<!-- 1 -->
<g id="node7" class="node">
<title>1</title>
<g id="a_node7"><a xlink:title="src/o3ds/async_pipeline.h">
<polygon fill="#bfbfbf" stroke="black" points="406,-252 207,-252 207,-216 406,-216 406,-252"/>
<text text-anchor="middle" x="306.5" y="-230.3" font-family="Times,serif" font-size="14.00">src/o3ds/async_pipeline.h</text>
</a>
</g>
</g>
<!-- 1&#45;&gt;2 -->
<g id="edge10" class="edge">
<title>1&#45;&gt;2</title>
<g id="a_edge10"><a xlink:title="include">
<path fill="none" stroke="#1414ce" d="M232.38,-215.89C203.51,-207.47 170.87,-195.69 143.5,-180 101.71,-156.05 86.51,-149.76 62.5,-108 51.66,-89.15 47.28,-64.78 45.54,-46.3"/>
<polygon fill="#1414ce" stroke="#1414ce" points="49.02,-45.91 44.79,-36.19 42.04,-46.43 49.02,-45.91"/>
</a>
</g>
</g>
<!-- 1&#45;&gt;5 -->
<g id="edge13" class="edge">
<title>1&#45;&gt;5</title>
<g id="a_edge13"><a xlink:title="include">
<path fill="none" stroke="#1414ce" d="M307.3,-215.85C309.03,-178.83 313.13,-91.18 315.22,-46.39"/>
<polygon fill="#1414ce" stroke="#1414ce" points="318.72,-46.38 315.69,-36.23 311.73,-46.06 318.72,-46.38"/>
</a>
</g>
</g>
<!-- 1&#45;&gt;4 -->
<g id="edge12" class="edge">
<title>1&#45;&gt;4</title>
<g id="a_edge12"><a xlink:title="include">
<path fill="none" stroke="#1414ce" d="M284.99,-215.7C274.04,-206.88 260.55,-196.03 248.68,-186.47"/>
<polygon fill="#1414ce" stroke="#1414ce" points="250.74,-183.65 240.76,-180.1 246.36,-189.1 250.74,-183.65"/>
</a>
</g>
</g>
<!-- 3 -->
<g id="node8" class="node">
<title>3</title>
<g id="a_node8"><a xlink:title="nng/protocol/pair1/pair.h">
<polygon fill="#ffffff" stroke="black" points="576.5,-180 382.5,-180 382.5,-144 576.5,-144 576.5,-180"/>
<text text-anchor="middle" x="479.5" y="-158.3" font-family="Times,serif" font-size="14.00">nng/protocol/pair1/pair.h</text>
</a>
</g>
</g>
<!-- 1&#45;&gt;3 -->
<g id="edge11" class="edge">
<title>1&#45;&gt;3</title>
<g id="a_edge11"><a xlink:title="include">
<path fill="none" stroke="#1414ce" d="M348.82,-215.88C372.68,-206.22 402.67,-194.09 427.9,-183.88"/>
<polygon fill="#1414ce" stroke="#1414ce" points="429.36,-187.06 437.32,-180.07 426.73,-180.57 429.36,-187.06"/>
</a>
</g>
</g>
</g>
</svg>
