<?xml version="1.0" encoding="UTF-8" standalone="no"?>
<!DOCTYPE svg PUBLIC "-//W3C//DTD SVG 1.1//EN"
 "http://www.w3.org/Graphics/SVG/1.1/DTD/svg11.dtd">
<!-- Generated by graphviz version 2.43.0 (0)
 -->
<!-- Title: %3 Pages: 1 -->
<svg width="452pt" height="188pt"
 viewBox="0.00 0.00 452.00 188.00" xmlns="http://www.w3.org/2000/svg" xmlns:xlink="http://www.w3.org/1999/xlink">
<g id="graph0" class="graph" transform="scale(1 1) rotate(0) translate(4 184)">
<title>%3</title>
<polygon fill="transparent" stroke="transparent" points="-4,4 -4,-184 448,-184 448,4 -4,4"/>
<!-- 2 -->
<g id="node1" class="node">
<title>2</title>
<g id="a_node1"><a xlink:title="O3DS::TransformComponent">
<polygon fill="#ffffff" stroke="black" points="223,-108 0,-108 0,-72 223,-72 223,-108"/>
<text text-anchor="middle" x="111.5" y="-86.3" font-family="Times,serif" font-size="14.00">O3DS::TransformComponent</text>
</a>
</g>
</g>
<!-- 4 -->
<g id="node2" class="node">
<title>4</title>
<g id="a_node2"><a xlink:title="double">
<polygon fill="#ffffff" stroke="black" points="375,-36 310,-36 310,0 375,0 375,-36"/>
<text text-anchor="middle" x="342.5" y="-14.3" font-family="Times,serif" font-size="14.00">double</text>
</a>
</g>
</g>
<!-- 1 -->
<g id="node3" class="node">
<title>1</title>
<g id="a_node3"><a xlink:title="O3DS::TransformTranslation">
<polygon fill="#bfbfbf" stroke="black" points="337.5,-180 115.5,-180 115.5,-144 337.5,-144 337.5,-180"/>
<text text-anchor="middle" x="226.5" y="-158.3" font-family="Times,serif" font-size="14.00">O3DS::TransformTranslation</text>
</a>
</g>
</g>
<!-- 1&#45;&gt;2 -->
<g id="edge1" class="edge">
<title>1&#45;&gt;2</title>
<g id="a_edge1"><a xlink:title="public&#45;inheritance">
<path fill="none" stroke="#1414ce" d="M198.37,-143.88C183.33,-134.72 164.63,-123.34 148.44,-113.48"/>
<polygon fill="#1414ce" stroke="#1414ce" points="150.1,-110.4 139.74,-108.19 146.46,-116.38 150.1,-110.4"/>
</a>
</g>
</g>
<!-- 3 -->
<g id="node4" class="node">
<title>3</title>
<g id="a_node4"><a xlink:title="O3DS::Vector3&lt; double &gt;">
<polygon fill="#ffffff" stroke="black" points="444,-108 241,-108 241,-72 444,-72 444,-108"/>
<text text-anchor="middle" x="342.5" y="-86.3" font-family="Times,serif" font-size="14.00">O3DS::Vector3&lt; double &gt;</text>
</a>
</g>
</g>
<!-- 1&#45;&gt;3 -->
<g id="edge2" class="edge">
<title>1&#45;&gt;3</title>
<g id="a_edge2"><a xlink:title="usage">
<path fill="none" stroke="#1414ce" d="M254.88,-143.88C270.04,-134.72 288.91,-123.34 305.24,-113.48"/>
<polygon fill="#1414ce" stroke="#1414ce" points="307.26,-116.35 314.01,-108.19 303.64,-110.36 307.26,-116.35"/>
</a>
</g>
</g>
<!-- 3&#45;&gt;4 -->
<g id="edge3" class="edge">
<title>3&#45;&gt;4</title>
<g id="a_edge3"><a xlink:title="usage">
<path fill="none" stroke="#1414ce" d="M342.5,-71.7C342.5,-63.98 342.5,-54.71 342.5,-46.11"/>
<polygon fill="#1414ce" stroke="#1414ce" points="346,-46.1 342.5,-36.1 339,-46.1 346,-46.1"/>
</a>
</g>
</g>
</g>
</svg>
