<?xml version="1.0" encoding="UTF-8" standalone="no"?>
<!DOCTYPE svg PUBLIC "-//W3C//DTD SVG 1.1//EN"
 "http://www.w3.org/Graphics/SVG/1.1/DTD/svg11.dtd">
<!-- Generated by graphviz version 2.43.0 (0)
 -->
<!-- Title: %3 Pages: 1 -->
<svg width="940pt" height="116pt"
 viewBox="0.00 0.00 940.00 116.00" xmlns="http://www.w3.org/2000/svg" xmlns:xlink="http://www.w3.org/1999/xlink">
<g id="graph0" class="graph" transform="scale(1 1) rotate(0) translate(4 112)">
<title>%3</title>
<polygon fill="transparent" stroke="transparent" points="-4,4 -4,-112 936,-112 936,4 -4,4"/>
<!-- 3 -->
<g id="node1" class="node">
<title>3</title>
<g id="a_node1"><a xlink:title="stdlib.h">
<polygon fill="#ffffff" stroke="black" points="71,-36 0,-36 0,0 71,0 71,-36"/>
<text text-anchor="middle" x="35.5" y="-14.3" font-family="Times,serif" font-size="14.00">stdlib.h</text>
</a>
</g>
</g>
<!-- 6 -->
<g id="node2" class="node">
<title>6</title>
<g id="a_node2"><a xlink:title="nng/nng.h">
<polygon fill="#ffffff" stroke="black" points="178,-36 89,-36 89,0 178,0 178,-36"/>
<text text-anchor="middle" x="133.5" y="-14.3" font-family="Times,serif" font-size="14.00">nng/nng.h</text>
</a>
</g>
</g>
<!-- 1 -->
<g id="node3" class="node">
<title>1</title>
<g id="a_node3"><a xlink:title="src/cmd/o3ds_pingServer.c">
<polygon fill="#bfbfbf" stroke="black" points="607.5,-108 399.5,-108 399.5,-72 607.5,-72 607.5,-108"/>
<text text-anchor="middle" x="503.5" y="-86.3" font-family="Times,serif" font-size="14.00">src/cmd/o3ds_pingServer.c</text>
</a>
</g>
</g>
<!-- 1&#45;&gt;3 -->
<g id="edge2" class="edge">
<title>1&#45;&gt;3</title>
<g id="a_edge2"><a xlink:title="include">
<path fill="none" stroke="#1414ce" d="M399.38,-83.1C315.19,-76.69 193.8,-63.74 81.12,-36.1"/>
<polygon fill="#1414ce" stroke="#1414ce" points="81.84,-32.67 71.29,-33.65 80.14,-39.47 81.84,-32.67"/>
</a>
</g>
</g>
<!-- 1&#45;&gt;6 -->
<g id="edge5" class="edge">
<title>1&#45;&gt;6</title>
<g id="a_edge5"><a xlink:title="include">
<path fill="none" stroke="#1414ce" d="M399.23,-75.45C339.69,-66.79 263.59,-54.18 188.32,-36.28"/>
<polygon fill="#1414ce" stroke="#1414ce" points="188.73,-32.78 178.19,-33.84 187.09,-39.58 188.73,-32.78"/>
</a>
</g>
</g>
<!-- 8 -->
<g id="node4" class="node">
<title>8</title>
<g id="a_node4"><a xlink:title="nng/supplemental/util/platform.h">
<polygon fill="#ffffff" stroke="black" points="449,-36 196,-36 196,0 449,0 449,-36"/>
<text text-anchor="middle" x="322.5" y="-14.3" font-family="Times,serif" font-size="14.00">nng/supplemental/util/platform.h</text>
</a>
</g>
</g>
<!-- 1&#45;&gt;8 -->
<g id="edge7" class="edge">
<title>1&#45;&gt;8</title>
<g id="a_edge7"><a xlink:title="include">
<path fill="none" stroke="#1414ce" d="M459.22,-71.88C434.15,-62.18 402.6,-49.98 376.13,-39.74"/>
<polygon fill="#1414ce" stroke="#1414ce" points="377.22,-36.41 366.63,-36.07 374.7,-42.94 377.22,-36.41"/>
</a>
</g>
</g>
<!-- 4 -->
<g id="node5" class="node">
<title>4</title>
<g id="a_node5"><a xlink:title="string.h">
<polygon fill="#ffffff" stroke="black" points="540,-36 467,-36 467,0 540,0 540,-36"/>
<text text-anchor="middle" x="503.5" y="-14.3" font-family="Times,serif" font-size="14.00">string.h</text>
</a>
</g>
</g>
<!-- 1&#45;&gt;4 -->
<g id="edge3" class="edge">
<title>1&#45;&gt;4</title>
<g id="a_edge3"><a xlink:title="include">
<path fill="none" stroke="#1414ce" d="M503.5,-71.7C503.5,-63.98 503.5,-54.71 503.5,-46.11"/>
<polygon fill="#1414ce" stroke="#1414ce" points="507,-46.1 503.5,-36.1 500,-46.1 507,-46.1"/>
</a>
</g>
</g>
<!-- 7 -->
<g id="node6" class="node">
<title>7</title>
<g id="a_node6"><a xlink:title="nng/protocol/reqrep0/rep.h">
<polygon fill="#ffffff" stroke="black" points="768.5,-36 558.5,-36 558.5,0 768.5,0 768.5,-36"/>
<text text-anchor="middle" x="663.5" y="-14.3" font-family="Times,serif" font-size="14.00">nng/protocol/reqrep0/rep.h</text>
</a>
</g>
</g>
<!-- 1&#45;&gt;7 -->
<g id="edge6" class="edge">
<title>1&#45;&gt;7</title>
<g id="a_edge6"><a xlink:title="include">
<path fill="none" stroke="#1414ce" d="M542.64,-71.88C564.51,-62.31 591.96,-50.3 615.16,-40.15"/>
<polygon fill="#1414ce" stroke="#1414ce" points="616.73,-43.28 624.49,-36.07 613.92,-36.87 616.73,-43.28"/>
</a>
</g>
</g>
<!-- 5 -->
<g id="node7" class="node">
<title>5</title>
<g id="a_node7"><a xlink:title="time.h">
<polygon fill="#ffffff" stroke="black" points="848.5,-36 786.5,-36 786.5,0 848.5,0 848.5,-36"/>
<text text-anchor="middle" x="817.5" y="-14.3" font-family="Times,serif" font-size="14.00">time.h</text>
</a>
</g>
</g>
<!-- 1&#45;&gt;5 -->
<g id="edge4" class="edge">
<title>1&#45;&gt;5</title>
<g id="a_edge4"><a xlink:title="include">
<path fill="none" stroke="#1414ce" d="M607.55,-74.18C656.65,-65.92 715.98,-54.12 776.56,-35.97"/>
<polygon fill="#1414ce" stroke="#1414ce" points="777.75,-39.27 786.29,-33 775.7,-32.57 777.75,-39.27"/>
</a>
</g>
</g>
<!-- 2 -->
<g id="node8" class="node">
<title>2</title>
<g id="a_node8"><a xlink:title="stdio.h">
<polygon fill="#ffffff" stroke="black" points="932,-36 867,-36 867,0 932,0 932,-36"/>
<text text-anchor="middle" x="899.5" y="-14.3" font-family="Times,serif" font-size="14.00">stdio.h</text>
</a>
</g>
</g>
<!-- 1&#45;&gt;2 -->
<g id="edge1" class="edge">
<title>1&#45;&gt;2</title>
<g id="a_edge1"><a xlink:title="include">
<path fill="none" stroke="#1414ce" d="M607.85,-79.92C676.56,-72.4 768.35,-59.46 857.06,-35.75"/>
<polygon fill="#1414ce" stroke="#1414ce" points="858.01,-39.12 866.74,-33.11 856.17,-32.36 858.01,-39.12"/>
</a>
</g>
</g>
</g>
</svg>
