<?xml version="1.0" encoding="UTF-8" standalone="no"?>
<!DOCTYPE svg PUBLIC "-//W3C//DTD SVG 1.1//EN"
 "http://www.w3.org/Graphics/SVG/1.1/DTD/svg11.dtd">
<!-- Generated by graphviz version 2.43.0 (0)
 -->
<!-- Title: %3 Pages: 1 -->
<svg width="1513pt" height="332pt"
 viewBox="0.00 0.00 1513.00 332.00" xmlns="http://www.w3.org/2000/svg" xmlns:xlink="http://www.w3.org/1999/xlink">
<g id="graph0" class="graph" transform="scale(1 1) rotate(0) translate(4 328)">
<title>%3</title>
<polygon fill="transparent" stroke="transparent" points="-4,4 -4,-328 1509,-328 1509,4 -4,4"/>
<!-- 2 -->
<g id="node1" class="node">
<title>2</title>
<g id="a_node1"><a xlink:title="O3DS::Connector">
<polygon fill="#ffffff" stroke="black" points="841.5,-36 701.5,-36 701.5,0 841.5,0 841.5,-36"/>
<text text-anchor="middle" x="771.5" y="-14.3" font-family="Times,serif" font-size="14.00">O3DS::Connector</text>
</a>
</g>
</g>
<!-- 10 -->
<g id="node2" class="node">
<title>10</title>
<g id="a_node2"><a xlink:title="O3DS::AsyncPublisher">
<polygon fill="#ffffff" stroke="black" points="177,-252 0,-252 0,-216 177,-216 177,-252"/>
<text text-anchor="middle" x="88.5" y="-230.3" font-family="Times,serif" font-size="14.00">O3DS::AsyncPublisher</text>
</a>
</g>
</g>
<!-- 3 -->
<g id="node5" class="node">
<title>3</title>
<g id="a_node5"><a xlink:title="O3DS::AsyncNngConnector">
<polygon fill="#ffffff" stroke="black" points="692.5,-180 480.5,-180 480.5,-144 692.5,-144 692.5,-180"/>
<text text-anchor="middle" x="586.5" y="-158.3" font-family="Times,serif" font-size="14.00">O3DS::AsyncNngConnector</text>
</a>
</g>
</g>
<!-- 10&#45;&gt;3 -->
<g id="edge1" class="edge">
<title>10&#45;&gt;3</title>
<g id="a_edge1"><a xlink:title="public&#45;inheritance">
<path fill="none" stroke="#1414ce" d="M177.02,-217.33C179.88,-216.87 182.71,-216.43 185.5,-216 281.18,-201.3 390.1,-187.06 470.25,-177.05"/>
<polygon fill="#1414ce" stroke="#1414ce" points="470.88,-180.5 480.37,-175.79 470.01,-173.55 470.88,-180.5"/>
</a>
</g>
</g>
<!-- 17 -->
<g id="node3" class="node">
<title>17</title>
<g id="a_node3"><a xlink:title="O3DS::WebsocketClient">
<polygon fill="#ffffff" stroke="black" points="1223.5,-252 1037.5,-252 1037.5,-216 1223.5,-216 1223.5,-252"/>
<text text-anchor="middle" x="1130.5" y="-230.3" font-family="Times,serif" font-size="14.00">O3DS::WebsocketClient</text>
</a>
</g>
</g>
<!-- 15 -->
<g id="node17" class="node">
<title>15</title>
<g id="a_node17"><a xlink:title="O3DS::Websocket">
<polygon fill="#ffffff" stroke="black" points="1202,-180 1059,-180 1059,-144 1202,-144 1202,-180"/>
<text text-anchor="middle" x="1130.5" y="-158.3" font-family="Times,serif" font-size="14.00">O3DS::Websocket</text>
</a>
</g>
</g>
<!-- 17&#45;&gt;15 -->
<g id="edge2" class="edge">
<title>17&#45;&gt;15</title>
<g id="a_edge2"><a xlink:title="public&#45;inheritance">
<path fill="none" stroke="#1414ce" d="M1130.5,-215.7C1130.5,-207.98 1130.5,-198.71 1130.5,-190.11"/>
<polygon fill="#1414ce" stroke="#1414ce" points="1134,-190.1 1130.5,-180.1 1127,-190.1 1134,-190.1"/>
</a>
</g>
</g>
<!-- 16 -->
<g id="node4" class="node">
<title>16</title>
<g id="a_node4"><a xlink:title="O3DS::WebsocketBroadcastServer">
<polygon fill="#ffffff" stroke="black" points="1505,-252 1242,-252 1242,-216 1505,-216 1505,-252"/>
<text text-anchor="middle" x="1373.5" y="-230.3" font-family="Times,serif" font-size="14.00">O3DS::WebsocketBroadcastServer</text>
</a>
</g>
</g>
<!-- 16&#45;&gt;15 -->
<g id="edge3" class="edge">
<title>16&#45;&gt;15</title>
<g id="a_edge3"><a xlink:title="public&#45;inheritance">
<path fill="none" stroke="#1414ce" d="M1314.37,-215.97C1279.82,-206.01 1236.05,-193.41 1199.88,-182.99"/>
<polygon fill="#1414ce" stroke="#1414ce" points="1200.48,-179.52 1189.9,-180.11 1198.54,-186.24 1200.48,-179.52"/>
</a>
</g>
</g>
<!-- 1 -->
<g id="node16" class="node">
<title>1</title>
<g id="a_node16"><a xlink:title="O3DS::AsyncConnector">
<polygon fill="#bfbfbf" stroke="black" points="862.5,-108 680.5,-108 680.5,-72 862.5,-72 862.5,-108"/>
<text text-anchor="middle" x="771.5" y="-86.3" font-family="Times,serif" font-size="14.00">O3DS::AsyncConnector</text>
</a>
</g>
</g>
<!-- 3&#45;&gt;1 -->
<g id="edge4" class="edge">
<title>3&#45;&gt;1</title>
<g id="a_edge4"><a xlink:title="public&#45;inheritance">
<path fill="none" stroke="#1414ce" d="M631.76,-143.88C657.5,-134.14 689.91,-121.87 717.04,-111.61"/>
<polygon fill="#1414ce" stroke="#1414ce" points="718.28,-114.88 726.39,-108.07 715.8,-108.33 718.28,-114.88"/>
</a>
</g>
</g>
<!-- 9 -->
<g id="node6" class="node">
<title>9</title>
<g id="a_node6"><a xlink:title="O3DS::AsyncServer">
<polygon fill="#ffffff" stroke="black" points="354,-324 197,-324 197,-288 354,-288 354,-324"/>
<text text-anchor="middle" x="275.5" y="-302.3" font-family="Times,serif" font-size="14.00">O3DS::AsyncServer</text>
</a>
</g>
</g>
<!-- 7 -->
<g id="node9" class="node">
<title>7</title>
<g id="a_node9"><a xlink:title="O3DS::AsyncPipeline">
<polygon fill="#ffffff" stroke="black" points="567,-252 400,-252 400,-216 567,-216 567,-252"/>
<text text-anchor="middle" x="483.5" y="-230.3" font-family="Times,serif" font-size="14.00">O3DS::AsyncPipeline</text>
</a>
</g>
</g>
<!-- 9&#45;&gt;7 -->
<g id="edge5" class="edge">
<title>9&#45;&gt;7</title>
<g id="a_edge5"><a xlink:title="public&#45;inheritance">
<path fill="none" stroke="#1414ce" d="M326.12,-287.97C355.31,-278.14 392.19,-265.73 422.92,-255.39"/>
<polygon fill="#1414ce" stroke="#1414ce" points="424.3,-258.62 432.66,-252.11 422.06,-251.98 424.3,-258.62"/>
</a>
</g>
</g>
<!-- 13 -->
<g id="node7" class="node">
<title>13</title>
<g id="a_node7"><a xlink:title="O3DS::AsyncRequest">
<polygon fill="#ffffff" stroke="black" points="710,-324 543,-324 543,-288 710,-288 710,-324"/>
<text text-anchor="middle" x="626.5" y="-302.3" font-family="Times,serif" font-size="14.00">O3DS::AsyncRequest</text>
</a>
</g>
</g>
<!-- 11 -->
<g id="node12" class="node">
<title>11</title>
<g id="a_node12"><a xlink:title="O3DS::AsyncRequestReply">
<polygon fill="#ffffff" stroke="black" points="793.5,-252 585.5,-252 585.5,-216 793.5,-216 793.5,-252"/>
<text text-anchor="middle" x="689.5" y="-230.3" font-family="Times,serif" font-size="14.00">O3DS::AsyncRequestReply</text>
</a>
</g>
</g>
<!-- 13&#45;&gt;11 -->
<g id="edge6" class="edge">
<title>13&#45;&gt;11</title>
<g id="a_edge6"><a xlink:title="public&#45;inheritance">
<path fill="none" stroke="#1414ce" d="M642.07,-287.7C649.7,-279.22 659.02,-268.86 667.38,-259.58"/>
<polygon fill="#1414ce" stroke="#1414ce" points="670.02,-261.88 674.11,-252.1 664.81,-257.2 670.02,-261.88"/>
</a>
</g>
</g>
<!-- 14 -->
<g id="node8" class="node">
<title>14</title>
<g id="a_node8"><a xlink:title="O3DS::AsyncSubscriber">
<polygon fill="#ffffff" stroke="black" points="382,-252 195,-252 195,-216 382,-216 382,-252"/>
<text text-anchor="middle" x="288.5" y="-230.3" font-family="Times,serif" font-size="14.00">O3DS::AsyncSubscriber</text>
</a>
</g>
</g>
<!-- 14&#45;&gt;3 -->
<g id="edge7" class="edge">
<title>14&#45;&gt;3</title>
<g id="a_edge7"><a xlink:title="public&#45;inheritance">
<path fill="none" stroke="#1414ce" d="M361.02,-215.97C404.18,-205.83 459.1,-192.93 503.93,-182.4"/>
<polygon fill="#1414ce" stroke="#1414ce" points="504.98,-185.74 513.92,-180.05 503.38,-178.93 504.98,-185.74"/>
</a>
</g>
</g>
<!-- 7&#45;&gt;3 -->
<g id="edge8" class="edge">
<title>7&#45;&gt;3</title>
<g id="a_edge8"><a xlink:title="public&#45;inheritance">
<path fill="none" stroke="#1414ce" d="M508.7,-215.88C521.91,-206.89 538.29,-195.76 552.61,-186.03"/>
<polygon fill="#1414ce" stroke="#1414ce" points="554.9,-188.71 561.21,-180.19 550.97,-182.92 554.9,-188.71"/>
</a>
</g>
</g>
<!-- 8 -->
<g id="node10" class="node">
<title>8</title>
<g id="a_node10"><a xlink:title="O3DS::AsyncClient">
<polygon fill="#ffffff" stroke="black" points="524.5,-324 372.5,-324 372.5,-288 524.5,-288 524.5,-324"/>
<text text-anchor="middle" x="448.5" y="-302.3" font-family="Times,serif" font-size="14.00">O3DS::AsyncClient</text>
</a>
</g>
</g>
<!-- 8&#45;&gt;7 -->
<g id="edge9" class="edge">
<title>8&#45;&gt;7</title>
<g id="a_edge9"><a xlink:title="public&#45;inheritance">
<path fill="none" stroke="#1414ce" d="M457.15,-287.7C461.14,-279.73 465.95,-270.1 470.37,-261.26"/>
<polygon fill="#1414ce" stroke="#1414ce" points="473.61,-262.61 474.95,-252.1 467.35,-259.48 473.61,-262.61"/>
</a>
</g>
</g>
<!-- 12 -->
<g id="node11" class="node">
<title>12</title>
<g id="a_node11"><a xlink:title="O3DS::AsyncReply">
<polygon fill="#ffffff" stroke="black" points="877,-324 728,-324 728,-288 877,-288 877,-324"/>
<text text-anchor="middle" x="802.5" y="-302.3" font-family="Times,serif" font-size="14.00">O3DS::AsyncReply</text>
</a>
</g>
</g>
<!-- 12&#45;&gt;11 -->
<g id="edge10" class="edge">
<title>12&#45;&gt;11</title>
<g id="a_edge10"><a xlink:title="public&#45;inheritance">
<path fill="none" stroke="#1414ce" d="M774.86,-287.88C760.08,-278.72 741.71,-267.34 725.8,-257.48"/>
<polygon fill="#1414ce" stroke="#1414ce" points="727.59,-254.48 717.25,-252.19 723.91,-260.43 727.59,-254.48"/>
</a>
</g>
</g>
<!-- 11&#45;&gt;3 -->
<g id="edge11" class="edge">
<title>11&#45;&gt;3</title>
<g id="a_edge11"><a xlink:title="public&#45;inheritance">
<path fill="none" stroke="#1414ce" d="M664.3,-215.88C651.09,-206.89 634.71,-195.76 620.39,-186.03"/>
<polygon fill="#1414ce" stroke="#1414ce" points="622.03,-182.92 611.79,-180.19 618.1,-188.71 622.03,-182.92"/>
</a>
</g>
</g>
<!-- 5 -->
<g id="node13" class="node">
<title>5</title>
<g id="a_node13"><a xlink:title="O3DS::AsyncPairClient">
<polygon fill="#ffffff" stroke="black" points="1075.5,-324 895.5,-324 895.5,-288 1075.5,-288 1075.5,-324"/>
<text text-anchor="middle" x="985.5" y="-302.3" font-family="Times,serif" font-size="14.00">O3DS::AsyncPairClient</text>
</a>
</g>
</g>
<!-- 4 -->
<g id="node14" class="node">
<title>4</title>
<g id="a_node14"><a xlink:title="O3DS::AsyncPair">
<polygon fill="#ffffff" stroke="black" points="1019,-252 882,-252 882,-216 1019,-216 1019,-252"/>
<text text-anchor="middle" x="950.5" y="-230.3" font-family="Times,serif" font-size="14.00">O3DS::AsyncPair</text>
</a>
</g>
</g>
<!-- 5&#45;&gt;4 -->
<g id="edge12" class="edge">
<title>5&#45;&gt;4</title>
<g id="a_edge12"><a xlink:title="public&#45;inheritance">
<path fill="none" stroke="#1414ce" d="M976.85,-287.7C972.86,-279.73 968.05,-270.1 963.63,-261.26"/>
<polygon fill="#1414ce" stroke="#1414ce" points="966.65,-259.48 959.05,-252.1 960.39,-262.61 966.65,-259.48"/>
</a>
</g>
</g>
<!-- 4&#45;&gt;3 -->
<g id="edge13" class="edge">
<title>4&#45;&gt;3</title>
<g id="a_edge13"><a xlink:title="public&#45;inheritance">
<path fill="none" stroke="#1414ce" d="M881.61,-219.75C826.04,-209.07 747.18,-193.9 684.96,-181.93"/>
<polygon fill="#1414ce" stroke="#1414ce" points="685.6,-178.49 675.12,-180.04 684.28,-185.37 685.6,-178.49"/>
</a>
</g>
</g>
<!-- 6 -->
<g id="node15" class="node">
<title>6</title>
<g id="a_node15"><a xlink:title="O3DS::AsyncPairServer">
<polygon fill="#ffffff" stroke="black" points="1279,-324 1094,-324 1094,-288 1279,-288 1279,-324"/>
<text text-anchor="middle" x="1186.5" y="-302.3" font-family="Times,serif" font-size="14.00">O3DS::AsyncPairServer</text>
</a>
</g>
</g>
<!-- 6&#45;&gt;4 -->
<g id="edge14" class="edge">
<title>6&#45;&gt;4</title>
<g id="a_edge14"><a xlink:title="public&#45;inheritance">
<path fill="none" stroke="#1414ce" d="M1129.07,-287.97C1095.52,-278.01 1053.01,-265.41 1017.89,-254.99"/>
<polygon fill="#1414ce" stroke="#1414ce" points="1018.77,-251.6 1008.19,-252.11 1016.78,-258.31 1018.77,-251.6"/>
</a>
</g>
</g>
<!-- 1&#45;&gt;2 -->
<g id="edge15" class="edge">
<title>1&#45;&gt;2</title>
<g id="a_edge15"><a xlink:title="public&#45;inheritance">
<path fill="none" stroke="#1414ce" d="M771.5,-71.7C771.5,-63.98 771.5,-54.71 771.5,-46.11"/>
<polygon fill="#1414ce" stroke="#1414ce" points="775,-46.1 771.5,-36.1 768,-46.1 775,-46.1"/>
</a>
</g>
</g>
<!-- 15&#45;&gt;1 -->
<g id="edge16" class="edge">
<title>15&#45;&gt;1</title>
<g id="a_edge16"><a xlink:title="public&#45;inheritance">
<path fill="none" stroke="#1414ce" d="M1058.71,-147C1004.15,-136.36 928.52,-121.62 868.56,-109.93"/>
<polygon fill="#1414ce" stroke="#1414ce" points="869.18,-106.48 858.7,-108 867.84,-113.35 869.18,-106.48"/>
</a>
</g>
</g>
</g>
</svg>
