<?xml version="1.0" encoding="UTF-8" standalone="no"?>
<!DOCTYPE svg PUBLIC "-//W3C//DTD SVG 1.1//EN"
 "http://www.w3.org/Graphics/SVG/1.1/DTD/svg11.dtd">
<!-- Generated by graphviz version 2.43.0 (0)
 -->
<!-- Title: %3 Pages: 1 -->
<svg width="2169pt" height="332pt"
 viewBox="0.00 0.00 2168.50 332.00" xmlns="http://www.w3.org/2000/svg" xmlns:xlink="http://www.w3.org/1999/xlink">
<g id="graph0" class="graph" transform="scale(1 1) rotate(0) translate(4 328)">
<title>%3</title>
<polygon fill="transparent" stroke="transparent" points="-4,4 -4,-328 2164.5,-328 2164.5,4 -4,4"/>
<!-- 1 -->
<g id="node1" class="node">
<title>1</title>
<g id="a_node1"><a xlink:title="O3DS::Connector">
<polygon fill="#bfbfbf" stroke="black" points="1021,-36 881,-36 881,0 1021,0 1021,-36"/>
<text text-anchor="middle" x="951" y="-14.3" font-family="Times,serif" font-size="14.00">O3DS::Connector</text>
</a>
</g>
</g>
<!-- 10 -->
<g id="node2" class="node">
<title>10</title>
<g id="a_node2"><a xlink:title="O3DS::AsyncPublisher">
<polygon fill="#ffffff" stroke="black" points="832.5,-252 655.5,-252 655.5,-216 832.5,-216 832.5,-252"/>
<text text-anchor="middle" x="744" y="-230.3" font-family="Times,serif" font-size="14.00">O3DS::AsyncPublisher</text>
</a>
</g>
</g>
<!-- 3 -->
<g id="node7" class="node">
<title>3</title>
<g id="a_node7"><a xlink:title="O3DS::AsyncNngConnector">
<polygon fill="#ffffff" stroke="black" points="1348,-180 1136,-180 1136,-144 1348,-144 1348,-180"/>
<text text-anchor="middle" x="1242" y="-158.3" font-family="Times,serif" font-size="14.00">O3DS::AsyncNngConnector</text>
</a>
</g>
</g>
<!-- 10&#45;&gt;3 -->
<g id="edge1" class="edge">
<title>10&#45;&gt;3</title>
<g id="a_edge1"><a xlink:title="public&#45;inheritance">
<path fill="none" stroke="#1414ce" d="M832.52,-217.31C835.38,-216.86 838.21,-216.42 841,-216 964.04,-197.46 997.8,-197.26 1125.63,-180.03"/>
<polygon fill="#1414ce" stroke="#1414ce" points="1126.37,-183.46 1135.81,-178.65 1125.43,-176.52 1126.37,-183.46"/>
</a>
</g>
</g>
<!-- 19 -->
<g id="node3" class="node">
<title>19</title>
<g id="a_node3"><a xlink:title="O3DS::ClientPair">
<polygon fill="#ffffff" stroke="black" points="138,-180 0,-180 0,-144 138,-144 138,-180"/>
<text text-anchor="middle" x="69" y="-158.3" font-family="Times,serif" font-size="14.00">O3DS::ClientPair</text>
</a>
</g>
</g>
<!-- 18 -->
<g id="node19" class="node">
<title>18</title>
<g id="a_node19"><a xlink:title="O3DS::BlockingNngConnector">
<polygon fill="#ffffff" stroke="black" points="777,-108 545,-108 545,-72 777,-72 777,-108"/>
<text text-anchor="middle" x="661" y="-86.3" font-family="Times,serif" font-size="14.00">O3DS::BlockingNngConnector</text>
</a>
</g>
</g>
<!-- 19&#45;&gt;18 -->
<g id="edge2" class="edge">
<title>19&#45;&gt;18</title>
<g id="a_edge2"><a xlink:title="public&#45;inheritance">
<path fill="none" stroke="#1414ce" d="M138.25,-145.49C141.2,-144.96 144.13,-144.46 147,-144 278.48,-122.96 430.29,-108.5 534.66,-100.06"/>
<polygon fill="#1414ce" stroke="#1414ce" points="535.23,-103.53 544.92,-99.24 534.67,-96.55 535.23,-103.53"/>
</a>
</g>
</g>
<!-- 24 -->
<g id="node4" class="node">
<title>24</title>
<g id="a_node4"><a xlink:title="O3DS::Request">
<polygon fill="#ffffff" stroke="black" points="281.5,-180 156.5,-180 156.5,-144 281.5,-144 281.5,-180"/>
<text text-anchor="middle" x="219" y="-158.3" font-family="Times,serif" font-size="14.00">O3DS::Request</text>
</a>
</g>
</g>
<!-- 24&#45;&gt;18 -->
<g id="edge3" class="edge">
<title>24&#45;&gt;18</title>
<g id="a_edge3"><a xlink:title="public&#45;inheritance">
<path fill="none" stroke="#1414ce" d="M281.65,-145.66C284.47,-145.08 287.26,-144.52 290,-144 371.03,-128.55 462.8,-115.4 534.79,-106.07"/>
<polygon fill="#1414ce" stroke="#1414ce" points="535.35,-109.52 544.82,-104.77 534.45,-102.58 535.35,-109.52"/>
</a>
</g>
</g>
<!-- 17 -->
<g id="node5" class="node">
<title>17</title>
<g id="a_node5"><a xlink:title="O3DS::WebsocketClient">
<polygon fill="#ffffff" stroke="black" points="1879,-252 1693,-252 1693,-216 1879,-216 1879,-252"/>
<text text-anchor="middle" x="1786" y="-230.3" font-family="Times,serif" font-size="14.00">O3DS::WebsocketClient</text>
</a>
</g>
</g>
<!-- 15 -->
<g id="node26" class="node">
<title>15</title>
<g id="a_node26"><a xlink:title="O3DS::Websocket">
<polygon fill="#ffffff" stroke="black" points="1857.5,-180 1714.5,-180 1714.5,-144 1857.5,-144 1857.5,-180"/>
<text text-anchor="middle" x="1786" y="-158.3" font-family="Times,serif" font-size="14.00">O3DS::Websocket</text>
</a>
</g>
</g>
<!-- 17&#45;&gt;15 -->
<g id="edge4" class="edge">
<title>17&#45;&gt;15</title>
<g id="a_edge4"><a xlink:title="public&#45;inheritance">
<path fill="none" stroke="#1414ce" d="M1786,-215.7C1786,-207.98 1786,-198.71 1786,-190.11"/>
<polygon fill="#1414ce" stroke="#1414ce" points="1789.5,-190.1 1786,-180.1 1782.5,-190.1 1789.5,-190.1"/>
</a>
</g>
</g>
<!-- 16 -->
<g id="node6" class="node">
<title>16</title>
<g id="a_node6"><a xlink:title="O3DS::WebsocketBroadcastServer">
<polygon fill="#ffffff" stroke="black" points="2160.5,-252 1897.5,-252 1897.5,-216 2160.5,-216 2160.5,-252"/>
<text text-anchor="middle" x="2029" y="-230.3" font-family="Times,serif" font-size="14.00">O3DS::WebsocketBroadcastServer</text>
</a>
</g>
</g>
<!-- 16&#45;&gt;15 -->
<g id="edge5" class="edge">
<title>16&#45;&gt;15</title>
<g id="a_edge5"><a xlink:title="public&#45;inheritance">
<path fill="none" stroke="#1414ce" d="M1969.87,-215.97C1935.32,-206.01 1891.55,-193.41 1855.38,-182.99"/>
<polygon fill="#1414ce" stroke="#1414ce" points="1855.98,-179.52 1845.4,-180.11 1854.04,-186.24 1855.98,-179.52"/>
</a>
</g>
</g>
<!-- 2 -->
<g id="node23" class="node">
<title>2</title>
<g id="a_node23"><a xlink:title="O3DS::AsyncConnector">
<polygon fill="#ffffff" stroke="black" points="1333,-108 1151,-108 1151,-72 1333,-72 1333,-108"/>
<text text-anchor="middle" x="1242" y="-86.3" font-family="Times,serif" font-size="14.00">O3DS::AsyncConnector</text>
</a>
</g>
</g>
<!-- 3&#45;&gt;2 -->
<g id="edge6" class="edge">
<title>3&#45;&gt;2</title>
<g id="a_edge6"><a xlink:title="public&#45;inheritance">
<path fill="none" stroke="#1414ce" d="M1242,-143.7C1242,-135.98 1242,-126.71 1242,-118.11"/>
<polygon fill="#1414ce" stroke="#1414ce" points="1245.5,-118.1 1242,-108.1 1238.5,-118.1 1245.5,-118.1"/>
</a>
</g>
</g>
<!-- 9 -->
<g id="node8" class="node">
<title>9</title>
<g id="a_node8"><a xlink:title="O3DS::AsyncServer">
<polygon fill="#ffffff" stroke="black" points="1009.5,-324 852.5,-324 852.5,-288 1009.5,-288 1009.5,-324"/>
<text text-anchor="middle" x="931" y="-302.3" font-family="Times,serif" font-size="14.00">O3DS::AsyncServer</text>
</a>
</g>
</g>
<!-- 7 -->
<g id="node12" class="node">
<title>7</title>
<g id="a_node12"><a xlink:title="O3DS::AsyncPipeline">
<polygon fill="#ffffff" stroke="black" points="1222.5,-252 1055.5,-252 1055.5,-216 1222.5,-216 1222.5,-252"/>
<text text-anchor="middle" x="1139" y="-230.3" font-family="Times,serif" font-size="14.00">O3DS::AsyncPipeline</text>
</a>
</g>
</g>
<!-- 9&#45;&gt;7 -->
<g id="edge7" class="edge">
<title>9&#45;&gt;7</title>
<g id="a_edge7"><a xlink:title="public&#45;inheritance">
<path fill="none" stroke="#1414ce" d="M981.62,-287.97C1010.81,-278.14 1047.69,-265.73 1078.42,-255.39"/>
<polygon fill="#1414ce" stroke="#1414ce" points="1079.8,-258.62 1088.16,-252.11 1077.56,-251.98 1079.8,-258.62"/>
</a>
</g>
</g>
<!-- 13 -->
<g id="node9" class="node">
<title>13</title>
<g id="a_node9"><a xlink:title="O3DS::AsyncRequest">
<polygon fill="#ffffff" stroke="black" points="1365.5,-324 1198.5,-324 1198.5,-288 1365.5,-288 1365.5,-324"/>
<text text-anchor="middle" x="1282" y="-302.3" font-family="Times,serif" font-size="14.00">O3DS::AsyncRequest</text>
</a>
</g>
</g>
<!-- 11 -->
<g id="node18" class="node">
<title>11</title>
<g id="a_node18"><a xlink:title="O3DS::AsyncRequestReply">
<polygon fill="#ffffff" stroke="black" points="1449,-252 1241,-252 1241,-216 1449,-216 1449,-252"/>
<text text-anchor="middle" x="1345" y="-230.3" font-family="Times,serif" font-size="14.00">O3DS::AsyncRequestReply</text>
</a>
</g>
</g>
<!-- 13&#45;&gt;11 -->
<g id="edge8" class="edge">
<title>13&#45;&gt;11</title>
<g id="a_edge8"><a xlink:title="public&#45;inheritance">
<path fill="none" stroke="#1414ce" d="M1297.57,-287.7C1305.2,-279.22 1314.52,-268.86 1322.88,-259.58"/>
<polygon fill="#1414ce" stroke="#1414ce" points="1325.52,-261.88 1329.61,-252.1 1320.31,-257.2 1325.52,-261.88"/>
</a>
</g>
</g>
<!-- 25 -->
<g id="node10" class="node">
<title>25</title>
<g id="a_node10"><a xlink:title="O3DS::ServerPair">
<polygon fill="#ffffff" stroke="black" points="442.5,-180 299.5,-180 299.5,-144 442.5,-144 442.5,-180"/>
<text text-anchor="middle" x="371" y="-158.3" font-family="Times,serif" font-size="14.00">O3DS::ServerPair</text>
</a>
</g>
</g>
<!-- 25&#45;&gt;18 -->
<g id="edge9" class="edge">
<title>25&#45;&gt;18</title>
<g id="a_edge9"><a xlink:title="public&#45;inheritance">
<path fill="none" stroke="#1414ce" d="M441.57,-143.97C483.49,-133.85 536.79,-120.98 580.37,-110.46"/>
<polygon fill="#1414ce" stroke="#1414ce" points="581.46,-113.8 590.36,-108.05 579.82,-106.99 581.46,-113.8"/>
</a>
</g>
</g>
<!-- 14 -->
<g id="node11" class="node">
<title>14</title>
<g id="a_node11"><a xlink:title="O3DS::AsyncSubscriber">
<polygon fill="#ffffff" stroke="black" points="1037.5,-252 850.5,-252 850.5,-216 1037.5,-216 1037.5,-252"/>
<text text-anchor="middle" x="944" y="-230.3" font-family="Times,serif" font-size="14.00">O3DS::AsyncSubscriber</text>
</a>
</g>
</g>
<!-- 14&#45;&gt;3 -->
<g id="edge10" class="edge">
<title>14&#45;&gt;3</title>
<g id="a_edge10"><a xlink:title="public&#45;inheritance">
<path fill="none" stroke="#1414ce" d="M1016.52,-215.97C1059.68,-205.83 1114.6,-192.93 1159.43,-182.4"/>
<polygon fill="#1414ce" stroke="#1414ce" points="1160.48,-185.74 1169.42,-180.05 1158.88,-178.93 1160.48,-185.74"/>
</a>
</g>
</g>
<!-- 7&#45;&gt;3 -->
<g id="edge11" class="edge">
<title>7&#45;&gt;3</title>
<g id="a_edge11"><a xlink:title="public&#45;inheritance">
<path fill="none" stroke="#1414ce" d="M1164.2,-215.88C1177.41,-206.89 1193.79,-195.76 1208.11,-186.03"/>
<polygon fill="#1414ce" stroke="#1414ce" points="1210.4,-188.71 1216.71,-180.19 1206.47,-182.92 1210.4,-188.71"/>
</a>
</g>
</g>
<!-- 8 -->
<g id="node13" class="node">
<title>8</title>
<g id="a_node13"><a xlink:title="O3DS::AsyncClient">
<polygon fill="#ffffff" stroke="black" points="1180,-324 1028,-324 1028,-288 1180,-288 1180,-324"/>
<text text-anchor="middle" x="1104" y="-302.3" font-family="Times,serif" font-size="14.00">O3DS::AsyncClient</text>
</a>
</g>
</g>
<!-- 8&#45;&gt;7 -->
<g id="edge12" class="edge">
<title>8&#45;&gt;7</title>
<g id="a_edge12"><a xlink:title="public&#45;inheritance">
<path fill="none" stroke="#1414ce" d="M1112.65,-287.7C1116.64,-279.73 1121.45,-270.1 1125.87,-261.26"/>
<polygon fill="#1414ce" stroke="#1414ce" points="1129.11,-262.61 1130.45,-252.1 1122.85,-259.48 1129.11,-262.61"/>
</a>
</g>
</g>
<!-- 12 -->
<g id="node14" class="node">
<title>12</title>
<g id="a_node14"><a xlink:title="O3DS::AsyncReply">
<polygon fill="#ffffff" stroke="black" points="1532.5,-324 1383.5,-324 1383.5,-288 1532.5,-288 1532.5,-324"/>
<text text-anchor="middle" x="1458" y="-302.3" font-family="Times,serif" font-size="14.00">O3DS::AsyncReply</text>
</a>
</g>
</g>
<!-- 12&#45;&gt;11 -->
<g id="edge13" class="edge">
<title>12&#45;&gt;11</title>
<g id="a_edge13"><a xlink:title="public&#45;inheritance">
<path fill="none" stroke="#1414ce" d="M1430.36,-287.88C1415.58,-278.72 1397.21,-267.34 1381.3,-257.48"/>
<polygon fill="#1414ce" stroke="#1414ce" points="1383.09,-254.48 1372.75,-252.19 1379.41,-260.43 1383.09,-254.48"/>
</a>
</g>
</g>
<!-- 20 -->
<g id="node15" class="node">
<title>20</title>
<g id="a_node15"><a xlink:title="O3DS::Publisher">
<polygon fill="#ffffff" stroke="black" points="595.5,-180 460.5,-180 460.5,-144 595.5,-144 595.5,-180"/>
<text text-anchor="middle" x="528" y="-158.3" font-family="Times,serif" font-size="14.00">O3DS::Publisher</text>
</a>
</g>
</g>
<!-- 20&#45;&gt;18 -->
<g id="edge14" class="edge">
<title>20&#45;&gt;18</title>
<g id="a_edge14"><a xlink:title="public&#45;inheritance">
<path fill="none" stroke="#1414ce" d="M560.54,-143.88C578.25,-134.55 600.35,-122.92 619.32,-112.94"/>
<polygon fill="#1414ce" stroke="#1414ce" points="621.12,-115.94 628.34,-108.19 617.86,-109.75 621.12,-115.94"/>
</a>
</g>
</g>
<!-- 21 -->
<g id="node16" class="node">
<title>21</title>
<g id="a_node16"><a xlink:title="O3DS::Pull">
<polygon fill="#ffffff" stroke="black" points="708.5,-180 613.5,-180 613.5,-144 708.5,-144 708.5,-180"/>
<text text-anchor="middle" x="661" y="-158.3" font-family="Times,serif" font-size="14.00">O3DS::Pull</text>
</a>
</g>
</g>
<!-- 21&#45;&gt;18 -->
<g id="edge15" class="edge">
<title>21&#45;&gt;18</title>
<g id="a_edge15"><a xlink:title="public&#45;inheritance">
<path fill="none" stroke="#1414ce" d="M661,-143.7C661,-135.98 661,-126.71 661,-118.11"/>
<polygon fill="#1414ce" stroke="#1414ce" points="664.5,-118.1 661,-108.1 657.5,-118.1 664.5,-118.1"/>
</a>
</g>
</g>
<!-- 26 -->
<g id="node17" class="node">
<title>26</title>
<g id="a_node17"><a xlink:title="O3DS::Subscriber">
<polygon fill="#ffffff" stroke="black" points="871.5,-180 726.5,-180 726.5,-144 871.5,-144 871.5,-180"/>
<text text-anchor="middle" x="799" y="-158.3" font-family="Times,serif" font-size="14.00">O3DS::Subscriber</text>
</a>
</g>
</g>
<!-- 26&#45;&gt;18 -->
<g id="edge16" class="edge">
<title>26&#45;&gt;18</title>
<g id="a_edge16"><a xlink:title="public&#45;inheritance">
<path fill="none" stroke="#1414ce" d="M765.24,-143.88C746.78,-134.51 723.72,-122.81 703.98,-112.8"/>
<polygon fill="#1414ce" stroke="#1414ce" points="705.39,-109.59 694.89,-108.19 702.22,-115.83 705.39,-109.59"/>
</a>
</g>
</g>
<!-- 11&#45;&gt;3 -->
<g id="edge17" class="edge">
<title>11&#45;&gt;3</title>
<g id="a_edge17"><a xlink:title="public&#45;inheritance">
<path fill="none" stroke="#1414ce" d="M1319.8,-215.88C1306.59,-206.89 1290.21,-195.76 1275.89,-186.03"/>
<polygon fill="#1414ce" stroke="#1414ce" points="1277.53,-182.92 1267.29,-180.19 1273.6,-188.71 1277.53,-182.92"/>
</a>
</g>
</g>
<!-- 18&#45;&gt;1 -->
<g id="edge18" class="edge">
<title>18&#45;&gt;1</title>
<g id="a_edge18"><a xlink:title="public&#45;inheritance">
<path fill="none" stroke="#1414ce" d="M731.57,-71.97C773.73,-61.79 827.42,-48.83 871.13,-38.28"/>
<polygon fill="#1414ce" stroke="#1414ce" points="871.97,-41.68 880.87,-35.93 870.32,-34.87 871.97,-41.68"/>
</a>
</g>
</g>
<!-- 5 -->
<g id="node20" class="node">
<title>5</title>
<g id="a_node20"><a xlink:title="O3DS::AsyncPairClient">
<polygon fill="#ffffff" stroke="black" points="1731,-324 1551,-324 1551,-288 1731,-288 1731,-324"/>
<text text-anchor="middle" x="1641" y="-302.3" font-family="Times,serif" font-size="14.00">O3DS::AsyncPairClient</text>
</a>
</g>
</g>
<!-- 4 -->
<g id="node21" class="node">
<title>4</title>
<g id="a_node21"><a xlink:title="O3DS::AsyncPair">
<polygon fill="#ffffff" stroke="black" points="1674.5,-252 1537.5,-252 1537.5,-216 1674.5,-216 1674.5,-252"/>
<text text-anchor="middle" x="1606" y="-230.3" font-family="Times,serif" font-size="14.00">O3DS::AsyncPair</text>
</a>
</g>
</g>
<!-- 5&#45;&gt;4 -->
<g id="edge19" class="edge">
<title>5&#45;&gt;4</title>
<g id="a_edge19"><a xlink:title="public&#45;inheritance">
<path fill="none" stroke="#1414ce" d="M1632.35,-287.7C1628.36,-279.73 1623.55,-270.1 1619.13,-261.26"/>
<polygon fill="#1414ce" stroke="#1414ce" points="1622.15,-259.48 1614.55,-252.1 1615.89,-262.61 1622.15,-259.48"/>
</a>
</g>
</g>
<!-- 4&#45;&gt;3 -->
<g id="edge20" class="edge">
<title>4&#45;&gt;3</title>
<g id="a_edge20"><a xlink:title="public&#45;inheritance">
<path fill="none" stroke="#1414ce" d="M1537.11,-219.75C1481.54,-209.07 1402.68,-193.9 1340.46,-181.93"/>
<polygon fill="#1414ce" stroke="#1414ce" points="1341.1,-178.49 1330.62,-180.04 1339.78,-185.37 1341.1,-178.49"/>
</a>
</g>
</g>
<!-- 6 -->
<g id="node22" class="node">
<title>6</title>
<g id="a_node22"><a xlink:title="O3DS::AsyncPairServer">
<polygon fill="#ffffff" stroke="black" points="1934.5,-324 1749.5,-324 1749.5,-288 1934.5,-288 1934.5,-324"/>
<text text-anchor="middle" x="1842" y="-302.3" font-family="Times,serif" font-size="14.00">O3DS::AsyncPairServer</text>
</a>
</g>
</g>
<!-- 6&#45;&gt;4 -->
<g id="edge21" class="edge">
<title>6&#45;&gt;4</title>
<g id="a_edge21"><a xlink:title="public&#45;inheritance">
<path fill="none" stroke="#1414ce" d="M1784.57,-287.97C1751.02,-278.01 1708.51,-265.41 1673.39,-254.99"/>
<polygon fill="#1414ce" stroke="#1414ce" points="1674.27,-251.6 1663.69,-252.11 1672.28,-258.31 1674.27,-251.6"/>
</a>
</g>
</g>
<!-- 2&#45;&gt;1 -->
<g id="edge22" class="edge">
<title>2&#45;&gt;1</title>
<g id="a_edge22"><a xlink:title="public&#45;inheritance">
<path fill="none" stroke="#1414ce" d="M1171.19,-71.97C1128.8,-61.77 1074.81,-48.78 1030.9,-38.22"/>
<polygon fill="#1414ce" stroke="#1414ce" points="1031.66,-34.8 1021.12,-35.87 1030.03,-41.61 1031.66,-34.8"/>
</a>
</g>
</g>
<!-- 22 -->
<g id="node24" class="node">
<title>22</title>
<g id="a_node24"><a xlink:title="O3DS::Push">
<polygon fill="#ffffff" stroke="black" points="992,-180 890,-180 890,-144 992,-144 992,-180"/>
<text text-anchor="middle" x="941" y="-158.3" font-family="Times,serif" font-size="14.00">O3DS::Push</text>
</a>
</g>
</g>
<!-- 22&#45;&gt;18 -->
<g id="edge23" class="edge">
<title>22&#45;&gt;18</title>
<g id="a_edge23"><a xlink:title="public&#45;inheritance">
<path fill="none" stroke="#1414ce" d="M889.78,-146.59C886.47,-145.7 883.19,-144.83 880,-144 835.23,-132.35 785.1,-120.15 744.1,-110.4"/>
<polygon fill="#1414ce" stroke="#1414ce" points="744.7,-106.95 734.16,-108.04 743.08,-113.76 744.7,-106.95"/>
</a>
</g>
</g>
<!-- 23 -->
<g id="node25" class="node">
<title>23</title>
<g id="a_node25"><a xlink:title="O3DS::Reply">
<polygon fill="#ffffff" stroke="black" points="1117.5,-180 1010.5,-180 1010.5,-144 1117.5,-144 1117.5,-180"/>
<text text-anchor="middle" x="1064" y="-158.3" font-family="Times,serif" font-size="14.00">O3DS::Reply</text>
</a>
</g>
</g>
<!-- 23&#45;&gt;18 -->
<g id="edge24" class="edge">
<title>23&#45;&gt;18</title>
<g id="a_edge24"><a xlink:title="public&#45;inheritance">
<path fill="none" stroke="#1414ce" d="M1010.48,-146.13C1007.28,-145.38 1004.1,-144.66 1001,-144 930.83,-129.11 851.68,-116.53 787.42,-107.36"/>
<polygon fill="#1414ce" stroke="#1414ce" points="787.63,-103.86 777.24,-105.92 786.65,-110.79 787.63,-103.86"/>
</a>
</g>
</g>
<!-- 15&#45;&gt;2 -->
<g id="edge25" class="edge">
<title>15&#45;&gt;2</title>
<g id="a_edge25"><a xlink:title="public&#45;inheritance">
<path fill="none" stroke="#1414ce" d="M1714.32,-151.78C1619.34,-139.55 1451.22,-117.92 1343.29,-104.03"/>
<polygon fill="#1414ce" stroke="#1414ce" points="1343.72,-100.56 1333.36,-102.76 1342.83,-107.5 1343.72,-100.56"/>
</a>
</g>
</g>
</g>
</svg>
