<?xml version="1.0" encoding="UTF-8" standalone="no"?>
<!DOCTYPE svg PUBLIC "-//W3C//DTD SVG 1.1//EN"
 "http://www.w3.org/Graphics/SVG/1.1/DTD/svg11.dtd">
<!-- Generated by graphviz version 2.43.0 (0)
 -->
<!-- Title: %3 Pages: 1 -->
<svg width="493pt" height="260pt"
 viewBox="0.00 0.00 493.00 260.00" xmlns="http://www.w3.org/2000/svg" xmlns:xlink="http://www.w3.org/1999/xlink">
<g id="graph0" class="graph" transform="scale(1 1) rotate(0) translate(4 256)">
<title>%3</title>
<polygon fill="transparent" stroke="transparent" points="-4,4 -4,-256 489,-256 489,4 -4,4"/>
<!-- 3 -->
<g id="node1" class="node">
<title>3</title>
<g id="a_node1"><a xlink:title="O3DS::Connector">
<polygon fill="#ffffff" stroke="black" points="175.5,-108 35.5,-108 35.5,-72 175.5,-72 175.5,-108"/>
<text text-anchor="middle" x="105.5" y="-86.3" font-family="Times,serif" font-size="14.00">O3DS::Connector</text>
</a>
</g>
</g>
<!-- 5 -->
<g id="node3" class="node">
<title>5</title>
<g id="a_node3"><a xlink:title="string">
<polygon fill="#ffffff" stroke="black" points="85,-36 26,-36 26,0 85,0 85,-36"/>
<text text-anchor="middle" x="55.5" y="-14.3" font-family="Times,serif" font-size="14.00">string</text>
</a>
</g>
</g>
<!-- 3&#45;&gt;5 -->
<g id="edge2" class="edge">
<title>3&#45;&gt;5</title>
<g id="a_edge2"><a xlink:title="usage">
<path fill="none" stroke="#1414ce" d="M93.14,-71.7C87.27,-63.47 80.13,-53.48 73.66,-44.42"/>
<polygon fill="#1414ce" stroke="#1414ce" points="76.38,-42.21 67.72,-36.1 70.68,-46.28 76.38,-42.21"/>
</a>
</g>
</g>
<!-- 4 -->
<g id="node6" class="node">
<title>4</title>
<g id="a_node6"><a xlink:title="enum eState">
<polygon fill="#ffffff" stroke="black" points="210,-36 103,-36 103,0 210,0 210,-36"/>
<text text-anchor="middle" x="156.5" y="-14.3" font-family="Times,serif" font-size="14.00">enum eState</text>
</a>
</g>
</g>
<!-- 3&#45;&gt;4 -->
<g id="edge1" class="edge">
<title>3&#45;&gt;4</title>
<g id="a_edge1"><a xlink:title="usage">
<path fill="none" stroke="#1414ce" d="M118.11,-71.7C124.1,-63.47 131.38,-53.48 137.98,-44.42"/>
<polygon fill="#1414ce" stroke="#1414ce" points="140.98,-46.25 144.04,-36.1 135.32,-42.13 140.98,-46.25"/>
</a>
</g>
</g>
<!-- 7 -->
<g id="node2" class="node">
<title>7</title>
<g id="a_node2"><a xlink:title="void *">
<polygon fill="#ffffff" stroke="black" points="251.5,-108 193.5,-108 193.5,-72 251.5,-72 251.5,-108"/>
<text text-anchor="middle" x="222.5" y="-86.3" font-family="Times,serif" font-size="14.00">void *</text>
</a>
</g>
</g>
<!-- 8 -->
<g id="node4" class="node">
<title>8</title>
<g id="a_node4"><a xlink:title="thread_group">
<polygon fill="#ffffff" stroke="black" points="113,-180 0,-180 0,-144 113,-144 113,-180"/>
<text text-anchor="middle" x="56.5" y="-158.3" font-family="Times,serif" font-size="14.00">thread_group</text>
</a>
</g>
</g>
<!-- 6 -->
<g id="node5" class="node">
<title>6</title>
<g id="a_node5"><a xlink:title="void(*)(void *, void *, size_t)">
<polygon fill="#ffffff" stroke="black" points="485,-108 270,-108 270,-72 485,-72 485,-108"/>
<text text-anchor="middle" x="377.5" y="-86.3" font-family="Times,serif" font-size="14.00">void(*)(void *, void *, size_t)</text>
</a>
</g>
</g>
<!-- 2 -->
<g id="node7" class="node">
<title>2</title>
<g id="a_node7"><a xlink:title="O3DS::AsyncConnector">
<polygon fill="#ffffff" stroke="black" points="313.5,-180 131.5,-180 131.5,-144 313.5,-144 313.5,-180"/>
<text text-anchor="middle" x="222.5" y="-158.3" font-family="Times,serif" font-size="14.00">O3DS::AsyncConnector</text>
</a>
</g>
</g>
<!-- 2&#45;&gt;3 -->
<g id="edge3" class="edge">
<title>2&#45;&gt;3</title>
<g id="a_edge3"><a xlink:title="public&#45;inheritance">
<path fill="none" stroke="#1414ce" d="M193.88,-143.88C178.58,-134.72 159.56,-123.34 143.08,-113.48"/>
<polygon fill="#1414ce" stroke="#1414ce" points="144.61,-110.32 134.23,-108.19 141.02,-116.33 144.61,-110.32"/>
</a>
</g>
</g>
<!-- 2&#45;&gt;7 -->
<g id="edge5" class="edge">
<title>2&#45;&gt;7</title>
<g id="a_edge5"><a xlink:title="usage">
<path fill="none" stroke="#1414ce" d="M222.5,-143.7C222.5,-135.98 222.5,-126.71 222.5,-118.11"/>
<polygon fill="#1414ce" stroke="#1414ce" points="226,-118.1 222.5,-108.1 219,-118.1 226,-118.1"/>
</a>
</g>
</g>
<!-- 2&#45;&gt;6 -->
<g id="edge4" class="edge">
<title>2&#45;&gt;6</title>
<g id="a_edge4"><a xlink:title="usage">
<path fill="none" stroke="#1414ce" d="M260.42,-143.88C281.51,-134.35 307.96,-122.41 330.37,-112.28"/>
<polygon fill="#1414ce" stroke="#1414ce" points="332.03,-115.37 339.71,-108.07 329.15,-108.99 332.03,-115.37"/>
</a>
</g>
</g>
<!-- 1 -->
<g id="node8" class="node">
<title>1</title>
<g id="a_node8"><a xlink:title="O3DS::Websocket">
<polygon fill="#bfbfbf" stroke="black" points="211,-252 68,-252 68,-216 211,-216 211,-252"/>
<text text-anchor="middle" x="139.5" y="-230.3" font-family="Times,serif" font-size="14.00">O3DS::Websocket</text>
</a>
</g>
</g>
<!-- 1&#45;&gt;8 -->
<g id="edge7" class="edge">
<title>1&#45;&gt;8</title>
<g id="a_edge7"><a xlink:title="usage">
<path fill="none" stroke="#1414ce" d="M118.98,-215.7C108.63,-206.97 95.91,-196.24 84.66,-186.75"/>
<polygon fill="#1414ce" stroke="#1414ce" points="86.68,-183.88 76.78,-180.1 82.17,-189.23 86.68,-183.88"/>
</a>
</g>
</g>
<!-- 1&#45;&gt;2 -->
<g id="edge6" class="edge">
<title>1&#45;&gt;2</title>
<g id="a_edge6"><a xlink:title="public&#45;inheritance">
<path fill="none" stroke="#1414ce" d="M160.02,-215.7C170.37,-206.97 183.09,-196.24 194.34,-186.75"/>
<polygon fill="#1414ce" stroke="#1414ce" points="196.83,-189.23 202.22,-180.1 192.32,-183.88 196.83,-189.23"/>
</a>
</g>
</g>
</g>
</svg>
