<?xml version="1.0" encoding="UTF-8" standalone="no"?>
<!DOCTYPE svg PUBLIC "-//W3C//DTD SVG 1.1//EN"
 "http://www.w3.org/Graphics/SVG/1.1/DTD/svg11.dtd">
<!-- Generated by graphviz version 2.43.0 (0)
 -->
<!-- Title: %3 Pages: 1 -->
<svg width="706pt" height="332pt"
 viewBox="0.00 0.00 705.50 332.00" xmlns="http://www.w3.org/2000/svg" xmlns:xlink="http://www.w3.org/1999/xlink">
<g id="graph0" class="graph" transform="scale(1 1) rotate(0) translate(4 328)">
<title>%3</title>
<polygon fill="transparent" stroke="transparent" points="-4,4 -4,-328 701.5,-328 701.5,4 -4,4"/>
<!-- 10 -->
<g id="node1" class="node">
<title>10</title>
<g id="a_node1"><a xlink:title="nng/protocol/pipeline0/push.h">
<polygon fill="#ffffff" stroke="black" points="230,-252 0,-252 0,-216 230,-216 230,-252"/>
<text text-anchor="middle" x="115" y="-230.3" font-family="Times,serif" font-size="14.00">nng/protocol/pipeline0/push.h</text>
</a>
</g>
</g>
<!-- 3 -->
<g id="node2" class="node">
<title>3</title>
<g id="a_node2"><a xlink:title="nng/nng.h">
<polygon fill="#ffffff" stroke="black" points="440.5,-36 351.5,-36 351.5,0 440.5,0 440.5,-36"/>
<text text-anchor="middle" x="396" y="-14.3" font-family="Times,serif" font-size="14.00">nng/nng.h</text>
</a>
</g>
</g>
<!-- 5 -->
<g id="node3" class="node">
<title>5</title>
<g id="a_node3"><a xlink:title="string">
<polygon fill="#ffffff" stroke="black" points="697.5,-36 638.5,-36 638.5,0 697.5,0 697.5,-36"/>
<text text-anchor="middle" x="668" y="-14.3" font-family="Times,serif" font-size="14.00">string</text>
</a>
</g>
</g>
<!-- 9 -->
<g id="node4" class="node">
<title>9</title>
<g id="a_node4"><a xlink:title="nng/protocol/pipeline0/pull.h">
<polygon fill="#ffffff" stroke="black" points="470,-252 248,-252 248,-216 470,-216 470,-252"/>
<text text-anchor="middle" x="359" y="-230.3" font-family="Times,serif" font-size="14.00">nng/protocol/pipeline0/pull.h</text>
</a>
</g>
</g>
<!-- 6 -->
<g id="node5" class="node">
<title>6</title>
<g id="a_node5"><a xlink:title="vector">
<polygon fill="#ffffff" stroke="black" points="525,-36 463,-36 463,0 525,0 525,-36"/>
<text text-anchor="middle" x="494" y="-14.3" font-family="Times,serif" font-size="14.00">vector</text>
</a>
</g>
</g>
<!-- 1 -->
<g id="node6" class="node">
<title>1</title>
<g id="a_node6"><a xlink:title="src/o3ds/pipeline.cpp">
<polygon fill="#bfbfbf" stroke="black" points="443,-324 275,-324 275,-288 443,-288 443,-324"/>
<text text-anchor="middle" x="359" y="-302.3" font-family="Times,serif" font-size="14.00">src/o3ds/pipeline.cpp</text>
</a>
</g>
</g>
<!-- 1&#45;&gt;10 -->
<g id="edge3" class="edge">
<title>1&#45;&gt;10</title>
<g id="a_edge3"><a xlink:title="include">
<path fill="none" stroke="#1414ce" d="M299.62,-287.97C264.94,-278.01 220.99,-265.41 184.67,-254.99"/>
<polygon fill="#1414ce" stroke="#1414ce" points="185.22,-251.5 174.64,-252.11 183.29,-258.23 185.22,-251.5"/>
</a>
</g>
</g>
<!-- 1&#45;&gt;9 -->
<g id="edge2" class="edge">
<title>1&#45;&gt;9</title>
<g id="a_edge2"><a xlink:title="include">
<path fill="none" stroke="#1414ce" d="M359,-287.7C359,-279.98 359,-270.71 359,-262.11"/>
<polygon fill="#1414ce" stroke="#1414ce" points="362.5,-262.1 359,-252.1 355.5,-262.1 362.5,-262.1"/>
</a>
</g>
</g>
<!-- 2 -->
<g id="node9" class="node">
<title>2</title>
<g id="a_node9"><a xlink:title="pipeline.h">
<polygon fill="#ffffff" stroke="black" points="575.5,-252 488.5,-252 488.5,-216 575.5,-216 575.5,-252"/>
<text text-anchor="middle" x="532" y="-230.3" font-family="Times,serif" font-size="14.00">pipeline.h</text>
</a>
</g>
</g>
<!-- 1&#45;&gt;2 -->
<g id="edge1" class="edge">
<title>1&#45;&gt;2</title>
<g id="a_edge1"><a xlink:title="include">
<path fill="none" stroke="#1414ce" d="M401.32,-287.88C425.18,-278.22 455.17,-266.09 480.4,-255.88"/>
<polygon fill="#1414ce" stroke="#1414ce" points="481.86,-259.06 489.82,-252.07 479.23,-252.57 481.86,-259.06"/>
</a>
</g>
</g>
<!-- 4 -->
<g id="node7" class="node">
<title>4</title>
<g id="a_node7"><a xlink:title="nng_connector.h">
<polygon fill="#ffffff" stroke="black" points="598.5,-180 465.5,-180 465.5,-144 598.5,-144 598.5,-180"/>
<text text-anchor="middle" x="532" y="-158.3" font-family="Times,serif" font-size="14.00">nng_connector.h</text>
</a>
</g>
</g>
<!-- 4&#45;&gt;3 -->
<g id="edge8" class="edge">
<title>4&#45;&gt;3</title>
<g id="a_edge8"><a xlink:title="include">
<path fill="none" stroke="#1414ce" d="M494.69,-143.85C478.05,-134.88 459.06,-122.69 445,-108 427.66,-89.88 414.46,-64.43 406.16,-45.38"/>
<polygon fill="#1414ce" stroke="#1414ce" points="409.35,-43.95 402.26,-36.08 402.9,-46.65 409.35,-43.95"/>
</a>
</g>
</g>
<!-- 4&#45;&gt;5 -->
<g id="edge4" class="edge">
<title>4&#45;&gt;5</title>
<g id="a_edge4"><a xlink:title="include">
<path fill="none" stroke="#1414ce" d="M575.68,-143.82C593.36,-135.18 612.89,-123.25 627,-108 643.36,-90.33 654.16,-64.99 660.55,-45.86"/>
<polygon fill="#1414ce" stroke="#1414ce" points="663.92,-46.82 663.58,-36.23 657.24,-44.72 663.92,-46.82"/>
</a>
</g>
</g>
<!-- 4&#45;&gt;6 -->
<g id="edge5" class="edge">
<title>4&#45;&gt;6</title>
<g id="a_edge5"><a xlink:title="include">
<path fill="none" stroke="#1414ce" d="M491.32,-143.88C476.48,-135.41 461.32,-123.59 453,-108 441.68,-86.78 455.36,-61.86 469.89,-43.8"/>
<polygon fill="#1414ce" stroke="#1414ce" points="472.7,-45.89 476.53,-36.02 467.38,-41.35 472.7,-45.89"/>
</a>
</g>
</g>
<!-- 7 -->
<g id="node8" class="node">
<title>7</title>
<g id="a_node8"><a xlink:title="mutex">
<polygon fill="#ffffff" stroke="black" points="615,-36 553,-36 553,0 615,0 615,-36"/>
<text text-anchor="middle" x="584" y="-14.3" font-family="Times,serif" font-size="14.00">mutex</text>
</a>
</g>
</g>
<!-- 4&#45;&gt;7 -->
<g id="edge6" class="edge">
<title>4&#45;&gt;7</title>
<g id="a_edge6"><a xlink:title="include">
<path fill="none" stroke="#1414ce" d="M572.68,-143.88C587.52,-135.41 602.68,-123.59 611,-108 621.66,-88.01 612.53,-63.2 602.09,-44.86"/>
<polygon fill="#1414ce" stroke="#1414ce" points="604.98,-42.88 596.78,-36.17 599.01,-46.53 604.98,-42.88"/>
</a>
</g>
</g>
<!-- 8 -->
<g id="node10" class="node">
<title>8</title>
<g id="a_node10"><a xlink:title="base_connector.h">
<polygon fill="#ffffff" stroke="black" points="601.5,-108 462.5,-108 462.5,-72 601.5,-72 601.5,-108"/>
<text text-anchor="middle" x="532" y="-86.3" font-family="Times,serif" font-size="14.00">base_connector.h</text>
</a>
</g>
</g>
<!-- 4&#45;&gt;8 -->
<g id="edge7" class="edge">
<title>4&#45;&gt;8</title>
<g id="a_edge7"><a xlink:title="include">
<path fill="none" stroke="#1414ce" d="M532,-143.7C532,-135.98 532,-126.71 532,-118.11"/>
<polygon fill="#1414ce" stroke="#1414ce" points="535.5,-118.1 532,-108.1 528.5,-118.1 535.5,-118.1"/>
</a>
</g>
</g>
<!-- 2&#45;&gt;3 -->
<g id="edge9" class="edge">
<title>2&#45;&gt;3</title>
<g id="a_edge9"><a xlink:title="include">
<path fill="none" stroke="#1414ce" d="M501.02,-215.92C486.15,-206.66 468.83,-194.21 456,-180 421.21,-141.48 406,-80.94 399.82,-46.12"/>
<polygon fill="#1414ce" stroke="#1414ce" points="403.26,-45.48 398.18,-36.19 396.35,-46.62 403.26,-45.48"/>
</a>
</g>
</g>
<!-- 2&#45;&gt;5 -->
<g id="edge11" class="edge">
<title>2&#45;&gt;5</title>
<g id="a_edge11"><a xlink:title="include">
<path fill="none" stroke="#1414ce" d="M562.36,-215.92C577.24,-206.58 594.77,-194.06 608,-180 633.71,-152.69 638.68,-143.06 652,-108 659.56,-88.1 663.6,-64.3 665.73,-46.33"/>
<polygon fill="#1414ce" stroke="#1414ce" points="669.23,-46.55 666.8,-36.23 662.27,-45.81 669.23,-46.55"/>
</a>
</g>
</g>
<!-- 2&#45;&gt;4 -->
<g id="edge10" class="edge">
<title>2&#45;&gt;4</title>
<g id="a_edge10"><a xlink:title="include">
<path fill="none" stroke="#1414ce" d="M532,-215.7C532,-207.98 532,-198.71 532,-190.11"/>
<polygon fill="#1414ce" stroke="#1414ce" points="535.5,-190.1 532,-180.1 528.5,-190.1 535.5,-190.1"/>
</a>
</g>
</g>
<!-- 8&#45;&gt;3 -->
<g id="edge15" class="edge">
<title>8&#45;&gt;3</title>
<g id="a_edge15"><a xlink:title="include">
<path fill="none" stroke="#1414ce" d="M498.73,-71.88C480.54,-62.51 457.81,-50.81 438.36,-40.8"/>
<polygon fill="#1414ce" stroke="#1414ce" points="439.89,-37.65 429.4,-36.19 436.69,-43.88 439.89,-37.65"/>
</a>
</g>
</g>
<!-- 8&#45;&gt;5 -->
<g id="edge12" class="edge">
<title>8&#45;&gt;5</title>
<g id="a_edge12"><a xlink:title="include">
<path fill="none" stroke="#1414ce" d="M565.27,-71.88C584.64,-61.91 609.14,-49.29 629.36,-38.89"/>
<polygon fill="#1414ce" stroke="#1414ce" points="631.02,-41.97 638.31,-34.28 627.82,-35.74 631.02,-41.97"/>
</a>
</g>
</g>
<!-- 8&#45;&gt;6 -->
<g id="edge13" class="edge">
<title>8&#45;&gt;6</title>
<g id="a_edge13"><a xlink:title="include">
<path fill="none" stroke="#1414ce" d="M522.61,-71.7C518.24,-63.64 512.94,-53.89 508.1,-44.98"/>
<polygon fill="#1414ce" stroke="#1414ce" points="511.13,-43.22 503.29,-36.1 504.98,-46.56 511.13,-43.22"/>
</a>
</g>
</g>
<!-- 8&#45;&gt;7 -->
<g id="edge14" class="edge">
<title>8&#45;&gt;7</title>
<g id="a_edge14"><a xlink:title="include">
<path fill="none" stroke="#1414ce" d="M544.85,-71.7C551.03,-63.39 558.54,-53.28 565.32,-44.14"/>
<polygon fill="#1414ce" stroke="#1414ce" points="568.14,-46.22 571.29,-36.1 562.52,-42.04 568.14,-46.22"/>
</a>
</g>
</g>
</g>
</svg>
