<?xml version="1.0" encoding="UTF-8" standalone="no"?>
<!DOCTYPE svg PUBLIC "-//W3C//DTD SVG 1.1//EN"
 "http://www.w3.org/Graphics/SVG/1.1/DTD/svg11.dtd">
<!-- Generated by graphviz version 2.43.0 (0)
 -->
<!-- Title: %3 Pages: 1 -->
<svg width="156pt" height="116pt"
 viewBox="0.00 0.00 156.00 116.00" xmlns="http://www.w3.org/2000/svg" xmlns:xlink="http://www.w3.org/1999/xlink">
<g id="graph0" class="graph" transform="scale(1 1) rotate(0) translate(4 112)">
<title>%3</title>
<polygon fill="transparent" stroke="transparent" points="-4,4 -4,-112 152,-112 152,4 -4,4"/>
<!-- 1 -->
<g id="node1" class="node">
<title>1</title>
<g id="a_node1"><a xlink:title="src/o3ds/math.cpp">
<polygon fill="#bfbfbf" stroke="black" points="148,-108 0,-108 0,-72 148,-72 148,-108"/>
<text text-anchor="middle" x="74" y="-86.3" font-family="Times,serif" font-size="14.00">src/o3ds/math.cpp</text>
</a>
</g>
</g>
<!-- 2 -->
<g id="node2" class="node">
<title>2</title>
<g id="a_node2"><a xlink:title="o3ds/math.h">
<polygon fill="#ffffff" stroke="black" points="126.5,-36 21.5,-36 21.5,0 126.5,0 126.5,-36"/>
<text text-anchor="middle" x="74" y="-14.3" font-family="Times,serif" font-size="14.00">o3ds/math.h</text>
</a>
</g>
</g>
<!-- 1&#45;&gt;2 -->
<g id="edge1" class="edge">
<title>1&#45;&gt;2</title>
<g id="a_edge1"><a xlink:title="include">
<path fill="none" stroke="#1414ce" d="M74,-71.7C74,-63.98 74,-54.71 74,-46.11"/>
<polygon fill="#1414ce" stroke="#1414ce" points="77.5,-46.1 74,-36.1 70.5,-46.1 77.5,-46.1"/>
</a>
</g>
</g>
<!-- 2&#45;&gt;2 -->
<g id="edge2" class="edge">
<title>2&#45;&gt;2</title>
<g id="a_edge2"><a xlink:title="include">
<path fill="none" stroke="#1414ce" d="M126.58,-30.94C137.04,-29.49 144.5,-25.17 144.5,-18 144.5,-13.41 141.44,-9.98 136.49,-7.73"/>
<polygon fill="#1414ce" stroke="#1414ce" points="137.14,-4.29 126.58,-5.06 135.32,-11.04 137.14,-4.29"/>
</a>
</g>
</g>
</g>
</svg>
