<?xml version="1.0" encoding="UTF-8" standalone="no"?>
<!DOCTYPE svg PUBLIC "-//W3C//DTD SVG 1.1//EN"
 "http://www.w3.org/Graphics/SVG/1.1/DTD/svg11.dtd">
<!-- Generated by graphviz version 2.43.0 (0)
 -->
<!-- Title: %3 Pages: 1 -->
<svg width="688pt" height="332pt"
 viewBox="0.00 0.00 688.00 332.00" xmlns="http://www.w3.org/2000/svg" xmlns:xlink="http://www.w3.org/1999/xlink">
<g id="graph0" class="graph" transform="scale(1 1) rotate(0) translate(4 328)">
<title>%3</title>
<polygon fill="transparent" stroke="transparent" points="-4,4 -4,-328 684,-328 684,4 -4,4"/>
<!-- 5 -->
<g id="node1" class="node">
<title>5</title>
<g id="a_node1"><a xlink:title="nng/protocol/pubsub0/sub.h">
<polygon fill="#ffffff" stroke="black" points="216,-180 0,-180 0,-144 216,-144 216,-180"/>
<text text-anchor="middle" x="108" y="-158.3" font-family="Times,serif" font-size="14.00">nng/protocol/pubsub0/sub.h</text>
</a>
</g>
</g>
<!-- 3 -->
<g id="node2" class="node">
<title>3</title>
<g id="a_node2"><a xlink:title="nng/nng.h">
<polygon fill="#ffffff" stroke="black" points="325.5,-36 236.5,-36 236.5,0 325.5,0 325.5,-36"/>
<text text-anchor="middle" x="281" y="-14.3" font-family="Times,serif" font-size="14.00">nng/nng.h</text>
</a>
</g>
</g>
<!-- 7 -->
<g id="node3" class="node">
<title>7</title>
<g id="a_node3"><a xlink:title="string">
<polygon fill="#ffffff" stroke="black" points="606.5,-36 547.5,-36 547.5,0 606.5,0 606.5,-36"/>
<text text-anchor="middle" x="577" y="-14.3" font-family="Times,serif" font-size="14.00">string</text>
</a>
</g>
</g>
<!-- 2 -->
<g id="node4" class="node">
<title>2</title>
<g id="a_node4"><a xlink:title="subscriber.h">
<polygon fill="#ffffff" stroke="black" points="334,-252 230,-252 230,-216 334,-216 334,-252"/>
<text text-anchor="middle" x="282" y="-230.3" font-family="Times,serif" font-size="14.00">subscriber.h</text>
</a>
</g>
</g>
<!-- 2&#45;&gt;5 -->
<g id="edge3" class="edge">
<title>2&#45;&gt;5</title>
<g id="a_edge3"><a xlink:title="include">
<path fill="none" stroke="#1414ce" d="M239.43,-215.88C215.44,-206.22 185.27,-194.09 159.9,-183.88"/>
<polygon fill="#1414ce" stroke="#1414ce" points="161.01,-180.55 150.43,-180.07 158.4,-187.05 161.01,-180.55"/>
</a>
</g>
</g>
<!-- 2&#45;&gt;3 -->
<g id="edge1" class="edge">
<title>2&#45;&gt;3</title>
<g id="a_edge1"><a xlink:title="include">
<path fill="none" stroke="#1414ce" d="M276.18,-215.56C273.07,-205.33 269.57,-192.08 268,-180 261.82,-132.4 262.24,-119.65 268,-72 269.02,-63.53 270.93,-54.47 272.98,-46.28"/>
<polygon fill="#1414ce" stroke="#1414ce" points="276.4,-47.03 275.59,-36.47 269.64,-45.23 276.4,-47.03"/>
</a>
</g>
</g>
<!-- 8 -->
<g id="node5" class="node">
<title>8</title>
<g id="a_node5"><a xlink:title="vector">
<polygon fill="#ffffff" stroke="black" points="405,-36 343,-36 343,0 405,0 405,-36"/>
<text text-anchor="middle" x="374" y="-14.3" font-family="Times,serif" font-size="14.00">vector</text>
</a>
</g>
</g>
<!-- 2&#45;&gt;8 -->
<g id="edge5" class="edge">
<title>2&#45;&gt;8</title>
<g id="a_edge5"><a xlink:title="include">
<path fill="none" stroke="#1414ce" d="M284.02,-215.81C286.54,-197.53 291.7,-168.02 301,-144 315.14,-107.47 339.12,-69.09 355.72,-44.65"/>
<polygon fill="#1414ce" stroke="#1414ce" points="358.68,-46.53 361.47,-36.31 352.91,-42.56 358.68,-46.53"/>
</a>
</g>
</g>
<!-- 4 -->
<g id="node6" class="node">
<title>4</title>
<g id="a_node6"><a xlink:title="nng/protocol/pubsub0/pub.h">
<polygon fill="#ffffff" stroke="black" points="680,-180 462,-180 462,-144 680,-144 680,-180"/>
<text text-anchor="middle" x="571" y="-158.3" font-family="Times,serif" font-size="14.00">nng/protocol/pubsub0/pub.h</text>
</a>
</g>
</g>
<!-- 2&#45;&gt;4 -->
<g id="edge2" class="edge">
<title>2&#45;&gt;4</title>
<g id="a_edge2"><a xlink:title="include">
<path fill="none" stroke="#1414ce" d="M334,-220.4C377.65,-209.83 440.73,-194.55 490.83,-182.42"/>
<polygon fill="#1414ce" stroke="#1414ce" points="491.78,-185.79 500.67,-180.03 490.13,-178.99 491.78,-185.79"/>
</a>
</g>
</g>
<!-- 6 -->
<g id="node7" class="node">
<title>6</title>
<g id="a_node7"><a xlink:title="nng_connector.h">
<polygon fill="#ffffff" stroke="black" points="443.5,-180 310.5,-180 310.5,-144 443.5,-144 443.5,-180"/>
<text text-anchor="middle" x="377" y="-158.3" font-family="Times,serif" font-size="14.00">nng_connector.h</text>
</a>
</g>
</g>
<!-- 2&#45;&gt;6 -->
<g id="edge4" class="edge">
<title>2&#45;&gt;6</title>
<g id="a_edge4"><a xlink:title="include">
<path fill="none" stroke="#1414ce" d="M305.48,-215.7C317.56,-206.8 332.45,-195.82 345.52,-186.2"/>
<polygon fill="#1414ce" stroke="#1414ce" points="347.81,-188.85 353.79,-180.1 343.66,-183.22 347.81,-188.85"/>
</a>
</g>
</g>
<!-- 6&#45;&gt;3 -->
<g id="edge10" class="edge">
<title>6&#45;&gt;3</title>
<g id="a_edge10"><a xlink:title="include">
<path fill="none" stroke="#1414ce" d="M365.42,-143.87C348.7,-119.14 317.67,-73.24 298.25,-44.51"/>
<polygon fill="#1414ce" stroke="#1414ce" points="301.12,-42.51 292.62,-36.19 295.32,-46.43 301.12,-42.51"/>
</a>
</g>
</g>
<!-- 6&#45;&gt;7 -->
<g id="edge6" class="edge">
<title>6&#45;&gt;7</title>
<g id="a_edge6"><a xlink:title="include">
<path fill="none" stroke="#1414ce" d="M443.59,-144.13C489.63,-131.91 544,-116.16 552,-108 568.02,-91.65 573.95,-65.91 576.06,-46.3"/>
<polygon fill="#1414ce" stroke="#1414ce" points="579.56,-46.39 576.88,-36.14 572.59,-45.82 579.56,-46.39"/>
</a>
</g>
</g>
<!-- 6&#45;&gt;8 -->
<g id="edge7" class="edge">
<title>6&#45;&gt;8</title>
<g id="a_edge7"><a xlink:title="include">
<path fill="none" stroke="#1414ce" d="M376.64,-143.87C376.13,-119.67 375.19,-75.21 374.58,-46.39"/>
<polygon fill="#1414ce" stroke="#1414ce" points="378.07,-46.11 374.36,-36.19 371.08,-46.26 378.07,-46.11"/>
</a>
</g>
</g>
<!-- 9 -->
<g id="node8" class="node">
<title>9</title>
<g id="a_node8"><a xlink:title="mutex">
<polygon fill="#ffffff" stroke="black" points="501,-36 439,-36 439,0 501,0 501,-36"/>
<text text-anchor="middle" x="470" y="-14.3" font-family="Times,serif" font-size="14.00">mutex</text>
</a>
</g>
</g>
<!-- 6&#45;&gt;9 -->
<g id="edge8" class="edge">
<title>6&#45;&gt;9</title>
<g id="a_edge8"><a xlink:title="include">
<path fill="none" stroke="#1414ce" d="M438.69,-143.89C480.05,-131.8 528.02,-116.33 534,-108 543.33,-95 540.81,-86.48 534,-72 528.48,-60.26 518.93,-50.22 508.88,-42.15"/>
<polygon fill="#1414ce" stroke="#1414ce" points="510.88,-39.27 500.77,-36.09 506.69,-44.88 510.88,-39.27"/>
</a>
</g>
</g>
<!-- 10 -->
<g id="node9" class="node">
<title>10</title>
<g id="a_node9"><a xlink:title="base_connector.h">
<polygon fill="#ffffff" stroke="black" points="525.5,-108 386.5,-108 386.5,-72 525.5,-72 525.5,-108"/>
<text text-anchor="middle" x="456" y="-86.3" font-family="Times,serif" font-size="14.00">base_connector.h</text>
</a>
</g>
</g>
<!-- 6&#45;&gt;10 -->
<g id="edge9" class="edge">
<title>6&#45;&gt;10</title>
<g id="a_edge9"><a xlink:title="include">
<path fill="none" stroke="#1414ce" d="M396.53,-143.7C406.38,-134.97 418.49,-124.24 429.2,-114.75"/>
<polygon fill="#1414ce" stroke="#1414ce" points="431.53,-117.36 436.7,-108.1 426.89,-112.12 431.53,-117.36"/>
</a>
</g>
</g>
<!-- 10&#45;&gt;3 -->
<g id="edge14" class="edge">
<title>10&#45;&gt;3</title>
<g id="a_edge14"><a xlink:title="include">
<path fill="none" stroke="#1414ce" d="M413.19,-71.88C389.05,-62.22 358.72,-50.09 333.19,-39.88"/>
<polygon fill="#1414ce" stroke="#1414ce" points="334.26,-36.53 323.67,-36.07 331.66,-43.03 334.26,-36.53"/>
</a>
</g>
</g>
<!-- 10&#45;&gt;7 -->
<g id="edge11" class="edge">
<title>10&#45;&gt;7</title>
<g id="a_edge11"><a xlink:title="include">
<path fill="none" stroke="#1414ce" d="M485.6,-71.88C501.57,-62.64 521.46,-51.13 538.61,-41.21"/>
<polygon fill="#1414ce" stroke="#1414ce" points="540.38,-44.23 547.29,-36.19 536.88,-38.17 540.38,-44.23"/>
</a>
</g>
</g>
<!-- 10&#45;&gt;8 -->
<g id="edge12" class="edge">
<title>10&#45;&gt;8</title>
<g id="a_edge12"><a xlink:title="include">
<path fill="none" stroke="#1414ce" d="M435.73,-71.7C425.5,-62.97 412.94,-52.24 401.82,-42.75"/>
<polygon fill="#1414ce" stroke="#1414ce" points="403.91,-39.94 394.04,-36.1 399.37,-45.26 403.91,-39.94"/>
</a>
</g>
</g>
<!-- 10&#45;&gt;9 -->
<g id="edge13" class="edge">
<title>10&#45;&gt;9</title>
<g id="a_edge13"><a xlink:title="include">
<path fill="none" stroke="#1414ce" d="M459.46,-71.7C461,-63.98 462.86,-54.71 464.58,-46.11"/>
<polygon fill="#1414ce" stroke="#1414ce" points="468.05,-46.6 466.58,-36.1 461.19,-45.22 468.05,-46.6"/>
</a>
</g>
</g>
<!-- 1 -->
<g id="node10" class="node">
<title>1</title>
<g id="a_node10"><a xlink:title="src/o3ds/subscriber.cpp">
<polygon fill="#bfbfbf" stroke="black" points="374.5,-324 189.5,-324 189.5,-288 374.5,-288 374.5,-324"/>
<text text-anchor="middle" x="282" y="-302.3" font-family="Times,serif" font-size="14.00">src/o3ds/subscriber.cpp</text>
</a>
</g>
</g>
<!-- 1&#45;&gt;2 -->
<g id="edge15" class="edge">
<title>1&#45;&gt;2</title>
<g id="a_edge15"><a xlink:title="include">
<path fill="none" stroke="#1414ce" d="M282,-287.7C282,-279.98 282,-270.71 282,-262.11"/>
<polygon fill="#1414ce" stroke="#1414ce" points="285.5,-262.1 282,-252.1 278.5,-262.1 285.5,-262.1"/>
</a>
</g>
</g>
</g>
</svg>
