<?xml version="1.0" encoding="UTF-8" standalone="no"?>
<!DOCTYPE svg PUBLIC "-//W3C//DTD SVG 1.1//EN"
 "http://www.w3.org/Graphics/SVG/1.1/DTD/svg11.dtd">
<!-- Generated by graphviz version 2.43.0 (0)
 -->
<!-- Title: %3 Pages: 1 -->
<svg width="240pt" height="188pt"
 viewBox="0.00 0.00 240.00 188.00" xmlns="http://www.w3.org/2000/svg" xmlns:xlink="http://www.w3.org/1999/xlink">
<g id="graph0" class="graph" transform="scale(1 1) rotate(0) translate(4 184)">
<title>%3</title>
<polygon fill="transparent" stroke="transparent" points="-4,4 -4,-184 236,-184 236,4 -4,4"/>
<!-- 3 -->
<g id="node1" class="node">
<title>3</title>
<g id="a_node1"><a xlink:title="O3DS::Connector">
<polygon fill="#ffffff" stroke="black" points="186,-36 46,-36 46,0 186,0 186,-36"/>
<text text-anchor="middle" x="116" y="-14.3" font-family="Times,serif" font-size="14.00">O3DS::Connector</text>
</a>
</g>
</g>
<!-- 2 -->
<g id="node2" class="node">
<title>2</title>
<g id="a_node2"><a xlink:title="O3DS::BlockingNngConnector">
<polygon fill="#ffffff" stroke="black" points="232,-108 0,-108 0,-72 232,-72 232,-108"/>
<text text-anchor="middle" x="116" y="-86.3" font-family="Times,serif" font-size="14.00">O3DS::BlockingNngConnector</text>
</a>
</g>
</g>
<!-- 2&#45;&gt;3 -->
<g id="edge1" class="edge">
<title>2&#45;&gt;3</title>
<g id="a_edge1"><a xlink:title="public&#45;inheritance">
<path fill="none" stroke="#1414ce" d="M116,-71.7C116,-63.98 116,-54.71 116,-46.11"/>
<polygon fill="#1414ce" stroke="#1414ce" points="119.5,-46.1 116,-36.1 112.5,-46.1 119.5,-46.1"/>
</a>
</g>
</g>
<!-- 1 -->
<g id="node3" class="node">
<title>1</title>
<g id="a_node3"><a xlink:title="O3DS::Reply">
<polygon fill="#bfbfbf" stroke="black" points="169.5,-180 62.5,-180 62.5,-144 169.5,-144 169.5,-180"/>
<text text-anchor="middle" x="116" y="-158.3" font-family="Times,serif" font-size="14.00">O3DS::Reply</text>
</a>
</g>
</g>
<!-- 1&#45;&gt;2 -->
<g id="edge2" class="edge">
<title>1&#45;&gt;2</title>
<g id="a_edge2"><a xlink:title="public&#45;inheritance">
<path fill="none" stroke="#1414ce" d="M116,-143.7C116,-135.98 116,-126.71 116,-118.11"/>
<polygon fill="#1414ce" stroke="#1414ce" points="119.5,-118.1 116,-108.1 112.5,-118.1 119.5,-118.1"/>
</a>
</g>
</g>
</g>
</svg>
