<?xml version="1.0" encoding="UTF-8" standalone="no"?>
<!DOCTYPE svg PUBLIC "-//W3C//DTD SVG 1.1//EN"
 "http://www.w3.org/Graphics/SVG/1.1/DTD/svg11.dtd">
<!-- Generated by graphviz version 2.43.0 (0)
 -->
<!-- Title: %3 Pages: 1 -->
<svg width="336pt" height="332pt"
 viewBox="0.00 0.00 335.50 332.00" xmlns="http://www.w3.org/2000/svg" xmlns:xlink="http://www.w3.org/1999/xlink">
<g id="graph0" class="graph" transform="scale(1 1) rotate(0) translate(4 328)">
<title>%3</title>
<polygon fill="transparent" stroke="transparent" points="-4,4 -4,-328 331.5,-328 331.5,4 -4,4"/>
<!-- 4 -->
<g id="node1" class="node">
<title>4</title>
<g id="a_node1"><a xlink:title="O3DS::Connector">
<polygon fill="#ffffff" stroke="black" points="234.5,-36 94.5,-36 94.5,0 234.5,0 234.5,-36"/>
<text text-anchor="middle" x="164.5" y="-14.3" font-family="Times,serif" font-size="14.00">O3DS::Connector</text>
</a>
</g>
</g>
<!-- 2 -->
<g id="node2" class="node">
<title>2</title>
<g id="a_node2"><a xlink:title="O3DS::AsyncNngConnector">
<polygon fill="#ffffff" stroke="black" points="270.5,-180 58.5,-180 58.5,-144 270.5,-144 270.5,-180"/>
<text text-anchor="middle" x="164.5" y="-158.3" font-family="Times,serif" font-size="14.00">O3DS::AsyncNngConnector</text>
</a>
</g>
</g>
<!-- 3 -->
<g id="node6" class="node">
<title>3</title>
<g id="a_node6"><a xlink:title="O3DS::AsyncConnector">
<polygon fill="#ffffff" stroke="black" points="255.5,-108 73.5,-108 73.5,-72 255.5,-72 255.5,-108"/>
<text text-anchor="middle" x="164.5" y="-86.3" font-family="Times,serif" font-size="14.00">O3DS::AsyncConnector</text>
</a>
</g>
</g>
<!-- 2&#45;&gt;3 -->
<g id="edge1" class="edge">
<title>2&#45;&gt;3</title>
<g id="a_edge1"><a xlink:title="public&#45;inheritance">
<path fill="none" stroke="#1414ce" d="M164.5,-143.7C164.5,-135.98 164.5,-126.71 164.5,-118.11"/>
<polygon fill="#1414ce" stroke="#1414ce" points="168,-118.1 164.5,-108.1 161,-118.1 168,-118.1"/>
</a>
</g>
</g>
<!-- 6 -->
<g id="node3" class="node">
<title>6</title>
<g id="a_node3"><a xlink:title="O3DS::AsyncServer">
<polygon fill="#ffffff" stroke="black" points="157,-324 0,-324 0,-288 157,-288 157,-324"/>
<text text-anchor="middle" x="78.5" y="-302.3" font-family="Times,serif" font-size="14.00">O3DS::AsyncServer</text>
</a>
</g>
</g>
<!-- 1 -->
<g id="node4" class="node">
<title>1</title>
<g id="a_node4"><a xlink:title="O3DS::AsyncPipeline">
<polygon fill="#bfbfbf" stroke="black" points="248,-252 81,-252 81,-216 248,-216 248,-252"/>
<text text-anchor="middle" x="164.5" y="-230.3" font-family="Times,serif" font-size="14.00">O3DS::AsyncPipeline</text>
</a>
</g>
</g>
<!-- 6&#45;&gt;1 -->
<g id="edge2" class="edge">
<title>6&#45;&gt;1</title>
<g id="a_edge2"><a xlink:title="public&#45;inheritance">
<path fill="none" stroke="#1414ce" d="M99.76,-287.7C110.59,-278.88 123.92,-268.03 135.66,-258.47"/>
<polygon fill="#1414ce" stroke="#1414ce" points="137.94,-261.13 143.49,-252.1 133.52,-255.7 137.94,-261.13"/>
</a>
</g>
</g>
<!-- 1&#45;&gt;2 -->
<g id="edge3" class="edge">
<title>1&#45;&gt;2</title>
<g id="a_edge3"><a xlink:title="public&#45;inheritance">
<path fill="none" stroke="#1414ce" d="M164.5,-215.7C164.5,-207.98 164.5,-198.71 164.5,-190.11"/>
<polygon fill="#1414ce" stroke="#1414ce" points="168,-190.1 164.5,-180.1 161,-190.1 168,-190.1"/>
</a>
</g>
</g>
<!-- 5 -->
<g id="node5" class="node">
<title>5</title>
<g id="a_node5"><a xlink:title="O3DS::AsyncClient">
<polygon fill="#ffffff" stroke="black" points="327.5,-324 175.5,-324 175.5,-288 327.5,-288 327.5,-324"/>
<text text-anchor="middle" x="251.5" y="-302.3" font-family="Times,serif" font-size="14.00">O3DS::AsyncClient</text>
</a>
</g>
</g>
<!-- 5&#45;&gt;1 -->
<g id="edge4" class="edge">
<title>5&#45;&gt;1</title>
<g id="a_edge4"><a xlink:title="public&#45;inheritance">
<path fill="none" stroke="#1414ce" d="M229.99,-287.7C219.04,-278.88 205.55,-268.03 193.68,-258.47"/>
<polygon fill="#1414ce" stroke="#1414ce" points="195.74,-255.65 185.76,-252.1 191.36,-261.1 195.74,-255.65"/>
</a>
</g>
</g>
<!-- 3&#45;&gt;4 -->
<g id="edge5" class="edge">
<title>3&#45;&gt;4</title>
<g id="a_edge5"><a xlink:title="public&#45;inheritance">
<path fill="none" stroke="#1414ce" d="M164.5,-71.7C164.5,-63.98 164.5,-54.71 164.5,-46.11"/>
<polygon fill="#1414ce" stroke="#1414ce" points="168,-46.1 164.5,-36.1 161,-46.1 168,-46.1"/>
</a>
</g>
</g>
</g>
</svg>
