<?xml version="1.0" encoding="UTF-8" standalone="no"?>
<!DOCTYPE svg PUBLIC "-//W3C//DTD SVG 1.1//EN"
 "http://www.w3.org/Graphics/SVG/1.1/DTD/svg11.dtd">
<!-- Generated by graphviz version 2.43.0 (0)
 -->
<!-- Title: %3 Pages: 1 -->
<svg width="673pt" height="188pt"
 viewBox="0.00 0.00 673.00 188.00" xmlns="http://www.w3.org/2000/svg" xmlns:xlink="http://www.w3.org/1999/xlink">
<g id="graph0" class="graph" transform="scale(1 1) rotate(0) translate(4 184)">
<title>%3</title>
<polygon fill="transparent" stroke="transparent" points="-4,4 -4,-184 669,-184 669,4 -4,4"/>
<!-- 3 -->
<g id="node1" class="node">
<title>3</title>
<g id="a_node1"><a xlink:title="string">
<polygon fill="#ffffff" stroke="black" points="59,-108 0,-108 0,-72 59,-72 59,-108"/>
<text text-anchor="middle" x="29.5" y="-86.3" font-family="Times,serif" font-size="14.00">string</text>
</a>
</g>
</g>
<!-- 2 -->
<g id="node2" class="node">
<title>2</title>
<g id="a_node2"><a xlink:title="vector">
<polygon fill="#ffffff" stroke="black" points="139.5,-108 77.5,-108 77.5,-72 139.5,-72 139.5,-108"/>
<text text-anchor="middle" x="108.5" y="-86.3" font-family="Times,serif" font-size="14.00">vector</text>
</a>
</g>
</g>
<!-- 7 -->
<g id="node3" class="node">
<title>7</title>
<g id="a_node3"><a xlink:title="schema_generated.h">
<polygon fill="#ffffff" stroke="black" points="321.5,-108 157.5,-108 157.5,-72 321.5,-72 321.5,-108"/>
<text text-anchor="middle" x="239.5" y="-86.3" font-family="Times,serif" font-size="14.00">schema_generated.h</text>
</a>
</g>
</g>
<!-- 4 -->
<g id="node4" class="node">
<title>4</title>
<g id="a_node4"><a xlink:title="math.h">
<polygon fill="#ffffff" stroke="black" points="443,-36 376,-36 376,0 443,0 443,-36"/>
<text text-anchor="middle" x="409.5" y="-14.3" font-family="Times,serif" font-size="14.00">math.h</text>
</a>
</g>
</g>
<!-- 4&#45;&gt;4 -->
<g id="edge1" class="edge">
<title>4&#45;&gt;4</title>
<g id="a_edge1"><a xlink:title="include">
<path fill="none" stroke="#1414ce" d="M443.18,-31.47C453.2,-31.07 461,-26.58 461,-18 461,-12.64 457.95,-8.87 453.22,-6.71"/>
<polygon fill="#1414ce" stroke="#1414ce" points="453.7,-3.23 443.18,-4.53 452.21,-10.07 453.7,-3.23"/>
</a>
</g>
</g>
<!-- 6 -->
<g id="node5" class="node">
<title>6</title>
<g id="a_node5"><a xlink:title="transform_component.h">
<polygon fill="#ffffff" stroke="black" points="564,-108 377,-108 377,-72 564,-72 564,-108"/>
<text text-anchor="middle" x="470.5" y="-86.3" font-family="Times,serif" font-size="14.00">transform_component.h</text>
</a>
</g>
</g>
<!-- 6&#45;&gt;4 -->
<g id="edge2" class="edge">
<title>6&#45;&gt;4</title>
<g id="a_edge2"><a xlink:title="include">
<path fill="none" stroke="#1414ce" d="M455.42,-71.7C448.11,-63.3 439.19,-53.07 431.16,-43.86"/>
<polygon fill="#1414ce" stroke="#1414ce" points="433.61,-41.34 424.41,-36.1 428.34,-45.94 433.61,-41.34"/>
</a>
</g>
</g>
<!-- 5 -->
<g id="node6" class="node">
<title>5</title>
<g id="a_node6"><a xlink:title="context.h">
<polygon fill="#ffffff" stroke="black" points="665,-108 582,-108 582,-72 665,-72 665,-108"/>
<text text-anchor="middle" x="623.5" y="-86.3" font-family="Times,serif" font-size="14.00">context.h</text>
</a>
</g>
</g>
<!-- 1 -->
<g id="node7" class="node">
<title>1</title>
<g id="a_node7"><a xlink:title="src/o3ds/model.h">
<polygon fill="#bfbfbf" stroke="black" points="363.5,-180 225.5,-180 225.5,-144 363.5,-144 363.5,-180"/>
<text text-anchor="middle" x="294.5" y="-158.3" font-family="Times,serif" font-size="14.00">src/o3ds/model.h</text>
</a>
</g>
</g>
<!-- 1&#45;&gt;3 -->
<g id="edge4" class="edge">
<title>1&#45;&gt;3</title>
<g id="a_edge4"><a xlink:title="include">
<path fill="none" stroke="#1414ce" d="M225.36,-148.17C180.16,-138.95 120.13,-125.15 68.5,-108 68.4,-107.97 68.31,-107.94 68.21,-107.9"/>
<polygon fill="#1414ce" stroke="#1414ce" points="69.69,-104.72 59.09,-104.56 67.28,-111.29 69.69,-104.72"/>
</a>
</g>
</g>
<!-- 1&#45;&gt;2 -->
<g id="edge3" class="edge">
<title>1&#45;&gt;2</title>
<g id="a_edge3"><a xlink:title="include">
<path fill="none" stroke="#1414ce" d="M245.59,-143.98C219.34,-134.68 186.27,-122.69 149.35,-108.25"/>
<polygon fill="#1414ce" stroke="#1414ce" points="150.46,-104.93 139.88,-104.52 147.9,-111.44 150.46,-104.93"/>
</a>
</g>
</g>
<!-- 1&#45;&gt;7 -->
<g id="edge8" class="edge">
<title>1&#45;&gt;7</title>
<g id="a_edge8"><a xlink:title="include">
<path fill="none" stroke="#1414ce" d="M280.9,-143.7C274.38,-135.39 266.43,-125.28 259.25,-116.14"/>
<polygon fill="#1414ce" stroke="#1414ce" points="261.87,-113.81 252.94,-108.1 256.37,-118.13 261.87,-113.81"/>
</a>
</g>
</g>
<!-- 1&#45;&gt;4 -->
<g id="edge5" class="edge">
<title>1&#45;&gt;4</title>
<g id="a_edge5"><a xlink:title="include">
<path fill="none" stroke="#1414ce" d="M308.37,-143.87C328.49,-119.03 365.89,-72.85 389.14,-44.14"/>
<polygon fill="#1414ce" stroke="#1414ce" points="392.01,-46.16 395.58,-36.19 386.57,-41.76 392.01,-46.16"/>
</a>
</g>
</g>
<!-- 1&#45;&gt;6 -->
<g id="edge7" class="edge">
<title>1&#45;&gt;6</title>
<g id="a_edge7"><a xlink:title="include">
<path fill="none" stroke="#1414ce" d="M337.55,-143.88C361.83,-134.22 392.34,-122.09 418.01,-111.88"/>
<polygon fill="#1414ce" stroke="#1414ce" points="419.59,-115.02 427.59,-108.07 417,-108.51 419.59,-115.02"/>
</a>
</g>
</g>
<!-- 1&#45;&gt;5 -->
<g id="edge6" class="edge">
<title>1&#45;&gt;5</title>
<g id="a_edge6"><a xlink:title="include">
<path fill="none" stroke="#1414ce" d="M363.61,-150.64C418.11,-141.83 496.11,-127.84 572.15,-108.19"/>
<polygon fill="#1414ce" stroke="#1414ce" points="573.1,-111.55 581.89,-105.63 571.33,-104.78 573.1,-111.55"/>
</a>
</g>
</g>
</g>
</svg>
