<?xml version="1.0" encoding="UTF-8" standalone="no"?>
<!DOCTYPE svg PUBLIC "-//W3C//DTD SVG 1.1//EN"
 "http://www.w3.org/Graphics/SVG/1.1/DTD/svg11.dtd">
<!-- Generated by graphviz version 2.43.0 (0)
 -->
<!-- Title: %3 Pages: 1 -->
<svg width="476pt" height="260pt"
 viewBox="0.00 0.00 475.50 260.00" xmlns="http://www.w3.org/2000/svg" xmlns:xlink="http://www.w3.org/1999/xlink">
<g id="graph0" class="graph" transform="scale(1 1) rotate(0) translate(4 256)">
<title>%3</title>
<polygon fill="transparent" stroke="transparent" points="-4,4 -4,-256 471.5,-256 471.5,4 -4,4"/>
<!-- 3 -->
<g id="node1" class="node">
<title>3</title>
<g id="a_node1"><a xlink:title="O3DS::Connector">
<polygon fill="#ffffff" stroke="black" points="284,-36 144,-36 144,0 284,0 284,-36"/>
<text text-anchor="middle" x="214" y="-14.3" font-family="Times,serif" font-size="14.00">O3DS::Connector</text>
</a>
</g>
</g>
<!-- 5 -->
<g id="node2" class="node">
<title>5</title>
<g id="a_node2"><a xlink:title="O3DS::WebsocketClient">
<polygon fill="#ffffff" stroke="black" points="186,-252 0,-252 0,-216 186,-216 186,-252"/>
<text text-anchor="middle" x="93" y="-230.3" font-family="Times,serif" font-size="14.00">O3DS::WebsocketClient</text>
</a>
</g>
</g>
<!-- 1 -->
<g id="node5" class="node">
<title>1</title>
<g id="a_node5"><a xlink:title="O3DS::Websocket">
<polygon fill="#bfbfbf" stroke="black" points="285.5,-180 142.5,-180 142.5,-144 285.5,-144 285.5,-180"/>
<text text-anchor="middle" x="214" y="-158.3" font-family="Times,serif" font-size="14.00">O3DS::Websocket</text>
</a>
</g>
</g>
<!-- 5&#45;&gt;1 -->
<g id="edge1" class="edge">
<title>5&#45;&gt;1</title>
<g id="a_edge1"><a xlink:title="public&#45;inheritance">
<path fill="none" stroke="#1414ce" d="M122.6,-215.88C138.57,-206.64 158.46,-195.13 175.61,-185.21"/>
<polygon fill="#1414ce" stroke="#1414ce" points="177.38,-188.23 184.29,-180.19 173.88,-182.17 177.38,-188.23"/>
</a>
</g>
</g>
<!-- 4 -->
<g id="node3" class="node">
<title>4</title>
<g id="a_node3"><a xlink:title="O3DS::WebsocketBroadcastServer">
<polygon fill="#ffffff" stroke="black" points="467.5,-252 204.5,-252 204.5,-216 467.5,-216 467.5,-252"/>
<text text-anchor="middle" x="336" y="-230.3" font-family="Times,serif" font-size="14.00">O3DS::WebsocketBroadcastServer</text>
</a>
</g>
</g>
<!-- 4&#45;&gt;1 -->
<g id="edge2" class="edge">
<title>4&#45;&gt;1</title>
<g id="a_edge2"><a xlink:title="public&#45;inheritance">
<path fill="none" stroke="#1414ce" d="M306.16,-215.88C290.06,-206.64 270,-195.13 252.71,-185.21"/>
<polygon fill="#1414ce" stroke="#1414ce" points="254.37,-182.13 243.96,-180.19 250.89,-188.2 254.37,-182.13"/>
</a>
</g>
</g>
<!-- 2 -->
<g id="node4" class="node">
<title>2</title>
<g id="a_node4"><a xlink:title="O3DS::AsyncConnector">
<polygon fill="#ffffff" stroke="black" points="305,-108 123,-108 123,-72 305,-72 305,-108"/>
<text text-anchor="middle" x="214" y="-86.3" font-family="Times,serif" font-size="14.00">O3DS::AsyncConnector</text>
</a>
</g>
</g>
<!-- 2&#45;&gt;3 -->
<g id="edge3" class="edge">
<title>2&#45;&gt;3</title>
<g id="a_edge3"><a xlink:title="public&#45;inheritance">
<path fill="none" stroke="#1414ce" d="M214,-71.7C214,-63.98 214,-54.71 214,-46.11"/>
<polygon fill="#1414ce" stroke="#1414ce" points="217.5,-46.1 214,-36.1 210.5,-46.1 217.5,-46.1"/>
</a>
</g>
</g>
<!-- 1&#45;&gt;2 -->
<g id="edge4" class="edge">
<title>1&#45;&gt;2</title>
<g id="a_edge4"><a xlink:title="public&#45;inheritance">
<path fill="none" stroke="#1414ce" d="M214,-143.7C214,-135.98 214,-126.71 214,-118.11"/>
<polygon fill="#1414ce" stroke="#1414ce" points="217.5,-118.1 214,-108.1 210.5,-118.1 217.5,-118.1"/>
</a>
</g>
</g>
</g>
</svg>
