<?xml version="1.0" encoding="UTF-8" standalone="no"?>
<!DOCTYPE svg PUBLIC "-//W3C//DTD SVG 1.1//EN"
 "http://www.w3.org/Graphics/SVG/1.1/DTD/svg11.dtd">
<!-- Generated by graphviz version 2.43.0 (0)
 -->
<!-- Title: %3 Pages: 1 -->
<svg width="716pt" height="260pt"
 viewBox="0.00 0.00 716.00 260.00" xmlns="http://www.w3.org/2000/svg" xmlns:xlink="http://www.w3.org/1999/xlink">
<g id="graph0" class="graph" transform="scale(1 1) rotate(0) translate(4 256)">
<title>%3</title>
<polygon fill="transparent" stroke="transparent" points="-4,4 -4,-256 712,-256 712,4 -4,4"/>
<!-- 11 -->
<g id="node1" class="node">
<title>11</title>
<g id="a_node1"><a xlink:title="iterator">
<polygon fill="#ffffff" stroke="black" points="71,-180 0,-180 0,-144 71,-144 71,-180"/>
<text text-anchor="middle" x="35.5" y="-158.3" font-family="Times,serif" font-size="14.00">iterator</text>
</a>
</g>
</g>
<!-- 9 -->
<g id="node2" class="node">
<title>9</title>
<g id="a_node2"><a xlink:title="getTime.h">
<polygon fill="#ffffff" stroke="black" points="178,-180 89,-180 89,-144 178,-144 178,-180"/>
<text text-anchor="middle" x="133.5" y="-158.3" font-family="Times,serif" font-size="14.00">getTime.h</text>
</a>
</g>
</g>
<!-- 4 -->
<g id="node3" class="node">
<title>4</title>
<g id="a_node3"><a xlink:title="string">
<polygon fill="#ffffff" stroke="black" points="102,-108 43,-108 43,-72 102,-72 102,-108"/>
<text text-anchor="middle" x="72.5" y="-86.3" font-family="Times,serif" font-size="14.00">string</text>
</a>
</g>
</g>
<!-- 1 -->
<g id="node4" class="node">
<title>1</title>
<g id="a_node4"><a xlink:title="src/o3ds/model.cpp">
<polygon fill="#bfbfbf" stroke="black" points="264,-252 109,-252 109,-216 264,-216 264,-252"/>
<text text-anchor="middle" x="186.5" y="-230.3" font-family="Times,serif" font-size="14.00">src/o3ds/model.cpp</text>
</a>
</g>
</g>
<!-- 1&#45;&gt;11 -->
<g id="edge4" class="edge">
<title>1&#45;&gt;11</title>
<g id="a_edge4"><a xlink:title="include">
<path fill="none" stroke="#1414ce" d="M149.56,-215.88C128.63,-206.17 102.29,-193.96 80.2,-183.72"/>
<polygon fill="#1414ce" stroke="#1414ce" points="81.56,-180.5 71.02,-179.47 78.62,-186.85 81.56,-180.5"/>
</a>
</g>
</g>
<!-- 1&#45;&gt;9 -->
<g id="edge2" class="edge">
<title>1&#45;&gt;9</title>
<g id="a_edge2"><a xlink:title="include">
<path fill="none" stroke="#1414ce" d="M173.4,-215.7C167.11,-207.39 159.45,-197.28 152.54,-188.14"/>
<polygon fill="#1414ce" stroke="#1414ce" points="155.28,-185.96 146.45,-180.1 149.7,-190.19 155.28,-185.96"/>
</a>
</g>
</g>
<!-- 10 -->
<g id="node10" class="node">
<title>10</title>
<g id="a_node10"><a xlink:title="algorithm">
<polygon fill="#ffffff" stroke="black" points="282.5,-180 196.5,-180 196.5,-144 282.5,-144 282.5,-180"/>
<text text-anchor="middle" x="239.5" y="-158.3" font-family="Times,serif" font-size="14.00">algorithm</text>
</a>
</g>
</g>
<!-- 1&#45;&gt;10 -->
<g id="edge3" class="edge">
<title>1&#45;&gt;10</title>
<g id="a_edge3"><a xlink:title="include">
<path fill="none" stroke="#1414ce" d="M199.6,-215.7C205.89,-207.39 213.55,-197.28 220.46,-188.14"/>
<polygon fill="#1414ce" stroke="#1414ce" points="223.3,-190.19 226.55,-180.1 217.72,-185.96 223.3,-190.19"/>
</a>
</g>
</g>
<!-- 2 -->
<g id="node11" class="node">
<title>2</title>
<g id="a_node11"><a xlink:title="model.h">
<polygon fill="#ffffff" stroke="black" points="374.5,-180 300.5,-180 300.5,-144 374.5,-144 374.5,-180"/>
<text text-anchor="middle" x="337.5" y="-158.3" font-family="Times,serif" font-size="14.00">model.h</text>
</a>
</g>
</g>
<!-- 1&#45;&gt;2 -->
<g id="edge1" class="edge">
<title>1&#45;&gt;2</title>
<g id="a_edge1"><a xlink:title="include">
<path fill="none" stroke="#1414ce" d="M223.44,-215.88C243.99,-206.35 269.75,-194.41 291.59,-184.28"/>
<polygon fill="#1414ce" stroke="#1414ce" points="293.08,-187.45 300.68,-180.07 290.14,-181.1 293.08,-187.45"/>
</a>
</g>
</g>
<!-- 3 -->
<g id="node5" class="node">
<title>3</title>
<g id="a_node5"><a xlink:title="vector">
<polygon fill="#ffffff" stroke="black" points="182.5,-108 120.5,-108 120.5,-72 182.5,-72 182.5,-108"/>
<text text-anchor="middle" x="151.5" y="-86.3" font-family="Times,serif" font-size="14.00">vector</text>
</a>
</g>
</g>
<!-- 8 -->
<g id="node6" class="node">
<title>8</title>
<g id="a_node6"><a xlink:title="schema_generated.h">
<polygon fill="#ffffff" stroke="black" points="364.5,-108 200.5,-108 200.5,-72 364.5,-72 364.5,-108"/>
<text text-anchor="middle" x="282.5" y="-86.3" font-family="Times,serif" font-size="14.00">schema_generated.h</text>
</a>
</g>
</g>
<!-- 5 -->
<g id="node7" class="node">
<title>5</title>
<g id="a_node7"><a xlink:title="math.h">
<polygon fill="#ffffff" stroke="black" points="486,-36 419,-36 419,0 486,0 486,-36"/>
<text text-anchor="middle" x="452.5" y="-14.3" font-family="Times,serif" font-size="14.00">math.h</text>
</a>
</g>
</g>
<!-- 5&#45;&gt;5 -->
<g id="edge5" class="edge">
<title>5&#45;&gt;5</title>
<g id="a_edge5"><a xlink:title="include">
<path fill="none" stroke="#1414ce" d="M486.18,-31.47C496.2,-31.07 504,-26.58 504,-18 504,-12.64 500.95,-8.87 496.22,-6.71"/>
<polygon fill="#1414ce" stroke="#1414ce" points="496.7,-3.23 486.18,-4.53 495.21,-10.07 496.7,-3.23"/>
</a>
</g>
</g>
<!-- 7 -->
<g id="node8" class="node">
<title>7</title>
<g id="a_node8"><a xlink:title="transform_component.h">
<polygon fill="#ffffff" stroke="black" points="607,-108 420,-108 420,-72 607,-72 607,-108"/>
<text text-anchor="middle" x="513.5" y="-86.3" font-family="Times,serif" font-size="14.00">transform_component.h</text>
</a>
</g>
</g>
<!-- 7&#45;&gt;5 -->
<g id="edge6" class="edge">
<title>7&#45;&gt;5</title>
<g id="a_edge6"><a xlink:title="include">
<path fill="none" stroke="#1414ce" d="M498.42,-71.7C491.11,-63.3 482.19,-53.07 474.16,-43.86"/>
<polygon fill="#1414ce" stroke="#1414ce" points="476.61,-41.34 467.41,-36.1 471.34,-45.94 476.61,-41.34"/>
</a>
</g>
</g>
<!-- 6 -->
<g id="node9" class="node">
<title>6</title>
<g id="a_node9"><a xlink:title="context.h">
<polygon fill="#ffffff" stroke="black" points="708,-108 625,-108 625,-72 708,-72 708,-108"/>
<text text-anchor="middle" x="666.5" y="-86.3" font-family="Times,serif" font-size="14.00">context.h</text>
</a>
</g>
</g>
<!-- 2&#45;&gt;4 -->
<g id="edge8" class="edge">
<title>2&#45;&gt;4</title>
<g id="a_edge8"><a xlink:title="include">
<path fill="none" stroke="#1414ce" d="M300.26,-146.68C297.31,-145.72 294.37,-144.81 291.5,-144 213,-121.79 189.34,-132.44 111.5,-108 111.4,-107.97 111.31,-107.94 111.21,-107.91"/>
<polygon fill="#1414ce" stroke="#1414ce" points="112.66,-104.71 102.06,-104.66 110.32,-111.3 112.66,-104.71"/>
</a>
</g>
</g>
<!-- 2&#45;&gt;3 -->
<g id="edge7" class="edge">
<title>2&#45;&gt;3</title>
<g id="a_edge7"><a xlink:title="include">
<path fill="none" stroke="#1414ce" d="M300.35,-147.24C297.36,-146.14 294.38,-145.05 291.5,-144 249.9,-128.82 237.06,-125.62 192.28,-108.21"/>
<polygon fill="#1414ce" stroke="#1414ce" points="193.46,-104.92 182.87,-104.53 190.91,-111.43 193.46,-104.92"/>
</a>
</g>
</g>
<!-- 2&#45;&gt;8 -->
<g id="edge12" class="edge">
<title>2&#45;&gt;8</title>
<g id="a_edge12"><a xlink:title="include">
<path fill="none" stroke="#1414ce" d="M323.9,-143.7C317.38,-135.39 309.43,-125.28 302.25,-116.14"/>
<polygon fill="#1414ce" stroke="#1414ce" points="304.87,-113.81 295.94,-108.1 299.37,-118.13 304.87,-113.81"/>
</a>
</g>
</g>
<!-- 2&#45;&gt;5 -->
<g id="edge9" class="edge">
<title>2&#45;&gt;5</title>
<g id="a_edge9"><a xlink:title="include">
<path fill="none" stroke="#1414ce" d="M351.37,-143.87C371.49,-119.03 408.89,-72.85 432.14,-44.14"/>
<polygon fill="#1414ce" stroke="#1414ce" points="435.01,-46.16 438.58,-36.19 429.57,-41.76 435.01,-46.16"/>
</a>
</g>
</g>
<!-- 2&#45;&gt;7 -->
<g id="edge11" class="edge">
<title>2&#45;&gt;7</title>
<g id="a_edge11"><a xlink:title="include">
<path fill="none" stroke="#1414ce" d="M374.83,-146.15C399.92,-136.17 433.35,-122.88 461.1,-111.84"/>
<polygon fill="#1414ce" stroke="#1414ce" points="462.66,-114.99 470.66,-108.04 460.07,-108.48 462.66,-114.99"/>
</a>
</g>
</g>
<!-- 2&#45;&gt;6 -->
<g id="edge10" class="edge">
<title>2&#45;&gt;6</title>
<g id="a_edge10"><a xlink:title="include">
<path fill="none" stroke="#1414ce" d="M374.88,-155.61C426.86,-147.73 524.02,-131.68 614.98,-108.23"/>
<polygon fill="#1414ce" stroke="#1414ce" points="616.1,-111.55 624.89,-105.63 614.33,-104.78 616.1,-111.55"/>
</a>
</g>
</g>
</g>
</svg>
