<?xml version="1.0" encoding="UTF-8" standalone="no"?>
<!DOCTYPE svg PUBLIC "-//W3C//DTD SVG 1.1//EN"
 "http://www.w3.org/Graphics/SVG/1.1/DTD/svg11.dtd">
<!-- Generated by graphviz version 2.43.0 (0)
 -->
<!-- Title: %3 Pages: 1 -->
<svg width="863pt" height="332pt"
 viewBox="0.00 0.00 862.50 332.00" xmlns="http://www.w3.org/2000/svg" xmlns:xlink="http://www.w3.org/1999/xlink">
<g id="graph0" class="graph" transform="scale(1 1) rotate(0) translate(4 328)">
<title>%3</title>
<polygon fill="transparent" stroke="transparent" points="-4,4 -4,-328 858.5,-328 858.5,4 -4,4"/>
<!-- 4 -->
<g id="node1" class="node">
<title>4</title>
<g id="a_node1"><a xlink:title="O3DS::Connector">
<polygon fill="#ffffff" stroke="black" points="541,-108 401,-108 401,-72 541,-72 541,-108"/>
<text text-anchor="middle" x="471" y="-86.3" font-family="Times,serif" font-size="14.00">O3DS::Connector</text>
</a>
</g>
</g>
<!-- 6 -->
<g id="node5" class="node">
<title>6</title>
<g id="a_node5"><a xlink:title="string">
<polygon fill="#ffffff" stroke="black" points="391.5,-36 332.5,-36 332.5,0 391.5,0 391.5,-36"/>
<text text-anchor="middle" x="362" y="-14.3" font-family="Times,serif" font-size="14.00">string</text>
</a>
</g>
</g>
<!-- 4&#45;&gt;6 -->
<g id="edge2" class="edge">
<title>4&#45;&gt;6</title>
<g id="a_edge2"><a xlink:title="usage">
<path fill="none" stroke="#1414ce" d="M444.34,-71.88C430.22,-62.81 412.69,-51.55 397.44,-41.76"/>
<polygon fill="#1414ce" stroke="#1414ce" points="399.07,-38.65 388.77,-36.19 395.29,-44.54 399.07,-38.65"/>
</a>
</g>
</g>
<!-- 5 -->
<g id="node8" class="node">
<title>5</title>
<g id="a_node8"><a xlink:title="enum eState">
<polygon fill="#ffffff" stroke="black" points="524.5,-36 417.5,-36 417.5,0 524.5,0 524.5,-36"/>
<text text-anchor="middle" x="471" y="-14.3" font-family="Times,serif" font-size="14.00">enum eState</text>
</a>
</g>
</g>
<!-- 4&#45;&gt;5 -->
<g id="edge1" class="edge">
<title>4&#45;&gt;5</title>
<g id="a_edge1"><a xlink:title="usage">
<path fill="none" stroke="#1414ce" d="M471,-71.7C471,-63.98 471,-54.71 471,-46.11"/>
<polygon fill="#1414ce" stroke="#1414ce" points="474.5,-46.1 471,-36.1 467.5,-46.1 474.5,-46.1"/>
</a>
</g>
</g>
<!-- 8 -->
<g id="node2" class="node">
<title>8</title>
<g id="a_node2"><a xlink:title="void *">
<polygon fill="#ffffff" stroke="black" points="621,-108 563,-108 563,-72 621,-72 621,-108"/>
<text text-anchor="middle" x="592" y="-86.3" font-family="Times,serif" font-size="14.00">void *</text>
</a>
</g>
</g>
<!-- 1 -->
<g id="node3" class="node">
<title>1</title>
<g id="a_node3"><a xlink:title="O3DS::WebsocketClient">
<polygon fill="#bfbfbf" stroke="black" points="439,-324 253,-324 253,-288 439,-288 439,-324"/>
<text text-anchor="middle" x="346" y="-302.3" font-family="Times,serif" font-size="14.00">O3DS::WebsocketClient</text>
</a>
</g>
</g>
<!-- 10 -->
<g id="node4" class="node">
<title>10</title>
<g id="a_node4"><a xlink:title="client&lt; websocketpp::config::asio_client &gt;">
<polygon fill="#ffffff" stroke="black" points="318,-252 0,-252 0,-216 318,-216 318,-252"/>
<text text-anchor="middle" x="159" y="-230.3" font-family="Times,serif" font-size="14.00">client&lt; websocketpp::config::asio_client &gt;</text>
</a>
</g>
</g>
<!-- 1&#45;&gt;10 -->
<g id="edge4" class="edge">
<title>1&#45;&gt;10</title>
<g id="a_edge4"><a xlink:title="usage">
<path fill="none" stroke="#1414ce" d="M300.25,-287.88C274.24,-278.14 241.47,-265.87 214.05,-255.61"/>
<polygon fill="#1414ce" stroke="#1414ce" points="215.19,-252.3 204.6,-252.07 212.74,-258.85 215.19,-252.3"/>
</a>
</g>
</g>
<!-- 1&#45;&gt;6 -->
<g id="edge5" class="edge">
<title>1&#45;&gt;6</title>
<g id="a_edge5"><a xlink:title="usage">
<path fill="none" stroke="#1414ce" d="M346.95,-287.97C349.62,-240.29 357.18,-105.18 360.45,-46.63"/>
<polygon fill="#1414ce" stroke="#1414ce" points="363.97,-46.49 361.03,-36.31 356.98,-46.1 363.97,-46.49"/>
</a>
</g>
</g>
<!-- 2 -->
<g id="node10" class="node">
<title>2</title>
<g id="a_node10"><a xlink:title="O3DS::Websocket">
<polygon fill="#ffffff" stroke="black" points="517.5,-252 374.5,-252 374.5,-216 517.5,-216 517.5,-252"/>
<text text-anchor="middle" x="446" y="-230.3" font-family="Times,serif" font-size="14.00">O3DS::Websocket</text>
</a>
</g>
</g>
<!-- 1&#45;&gt;2 -->
<g id="edge3" class="edge">
<title>1&#45;&gt;2</title>
<g id="a_edge3"><a xlink:title="public&#45;inheritance">
<path fill="none" stroke="#1414ce" d="M370.46,-287.88C383.3,-278.89 399.2,-267.76 413.09,-258.03"/>
<polygon fill="#1414ce" stroke="#1414ce" points="415.26,-260.79 421.44,-252.19 411.24,-255.06 415.26,-260.79"/>
</a>
</g>
</g>
<!-- 9 -->
<g id="node6" class="node">
<title>9</title>
<g id="a_node6"><a xlink:title="thread_group">
<polygon fill="#ffffff" stroke="black" points="487.5,-180 374.5,-180 374.5,-144 487.5,-144 487.5,-180"/>
<text text-anchor="middle" x="431" y="-158.3" font-family="Times,serif" font-size="14.00">thread_group</text>
</a>
</g>
</g>
<!-- 7 -->
<g id="node7" class="node">
<title>7</title>
<g id="a_node7"><a xlink:title="void(*)(void *, void *, size_t)">
<polygon fill="#ffffff" stroke="black" points="854.5,-108 639.5,-108 639.5,-72 854.5,-72 854.5,-108"/>
<text text-anchor="middle" x="747" y="-86.3" font-family="Times,serif" font-size="14.00">void(*)(void *, void *, size_t)</text>
</a>
</g>
</g>
<!-- 3 -->
<g id="node9" class="node">
<title>3</title>
<g id="a_node9"><a xlink:title="O3DS::AsyncConnector">
<polygon fill="#ffffff" stroke="black" points="688,-180 506,-180 506,-144 688,-144 688,-180"/>
<text text-anchor="middle" x="597" y="-158.3" font-family="Times,serif" font-size="14.00">O3DS::AsyncConnector</text>
</a>
</g>
</g>
<!-- 3&#45;&gt;4 -->
<g id="edge6" class="edge">
<title>3&#45;&gt;4</title>
<g id="a_edge6"><a xlink:title="public&#45;inheritance">
<path fill="none" stroke="#1414ce" d="M566.18,-143.88C549.55,-134.64 528.84,-123.13 510.98,-113.21"/>
<polygon fill="#1414ce" stroke="#1414ce" points="512.38,-109.99 501.94,-108.19 508.98,-116.11 512.38,-109.99"/>
</a>
</g>
</g>
<!-- 3&#45;&gt;8 -->
<g id="edge8" class="edge">
<title>3&#45;&gt;8</title>
<g id="a_edge8"><a xlink:title="usage">
<path fill="none" stroke="#1414ce" d="M595.76,-143.7C595.21,-135.98 594.55,-126.71 593.94,-118.11"/>
<polygon fill="#1414ce" stroke="#1414ce" points="597.43,-117.83 593.22,-108.1 590.44,-118.33 597.43,-117.83"/>
</a>
</g>
</g>
<!-- 3&#45;&gt;7 -->
<g id="edge7" class="edge">
<title>3&#45;&gt;7</title>
<g id="a_edge7"><a xlink:title="usage">
<path fill="none" stroke="#1414ce" d="M633.69,-143.88C654.02,-134.39 679.47,-122.51 701.1,-112.42"/>
<polygon fill="#1414ce" stroke="#1414ce" points="702.84,-115.47 710.43,-108.07 699.88,-109.13 702.84,-115.47"/>
</a>
</g>
</g>
<!-- 2&#45;&gt;9 -->
<g id="edge10" class="edge">
<title>2&#45;&gt;9</title>
<g id="a_edge10"><a xlink:title="usage">
<path fill="none" stroke="#1414ce" d="M442.29,-215.7C440.64,-207.98 438.65,-198.71 436.81,-190.11"/>
<polygon fill="#1414ce" stroke="#1414ce" points="440.18,-189.15 434.67,-180.1 433.34,-190.62 440.18,-189.15"/>
</a>
</g>
</g>
<!-- 2&#45;&gt;3 -->
<g id="edge9" class="edge">
<title>2&#45;&gt;3</title>
<g id="a_edge9"><a xlink:title="public&#45;inheritance">
<path fill="none" stroke="#1414ce" d="M482.94,-215.88C503.49,-206.35 529.25,-194.41 551.09,-184.28"/>
<polygon fill="#1414ce" stroke="#1414ce" points="552.58,-187.45 560.18,-180.07 549.64,-181.1 552.58,-187.45"/>
</a>
</g>
</g>
</g>
</svg>
