<?xml version="1.0" encoding="UTF-8" standalone="no"?>
<!DOCTYPE svg PUBLIC "-//W3C//DTD SVG 1.1//EN"
 "http://www.w3.org/Graphics/SVG/1.1/DTD/svg11.dtd">
<!-- Generated by graphviz version 2.43.0 (0)
 -->
<!-- Title: %3 Pages: 1 -->
<svg width="342pt" height="332pt"
 viewBox="0.00 0.00 342.00 332.00" xmlns="http://www.w3.org/2000/svg" xmlns:xlink="http://www.w3.org/1999/xlink">
<g id="graph0" class="graph" transform="scale(1 1) rotate(0) translate(4 328)">
<title>%3</title>
<polygon fill="transparent" stroke="transparent" points="-4,4 -4,-328 338,-328 338,4 -4,4"/>
<!-- 4 -->
<g id="node1" class="node">
<title>4</title>
<g id="a_node1"><a xlink:title="O3DS::Connector">
<polygon fill="#ffffff" stroke="black" points="241.5,-36 101.5,-36 101.5,0 241.5,0 241.5,-36"/>
<text text-anchor="middle" x="171.5" y="-14.3" font-family="Times,serif" font-size="14.00">O3DS::Connector</text>
</a>
</g>
</g>
<!-- 2 -->
<g id="node2" class="node">
<title>2</title>
<g id="a_node2"><a xlink:title="O3DS::AsyncNngConnector">
<polygon fill="#ffffff" stroke="black" points="277.5,-180 65.5,-180 65.5,-144 277.5,-144 277.5,-180"/>
<text text-anchor="middle" x="171.5" y="-158.3" font-family="Times,serif" font-size="14.00">O3DS::AsyncNngConnector</text>
</a>
</g>
</g>
<!-- 3 -->
<g id="node6" class="node">
<title>3</title>
<g id="a_node6"><a xlink:title="O3DS::AsyncConnector">
<polygon fill="#ffffff" stroke="black" points="262.5,-108 80.5,-108 80.5,-72 262.5,-72 262.5,-108"/>
<text text-anchor="middle" x="171.5" y="-86.3" font-family="Times,serif" font-size="14.00">O3DS::AsyncConnector</text>
</a>
</g>
</g>
<!-- 2&#45;&gt;3 -->
<g id="edge1" class="edge">
<title>2&#45;&gt;3</title>
<g id="a_edge1"><a xlink:title="public&#45;inheritance">
<path fill="none" stroke="#1414ce" d="M171.5,-143.7C171.5,-135.98 171.5,-126.71 171.5,-118.11"/>
<polygon fill="#1414ce" stroke="#1414ce" points="175,-118.1 171.5,-108.1 168,-118.1 175,-118.1"/>
</a>
</g>
</g>
<!-- 6 -->
<g id="node3" class="node">
<title>6</title>
<g id="a_node3"><a xlink:title="O3DS::AsyncRequest">
<polygon fill="#ffffff" stroke="black" points="167,-324 0,-324 0,-288 167,-288 167,-324"/>
<text text-anchor="middle" x="83.5" y="-302.3" font-family="Times,serif" font-size="14.00">O3DS::AsyncRequest</text>
</a>
</g>
</g>
<!-- 1 -->
<g id="node5" class="node">
<title>1</title>
<g id="a_node5"><a xlink:title="O3DS::AsyncRequestReply">
<polygon fill="#bfbfbf" stroke="black" points="275.5,-252 67.5,-252 67.5,-216 275.5,-216 275.5,-252"/>
<text text-anchor="middle" x="171.5" y="-230.3" font-family="Times,serif" font-size="14.00">O3DS::AsyncRequestReply</text>
</a>
</g>
</g>
<!-- 6&#45;&gt;1 -->
<g id="edge2" class="edge">
<title>6&#45;&gt;1</title>
<g id="a_edge2"><a xlink:title="public&#45;inheritance">
<path fill="none" stroke="#1414ce" d="M105.25,-287.7C116.34,-278.88 129.97,-268.03 141.99,-258.47"/>
<polygon fill="#1414ce" stroke="#1414ce" points="144.35,-261.07 150,-252.1 139.99,-255.59 144.35,-261.07"/>
</a>
</g>
</g>
<!-- 5 -->
<g id="node4" class="node">
<title>5</title>
<g id="a_node4"><a xlink:title="O3DS::AsyncReply">
<polygon fill="#ffffff" stroke="black" points="334,-324 185,-324 185,-288 334,-288 334,-324"/>
<text text-anchor="middle" x="259.5" y="-302.3" font-family="Times,serif" font-size="14.00">O3DS::AsyncReply</text>
</a>
</g>
</g>
<!-- 5&#45;&gt;1 -->
<g id="edge3" class="edge">
<title>5&#45;&gt;1</title>
<g id="a_edge3"><a xlink:title="public&#45;inheritance">
<path fill="none" stroke="#1414ce" d="M237.75,-287.7C226.66,-278.88 213.03,-268.03 201.01,-258.47"/>
<polygon fill="#1414ce" stroke="#1414ce" points="203.01,-255.59 193,-252.1 198.65,-261.07 203.01,-255.59"/>
</a>
</g>
</g>
<!-- 1&#45;&gt;2 -->
<g id="edge4" class="edge">
<title>1&#45;&gt;2</title>
<g id="a_edge4"><a xlink:title="public&#45;inheritance">
<path fill="none" stroke="#1414ce" d="M171.5,-215.7C171.5,-207.98 171.5,-198.71 171.5,-190.11"/>
<polygon fill="#1414ce" stroke="#1414ce" points="175,-190.1 171.5,-180.1 168,-190.1 175,-190.1"/>
</a>
</g>
</g>
<!-- 3&#45;&gt;4 -->
<g id="edge5" class="edge">
<title>3&#45;&gt;4</title>
<g id="a_edge5"><a xlink:title="public&#45;inheritance">
<path fill="none" stroke="#1414ce" d="M171.5,-71.7C171.5,-63.98 171.5,-54.71 171.5,-46.11"/>
<polygon fill="#1414ce" stroke="#1414ce" points="175,-46.1 171.5,-36.1 168,-46.1 175,-46.1"/>
</a>
</g>
</g>
</g>
</svg>
