<?xml version="1.0" encoding="UTF-8" standalone="no"?>
<!DOCTYPE svg PUBLIC "-//W3C//DTD SVG 1.1//EN"
 "http://www.w3.org/Graphics/SVG/1.1/DTD/svg11.dtd">
<!-- Generated by graphviz version 2.43.0 (0)
 -->
<!-- Title: %3 Pages: 1 -->
<svg width="444pt" height="332pt"
 viewBox="0.00 0.00 443.50 332.00" xmlns="http://www.w3.org/2000/svg" xmlns:xlink="http://www.w3.org/1999/xlink">
<g id="graph0" class="graph" transform="scale(1 1) rotate(0) translate(4 328)">
<title>%3</title>
<polygon fill="transparent" stroke="transparent" points="-4,4 -4,-328 439.5,-328 439.5,4 -4,4"/>
<!-- 2 -->
<g id="node1" class="node">
<title>2</title>
<g id="a_node1"><a xlink:title="async_request.h">
<polygon fill="#ffffff" stroke="black" points="206.5,-252 74.5,-252 74.5,-216 206.5,-216 206.5,-252"/>
<text text-anchor="middle" x="140.5" y="-230.3" font-family="Times,serif" font-size="14.00">async_request.h</text>
</a>
</g>
</g>
<!-- 3 -->
<g id="node2" class="node">
<title>3</title>
<g id="a_node2"><a xlink:title="nng/nng.h">
<polygon fill="#ffffff" stroke="black" points="89,-36 0,-36 0,0 89,0 89,-36"/>
<text text-anchor="middle" x="44.5" y="-14.3" font-family="Times,serif" font-size="14.00">nng/nng.h</text>
</a>
</g>
</g>
<!-- 2&#45;&gt;3 -->
<g id="edge1" class="edge">
<title>2&#45;&gt;3</title>
<g id="a_edge1"><a xlink:title="include">
<path fill="none" stroke="#1414ce" d="M103.85,-215.97C89.23,-207.28 73.72,-195.29 64.5,-180 39.56,-138.65 39.05,-80.47 41.44,-46.56"/>
<polygon fill="#1414ce" stroke="#1414ce" points="44.94,-46.71 42.29,-36.45 37.97,-46.12 44.94,-46.71"/>
</a>
</g>
</g>
<!-- 4 -->
<g id="node4" class="node">
<title>4</title>
<g id="a_node4"><a xlink:title="nng/protocol/reqrep0/req.h">
<polygon fill="#ffffff" stroke="black" points="435.5,-180 225.5,-180 225.5,-144 435.5,-144 435.5,-180"/>
<text text-anchor="middle" x="330.5" y="-158.3" font-family="Times,serif" font-size="14.00">nng/protocol/reqrep0/req.h</text>
</a>
</g>
</g>
<!-- 2&#45;&gt;4 -->
<g id="edge2" class="edge">
<title>2&#45;&gt;4</title>
<g id="a_edge2"><a xlink:title="include">
<path fill="none" stroke="#1414ce" d="M186.98,-215.88C213.42,-206.14 246.7,-193.87 274.56,-183.61"/>
<polygon fill="#1414ce" stroke="#1414ce" points="276,-186.81 284.17,-180.07 273.58,-180.24 276,-186.81"/>
</a>
</g>
</g>
<!-- 5 -->
<g id="node7" class="node">
<title>5</title>
<g id="a_node7"><a xlink:title="nng_connector.h">
<polygon fill="#ffffff" stroke="black" points="207,-180 74,-180 74,-144 207,-144 207,-180"/>
<text text-anchor="middle" x="140.5" y="-158.3" font-family="Times,serif" font-size="14.00">nng_connector.h</text>
</a>
</g>
</g>
<!-- 2&#45;&gt;5 -->
<g id="edge3" class="edge">
<title>2&#45;&gt;5</title>
<g id="a_edge3"><a xlink:title="include">
<path fill="none" stroke="#1414ce" d="M140.5,-215.7C140.5,-207.98 140.5,-198.71 140.5,-190.11"/>
<polygon fill="#1414ce" stroke="#1414ce" points="144,-190.1 140.5,-180.1 137,-190.1 144,-190.1"/>
</a>
</g>
</g>
<!-- 6 -->
<g id="node3" class="node">
<title>6</title>
<g id="a_node3"><a xlink:title="string">
<polygon fill="#ffffff" stroke="black" points="176,-36 117,-36 117,0 176,0 176,-36"/>
<text text-anchor="middle" x="146.5" y="-14.3" font-family="Times,serif" font-size="14.00">string</text>
</a>
</g>
</g>
<!-- 1 -->
<g id="node5" class="node">
<title>1</title>
<g id="a_node5"><a xlink:title="src/o3ds/async_request.cpp">
<polygon fill="#bfbfbf" stroke="black" points="247,-324 34,-324 34,-288 247,-288 247,-324"/>
<text text-anchor="middle" x="140.5" y="-302.3" font-family="Times,serif" font-size="14.00">src/o3ds/async_request.cpp</text>
</a>
</g>
</g>
<!-- 1&#45;&gt;2 -->
<g id="edge4" class="edge">
<title>1&#45;&gt;2</title>
<g id="a_edge4"><a xlink:title="include">
<path fill="none" stroke="#1414ce" d="M140.5,-287.7C140.5,-279.98 140.5,-270.71 140.5,-262.11"/>
<polygon fill="#1414ce" stroke="#1414ce" points="144,-262.1 140.5,-252.1 137,-262.1 144,-262.1"/>
</a>
</g>
</g>
<!-- 7 -->
<g id="node6" class="node">
<title>7</title>
<g id="a_node6"><a xlink:title="vector">
<polygon fill="#ffffff" stroke="black" points="261.5,-36 199.5,-36 199.5,0 261.5,0 261.5,-36"/>
<text text-anchor="middle" x="230.5" y="-14.3" font-family="Times,serif" font-size="14.00">vector</text>
</a>
</g>
</g>
<!-- 5&#45;&gt;3 -->
<g id="edge9" class="edge">
<title>5&#45;&gt;3</title>
<g id="a_edge9"><a xlink:title="include">
<path fill="none" stroke="#1414ce" d="M123.8,-143.59C114.62,-133.59 103.34,-120.55 94.5,-108 80.38,-87.95 66.92,-63.57 57.53,-45.4"/>
<polygon fill="#1414ce" stroke="#1414ce" points="60.4,-43.34 52.75,-36.01 54.17,-46.51 60.4,-43.34"/>
</a>
</g>
</g>
<!-- 5&#45;&gt;6 -->
<g id="edge5" class="edge">
<title>5&#45;&gt;6</title>
<g id="a_edge5"><a xlink:title="include">
<path fill="none" stroke="#1414ce" d="M123.61,-143.99C115.21,-134.31 105.92,-121.46 101.5,-108 96.51,-92.8 95.98,-87.02 101.5,-72 105.28,-61.7 112.06,-52.02 119.22,-43.84"/>
<polygon fill="#1414ce" stroke="#1414ce" points="121.84,-46.16 126.12,-36.47 116.73,-41.38 121.84,-46.16"/>
</a>
</g>
</g>
<!-- 5&#45;&gt;7 -->
<g id="edge6" class="edge">
<title>5&#45;&gt;7</title>
<g id="a_edge6"><a xlink:title="include">
<path fill="none" stroke="#1414ce" d="M207.13,-146.1C227.06,-138.2 246.73,-126.19 258.5,-108 270.98,-88.72 261.04,-63.49 249.69,-44.82"/>
<polygon fill="#1414ce" stroke="#1414ce" points="252.49,-42.7 244.1,-36.24 246.63,-46.53 252.49,-42.7"/>
</a>
</g>
</g>
<!-- 8 -->
<g id="node8" class="node">
<title>8</title>
<g id="a_node8"><a xlink:title="mutex">
<polygon fill="#ffffff" stroke="black" points="344.5,-36 282.5,-36 282.5,0 344.5,0 344.5,-36"/>
<text text-anchor="middle" x="313.5" y="-14.3" font-family="Times,serif" font-size="14.00">mutex</text>
</a>
</g>
</g>
<!-- 5&#45;&gt;8 -->
<g id="edge7" class="edge">
<title>5&#45;&gt;8</title>
<g id="a_edge7"><a xlink:title="include">
<path fill="none" stroke="#1414ce" d="M207.24,-146.31C231.16,-138.29 256.8,-126.15 275.5,-108 292.66,-91.33 302.49,-65.67 307.83,-46.17"/>
<polygon fill="#1414ce" stroke="#1414ce" points="311.26,-46.9 310.29,-36.35 304.47,-45.2 311.26,-46.9"/>
</a>
</g>
</g>
<!-- 9 -->
<g id="node9" class="node">
<title>9</title>
<g id="a_node9"><a xlink:title="base_connector.h">
<polygon fill="#ffffff" stroke="black" points="250,-108 111,-108 111,-72 250,-72 250,-108"/>
<text text-anchor="middle" x="180.5" y="-86.3" font-family="Times,serif" font-size="14.00">base_connector.h</text>
</a>
</g>
</g>
<!-- 5&#45;&gt;9 -->
<g id="edge8" class="edge">
<title>5&#45;&gt;9</title>
<g id="a_edge8"><a xlink:title="include">
<path fill="none" stroke="#1414ce" d="M150.39,-143.7C154.99,-135.64 160.56,-125.89 165.65,-116.98"/>
<polygon fill="#1414ce" stroke="#1414ce" points="168.8,-118.52 170.73,-108.1 162.73,-115.05 168.8,-118.52"/>
</a>
</g>
</g>
<!-- 9&#45;&gt;3 -->
<g id="edge13" class="edge">
<title>9&#45;&gt;3</title>
<g id="a_edge13"><a xlink:title="include">
<path fill="none" stroke="#1414ce" d="M147.23,-71.88C129.04,-62.51 106.31,-50.81 86.86,-40.8"/>
<polygon fill="#1414ce" stroke="#1414ce" points="88.39,-37.65 77.9,-36.19 85.19,-43.88 88.39,-37.65"/>
</a>
</g>
</g>
<!-- 9&#45;&gt;6 -->
<g id="edge10" class="edge">
<title>9&#45;&gt;6</title>
<g id="a_edge10"><a xlink:title="include">
<path fill="none" stroke="#1414ce" d="M172.1,-71.7C168.23,-63.73 163.55,-54.1 159.26,-45.26"/>
<polygon fill="#1414ce" stroke="#1414ce" points="162.33,-43.57 154.81,-36.1 156.03,-46.63 162.33,-43.57"/>
</a>
</g>
</g>
<!-- 9&#45;&gt;7 -->
<g id="edge11" class="edge">
<title>9&#45;&gt;7</title>
<g id="a_edge11"><a xlink:title="include">
<path fill="none" stroke="#1414ce" d="M192.86,-71.7C198.73,-63.47 205.87,-53.48 212.34,-44.42"/>
<polygon fill="#1414ce" stroke="#1414ce" points="215.32,-46.28 218.28,-36.1 209.62,-42.21 215.32,-46.28"/>
</a>
</g>
</g>
<!-- 9&#45;&gt;8 -->
<g id="edge12" class="edge">
<title>9&#45;&gt;8</title>
<g id="a_edge12"><a xlink:title="include">
<path fill="none" stroke="#1414ce" d="M213.04,-71.88C231.23,-62.3 254.05,-50.29 273.35,-40.13"/>
<polygon fill="#1414ce" stroke="#1414ce" points="275,-43.22 282.22,-35.47 271.74,-37.03 275,-43.22"/>
</a>
</g>
</g>
</g>
</svg>
