<?xml version="1.0" encoding="UTF-8" standalone="no"?>
<!DOCTYPE svg PUBLIC "-//W3C//DTD SVG 1.1//EN"
 "http://www.w3.org/Graphics/SVG/1.1/DTD/svg11.dtd">
<!-- Generated by graphviz version 2.43.0 (0)
 -->
<!-- Title: %3 Pages: 1 -->
<svg width="455pt" height="260pt"
 viewBox="0.00 0.00 454.50 260.00" xmlns="http://www.w3.org/2000/svg" xmlns:xlink="http://www.w3.org/1999/xlink">
<g id="graph0" class="graph" transform="scale(1 1) rotate(0) translate(4 256)">
<title>%3</title>
<polygon fill="transparent" stroke="transparent" points="-4,4 -4,-256 450.5,-256 450.5,4 -4,4"/>
<!-- 4 -->
<g id="node1" class="node">
<title>4</title>
<g id="a_node1"><a xlink:title="src/o3ds/model.cpp">
<polygon fill="#ffffff" stroke="black" points="446.5,-36 291.5,-36 291.5,0 446.5,0 446.5,-36"/>
<text text-anchor="middle" x="369" y="-14.3" font-family="Times,serif" font-size="14.00">src/o3ds/model.cpp</text>
</a>
</g>
</g>
<!-- 2 -->
<g id="node2" class="node">
<title>2</title>
<g id="a_node2"><a xlink:title="src/o3ds/math.cpp">
<polygon fill="#ffffff" stroke="black" points="148,-180 0,-180 0,-144 148,-144 148,-180"/>
<text text-anchor="middle" x="74" y="-158.3" font-family="Times,serif" font-size="14.00">src/o3ds/math.cpp</text>
</a>
</g>
</g>
<!-- 1 -->
<g id="node3" class="node">
<title>1</title>
<g id="a_node3"><a xlink:title="src/o3ds/math.h">
<polygon fill="#bfbfbf" stroke="black" points="357.5,-252 226.5,-252 226.5,-216 357.5,-216 357.5,-252"/>
<text text-anchor="middle" x="292" y="-230.3" font-family="Times,serif" font-size="14.00">src/o3ds/math.h</text>
</a>
</g>
</g>
<!-- 1&#45;&gt;2 -->
<g id="edge1" class="edge">
<title>1&#45;&gt;2</title>
<g id="a_edge1"><a xlink:title="include">
<path fill="none" stroke="#1414ce" d="M229.17,-212.83C196.92,-202.47 158.05,-189.99 127.29,-180.11"/>
<polygon fill="#1414ce" stroke="#1414ce" points="228.36,-216.24 238.95,-215.97 230.5,-209.58 228.36,-216.24"/>
</a>
</g>
</g>
<!-- 1&#45;&gt;1 -->
<g id="edge2" class="edge">
<title>1&#45;&gt;1</title>
<g id="a_edge2"><a xlink:title="include">
<path fill="none" stroke="#1414ce" d="M367.67,-243.57C372.55,-241.33 375.5,-238.14 375.5,-234 375.5,-227.53 368.31,-223.39 357.81,-221.57"/>
<polygon fill="#1414ce" stroke="#1414ce" points="366.44,-240.28 357.81,-246.43 368.39,-247.01 366.44,-240.28"/>
</a>
</g>
</g>
<!-- 5 -->
<g id="node4" class="node">
<title>5</title>
<g id="a_node4"><a xlink:title="src/o3ds/transform_component.h">
<polygon fill="#ffffff" stroke="black" points="417.5,-180 166.5,-180 166.5,-144 417.5,-144 417.5,-180"/>
<text text-anchor="middle" x="292" y="-158.3" font-family="Times,serif" font-size="14.00">src/o3ds/transform_component.h</text>
</a>
</g>
</g>
<!-- 1&#45;&gt;5 -->
<g id="edge4" class="edge">
<title>1&#45;&gt;5</title>
<g id="a_edge4"><a xlink:title="include">
<path fill="none" stroke="#1414ce" d="M292,-205.67C292,-197.05 292,-187.79 292,-180.1"/>
<polygon fill="#1414ce" stroke="#1414ce" points="288.5,-205.7 292,-215.7 295.5,-205.7 288.5,-205.7"/>
</a>
</g>
</g>
<!-- 3 -->
<g id="node5" class="node">
<title>3</title>
<g id="a_node5"><a xlink:title="src/o3ds/model.h">
<polygon fill="#ffffff" stroke="black" points="438,-108 300,-108 300,-72 438,-72 438,-108"/>
<text text-anchor="middle" x="369" y="-86.3" font-family="Times,serif" font-size="14.00">src/o3ds/model.h</text>
</a>
</g>
</g>
<!-- 1&#45;&gt;3 -->
<g id="edge3" class="edge">
<title>1&#45;&gt;3</title>
<g id="a_edge3"><a xlink:title="include">
<path fill="none" stroke="#1414ce" d="M367.53,-220.45C390.47,-212.71 413.23,-200.21 427,-180 436.01,-166.78 433.45,-158.64 427,-144 420.62,-129.52 408.11,-117.28 396.34,-108.23"/>
<polygon fill="#1414ce" stroke="#1414ce" points="366.24,-217.18 357.72,-223.48 368.3,-223.87 366.24,-217.18"/>
</a>
</g>
</g>
<!-- 5&#45;&gt;3 -->
<g id="edge5" class="edge">
<title>5&#45;&gt;3</title>
<g id="a_edge5"><a xlink:title="include">
<path fill="none" stroke="#1414ce" d="M318.67,-136.76C329.05,-127.32 340.71,-116.72 350.19,-108.1"/>
<polygon fill="#1414ce" stroke="#1414ce" points="316.08,-134.38 311.03,-143.7 320.79,-139.56 316.08,-134.38"/>
</a>
</g>
</g>
<!-- 3&#45;&gt;4 -->
<g id="edge6" class="edge">
<title>3&#45;&gt;4</title>
<g id="a_edge6"><a xlink:title="include">
<path fill="none" stroke="#1414ce" d="M369,-61.67C369,-53.05 369,-43.79 369,-36.1"/>
<polygon fill="#1414ce" stroke="#1414ce" points="365.5,-61.7 369,-71.7 372.5,-61.7 365.5,-61.7"/>
</a>
</g>
</g>
</g>
</svg>
