<?xml version="1.0" encoding="UTF-8" standalone="no"?>
<!DOCTYPE svg PUBLIC "-//W3C//DTD SVG 1.1//EN"
 "http://www.w3.org/Graphics/SVG/1.1/DTD/svg11.dtd">
<!-- Generated by graphviz version 2.43.0 (0)
 -->
<!-- Title: %3 Pages: 1 -->
<svg width="816pt" height="332pt"
 viewBox="0.00 0.00 815.50 332.00" xmlns="http://www.w3.org/2000/svg" xmlns:xlink="http://www.w3.org/1999/xlink">
<g id="graph0" class="graph" transform="scale(1 1) rotate(0) translate(4 328)">
<title>%3</title>
<polygon fill="transparent" stroke="transparent" points="-4,4 -4,-328 811.5,-328 811.5,4 -4,4"/>
<!-- 3 -->
<g id="node1" class="node">
<title>3</title>
<g id="a_node1"><a xlink:title="stdlib.h">
<polygon fill="#ffffff" stroke="black" points="71,-252 0,-252 0,-216 71,-216 71,-252"/>
<text text-anchor="middle" x="35.5" y="-230.3" font-family="Times,serif" font-size="14.00">stdlib.h</text>
</a>
</g>
</g>
<!-- 10 -->
<g id="node2" class="node">
<title>10</title>
<g id="a_node2"><a xlink:title="nng/protocol/pubsub0/sub.h">
<polygon fill="#ffffff" stroke="black" points="807.5,-180 591.5,-180 591.5,-144 807.5,-144 807.5,-180"/>
<text text-anchor="middle" x="699.5" y="-158.3" font-family="Times,serif" font-size="14.00">nng/protocol/pubsub0/sub.h</text>
</a>
</g>
</g>
<!-- 8 -->
<g id="node3" class="node">
<title>8</title>
<g id="a_node3"><a xlink:title="nng/nng.h">
<polygon fill="#ffffff" stroke="black" points="410,-36 321,-36 321,0 410,0 410,-36"/>
<text text-anchor="middle" x="365.5" y="-14.3" font-family="Times,serif" font-size="14.00">nng/nng.h</text>
</a>
</g>
</g>
<!-- 6 -->
<g id="node4" class="node">
<title>6</title>
<g id="a_node4"><a xlink:title="string">
<polygon fill="#ffffff" stroke="black" points="176,-36 117,-36 117,0 176,0 176,-36"/>
<text text-anchor="middle" x="146.5" y="-14.3" font-family="Times,serif" font-size="14.00">string</text>
</a>
</g>
</g>
<!-- 4 -->
<g id="node5" class="node">
<title>4</title>
<g id="a_node5"><a xlink:title="string.h">
<polygon fill="#ffffff" stroke="black" points="528,-252 455,-252 455,-216 528,-216 528,-252"/>
<text text-anchor="middle" x="491.5" y="-230.3" font-family="Times,serif" font-size="14.00">string.h</text>
</a>
</g>
</g>
<!-- 12 -->
<g id="node6" class="node">
<title>12</title>
<g id="a_node6"><a xlink:title="vector">
<polygon fill="#ffffff" stroke="black" points="489.5,-36 427.5,-36 427.5,0 489.5,0 489.5,-36"/>
<text text-anchor="middle" x="458.5" y="-14.3" font-family="Times,serif" font-size="14.00">vector</text>
</a>
</g>
</g>
<!-- 9 -->
<g id="node7" class="node">
<title>9</title>
<g id="a_node7"><a xlink:title="nng/protocol/pubsub0/pub.h">
<polygon fill="#ffffff" stroke="black" points="497.5,-180 279.5,-180 279.5,-144 497.5,-144 497.5,-180"/>
<text text-anchor="middle" x="388.5" y="-158.3" font-family="Times,serif" font-size="14.00">nng/protocol/pubsub0/pub.h</text>
</a>
</g>
</g>
<!-- 7 -->
<g id="node8" class="node">
<title>7</title>
<g id="a_node8"><a xlink:title="publisher.h">
<polygon fill="#ffffff" stroke="black" points="436.5,-252 340.5,-252 340.5,-216 436.5,-216 436.5,-252"/>
<text text-anchor="middle" x="388.5" y="-230.3" font-family="Times,serif" font-size="14.00">publisher.h</text>
</a>
</g>
</g>
<!-- 7&#45;&gt;10 -->
<g id="edge3" class="edge">
<title>7&#45;&gt;10</title>
<g id="a_edge3"><a xlink:title="include">
<path fill="none" stroke="#1414ce" d="M436.53,-218.61C439.89,-217.7 443.24,-216.82 446.5,-216 496.69,-203.41 552.99,-191.41 599.71,-182.02"/>
<polygon fill="#1414ce" stroke="#1414ce" points="600.41,-185.45 609.53,-180.06 599.04,-178.59 600.41,-185.45"/>
</a>
</g>
</g>
<!-- 7&#45;&gt;8 -->
<g id="edge1" class="edge">
<title>7&#45;&gt;8</title>
<g id="a_edge1"><a xlink:title="include">
<path fill="none" stroke="#1414ce" d="M436.51,-217.43C465.42,-206.98 498.2,-192.82 506.5,-180 515.19,-166.57 513.06,-158.59 506.5,-144 486.05,-98.54 439.99,-62.91 406.05,-41.51"/>
<polygon fill="#1414ce" stroke="#1414ce" points="407.62,-38.37 397.27,-36.12 403.96,-44.34 407.62,-38.37"/>
</a>
</g>
</g>
<!-- 7&#45;&gt;12 -->
<g id="edge5" class="edge">
<title>7&#45;&gt;12</title>
<g id="a_edge5"><a xlink:title="include">
<path fill="none" stroke="#1414ce" d="M436.78,-216.87C473.02,-204.28 517.28,-187.68 522.5,-180 552.12,-136.43 511.25,-77.11 482.48,-43.99"/>
<polygon fill="#1414ce" stroke="#1414ce" points="484.75,-41.28 475.48,-36.16 479.53,-45.95 484.75,-41.28"/>
</a>
</g>
</g>
<!-- 7&#45;&gt;9 -->
<g id="edge2" class="edge">
<title>7&#45;&gt;9</title>
<g id="a_edge2"><a xlink:title="include">
<path fill="none" stroke="#1414ce" d="M388.5,-215.7C388.5,-207.98 388.5,-198.71 388.5,-190.11"/>
<polygon fill="#1414ce" stroke="#1414ce" points="392,-190.1 388.5,-180.1 385,-190.1 392,-190.1"/>
</a>
</g>
</g>
<!-- 11 -->
<g id="node11" class="node">
<title>11</title>
<g id="a_node11"><a xlink:title="nng_connector.h">
<polygon fill="#ffffff" stroke="black" points="261,-180 128,-180 128,-144 261,-144 261,-180"/>
<text text-anchor="middle" x="194.5" y="-158.3" font-family="Times,serif" font-size="14.00">nng_connector.h</text>
</a>
</g>
</g>
<!-- 7&#45;&gt;11 -->
<g id="edge4" class="edge">
<title>7&#45;&gt;11</title>
<g id="a_edge4"><a xlink:title="include">
<path fill="none" stroke="#1414ce" d="M341.04,-215.88C313.93,-206.09 279.76,-193.77 251.24,-183.47"/>
<polygon fill="#1414ce" stroke="#1414ce" points="252.4,-180.17 241.8,-180.07 250.02,-186.75 252.4,-180.17"/>
</a>
</g>
</g>
<!-- 5 -->
<g id="node9" class="node">
<title>5</title>
<g id="a_node9"><a xlink:title="time.h">
<polygon fill="#ffffff" stroke="black" points="608.5,-252 546.5,-252 546.5,-216 608.5,-216 608.5,-252"/>
<text text-anchor="middle" x="577.5" y="-230.3" font-family="Times,serif" font-size="14.00">time.h</text>
</a>
</g>
</g>
<!-- 1 -->
<g id="node10" class="node">
<title>1</title>
<g id="a_node10"><a xlink:title="src/o3ds/publisher.cpp">
<polygon fill="#bfbfbf" stroke="black" points="528,-324 351,-324 351,-288 528,-288 528,-324"/>
<text text-anchor="middle" x="439.5" y="-302.3" font-family="Times,serif" font-size="14.00">src/o3ds/publisher.cpp</text>
</a>
</g>
</g>
<!-- 1&#45;&gt;3 -->
<g id="edge7" class="edge">
<title>1&#45;&gt;3</title>
<g id="a_edge7"><a xlink:title="include">
<path fill="none" stroke="#1414ce" d="M350.64,-296.16C278.52,-287.93 174.57,-273.63 85.5,-252 84.02,-251.64 82.53,-251.26 81.03,-250.86"/>
<polygon fill="#1414ce" stroke="#1414ce" points="81.63,-247.39 71.05,-247.95 79.67,-254.11 81.63,-247.39"/>
</a>
</g>
</g>
<!-- 1&#45;&gt;6 -->
<g id="edge10" class="edge">
<title>1&#45;&gt;6</title>
<g id="a_edge10"><a xlink:title="include">
<path fill="none" stroke="#1414ce" d="M350.88,-297.32C275.06,-285.53 170.23,-255.66 118.5,-180 90.54,-139.11 113.74,-79.11 131.32,-45.09"/>
<polygon fill="#1414ce" stroke="#1414ce" points="134.44,-46.68 136.09,-36.22 128.27,-43.37 134.44,-46.68"/>
</a>
</g>
</g>
<!-- 1&#45;&gt;4 -->
<g id="edge8" class="edge">
<title>1&#45;&gt;4</title>
<g id="a_edge8"><a xlink:title="include">
<path fill="none" stroke="#1414ce" d="M452.35,-287.7C458.53,-279.39 466.04,-269.28 472.82,-260.14"/>
<polygon fill="#1414ce" stroke="#1414ce" points="475.64,-262.22 478.79,-252.1 470.02,-258.04 475.64,-262.22"/>
</a>
</g>
</g>
<!-- 1&#45;&gt;7 -->
<g id="edge11" class="edge">
<title>1&#45;&gt;7</title>
<g id="a_edge11"><a xlink:title="include">
<path fill="none" stroke="#1414ce" d="M426.89,-287.7C420.9,-279.47 413.62,-269.48 407.02,-260.42"/>
<polygon fill="#1414ce" stroke="#1414ce" points="409.68,-258.13 400.96,-252.1 404.02,-262.25 409.68,-258.13"/>
</a>
</g>
</g>
<!-- 1&#45;&gt;5 -->
<g id="edge9" class="edge">
<title>1&#45;&gt;5</title>
<g id="a_edge9"><a xlink:title="include">
<path fill="none" stroke="#1414ce" d="M473.26,-287.88C492.63,-278.05 517.08,-265.65 537.42,-255.33"/>
<polygon fill="#1414ce" stroke="#1414ce" points="539.11,-258.4 546.45,-250.75 535.95,-252.15 539.11,-258.4"/>
</a>
</g>
</g>
<!-- 2 -->
<g id="node14" class="node">
<title>2</title>
<g id="a_node14"><a xlink:title="stdio.h">
<polygon fill="#ffffff" stroke="black" points="692,-252 627,-252 627,-216 692,-216 692,-252"/>
<text text-anchor="middle" x="659.5" y="-230.3" font-family="Times,serif" font-size="14.00">stdio.h</text>
</a>
</g>
</g>
<!-- 1&#45;&gt;2 -->
<g id="edge6" class="edge">
<title>1&#45;&gt;2</title>
<g id="a_edge6"><a xlink:title="include">
<path fill="none" stroke="#1414ce" d="M502.16,-287.92C534.13,-278.84 573.76,-267.02 617.02,-252.02"/>
<polygon fill="#1414ce" stroke="#1414ce" points="618.32,-255.27 626.6,-248.66 616,-248.66 618.32,-255.27"/>
</a>
</g>
</g>
<!-- 11&#45;&gt;8 -->
<g id="edge16" class="edge">
<title>11&#45;&gt;8</title>
<g id="a_edge16"><a xlink:title="include">
<path fill="none" stroke="#1414ce" d="M260.45,-143.93C304.27,-131.94 354.93,-116.57 361.5,-108 374.84,-90.6 374.63,-65.18 371.79,-45.96"/>
<polygon fill="#1414ce" stroke="#1414ce" points="375.22,-45.24 370.01,-36.01 368.33,-46.47 375.22,-45.24"/>
</a>
</g>
</g>
<!-- 11&#45;&gt;6 -->
<g id="edge12" class="edge">
<title>11&#45;&gt;6</title>
<g id="a_edge12"><a xlink:title="include">
<path fill="none" stroke="#1414ce" d="M185.77,-143.63C180.86,-133.42 174.86,-120.17 170.5,-108 163.18,-87.6 156.89,-63.88 152.59,-46.06"/>
<polygon fill="#1414ce" stroke="#1414ce" points="155.99,-45.25 150.29,-36.32 149.18,-46.85 155.99,-45.25"/>
</a>
</g>
</g>
<!-- 11&#45;&gt;12 -->
<g id="edge13" class="edge">
<title>11&#45;&gt;12</title>
<g id="a_edge13"><a xlink:title="include">
<path fill="none" stroke="#1414ce" d="M261.27,-146.19C306.11,-135.45 360.5,-120.66 380.5,-108 406.21,-91.73 428.27,-64.5 442.31,-44.44"/>
<polygon fill="#1414ce" stroke="#1414ce" points="445.28,-46.3 448,-36.06 439.48,-42.36 445.28,-46.3"/>
</a>
</g>
</g>
<!-- 13 -->
<g id="node12" class="node">
<title>13</title>
<g id="a_node12"><a xlink:title="mutex">
<polygon fill="#ffffff" stroke="black" points="287.5,-36 225.5,-36 225.5,0 287.5,0 287.5,-36"/>
<text text-anchor="middle" x="256.5" y="-14.3" font-family="Times,serif" font-size="14.00">mutex</text>
</a>
</g>
</g>
<!-- 11&#45;&gt;13 -->
<g id="edge14" class="edge">
<title>11&#45;&gt;13</title>
<g id="a_edge14"><a xlink:title="include">
<path fill="none" stroke="#1414ce" d="M193.2,-143.7C192.53,-125.08 193.55,-95.03 204.5,-72 209.64,-61.2 217.89,-51.26 226.31,-42.98"/>
<polygon fill="#1414ce" stroke="#1414ce" points="228.73,-45.51 233.69,-36.15 223.97,-40.38 228.73,-45.51"/>
</a>
</g>
</g>
<!-- 14 -->
<g id="node13" class="node">
<title>14</title>
<g id="a_node13"><a xlink:title="base_connector.h">
<polygon fill="#ffffff" stroke="black" points="352,-108 213,-108 213,-72 352,-72 352,-108"/>
<text text-anchor="middle" x="282.5" y="-86.3" font-family="Times,serif" font-size="14.00">base_connector.h</text>
</a>
</g>
</g>
<!-- 11&#45;&gt;14 -->
<g id="edge15" class="edge">
<title>11&#45;&gt;14</title>
<g id="a_edge15"><a xlink:title="include">
<path fill="none" stroke="#1414ce" d="M216.25,-143.7C227.34,-134.88 240.97,-124.03 252.99,-114.47"/>
<polygon fill="#1414ce" stroke="#1414ce" points="255.35,-117.07 261,-108.1 250.99,-111.59 255.35,-117.07"/>
</a>
</g>
</g>
<!-- 14&#45;&gt;8 -->
<g id="edge20" class="edge">
<title>14&#45;&gt;8</title>
<g id="a_edge20"><a xlink:title="include">
<path fill="none" stroke="#1414ce" d="M303.02,-71.7C313.37,-62.97 326.09,-52.24 337.34,-42.75"/>
<polygon fill="#1414ce" stroke="#1414ce" points="339.83,-45.23 345.22,-36.1 335.32,-39.88 339.83,-45.23"/>
</a>
</g>
</g>
<!-- 14&#45;&gt;6 -->
<g id="edge17" class="edge">
<title>14&#45;&gt;6</title>
<g id="a_edge17"><a xlink:title="include">
<path fill="none" stroke="#1414ce" d="M249.23,-71.88C229.86,-61.91 205.36,-49.29 185.14,-38.89"/>
<polygon fill="#1414ce" stroke="#1414ce" points="186.68,-35.74 176.19,-34.28 183.48,-41.97 186.68,-35.74"/>
</a>
</g>
</g>
<!-- 14&#45;&gt;12 -->
<g id="edge18" class="edge">
<title>14&#45;&gt;12</title>
<g id="a_edge18"><a xlink:title="include">
<path fill="none" stroke="#1414ce" d="M328.04,-71.93C352.6,-62.6 383.6,-50.62 418.13,-36.5"/>
<polygon fill="#1414ce" stroke="#1414ce" points="419.55,-39.7 427.47,-32.67 416.89,-33.23 419.55,-39.7"/>
</a>
</g>
</g>
<!-- 14&#45;&gt;13 -->
<g id="edge19" class="edge">
<title>14&#45;&gt;13</title>
<g id="a_edge19"><a xlink:title="include">
<path fill="none" stroke="#1414ce" d="M276.07,-71.7C273.14,-63.81 269.61,-54.3 266.36,-45.55"/>
<polygon fill="#1414ce" stroke="#1414ce" points="269.62,-44.26 262.85,-36.1 263.05,-46.7 269.62,-44.26"/>
</a>
</g>
</g>
</g>
</svg>
