<?xml version="1.0" encoding="UTF-8" standalone="no"?>
<!DOCTYPE svg PUBLIC "-//W3C//DTD SVG 1.1//EN"
 "http://www.w3.org/Graphics/SVG/1.1/DTD/svg11.dtd">
<!-- Generated by graphviz version 2.43.0 (0)
 -->
<!-- Title: %3 Pages: 1 -->
<svg width="410pt" height="260pt"
 viewBox="0.00 0.00 409.50 260.00" xmlns="http://www.w3.org/2000/svg" xmlns:xlink="http://www.w3.org/1999/xlink">
<g id="graph0" class="graph" transform="scale(1 1) rotate(0) translate(4 256)">
<title>%3</title>
<polygon fill="transparent" stroke="transparent" points="-4,4 -4,-256 405.5,-256 405.5,4 -4,4"/>
<!-- 1 -->
<g id="node1" class="node">
<title>1</title>
<g id="a_node1"><a xlink:title="src/o3ds/request.h">
<polygon fill="#bfbfbf" stroke="black" points="149,-252 0,-252 0,-216 149,-216 149,-252"/>
<text text-anchor="middle" x="74.5" y="-230.3" font-family="Times,serif" font-size="14.00">src/o3ds/request.h</text>
</a>
</g>
</g>
<!-- 2 -->
<g id="node2" class="node">
<title>2</title>
<g id="a_node2"><a xlink:title="nng/nng.h">
<polygon fill="#ffffff" stroke="black" points="112,-36 23,-36 23,0 112,0 112,-36"/>
<text text-anchor="middle" x="67.5" y="-14.3" font-family="Times,serif" font-size="14.00">nng/nng.h</text>
</a>
</g>
</g>
<!-- 1&#45;&gt;2 -->
<g id="edge1" class="edge">
<title>1&#45;&gt;2</title>
<g id="a_edge1"><a xlink:title="include">
<path fill="none" stroke="#1414ce" d="M68.68,-215.56C65.57,-205.33 62.07,-192.08 60.5,-180 54.32,-132.4 57.35,-119.9 60.5,-72 61.06,-63.53 62.11,-54.36 63.23,-46.06"/>
<polygon fill="#1414ce" stroke="#1414ce" points="66.7,-46.53 64.66,-36.13 59.77,-45.53 66.7,-46.53"/>
</a>
</g>
</g>
<!-- 4 -->
<g id="node3" class="node">
<title>4</title>
<g id="a_node3"><a xlink:title="string">
<polygon fill="#ffffff" stroke="black" points="189,-36 130,-36 130,0 189,0 189,-36"/>
<text text-anchor="middle" x="159.5" y="-14.3" font-family="Times,serif" font-size="14.00">string</text>
</a>
</g>
</g>
<!-- 1&#45;&gt;4 -->
<g id="edge3" class="edge">
<title>1&#45;&gt;4</title>
<g id="a_edge3"><a xlink:title="include">
<path fill="none" stroke="#1414ce" d="M81.31,-215.85C96.11,-178.6 131.27,-90.07 148.96,-45.54"/>
<polygon fill="#1414ce" stroke="#1414ce" points="152.22,-46.82 152.66,-36.23 145.71,-44.23 152.22,-46.82"/>
</a>
</g>
</g>
<!-- 3 -->
<g id="node5" class="node">
<title>3</title>
<g id="a_node5"><a xlink:title="nng_connector.h">
<polygon fill="#ffffff" stroke="black" points="275,-180 142,-180 142,-144 275,-144 275,-180"/>
<text text-anchor="middle" x="208.5" y="-158.3" font-family="Times,serif" font-size="14.00">nng_connector.h</text>
</a>
</g>
</g>
<!-- 1&#45;&gt;3 -->
<g id="edge2" class="edge">
<title>1&#45;&gt;3</title>
<g id="a_edge2"><a xlink:title="include">
<path fill="none" stroke="#1414ce" d="M107.28,-215.88C125.13,-206.55 147.4,-194.92 166.5,-184.94"/>
<polygon fill="#1414ce" stroke="#1414ce" points="168.35,-187.92 175.59,-180.19 165.11,-181.72 168.35,-187.92"/>
</a>
</g>
</g>
<!-- 5 -->
<g id="node4" class="node">
<title>5</title>
<g id="a_node4"><a xlink:title="vector">
<polygon fill="#ffffff" stroke="black" points="293.5,-36 231.5,-36 231.5,0 293.5,0 293.5,-36"/>
<text text-anchor="middle" x="262.5" y="-14.3" font-family="Times,serif" font-size="14.00">vector</text>
</a>
</g>
</g>
<!-- 3&#45;&gt;2 -->
<g id="edge8" class="edge">
<title>3&#45;&gt;2</title>
<g id="a_edge8"><a xlink:title="include">
<path fill="none" stroke="#1414ce" d="M191.49,-143.87C166.61,-118.82 120.18,-72.05 91.73,-43.41"/>
<polygon fill="#1414ce" stroke="#1414ce" points="94.1,-40.82 84.57,-36.19 89.13,-45.75 94.1,-40.82"/>
</a>
</g>
</g>
<!-- 3&#45;&gt;4 -->
<g id="edge4" class="edge">
<title>3&#45;&gt;4</title>
<g id="a_edge4"><a xlink:title="include">
<path fill="none" stroke="#1414ce" d="M192.21,-143.78C183.98,-134.04 174.66,-121.19 169.5,-108 161.77,-88.24 159.44,-64.26 158.95,-46.17"/>
<polygon fill="#1414ce" stroke="#1414ce" points="162.44,-45.99 158.84,-36.02 155.44,-46.06 162.44,-45.99"/>
</a>
</g>
</g>
<!-- 3&#45;&gt;5 -->
<g id="edge5" class="edge">
<title>3&#45;&gt;5</title>
<g id="a_edge5"><a xlink:title="include">
<path fill="none" stroke="#1414ce" d="M275.05,-146.48C295.37,-138.59 315.49,-126.49 327.5,-108 336.21,-94.58 334.36,-86.45 327.5,-72 321.88,-60.17 312.19,-50.11 301.97,-42.03"/>
<polygon fill="#1414ce" stroke="#1414ce" points="303.87,-39.09 293.74,-35.99 299.73,-44.73 303.87,-39.09"/>
</a>
</g>
</g>
<!-- 6 -->
<g id="node6" class="node">
<title>6</title>
<g id="a_node6"><a xlink:title="mutex">
<polygon fill="#ffffff" stroke="black" points="401.5,-36 339.5,-36 339.5,0 401.5,0 401.5,-36"/>
<text text-anchor="middle" x="370.5" y="-14.3" font-family="Times,serif" font-size="14.00">mutex</text>
</a>
</g>
</g>
<!-- 3&#45;&gt;6 -->
<g id="edge6" class="edge">
<title>3&#45;&gt;6</title>
<g id="a_edge6"><a xlink:title="include">
<path fill="none" stroke="#1414ce" d="M275.28,-147.71C299.63,-139.83 325.56,-127.42 343.5,-108 359.03,-91.18 365.64,-65.7 368.45,-46.31"/>
<polygon fill="#1414ce" stroke="#1414ce" points="371.94,-46.6 369.65,-36.25 364.98,-45.77 371.94,-46.6"/>
</a>
</g>
</g>
<!-- 7 -->
<g id="node7" class="node">
<title>7</title>
<g id="a_node7"><a xlink:title="base_connector.h">
<polygon fill="#ffffff" stroke="black" points="318,-108 179,-108 179,-72 318,-72 318,-108"/>
<text text-anchor="middle" x="248.5" y="-86.3" font-family="Times,serif" font-size="14.00">base_connector.h</text>
</a>
</g>
</g>
<!-- 3&#45;&gt;7 -->
<g id="edge7" class="edge">
<title>3&#45;&gt;7</title>
<g id="a_edge7"><a xlink:title="include">
<path fill="none" stroke="#1414ce" d="M218.39,-143.7C222.99,-135.64 228.56,-125.89 233.65,-116.98"/>
<polygon fill="#1414ce" stroke="#1414ce" points="236.8,-118.52 238.73,-108.1 230.73,-115.05 236.8,-118.52"/>
</a>
</g>
</g>
<!-- 7&#45;&gt;2 -->
<g id="edge12" class="edge">
<title>7&#45;&gt;2</title>
<g id="a_edge12"><a xlink:title="include">
<path fill="none" stroke="#1414ce" d="M204.22,-71.88C179.15,-62.18 147.6,-49.98 121.13,-39.74"/>
<polygon fill="#1414ce" stroke="#1414ce" points="122.22,-36.41 111.63,-36.07 119.7,-42.94 122.22,-36.41"/>
</a>
</g>
</g>
<!-- 7&#45;&gt;4 -->
<g id="edge9" class="edge">
<title>7&#45;&gt;4</title>
<g id="a_edge9"><a xlink:title="include">
<path fill="none" stroke="#1414ce" d="M226.5,-71.7C215.29,-62.88 201.5,-52.03 189.35,-42.47"/>
<polygon fill="#1414ce" stroke="#1414ce" points="191.27,-39.54 181.25,-36.1 186.94,-45.04 191.27,-39.54"/>
</a>
</g>
</g>
<!-- 7&#45;&gt;5 -->
<g id="edge10" class="edge">
<title>7&#45;&gt;5</title>
<g id="a_edge10"><a xlink:title="include">
<path fill="none" stroke="#1414ce" d="M251.96,-71.7C253.5,-63.98 255.36,-54.71 257.08,-46.11"/>
<polygon fill="#1414ce" stroke="#1414ce" points="260.55,-46.6 259.08,-36.1 253.69,-45.22 260.55,-46.6"/>
</a>
</g>
</g>
<!-- 7&#45;&gt;6 -->
<g id="edge11" class="edge">
<title>7&#45;&gt;6</title>
<g id="a_edge11"><a xlink:title="include">
<path fill="none" stroke="#1414ce" d="M278.34,-71.88C294.44,-62.64 314.5,-51.13 331.79,-41.21"/>
<polygon fill="#1414ce" stroke="#1414ce" points="333.61,-44.2 340.54,-36.19 330.13,-38.13 333.61,-44.2"/>
</a>
</g>
</g>
</g>
</svg>
