<?xml version="1.0" encoding="UTF-8" standalone="no"?>
<!DOCTYPE svg PUBLIC "-//W3C//DTD SVG 1.1//EN"
 "http://www.w3.org/Graphics/SVG/1.1/DTD/svg11.dtd">
<!-- Generated by graphviz version 2.43.0 (0)
 -->
<!-- Title: %3 Pages: 1 -->
<svg width="352pt" height="116pt"
 viewBox="0.00 0.00 351.50 116.00" xmlns="http://www.w3.org/2000/svg" xmlns:xlink="http://www.w3.org/1999/xlink">
<g id="graph0" class="graph" transform="scale(1 1) rotate(0) translate(4 112)">
<title>%3</title>
<polygon fill="transparent" stroke="transparent" points="-4,4 -4,-112 347.5,-112 347.5,4 -4,4"/>
<!-- 2 -->
<g id="node1" class="node">
<title>2</title>
<g id="a_node1"><a xlink:title="src/o3ds/getTime.cpp">
<polygon fill="#ffffff" stroke="black" points="170,-36 0,-36 0,0 170,0 170,-36"/>
<text text-anchor="middle" x="85" y="-14.3" font-family="Times,serif" font-size="14.00">src/o3ds/getTime.cpp</text>
</a>
</g>
</g>
<!-- 1 -->
<g id="node2" class="node">
<title>1</title>
<g id="a_node2"><a xlink:title="src/o3ds/getTime.h">
<polygon fill="#bfbfbf" stroke="black" points="251.5,-108 98.5,-108 98.5,-72 251.5,-72 251.5,-108"/>
<text text-anchor="middle" x="175" y="-86.3" font-family="Times,serif" font-size="14.00">src/o3ds/getTime.h</text>
</a>
</g>
</g>
<!-- 1&#45;&gt;2 -->
<g id="edge1" class="edge">
<title>1&#45;&gt;2</title>
<g id="a_edge1"><a xlink:title="include">
<path fill="none" stroke="#1414ce" d="M144.54,-65.31C132.23,-55.73 118.29,-44.89 106.99,-36.1"/>
<polygon fill="#1414ce" stroke="#1414ce" points="142.71,-68.32 152.75,-71.7 147.01,-62.79 142.71,-68.32"/>
</a>
</g>
</g>
<!-- 3 -->
<g id="node3" class="node">
<title>3</title>
<g id="a_node3"><a xlink:title="src/o3ds/model.cpp">
<polygon fill="#ffffff" stroke="black" points="343.5,-36 188.5,-36 188.5,0 343.5,0 343.5,-36"/>
<text text-anchor="middle" x="266" y="-14.3" font-family="Times,serif" font-size="14.00">src/o3ds/model.cpp</text>
</a>
</g>
</g>
<!-- 1&#45;&gt;3 -->
<g id="edge2" class="edge">
<title>1&#45;&gt;3</title>
<g id="a_edge2"><a xlink:title="include">
<path fill="none" stroke="#1414ce" d="M205.44,-65.59C217.98,-55.94 232.23,-44.97 243.76,-36.1"/>
<polygon fill="#1414ce" stroke="#1414ce" points="203.29,-62.83 197.49,-71.7 207.55,-68.37 203.29,-62.83"/>
</a>
</g>
</g>
</g>
</svg>
