<?xml version="1.0" encoding="UTF-8" standalone="no"?>
<!DOCTYPE svg PUBLIC "-//W3C//DTD SVG 1.1//EN"
 "http://www.w3.org/Graphics/SVG/1.1/DTD/svg11.dtd">
<!-- Generated by graphviz version 2.43.0 (0)
 -->
<!-- Title: %3 Pages: 1 -->
<svg width="467pt" height="188pt"
 viewBox="0.00 0.00 467.00 188.00" xmlns="http://www.w3.org/2000/svg" xmlns:xlink="http://www.w3.org/1999/xlink">
<g id="graph0" class="graph" transform="scale(1 1) rotate(0) translate(4 184)">
<title>%3</title>
<polygon fill="transparent" stroke="transparent" points="-4,4 -4,-184 463,-184 463,4 -4,4"/>
<!-- 2 -->
<g id="node1" class="node">
<title>2</title>
<g id="a_node1"><a xlink:title="O3DS::Connector">
<polygon fill="#ffffff" stroke="black" points="149.5,-108 9.5,-108 9.5,-72 149.5,-72 149.5,-108"/>
<text text-anchor="middle" x="79.5" y="-86.3" font-family="Times,serif" font-size="14.00">O3DS::Connector</text>
</a>
</g>
</g>
<!-- 4 -->
<g id="node3" class="node">
<title>4</title>
<g id="a_node3"><a xlink:title="string">
<polygon fill="#ffffff" stroke="black" points="59,-36 0,-36 0,0 59,0 59,-36"/>
<text text-anchor="middle" x="29.5" y="-14.3" font-family="Times,serif" font-size="14.00">string</text>
</a>
</g>
</g>
<!-- 2&#45;&gt;4 -->
<g id="edge2" class="edge">
<title>2&#45;&gt;4</title>
<g id="a_edge2"><a xlink:title="usage">
<path fill="none" stroke="#1414ce" d="M67.14,-71.7C61.27,-63.47 54.13,-53.48 47.66,-44.42"/>
<polygon fill="#1414ce" stroke="#1414ce" points="50.38,-42.21 41.72,-36.1 44.68,-46.28 50.38,-42.21"/>
</a>
</g>
</g>
<!-- 3 -->
<g id="node5" class="node">
<title>3</title>
<g id="a_node5"><a xlink:title="enum eState">
<polygon fill="#ffffff" stroke="black" points="184,-36 77,-36 77,0 184,0 184,-36"/>
<text text-anchor="middle" x="130.5" y="-14.3" font-family="Times,serif" font-size="14.00">enum eState</text>
</a>
</g>
</g>
<!-- 2&#45;&gt;3 -->
<g id="edge1" class="edge">
<title>2&#45;&gt;3</title>
<g id="a_edge1"><a xlink:title="usage">
<path fill="none" stroke="#1414ce" d="M92.11,-71.7C98.1,-63.47 105.38,-53.48 111.98,-44.42"/>
<polygon fill="#1414ce" stroke="#1414ce" points="114.98,-46.25 118.04,-36.1 109.32,-42.13 114.98,-46.25"/>
</a>
</g>
</g>
<!-- 6 -->
<g id="node2" class="node">
<title>6</title>
<g id="a_node2"><a xlink:title="void *">
<polygon fill="#ffffff" stroke="black" points="225.5,-108 167.5,-108 167.5,-72 225.5,-72 225.5,-108"/>
<text text-anchor="middle" x="196.5" y="-86.3" font-family="Times,serif" font-size="14.00">void *</text>
</a>
</g>
</g>
<!-- 5 -->
<g id="node4" class="node">
<title>5</title>
<g id="a_node4"><a xlink:title="void(*)(void *, void *, size_t)">
<polygon fill="#ffffff" stroke="black" points="459,-108 244,-108 244,-72 459,-72 459,-108"/>
<text text-anchor="middle" x="351.5" y="-86.3" font-family="Times,serif" font-size="14.00">void(*)(void *, void *, size_t)</text>
</a>
</g>
</g>
<!-- 1 -->
<g id="node6" class="node">
<title>1</title>
<g id="a_node6"><a xlink:title="O3DS::AsyncConnector">
<polygon fill="#bfbfbf" stroke="black" points="287.5,-180 105.5,-180 105.5,-144 287.5,-144 287.5,-180"/>
<text text-anchor="middle" x="196.5" y="-158.3" font-family="Times,serif" font-size="14.00">O3DS::AsyncConnector</text>
</a>
</g>
</g>
<!-- 1&#45;&gt;2 -->
<g id="edge3" class="edge">
<title>1&#45;&gt;2</title>
<g id="a_edge3"><a xlink:title="public&#45;inheritance">
<path fill="none" stroke="#1414ce" d="M167.88,-143.88C152.58,-134.72 133.56,-123.34 117.08,-113.48"/>
<polygon fill="#1414ce" stroke="#1414ce" points="118.61,-110.32 108.23,-108.19 115.02,-116.33 118.61,-110.32"/>
</a>
</g>
</g>
<!-- 1&#45;&gt;6 -->
<g id="edge5" class="edge">
<title>1&#45;&gt;6</title>
<g id="a_edge5"><a xlink:title="usage">
<path fill="none" stroke="#1414ce" d="M196.5,-143.7C196.5,-135.98 196.5,-126.71 196.5,-118.11"/>
<polygon fill="#1414ce" stroke="#1414ce" points="200,-118.1 196.5,-108.1 193,-118.1 200,-118.1"/>
</a>
</g>
</g>
<!-- 1&#45;&gt;5 -->
<g id="edge4" class="edge">
<title>1&#45;&gt;5</title>
<g id="a_edge4"><a xlink:title="usage">
<path fill="none" stroke="#1414ce" d="M234.42,-143.88C255.51,-134.35 281.96,-122.41 304.37,-112.28"/>
<polygon fill="#1414ce" stroke="#1414ce" points="306.03,-115.37 313.71,-108.07 303.15,-108.99 306.03,-115.37"/>
</a>
</g>
</g>
</g>
</svg>
