<?xml version="1.0" encoding="UTF-8" standalone="no"?>
<!DOCTYPE svg PUBLIC "-//W3C//DTD SVG 1.1//EN"
 "http://www.w3.org/Graphics/SVG/1.1/DTD/svg11.dtd">
<!-- Generated by graphviz version 2.43.0 (0)
 -->
<!-- Title: %3 Pages: 1 -->
<svg width="445pt" height="188pt"
 viewBox="0.00 0.00 444.50 188.00" xmlns="http://www.w3.org/2000/svg" xmlns:xlink="http://www.w3.org/1999/xlink">
<g id="graph0" class="graph" transform="scale(1 1) rotate(0) translate(4 184)">
<title>%3</title>
<polygon fill="transparent" stroke="transparent" points="-4,4 -4,-184 440.5,-184 440.5,4 -4,4"/>
<!-- 3 -->
<g id="node1" class="node">
<title>3</title>
<g id="a_node1"><a xlink:title="O3DS::Matrix&lt; double &gt;">
<polygon fill="#ffffff" stroke="black" points="196,-108 0,-108 0,-72 196,-72 196,-108"/>
<text text-anchor="middle" x="98" y="-86.3" font-family="Times,serif" font-size="14.00">O3DS::Matrix&lt; double &gt;</text>
</a>
</g>
</g>
<!-- 4 -->
<g id="node3" class="node">
<title>4</title>
<g id="a_node3"><a xlink:title="double">
<polygon fill="#ffffff" stroke="black" points="130.5,-36 65.5,-36 65.5,0 130.5,0 130.5,-36"/>
<text text-anchor="middle" x="98" y="-14.3" font-family="Times,serif" font-size="14.00">double</text>
</a>
</g>
</g>
<!-- 3&#45;&gt;4 -->
<g id="edge1" class="edge">
<title>3&#45;&gt;4</title>
<g id="a_edge1"><a xlink:title="usage">
<path fill="none" stroke="#1414ce" d="M98,-71.7C98,-63.98 98,-54.71 98,-46.11"/>
<polygon fill="#1414ce" stroke="#1414ce" points="101.5,-46.1 98,-36.1 94.5,-46.1 101.5,-46.1"/>
</a>
</g>
</g>
<!-- 2 -->
<g id="node2" class="node">
<title>2</title>
<g id="a_node2"><a xlink:title="O3DS::TransformComponent">
<polygon fill="#ffffff" stroke="black" points="436.5,-108 213.5,-108 213.5,-72 436.5,-72 436.5,-108"/>
<text text-anchor="middle" x="325" y="-86.3" font-family="Times,serif" font-size="14.00">O3DS::TransformComponent</text>
</a>
</g>
</g>
<!-- 1 -->
<g id="node4" class="node">
<title>1</title>
<g id="a_node4"><a xlink:title="O3DS::TransformMatrix">
<polygon fill="#bfbfbf" stroke="black" points="305.5,-180 116.5,-180 116.5,-144 305.5,-144 305.5,-180"/>
<text text-anchor="middle" x="211" y="-158.3" font-family="Times,serif" font-size="14.00">O3DS::TransformMatrix</text>
</a>
</g>
</g>
<!-- 1&#45;&gt;3 -->
<g id="edge3" class="edge">
<title>1&#45;&gt;3</title>
<g id="a_edge3"><a xlink:title="usage">
<path fill="none" stroke="#1414ce" d="M183.36,-143.88C168.58,-134.72 150.21,-123.34 134.3,-113.48"/>
<polygon fill="#1414ce" stroke="#1414ce" points="136.09,-110.48 125.75,-108.19 132.41,-116.43 136.09,-110.48"/>
</a>
</g>
</g>
<!-- 1&#45;&gt;2 -->
<g id="edge2" class="edge">
<title>1&#45;&gt;2</title>
<g id="a_edge2"><a xlink:title="public&#45;inheritance">
<path fill="none" stroke="#1414ce" d="M238.89,-143.88C253.79,-134.72 272.33,-123.34 288.38,-113.48"/>
<polygon fill="#1414ce" stroke="#1414ce" points="290.31,-116.41 297.01,-108.19 286.65,-110.44 290.31,-116.41"/>
</a>
</g>
</g>
</g>
</svg>
