<?xml version="1.0" encoding="UTF-8" standalone="no"?>
<!DOCTYPE svg PUBLIC "-//W3C//DTD SVG 1.1//EN"
 "http://www.w3.org/Graphics/SVG/1.1/DTD/svg11.dtd">
<!-- Generated by graphviz version 2.43.0 (0)
 -->
<!-- Title: %3 Pages: 1 -->
<svg width="344pt" height="188pt"
 viewBox="0.00 0.00 343.50 188.00" xmlns="http://www.w3.org/2000/svg" xmlns:xlink="http://www.w3.org/1999/xlink">
<g id="graph0" class="graph" transform="scale(1 1) rotate(0) translate(4 184)">
<title>%3</title>
<polygon fill="transparent" stroke="transparent" points="-4,4 -4,-184 339.5,-184 339.5,4 -4,4"/>
<!-- 6 -->
<g id="node1" class="node">
<title>6</title>
<g id="a_node1"><a xlink:title="nng/nng.h">
<polygon fill="#ffffff" stroke="black" points="89,-36 0,-36 0,0 89,0 89,-36"/>
<text text-anchor="middle" x="44.5" y="-14.3" font-family="Times,serif" font-size="14.00">nng/nng.h</text>
</a>
</g>
</g>
<!-- 2 -->
<g id="node2" class="node">
<title>2</title>
<g id="a_node2"><a xlink:title="string">
<polygon fill="#ffffff" stroke="black" points="171,-36 112,-36 112,0 171,0 171,-36"/>
<text text-anchor="middle" x="141.5" y="-14.3" font-family="Times,serif" font-size="14.00">string</text>
</a>
</g>
</g>
<!-- 3 -->
<g id="node3" class="node">
<title>3</title>
<g id="a_node3"><a xlink:title="vector">
<polygon fill="#ffffff" stroke="black" points="254.5,-36 192.5,-36 192.5,0 254.5,0 254.5,-36"/>
<text text-anchor="middle" x="223.5" y="-14.3" font-family="Times,serif" font-size="14.00">vector</text>
</a>
</g>
</g>
<!-- 1 -->
<g id="node4" class="node">
<title>1</title>
<g id="a_node4"><a xlink:title="src/o3ds/nng_connector.h">
<polygon fill="#bfbfbf" stroke="black" points="269,-180 72,-180 72,-144 269,-144 269,-180"/>
<text text-anchor="middle" x="170.5" y="-158.3" font-family="Times,serif" font-size="14.00">src/o3ds/nng_connector.h</text>
</a>
</g>
</g>
<!-- 1&#45;&gt;6 -->
<g id="edge5" class="edge">
<title>1&#45;&gt;6</title>
<g id="a_edge5"><a xlink:title="include">
<path fill="none" stroke="#1414ce" d="M130.74,-143.86C114.1,-135.1 95.61,-123.07 82.5,-108 66.96,-90.14 57.01,-64.98 51.21,-45.96"/>
<polygon fill="#1414ce" stroke="#1414ce" points="54.51,-44.77 48.41,-36.12 47.78,-46.69 54.51,-44.77"/>
</a>
</g>
</g>
<!-- 1&#45;&gt;2 -->
<g id="edge1" class="edge">
<title>1&#45;&gt;2</title>
<g id="a_edge1"><a xlink:title="include">
<path fill="none" stroke="#1414ce" d="M129.82,-143.88C114.98,-135.41 99.82,-123.59 91.5,-108 83.97,-93.88 85.59,-86.87 91.5,-72 95.79,-61.2 103.44,-51.32 111.49,-43.1"/>
<polygon fill="#1414ce" stroke="#1414ce" points="114.08,-45.47 118.9,-36.04 109.25,-40.4 114.08,-45.47"/>
</a>
</g>
</g>
<!-- 1&#45;&gt;3 -->
<g id="edge2" class="edge">
<title>1&#45;&gt;3</title>
<g id="a_edge2"><a xlink:title="include">
<path fill="none" stroke="#1414ce" d="M211.18,-143.88C226.02,-135.41 241.18,-123.59 249.5,-108 260.13,-88.07 251.3,-63.26 241.15,-44.9"/>
<polygon fill="#1414ce" stroke="#1414ce" points="244.09,-43 235.97,-36.2 238.08,-46.58 244.09,-43"/>
</a>
</g>
</g>
<!-- 4 -->
<g id="node5" class="node">
<title>4</title>
<g id="a_node5"><a xlink:title="mutex">
<polygon fill="#ffffff" stroke="black" points="335.5,-36 273.5,-36 273.5,0 335.5,0 335.5,-36"/>
<text text-anchor="middle" x="304.5" y="-14.3" font-family="Times,serif" font-size="14.00">mutex</text>
</a>
</g>
</g>
<!-- 1&#45;&gt;4 -->
<g id="edge3" class="edge">
<title>1&#45;&gt;4</title>
<g id="a_edge3"><a xlink:title="include">
<path fill="none" stroke="#1414ce" d="M214.32,-143.95C232.03,-135.32 251.53,-123.38 265.5,-108 281.56,-90.32 291.78,-64.98 297.71,-45.86"/>
<polygon fill="#1414ce" stroke="#1414ce" points="301.08,-46.81 300.51,-36.23 294.36,-44.86 301.08,-46.81"/>
</a>
</g>
</g>
<!-- 5 -->
<g id="node6" class="node">
<title>5</title>
<g id="a_node6"><a xlink:title="base_connector.h">
<polygon fill="#ffffff" stroke="black" points="240,-108 101,-108 101,-72 240,-72 240,-108"/>
<text text-anchor="middle" x="170.5" y="-86.3" font-family="Times,serif" font-size="14.00">base_connector.h</text>
</a>
</g>
</g>
<!-- 1&#45;&gt;5 -->
<g id="edge4" class="edge">
<title>1&#45;&gt;5</title>
<g id="a_edge4"><a xlink:title="include">
<path fill="none" stroke="#1414ce" d="M170.5,-143.7C170.5,-135.98 170.5,-126.71 170.5,-118.11"/>
<polygon fill="#1414ce" stroke="#1414ce" points="174,-118.1 170.5,-108.1 167,-118.1 174,-118.1"/>
</a>
</g>
</g>
<!-- 5&#45;&gt;6 -->
<g id="edge9" class="edge">
<title>5&#45;&gt;6</title>
<g id="a_edge9"><a xlink:title="include">
<path fill="none" stroke="#1414ce" d="M139.68,-71.88C123.05,-62.64 102.34,-51.13 84.48,-41.21"/>
<polygon fill="#1414ce" stroke="#1414ce" points="85.88,-37.99 75.44,-36.19 82.48,-44.11 85.88,-37.99"/>
</a>
</g>
</g>
<!-- 5&#45;&gt;2 -->
<g id="edge6" class="edge">
<title>5&#45;&gt;2</title>
<g id="a_edge6"><a xlink:title="include">
<path fill="none" stroke="#1414ce" d="M163.33,-71.7C160.07,-63.81 156.13,-54.3 152.5,-45.55"/>
<polygon fill="#1414ce" stroke="#1414ce" points="155.65,-44 148.59,-36.1 149.18,-46.68 155.65,-44"/>
</a>
</g>
</g>
<!-- 5&#45;&gt;3 -->
<g id="edge7" class="edge">
<title>5&#45;&gt;3</title>
<g id="a_edge7"><a xlink:title="include">
<path fill="none" stroke="#1414ce" d="M183.6,-71.7C189.89,-63.39 197.55,-53.28 204.46,-44.14"/>
<polygon fill="#1414ce" stroke="#1414ce" points="207.3,-46.19 210.55,-36.1 201.72,-41.96 207.3,-46.19"/>
</a>
</g>
</g>
<!-- 5&#45;&gt;4 -->
<g id="edge8" class="edge">
<title>5&#45;&gt;4</title>
<g id="a_edge8"><a xlink:title="include">
<path fill="none" stroke="#1414ce" d="M203.28,-71.88C221.74,-62.23 244.94,-50.11 264.47,-39.91"/>
<polygon fill="#1414ce" stroke="#1414ce" points="266.2,-42.96 273.44,-35.23 262.96,-36.75 266.2,-42.96"/>
</a>
</g>
</g>
</g>
</svg>
