<?xml version="1.0" encoding="UTF-8" standalone="no"?>
<!DOCTYPE svg PUBLIC "-//W3C//DTD SVG 1.1//EN"
 "http://www.w3.org/Graphics/SVG/1.1/DTD/svg11.dtd">
<!-- Generated by graphviz version 2.43.0 (0)
 -->
<!-- Title: %3 Pages: 1 -->
<svg width="259pt" height="116pt"
 viewBox="0.00 0.00 259.00 116.00" xmlns="http://www.w3.org/2000/svg" xmlns:xlink="http://www.w3.org/1999/xlink">
<g id="graph0" class="graph" transform="scale(1 1) rotate(0) translate(4 112)">
<title>%3</title>
<polygon fill="transparent" stroke="transparent" points="-4,4 -4,-112 255,-112 255,4 -4,4"/>
<!-- 2 -->
<g id="node1" class="node">
<title>2</title>
<g id="a_node1"><a xlink:title="o3ds/math.h">
<polygon fill="#ffffff" stroke="black" points="178,-36 73,-36 73,0 178,0 178,-36"/>
<text text-anchor="middle" x="125.5" y="-14.3" font-family="Times,serif" font-size="14.00">o3ds/math.h</text>
</a>
</g>
</g>
<!-- 2&#45;&gt;2 -->
<g id="edge1" class="edge">
<title>2&#45;&gt;2</title>
<g id="a_edge1"><a xlink:title="include">
<path fill="none" stroke="#1414ce" d="M178.08,-30.94C188.54,-29.49 196,-25.17 196,-18 196,-13.41 192.94,-9.98 187.99,-7.73"/>
<polygon fill="#1414ce" stroke="#1414ce" points="188.64,-4.29 178.08,-5.06 186.82,-11.04 188.64,-4.29"/>
</a>
</g>
</g>
<!-- 1 -->
<g id="node2" class="node">
<title>1</title>
<g id="a_node2"><a xlink:title="src/o3ds/transform_component.h">
<polygon fill="#bfbfbf" stroke="black" points="251,-108 0,-108 0,-72 251,-72 251,-108"/>
<text text-anchor="middle" x="125.5" y="-86.3" font-family="Times,serif" font-size="14.00">src/o3ds/transform_component.h</text>
</a>
</g>
</g>
<!-- 1&#45;&gt;2 -->
<g id="edge2" class="edge">
<title>1&#45;&gt;2</title>
<g id="a_edge2"><a xlink:title="include">
<path fill="none" stroke="#1414ce" d="M125.5,-71.7C125.5,-63.98 125.5,-54.71 125.5,-46.11"/>
<polygon fill="#1414ce" stroke="#1414ce" points="129,-46.1 125.5,-36.1 122,-46.1 129,-46.1"/>
</a>
</g>
</g>
</g>
</svg>
