<?xml version="1.0" encoding="UTF-8" standalone="no"?>
<!DOCTYPE svg PUBLIC "-//W3C//DTD SVG 1.1//EN"
 "http://www.w3.org/Graphics/SVG/1.1/DTD/svg11.dtd">
<!-- Generated by graphviz version 2.43.0 (0)
 -->
<!-- Title: %3 Pages: 1 -->
<svg width="471pt" height="332pt"
 viewBox="0.00 0.00 471.00 332.00" xmlns="http://www.w3.org/2000/svg" xmlns:xlink="http://www.w3.org/1999/xlink">
<g id="graph0" class="graph" transform="scale(1 1) rotate(0) translate(4 328)">
<title>%3</title>
<polygon fill="transparent" stroke="transparent" points="-4,4 -4,-328 467,-328 467,4 -4,4"/>
<!-- 1 -->
<g id="node1" class="node">
<title>1</title>
<g id="a_node1"><a xlink:title="src/o3ds/async_publisher.cpp">
<polygon fill="#bfbfbf" stroke="black" points="224,-324 0,-324 0,-288 224,-288 224,-324"/>
<text text-anchor="middle" x="112" y="-302.3" font-family="Times,serif" font-size="14.00">src/o3ds/async_publisher.cpp</text>
</a>
</g>
</g>
<!-- 2 -->
<g id="node6" class="node">
<title>2</title>
<g id="a_node6"><a xlink:title="o3ds/async_publisher.h">
<polygon fill="#ffffff" stroke="black" points="203,-252 21,-252 21,-216 203,-216 203,-252"/>
<text text-anchor="middle" x="112" y="-230.3" font-family="Times,serif" font-size="14.00">o3ds/async_publisher.h</text>
</a>
</g>
</g>
<!-- 1&#45;&gt;2 -->
<g id="edge1" class="edge">
<title>1&#45;&gt;2</title>
<g id="a_edge1"><a xlink:title="include">
<path fill="none" stroke="#1414ce" d="M112,-287.7C112,-279.98 112,-270.71 112,-262.11"/>
<polygon fill="#1414ce" stroke="#1414ce" points="115.5,-262.1 112,-252.1 108.5,-262.1 115.5,-262.1"/>
</a>
</g>
</g>
<!-- 3 -->
<g id="node2" class="node">
<title>3</title>
<g id="a_node2"><a xlink:title="nng/nng.h">
<polygon fill="#ffffff" stroke="black" points="108.5,-36 19.5,-36 19.5,0 108.5,0 108.5,-36"/>
<text text-anchor="middle" x="64" y="-14.3" font-family="Times,serif" font-size="14.00">nng/nng.h</text>
</a>
</g>
</g>
<!-- 6 -->
<g id="node3" class="node">
<title>6</title>
<g id="a_node3"><a xlink:title="string">
<polygon fill="#ffffff" stroke="black" points="389.5,-36 330.5,-36 330.5,0 389.5,0 389.5,-36"/>
<text text-anchor="middle" x="360" y="-14.3" font-family="Times,serif" font-size="14.00">string</text>
</a>
</g>
</g>
<!-- 7 -->
<g id="node4" class="node">
<title>7</title>
<g id="a_node4"><a xlink:title="vector">
<polygon fill="#ffffff" stroke="black" points="188,-36 126,-36 126,0 188,0 188,-36"/>
<text text-anchor="middle" x="157" y="-14.3" font-family="Times,serif" font-size="14.00">vector</text>
</a>
</g>
</g>
<!-- 4 -->
<g id="node5" class="node">
<title>4</title>
<g id="a_node5"><a xlink:title="nng/protocol/pubsub0/pub.h">
<polygon fill="#ffffff" stroke="black" points="463,-180 245,-180 245,-144 463,-144 463,-180"/>
<text text-anchor="middle" x="354" y="-158.3" font-family="Times,serif" font-size="14.00">nng/protocol/pubsub0/pub.h</text>
</a>
</g>
</g>
<!-- 2&#45;&gt;3 -->
<g id="edge2" class="edge">
<title>2&#45;&gt;3</title>
<g id="a_edge2"><a xlink:title="include">
<path fill="none" stroke="#1414ce" d="M97.24,-215.57C89.81,-205.76 81.46,-192.93 77,-180 61.48,-134.98 60.83,-78.85 62.15,-46.16"/>
<polygon fill="#1414ce" stroke="#1414ce" points="65.65,-46.18 62.65,-36.02 58.66,-45.83 65.65,-46.18"/>
</a>
</g>
</g>
<!-- 2&#45;&gt;7 -->
<g id="edge5" class="edge">
<title>2&#45;&gt;7</title>
<g id="a_edge5"><a xlink:title="include">
<path fill="none" stroke="#1414ce" d="M100.11,-215.72C93.99,-205.76 87.16,-192.73 84,-180 80.15,-164.47 79.82,-159.44 84,-144 94.17,-106.41 118.78,-68.52 136.62,-44.47"/>
<polygon fill="#1414ce" stroke="#1414ce" points="139.59,-46.35 142.84,-36.27 134.01,-42.12 139.59,-46.35"/>
</a>
</g>
</g>
<!-- 2&#45;&gt;4 -->
<g id="edge3" class="edge">
<title>2&#45;&gt;4</title>
<g id="a_edge3"><a xlink:title="include">
<path fill="none" stroke="#1414ce" d="M170.89,-215.97C205.29,-206.01 248.88,-193.41 284.9,-182.99"/>
<polygon fill="#1414ce" stroke="#1414ce" points="286.21,-186.25 294.85,-180.11 284.27,-179.53 286.21,-186.25"/>
</a>
</g>
</g>
<!-- 5 -->
<g id="node7" class="node">
<title>5</title>
<g id="a_node7"><a xlink:title="nng_connector.h">
<polygon fill="#ffffff" stroke="black" points="226.5,-180 93.5,-180 93.5,-144 226.5,-144 226.5,-180"/>
<text text-anchor="middle" x="160" y="-158.3" font-family="Times,serif" font-size="14.00">nng_connector.h</text>
</a>
</g>
</g>
<!-- 2&#45;&gt;5 -->
<g id="edge4" class="edge">
<title>2&#45;&gt;5</title>
<g id="a_edge4"><a xlink:title="include">
<path fill="none" stroke="#1414ce" d="M123.87,-215.7C129.5,-207.47 136.35,-197.48 142.57,-188.42"/>
<polygon fill="#1414ce" stroke="#1414ce" points="145.5,-190.33 148.27,-180.1 139.73,-186.37 145.5,-190.33"/>
</a>
</g>
</g>
<!-- 5&#45;&gt;3 -->
<g id="edge10" class="edge">
<title>5&#45;&gt;3</title>
<g id="a_edge10"><a xlink:title="include">
<path fill="none" stroke="#1414ce" d="M148.42,-143.87C131.7,-119.14 100.67,-73.24 81.25,-44.51"/>
<polygon fill="#1414ce" stroke="#1414ce" points="84.12,-42.51 75.62,-36.19 78.32,-46.43 84.12,-42.51"/>
</a>
</g>
</g>
<!-- 5&#45;&gt;6 -->
<g id="edge6" class="edge">
<title>5&#45;&gt;6</title>
<g id="a_edge6"><a xlink:title="include">
<path fill="none" stroke="#1414ce" d="M226.59,-144.13C272.63,-131.91 327,-116.16 335,-108 351.02,-91.65 356.95,-65.91 359.06,-46.3"/>
<polygon fill="#1414ce" stroke="#1414ce" points="362.56,-46.39 359.88,-36.14 355.59,-45.82 362.56,-46.39"/>
</a>
</g>
</g>
<!-- 5&#45;&gt;7 -->
<g id="edge7" class="edge">
<title>5&#45;&gt;7</title>
<g id="a_edge7"><a xlink:title="include">
<path fill="none" stroke="#1414ce" d="M159.64,-143.87C159.13,-119.67 158.19,-75.21 157.58,-46.39"/>
<polygon fill="#1414ce" stroke="#1414ce" points="161.07,-46.11 157.36,-36.19 154.08,-46.26 161.07,-46.11"/>
</a>
</g>
</g>
<!-- 8 -->
<g id="node8" class="node">
<title>8</title>
<g id="a_node8"><a xlink:title="mutex">
<polygon fill="#ffffff" stroke="black" points="284,-36 222,-36 222,0 284,0 284,-36"/>
<text text-anchor="middle" x="253" y="-14.3" font-family="Times,serif" font-size="14.00">mutex</text>
</a>
</g>
</g>
<!-- 5&#45;&gt;8 -->
<g id="edge8" class="edge">
<title>5&#45;&gt;8</title>
<g id="a_edge8"><a xlink:title="include">
<path fill="none" stroke="#1414ce" d="M222.08,-143.92C263.71,-131.84 311.98,-116.37 318,-108 327.34,-95.01 324.86,-86.45 318,-72 312.38,-60.17 302.69,-50.11 292.47,-42.03"/>
<polygon fill="#1414ce" stroke="#1414ce" points="294.37,-39.09 284.24,-35.99 290.23,-44.73 294.37,-39.09"/>
</a>
</g>
</g>
<!-- 9 -->
<g id="node9" class="node">
<title>9</title>
<g id="a_node9"><a xlink:title="base_connector.h">
<polygon fill="#ffffff" stroke="black" points="308.5,-108 169.5,-108 169.5,-72 308.5,-72 308.5,-108"/>
<text text-anchor="middle" x="239" y="-86.3" font-family="Times,serif" font-size="14.00">base_connector.h</text>
</a>
</g>
</g>
<!-- 5&#45;&gt;9 -->
<g id="edge9" class="edge">
<title>5&#45;&gt;9</title>
<g id="a_edge9"><a xlink:title="include">
<path fill="none" stroke="#1414ce" d="M179.53,-143.7C189.38,-134.97 201.49,-124.24 212.2,-114.75"/>
<polygon fill="#1414ce" stroke="#1414ce" points="214.53,-117.36 219.7,-108.1 209.89,-112.12 214.53,-117.36"/>
</a>
</g>
</g>
<!-- 9&#45;&gt;3 -->
<g id="edge14" class="edge">
<title>9&#45;&gt;3</title>
<g id="a_edge14"><a xlink:title="include">
<path fill="none" stroke="#1414ce" d="M196.19,-71.88C172.05,-62.22 141.72,-50.09 116.19,-39.88"/>
<polygon fill="#1414ce" stroke="#1414ce" points="117.26,-36.53 106.67,-36.07 114.66,-43.03 117.26,-36.53"/>
</a>
</g>
</g>
<!-- 9&#45;&gt;6 -->
<g id="edge11" class="edge">
<title>9&#45;&gt;6</title>
<g id="a_edge11"><a xlink:title="include">
<path fill="none" stroke="#1414ce" d="M268.6,-71.88C284.57,-62.64 304.46,-51.13 321.61,-41.21"/>
<polygon fill="#1414ce" stroke="#1414ce" points="323.38,-44.23 330.29,-36.19 319.88,-38.17 323.38,-44.23"/>
</a>
</g>
</g>
<!-- 9&#45;&gt;7 -->
<g id="edge12" class="edge">
<title>9&#45;&gt;7</title>
<g id="a_edge12"><a xlink:title="include">
<path fill="none" stroke="#1414ce" d="M218.73,-71.7C208.5,-62.97 195.94,-52.24 184.82,-42.75"/>
<polygon fill="#1414ce" stroke="#1414ce" points="186.91,-39.94 177.04,-36.1 182.37,-45.26 186.91,-39.94"/>
</a>
</g>
</g>
<!-- 9&#45;&gt;8 -->
<g id="edge13" class="edge">
<title>9&#45;&gt;8</title>
<g id="a_edge13"><a xlink:title="include">
<path fill="none" stroke="#1414ce" d="M242.46,-71.7C244,-63.98 245.86,-54.71 247.58,-46.11"/>
<polygon fill="#1414ce" stroke="#1414ce" points="251.05,-46.6 249.58,-36.1 244.19,-45.22 251.05,-46.6"/>
</a>
</g>
</g>
</g>
</svg>
